<?xml version="1.0" encoding="utf-8"?>
<!-- Generator: Adobe Illustrator 22.0.1, SVG Export Plug-In . SVG Version: 6.00 Build 0)  -->
<svg version="1.1" id="Слой_1" xmlns="http://www.w3.org/2000/svg" xmlns:xlink="http://www.w3.org/1999/xlink" x="0px" y="0px"
	 viewBox="0 0 564.3 186.2" style="enable-background:new 0 0 564.3 186.2;" xml:space="preserve">
<style type="text/css">
	.st0{fill-rule:evenodd;clip-rule:evenodd;fill:#B3DFD9;}
	.st1{fill-rule:evenodd;clip-rule:evenodd;fill:#F26846;}
	.st2{fill-rule:evenodd;clip-rule:evenodd;fill:#00B0B8;}
	.st3{fill-rule:evenodd;clip-rule:evenodd;fill:#07959C;}
	.st4{fill-rule:evenodd;clip-rule:evenodd;fill:#7EB9B6;}
	.st5{fill-rule:evenodd;clip-rule:evenodd;fill:#9ED8D6;}
	.st6{fill-rule:evenodd;clip-rule:evenodd;fill:#BEE5EA;}
	.st7{fill-rule:evenodd;clip-rule:evenodd;fill:#EBF7FC;}
	.st8{fill-rule:evenodd;clip-rule:evenodd;fill:#19303B;}
	.st9{fill-rule:evenodd;clip-rule:evenodd;fill:#101C24;}
	.st10{fill-rule:evenodd;clip-rule:evenodd;fill:#FFDBA7;}
	.st11{fill-rule:evenodd;clip-rule:evenodd;fill:#242329;}
	.st12{fill-rule:evenodd;clip-rule:evenodd;fill:#ECF7FB;}
	.st13{fill-rule:evenodd;clip-rule:evenodd;fill:#F04D27;}
	.st14{fill-rule:evenodd;clip-rule:evenodd;fill:#2D4C60;}
	.st15{fill-rule:evenodd;clip-rule:evenodd;fill:#C6E8EB;}
	.st16{fill-rule:evenodd;clip-rule:evenodd;fill:#19B0BF;}
	.st17{fill-rule:evenodd;clip-rule:evenodd;fill:#FCC015;}
	.st18{fill-rule:evenodd;clip-rule:evenodd;fill:#048990;}
	.st19{fill-rule:evenodd;clip-rule:evenodd;fill:#055D5E;}
	.st20{fill-rule:evenodd;clip-rule:evenodd;fill:#037A77;}
</style>
<rect class="st0" width="564.3" height="186.2"/>
<path class="st1" d="M412.6,100.9v63.8h-45.9v-63.8H412.6L412.6,100.9z M243.4,49.3l14.8-30.6h47.9l14.8,30.6h-4.1l-13.3-26.2h-42.6
	l-13.3,26.2H243.4L243.4,49.3z M331,49.3l-3.1-6.1h40.8L358.6,8.1H205.7l-10.1,35.1h40.8l-3.1,6.1h-31v115.4h41.8h76.1H362V49.3H331
	L331,49.3z M328.7,66.2h26.7v26h-26.7V66.2L328.7,66.2z M211.9,118.3h26.7v26h-26.7V118.3L211.9,118.3z M211.9,66.2h26.7v26h-26.7
	V66.2L211.9,66.2z M267.2,76.1h33.1v32.3h-33.1V76.1L267.2,76.1z M267.2,122.4h33.1v32.3h-33.1V122.4L267.2,122.4z M328.7,118.3
	h26.7v26h-26.7V118.3L328.7,118.3z M298.9,49.3V32.9h-30.2v16.4v13h30.2V49.3L298.9,49.3z M150.2,94.3l17.7-27.6h29.8v27.6H150.2
	L150.2,94.3z M366.6,94.3V66.7h29.8l17.7,27.6H366.6L366.6,94.3z M161.9,117.5h26.7v26h-26.7V117.5L161.9,117.5z M375.7,117.5v26
	h26.7v-26H375.7L375.7,117.5z M197.7,164.7h-45.9v-63.8h45.9V164.7z"/>
<g>
	<g>
		<polygon class="st2" points="366,130.9 369.1,129.6 373.3,130.9 377.4,129.6 382,130.9 386.6,129.6 390.7,130.9 394.9,129.6 
			398,130.9 406.7,161.8 400.8,160.2 394.4,161.8 388.3,160.2 382,161.8 375.7,160.2 369.5,161.8 363.2,160.2 357.3,161.8 		"/>
		<g>
			<polygon class="st3" points="394.9,129.6 398,130.9 406.7,161.8 400.8,160.2 			"/>
			<polygon class="st3" points="386.6,129.6 390.7,130.9 394.4,161.8 388.3,160.2 			"/>
			<polygon class="st3" points="377.4,129.6 382,130.9 382,161.8 375.7,160.2 			"/>
			<polygon class="st3" points="369.1,129.6 373.3,130.9 369.5,161.8 363.2,160.2 			"/>
		</g>
		<polygon class="st4" points="404.2,156 398.7,151.1 393,149.5 392.8,149.5 387.4,145.8 381.9,146.1 381.7,146.1 381.6,145.9 
			376.4,141.9 372,140.9 367.8,136.2 367.7,136.1 366.4,132.5 366.6,131.5 367,131.3 368.4,135.3 372.3,139.8 376.8,140.8 
			382.1,145 387.5,144.6 392.8,148.3 398.9,150 398.9,150 403.8,154.4 		"/>
		<path class="st5" d="M399.1,151.5l-0.4-0.4l-5.7-1.5l-0.2-1.2l0,0l6,1.7L399.1,151.5L399.1,151.5z M387.5,145.8L387.5,145.8
			l-5.5,0.2v-1.2l0.1,0.1l5.3-0.3L387.5,145.8L387.5,145.8z M376.7,142.1l-0.3-0.2l-4.3-1l0.1-1.2l0.1,0.1l4.5,1.1L376.7,142.1
			L376.7,142.1z M367.8,136.3L367.8,136.3l-0.1-0.1l-1.3-3.7l0.2-0.9l0.4-0.2l1.1,3.1L367.8,136.3z"/>
		<polygon class="st4" points="372.1,140.3 365.1,150.4 359.6,160.3 358.5,160.6 359.1,158.3 365.7,146.6 371,139.5 		"/>
		<polygon class="st5" points="365,150.5 359.6,160.3 358.5,160.6 359.1,158.3 365.8,146.5 		"/>
	</g>
	<path class="st6" d="M382,114.7c7.6,0,13.8,6.2,13.8,13.8c0,2.1-1,5.5-2.5,9.3c-3.3,8.5-9,16.3-11.3,21.2
		c-2.3-4.9-8-12.9-11.3-21.5c-1.4-3.7-2.4-7-2.4-9.1C368.2,120.9,374.4,114.7,382,114.7z"/>
	<path class="st7" d="M382,140.7c6.7,0,12.2-5.5,12.2-12.2c0-6.7-5.5-12.2-12.2-12.2c-6.7,0-12.2,5.5-12.2,12.2
		C369.8,135.2,375.3,140.7,382,140.7z"/>
	<path class="st2" d="M383.5,119.5h1.6v1.3l-1.6-1.1V119.5L383.5,119.5z M385,128.2H379v-2h6.1V128.2L385,128.2z M379,128.7h6.1v3.3
		H379V128.7L379,128.7z M373.7,124.6l0.9,1.6l7.4-4.8l7.4,4.8l0.9-1.6l-8.3-5.4L373.7,124.6L373.7,124.6z M388.8,135.2h-13.6v-1.3
		h13.6V135.2L388.8,135.2z M375.3,126.2v7.2h13.3v-7.2l-6.6-4.3L375.3,126.2z"/>
</g>
<g>
	<path class="st1" d="M169.6,40c0.5,0.1,1,0.4,1.5,0.6l0.8-0.8l2.9,2.9l-0.8,0.8c0.3,0.5,0.5,1,0.6,1.5h1.1V49h-1.1
		c-0.1,0.5-0.4,1-0.6,1.5l0.8,0.8l-2.9,2.9l-0.8-0.8c-0.5,0.3-0.9,0.5-1.5,0.6V55h-4.1v-1.1c-0.5-0.2-1-0.4-1.5-0.6l-0.8,0.8
		l-2.9-2.9l0.8-0.8c-0.3-0.5-0.5-0.9-0.6-1.5h-1.1v-4.1h1.1c0.1-0.5,0.4-1,0.6-1.5l-0.8-0.8l2.9-2.9l0.8,0.8
		c0.5-0.3,0.9-0.5,1.5-0.6v-1.1h4.1V40L169.6,40z M167.6,41.3c-3.1,0-5.6,2.5-5.6,5.6c0,3.1,2.5,5.6,5.6,5.6c3.1,0,5.6-2.5,5.6-5.6
		C173.2,43.8,170.7,41.3,167.6,41.3z"/>
	<path class="st1" d="M171.8,31.9c0.3,0.1,0.5,0.2,0.7,0.3l0.4-0.4l1.4,1.4l-0.4,0.4c0.1,0.2,0.2,0.5,0.3,0.7h0.6v2h-0.6
		c-0.1,0.3-0.2,0.5-0.3,0.7l0.4,0.4L173,39l-0.4-0.4c-0.2,0.1-0.5,0.2-0.7,0.3v0.6h-2v-0.6c-0.3-0.1-0.5-0.2-0.7-0.3l-0.4,0.4
		l-1.4-1.4l0.4-0.4c-0.1-0.2-0.2-0.5-0.3-0.7h-0.6v-2h0.6c0.1-0.3,0.2-0.5,0.3-0.7l-0.4-0.4l1.4-1.4l0.4,0.4
		c0.2-0.1,0.5-0.2,0.7-0.3v-0.6h2V31.9L171.8,31.9z M170.8,32.6c-1.6,0-2.8,1.3-2.8,2.8s1.3,2.8,2.8,2.8c1.6,0,2.8-1.3,2.8-2.8
		S172.4,32.6,170.8,32.6z"/>
	<path class="st1" d="M156.1,38.4c0.4,0.1,0.7,0.2,1,0.4l0.6-0.6l2,2l-0.6,0.6c0.2,0.3,0.3,0.7,0.4,1h0.8v2.8h-0.8
		c-0.1,0.4-0.2,0.7-0.4,1l0.6,0.6l-2,2l-0.6-0.6c-0.3,0.2-0.7,0.3-1,0.4v0.8h-2.8v-0.8c-0.4-0.1-0.7-0.2-1-0.4l-0.6,0.6l-2-2
		l0.6-0.6c-0.2-0.3-0.3-0.7-0.4-1H149v-2.8h0.8c0.1-0.4,0.2-0.7,0.4-1l-0.6-0.6l2-2l0.6,0.6c0.3-0.2,0.7-0.3,1-0.4v-0.8h2.8V38.4
		L156.1,38.4z M154.7,39.3c-2.2,0-3.9,1.8-3.9,3.9c0,2.2,1.8,3.9,3.9,3.9s3.9-1.8,3.9-3.9C158.6,41.1,156.9,39.3,154.7,39.3z"/>
</g>
<g>
	<polygon class="st8" points="188,116.9 199.2,116.9 201.7,170 190.5,170 	"/>
	<path class="st9" d="M193,132h7l1,20.6H193c-1.4,0-2.5-1.4-2.5-2.8v-15.3C190.5,133.1,191.6,132,193,132z"/>
	<path class="st8" d="M186.7,69.6h1.3c4.4,0,8,3.6,8,8v4.1c0,4.4-3.8-4.3-8.2-4.3h-1.3c-4.4,0-7.7,8.6-7.7,4.3v-4.1
		C178.7,73.2,182.3,69.6,186.7,69.6z"/>
	<path class="st10" d="M172.7,90.4l10.4-0.9l8.7,0l10.2,1c0.7,0.1,0.2,1.9,0,3.9l-2.8,22l0.3,11.5c0.1,2-1.5,3.7-3.3,3.7h-17.5
		c-1.8,0-3.4-1.7-3.3-3.7l0.3-11.5l-2.8-23.2C172.5,91.1,172,91.2,172.7,90.4z"/>
	<rect x="183" y="80.1" class="st6" width="8.7" height="14.5"/>
	<path class="st11" d="M199.1,116.3l0.3,11.5c0.1,2-1.5,3.7-3.3,3.7h-17.5c-1.8,0-3.4-1.7-3.3-3.7l0.3-11.5L199.1,116.3z"/>
	<polygon class="st8" points="175.4,116.9 186.7,116.9 184.2,170 172.9,170 	"/>
	<path class="st9" d="M178.6,162L178.6,162c3.1,0,5.6,2.5,5.6,5.6v2.5h-11.2v-2.5C172.9,164.5,175.5,162,178.6,162z"/>
	<g>
		<polygon class="st9" points="175.4,116.9 186.7,116.9 185.9,134.2 174.6,134.2 		"/>
		<polygon class="st9" points="188,116.9 199.2,116.9 200.1,134.2 188.8,134.2 		"/>
	</g>
	<path class="st8" d="M172.5,90.2l9.3-0.8l0.1,8.3l5.4,16l5.4-16l0.1-8.3l9.3,0.8c0.3,0.4,0.1,0.9-0.1,2.9l-2.6,22.2l0.9,17.4
		c-9.2,0.2-16.8,0.2-26,0l0.9-17.4l-2.6-22.2C172.4,91.1,171.7,90.4,172.5,90.2z"/>
	<path class="st9" d="M196.1,162L196.1,162c3.1,0,5.6,2.5,5.6,5.6v2.5h-11.2v-2.5C190.5,164.5,193,162,196.1,162z"/>
	<path class="st12" d="M186.8,70.3h1.2c4,0,7.4,3.3,7.4,7.4v3.7c0,4-3.3,7.4-7.4,7.4h-1.2c-4,0-7.4-3.3-7.4-7.4v-3.7
		C179.4,73.7,182.7,70.3,186.8,70.3z"/>
	<path class="st8" d="M186.7,69.6h1.3c4.4,0,8,3.6,8,8v4.1c-1.6-2-0.5-7.3-3.6-8.2c-2.5,2.4-6.7,3.4-9.9,0.3
		c-4.4,2.2-1.2,4.2-3.7,7.9v-4.1C178.7,73.2,182.3,69.6,186.7,69.6z"/>
	<path class="st8" d="M175.9,102.8l-0.6,13.6l-7.2-3.8l2.8-19.1c0.2-1.3,0.5-2.9,1.5-3.1L175.9,102.8z"/>
	<polygon class="st3" points="188.2,91.1 185.9,91 182.2,89.8 181.2,90.6 183.8,107 187.4,114.7 192.3,100.4 193.6,93.9 193.3,89.9 
		190.1,90.5 	"/>
	<polygon class="st13" points="185.2,91.1 189.5,91.1 188.8,95.1 185.8,95.1 	"/>
	<polygon class="st13" points="185.2,99.3 186.9,114.3 187.8,114.3 189.5,99.3 188.8,95.1 185.8,95.1 	"/>
	<polygon class="st14" points="187.3,114 192.2,97.4 192.6,89.4 195.5,89.4 195.8,95.8 193.9,97.3 194.7,100.4 187.3,116.2 	"/>
	<polygon class="st14" points="187.3,114 182.5,97.4 182,89.4 179.2,89.4 178.8,95.8 180.8,97.3 179.9,100.4 187.3,116.2 	"/>
	<polygon class="st2" points="191.8,89.2 187.3,90.9 191,94.7 193.3,89.6 	"/>
	<polygon class="st2" points="182.9,89.2 187.3,90.9 183.9,94.7 181.4,89.6 	"/>
	
		<rect x="171.6" y="107.5" transform="matrix(0.463 -0.8864 0.8864 0.463 -3.9434 219.5013)" class="st12" width="15.2" height="11.1"/>
	<path class="st12" d="M169.4,106.2l14.7,6.1c4.8,2,2.2,9.2-3.8,6.6l-11.8-5.1L169.4,106.2z"/>
	<polygon class="st8" points="169.2,105.7 183.5,111.8 180.3,119.1 167.7,114.1 	"/>
	<path class="st14" d="M199.1,127.6h9.8c0.6,0,1.1,0.2,1.4,0.6c0.4,0.4,0.6,0.9,0.6,1.4v6.8c0,0.6-0.2,1.1-0.6,1.4
		c-0.4,0.4-0.9,0.6-1.4,0.6h-9.8c-0.6,0-1.1-0.2-1.4-0.6c-0.4-0.4-0.6-0.9-0.6-1.4v-6.8c0-0.6,0.2-1.1,0.6-1.4
		C198,127.8,198.5,127.6,199.1,127.6L199.1,127.6z M208.9,129.5h-9.8c0,0-0.1,0-0.1,0c0,0,0,0.1,0,0.1v6.8c0,0,0,0.1,0,0.1
		c0,0,0.1,0,0.1,0h9.8c0,0,0.1,0,0.1,0c0,0,0-0.1,0-0.1v-6.8c0,0,0-0.1,0-0.1C209,129.5,209,129.5,208.9,129.5z"/>
	<path class="st12" d="M198.8,102.8l1.5,24.5c0.3,5.3,9.2,5.3,8.3-1.2l-4.7-32.7c-0.2-1.3-0.7-2.5-1.7-3.1L198.8,102.8z"/>
	<polygon class="st9" points="198.6,102.7 200.1,127.6 198.6,127.6 197.7,103.2 	"/>
	<path class="st8" d="M198.6,102.7l1.1,24.4l9-1.9l-5-31.8c-0.2-1.4-0.5-2.5-1.7-3.1L198.6,102.7z"/>
	<path class="st8" d="M193.7,132.7h20.6c1.3,0,2.3,1,2.3,2.3v14.3c0,1.3-1,2.3-2.3,2.3h-20.6c-1.3,0-2.3-1-2.3-2.3v-14.3
		C191.4,133.7,192.5,132.7,193.7,132.7z"/>
	<path class="st14" d="M193.7,132.7h20.6c1.3,0,2.3,1,2.3,2.3v3.3l-12.6,9.6l-12.6-9.6v-3.3C191.4,133.7,192.5,132.7,193.7,132.7z"
		/>
	<path class="st15" d="M202.6,145.6h2.8c0.2,0,0.3,0.1,0.3,0.3v1.9c0,0.2-0.1,0.3-0.3,0.3h-2.8c-0.2,0-0.3-0.1-0.3-0.3v-1.9
		C202.3,145.8,202.5,145.6,202.6,145.6z"/>
</g>
<g>
	<g>
		<g>
			<path class="st12" d="M224.4,20.6c-3.6,1.4-5.5,5.4-4.1,8.9c0.6,1.6,1.7,2.8,3.1,3.6c2.4,1.3,2.1,1.9,3.8,4.1
				c1,1.2,2.6,0.9,3.6,0.5c1.1-0.4,2.5-1.1,2.4-2.6c-0.2-2.6-0.7-3.3,0.2-5.7c0.5-1.5,0.6-3.2,0-4.8C232.1,21,228.1,19.2,224.4,20.6
				z"/>
			<path class="st14" d="M227,37c0.6,1.6,1.5,5,3.8,4.2l2.5-0.9c2.3-0.9,0.7-4,0.1-5.6C231.7,35.7,228.5,36.5,227,37z"/>
			<g>
				<path class="st16" d="M229.3,37.1c-0.8-2.6-1.5-3.4-2.1-4.2c-0.4-0.6-0.8-1.1-1.3-2.4l-0.6,0.2c0.5,1.3,0.9,1.9,1.3,2.5
					c0.6,0.8,1.2,1.6,2,4.1L229.3,37.1z"/>
				<path class="st14" d="M231.7,36.2c-1.1-2.5-1.2-3.6-1.2-4.6c-0.1-0.7-0.1-1.4-0.6-2.6l0.6-0.2c0.5,1.3,0.6,2,0.7,2.8
					c0.1,0.9,0.2,2,1.2,4.4L231.7,36.2z"/>
			</g>
			<path class="st14" d="M230.2,29C230.1,29,230.1,29,230.2,29L230.2,29c-0.2-0.1-0.4-0.1-0.5,0.1c0,0.1,0,0.3,0.1,0.4
				c0,0.1,0.1,0.2,0.1,0.2l0,0c0,0.1,0,0.1-0.1,0.1c-0.1,0-0.2-0.2-0.2-0.3c-0.1-0.2-0.2-0.4-0.4-0.4c-0.1,0-0.2,0.1-0.2,0.2
				c0,0.1,0,0.2,0.1,0.4c0.1,0.2,0.1,0.4,0.1,0.4c-0.1,0-0.1-0.2-0.2-0.4c-0.1-0.2-0.1-0.3-0.2-0.4l0,0c-0.1-0.1-0.2-0.1-0.3,0
				c-0.2,0.1-0.1,0.4,0,0.6c0,0.1,0.1,0.1,0.1,0.2l0,0c0,0.1,0,0.2,0,0.2c-0.1,0-0.2-0.2-0.3-0.3c-0.1-0.2-0.2-0.5-0.5-0.5
				c-0.1,0-0.2,0.1-0.2,0.3c0,0.1,0.1,0.2,0.2,0.4c0.1,0.1,0.1,0.2,0.1,0.3l0,0c0,0,0,0.1,0,0.1c-0.1,0-0.2-0.2-0.3-0.4
				c0-0.1-0.1-0.2-0.1-0.3c-0.1-0.2-0.2-0.3-0.4-0.2c-0.2,0.1-0.1,0.4,0,0.7c0.1,0.2,0.2,0.4,0.1,0.5c-0.1,0-0.1,0-0.1,0
				c0-0.1-0.1-0.2-0.1-0.3c-0.1-0.2-0.2-0.4-0.3-0.5c-0.1,0-0.2,0-0.2,0.1c0,0.1,0,0.2,0,0.3c0,0.2,0.1,0.3,0,0.4l0,0
				c0,0-0.1-0.1-0.2-0.1c-0.1-0.1-0.2-0.3-0.4-0.2l-0.2,0.1l0.1,0.2l0.2-0.1c0,0,0.1,0.1,0.2,0.2c0.1,0.1,0.2,0.3,0.4,0.2
				c0.1-0.1,0.1-0.3,0-0.5v0c0-0.1-0.1-0.2,0-0.3c0,0,0,0,0,0c0.1,0,0.2,0.2,0.2,0.4c0,0.1,0.1,0.2,0.1,0.3c0.1,0.1,0.2,0.2,0.4,0.1
				c0.2-0.1,0.1-0.4,0-0.7c-0.1-0.2-0.2-0.4-0.1-0.5c0.1,0,0.1,0,0.2,0.1c0,0.1,0.1,0.2,0.1,0.3c0.1,0.3,0.2,0.6,0.5,0.5
				c0.1,0,0.2-0.1,0.1-0.3c0-0.1-0.1-0.2-0.2-0.4c-0.1-0.1-0.1-0.3-0.1-0.3c0,0,0-0.1,0-0.1c0.1,0,0.2,0.2,0.3,0.4
				c0.1,0.3,0.2,0.5,0.5,0.4c0.2-0.1,0.2-0.2,0.2-0.4c0-0.1-0.1-0.1-0.1-0.2c-0.1-0.2-0.1-0.4-0.1-0.4c0,0,0,0,0,0
				c0.1,0.1,0.1,0.2,0.2,0.3c0.1,0.3,0.2,0.5,0.4,0.5c0.2-0.1,0.1-0.3,0-0.6c0-0.1-0.1-0.3-0.1-0.3c0,0,0,0,0,0
				c0.1,0,0.2,0.2,0.2,0.3c0.1,0.2,0.2,0.5,0.4,0.4c0.2,0,0.2-0.2,0.2-0.3v0c0-0.1-0.1-0.2-0.1-0.2c0-0.1-0.1-0.2-0.1-0.3
				c0-0.1,0.1-0.1,0.2,0h0c0,0,0.1,0,0.1,0L230.2,29z"/>
			
				<rect x="222.4" y="12.9" transform="matrix(0.9362 -0.3514 0.3514 0.9362 8.4444 79.3827)" class="st12" width="1.1" height="7.1"/>
			<g>
				<g>
					
						<rect x="217.2" y="16.6" transform="matrix(0.6137 -0.7895 0.7895 0.6137 68.1978 179.7025)" class="st17" width="1.1" height="7.1"/>
					
						<rect x="214.6" y="22.9" transform="matrix(8.920122e-02 -0.996 0.996 8.920122e-02 169.5703 238.3717)" class="st17" width="1.1" height="7.1"/>
					
						<rect x="212.5" y="32" transform="matrix(0.9126 -0.4088 0.4088 0.9126 5.5758 91.1628)" class="st17" width="7.1" height="1.1"/>
					
						<rect x="216.3" y="36.9" transform="matrix(0.5907 -0.8069 0.8069 0.5907 59.7667 192.7069)" class="st17" width="7.1" height="1.1"/>
				</g>
				<g>
					
						<rect x="225.7" y="15.3" transform="matrix(0.1914 -0.9815 0.9815 0.1914 169.7839 237.7972)" class="st12" width="7.1" height="1.1"/>
					
						<rect x="231.8" y="18.3" transform="matrix(0.691 -0.7229 0.7229 0.691 59.0775 175.9572)" class="st12" width="7.1" height="1.1"/>
					
						<rect x="235.1" y="23.5" transform="matrix(0.9562 -0.2929 0.2929 0.9562 3.423 70.9487)" class="st12" width="7.1" height="1.1"/>
					
						<rect x="238.5" y="26.7" transform="matrix(0.2188 -0.9758 0.9758 0.2188 157.2144 256.8531)" class="st12" width="1.1" height="7.1"/>
				</g>
			</g>
		</g>
		<g>
			<path class="st6" d="M224.4,20.6c-3.6,1.4-5.5,5.4-4.1,8.9c0.6,1.6,1.7,2.8,3.1,3.6c2.4,1.3,2.1,1.9,3.8,4.1
				c0.9,1.1,2.2-0.4,3-1.1L224.4,20.6z"/>
			<path class="st8" d="M227,37c0.6,1.6,1.5,5,3.8,4.2l1.2-0.5l-1.8-4.7C229,36.4,227.8,36.7,227,37z"/>
			<path class="st8" d="M229.3,37.1c-0.8-2.6-1.5-3.4-2.1-4.2c-0.4-0.6-0.8-1.1-1.3-2.4l-0.6,0.2c0.5,1.3,0.9,1.9,1.3,2.5
				c0.6,0.8,1.2,1.6,2,4.1L229.3,37.1z"/>
			<path class="st8" d="M227.8,29.6L227.8,29.6c-0.2,0-0.2,0.1-0.2,0.3c0,0.1,0.1,0.2,0.2,0.4c0.1,0.1,0.1,0.2,0.1,0.3l0,0
				c0,0,0,0.1,0,0.1c-0.1,0-0.2-0.2-0.3-0.4c0-0.1-0.1-0.2-0.1-0.3c-0.1-0.2-0.2-0.3-0.4-0.2c-0.2,0.1-0.1,0.4,0,0.7
				c0.1,0.2,0.2,0.4,0.1,0.5c-0.1,0-0.1,0-0.1,0c0-0.1-0.1-0.2-0.1-0.3c-0.1-0.2-0.2-0.4-0.3-0.5c-0.1,0-0.2,0-0.2,0.1
				c0,0.1,0,0.2,0,0.3c0,0.2,0.1,0.3,0,0.4l0,0c0,0-0.1-0.1-0.2-0.1c-0.1-0.1-0.2-0.3-0.4-0.2l-0.2,0.1l0.1,0.2l0.2-0.1
				c0,0,0.1,0.1,0.2,0.2c0.1,0.1,0.2,0.3,0.4,0.2c0.1-0.1,0.1-0.3,0-0.5v0c0-0.1-0.1-0.2,0-0.3c0,0,0,0,0,0c0.1,0,0.2,0.2,0.2,0.4
				c0,0.1,0.1,0.2,0.1,0.3c0.1,0.1,0.2,0.2,0.4,0.1c0.2-0.1,0.1-0.4,0-0.7c-0.1-0.2-0.2-0.4-0.1-0.5c0.1,0,0.1,0,0.2,0.1
				c0,0.1,0.1,0.2,0.1,0.3c0.1,0.3,0.2,0.6,0.5,0.5c0.1,0,0.2-0.1,0.1-0.3c0-0.1-0.1-0.2-0.2-0.4c-0.1-0.1-0.1-0.3-0.1-0.3
				c0,0,0-0.1,0-0.1c0,0,0,0,0,0L227.8,29.6z"/>
			<rect x="222.4" y="13" transform="matrix(0.9362 -0.3514 0.3514 0.9362 8.3961 79.302)" class="st6" width="0.5" height="7.1"/>
			<g>
				
					<rect x="217.2" y="16.6" transform="matrix(0.6137 -0.7895 0.7895 0.6137 68.1978 179.7025)" class="st6" width="1.1" height="7.1"/>
				
					<rect x="214.6" y="22.9" transform="matrix(8.920122e-02 -0.996 0.996 8.920122e-02 169.5705 238.3715)" class="st6" width="1.1" height="7.1"/>
				
					<rect x="212.5" y="32" transform="matrix(0.9126 -0.4088 0.4088 0.9126 5.5759 91.1628)" class="st6" width="7.1" height="1.1"/>
				
					<rect x="216.3" y="36.9" transform="matrix(0.5911 -0.8066 0.8066 0.5911 59.6833 192.6207)" class="st6" width="7.1" height="1.1"/>
			</g>
		</g>
	</g>
	<g>
		<rect x="227.8" y="75.3" class="st3" width="120" height="91.8"/>
		<rect x="227.8" y="161.7" class="st8" width="120" height="5.4"/>
		<rect x="227.8" y="75.3" class="st18" width="120" height="3.4"/>
		<polygon class="st8" points="325.5,55.4 239.9,55.4 251.8,24.2 313.6,24.2 		"/>
		<rect x="323.5" y="31.7" class="st3" width="17.8" height="24.1"/>
		<rect x="322.9" y="31.3" class="st8" width="19.1" height="3.5"/>
		<polygon class="st14" points="352.8,75.8 222.7,75.8 230.3,49.4 345.2,49.4 		"/>
		<polygon class="st2" points="316.3,65.1 310.9,55 265,55 259.2,65.1 259.2,167.1 316.3,167.1 		"/>
		<polygon class="st8" points="316.7,75.8 307.4,56.6 268.1,56.6 258.9,75.8 250.7,75.8 263.6,50.5 311.9,50.5 324.8,75.8 		"/>
		<polygon class="st3" points="321.7,80.8 314.9,80.8 303.8,59.1 271.8,59.1 260.7,80.8 253.9,80.8 268.1,54.4 307.5,54.4 		"/>
		<polygon class="st14" points="325.9,82.5 318.2,82.5 305.7,57.3 269.8,57.3 257.3,82.5 249.6,82.5 265.6,51.8 309.9,51.8 		"/>
		<g>
			<g>
				<rect x="289.7" y="92.4" class="st14" width="20.1" height="30.4"/>
				<rect x="290.9" y="93.3" class="st12" width="17.9" height="28.6"/>
			</g>
			<g>
				<rect x="265.7" y="92.4" class="st14" width="20.1" height="30.4"/>
				<rect x="266.8" y="93.3" class="st12" width="17.9" height="28.6"/>
			</g>
		</g>
		<g>
			<rect x="232.7" y="88.9" class="st8" width="22.6" height="21.8"/>
			<rect x="234" y="90.1" class="st12" width="20" height="19.5"/>
		</g>
		<rect x="320.5" y="88.9" class="st8" width="22.6" height="21.8"/>
		<rect x="321.8" y="90.1" class="st12" width="20" height="19.5"/>
		<g>
			<rect x="277.5" y="64.1" class="st14" width="20.6" height="19.9"/>
			<rect x="278.6" y="65.2" class="st12" width="18.3" height="17.8"/>
		</g>
		<g>
			<g>
				<rect x="289.7" y="129.7" class="st14" width="20.1" height="30.4"/>
				<rect x="290.9" y="130.6" class="st12" width="17.9" height="28.6"/>
			</g>
			<g>
				<rect x="265.7" y="129.7" class="st14" width="20.1" height="30.4"/>
				<rect x="266.8" y="130.6" class="st12" width="17.9" height="28.6"/>
			</g>
		</g>
		<g>
			<rect x="232.7" y="128" class="st8" width="22.6" height="21.8"/>
			<rect x="234" y="129.2" class="st12" width="20" height="19.5"/>
		</g>
		<g>
			<rect x="320.5" y="128" class="st8" width="22.6" height="21.8"/>
			<rect x="321.8" y="129.2" class="st12" width="20" height="19.5"/>
		</g>
		<rect x="331.3" y="88.9" class="st8" width="1" height="21.8"/>
		<rect x="331.3" y="128" class="st8" width="1" height="21.8"/>
		<rect x="243.6" y="88.9" class="st8" width="0.9" height="21.8"/>
		<rect x="243.6" y="128" class="st8" width="0.9" height="21.8"/>
		<rect x="287.3" y="64.6" class="st14" width="0.9" height="19"/>
		<rect x="278.2" y="73.6" class="st14" width="19" height="0.9"/>
		<rect x="290.4" y="99" class="st14" width="19" height="0.9"/>
		<rect x="266" y="99" class="st14" width="19" height="0.9"/>
		<rect x="290.4" y="136.1" class="st14" width="19" height="0.9"/>
		<rect x="266" y="136.1" class="st14" width="19" height="0.9"/>
		<rect x="259.2" y="161.7" class="st14" width="57.2" height="5.4"/>
	</g>
</g>
<g>
	<path class="st1" d="M430.2,36.2c0,13-10.5,23.6-23.6,23.6c-13,0-23.6-10.5-23.6-23.6s10.5-23.6,23.6-23.6V16
		c-11.2,0-20.3,9.1-20.3,20.3s9.1,20.3,20.3,20.3c11.2,0,20.3-9.1,20.3-20.3H430.2z"/>
	<path class="st1" d="M407.2,12.7c1.7,0,3.3,0.3,4.9,0.6l-0.9,3.2c-1.3-0.3-2.7-0.5-4.1-0.5V12.7L407.2,12.7z M413.3,13.6
		c1.6,0.5,3.1,1.1,4.6,1.9l-1.7,2.9c-1.2-0.6-2.5-1.2-3.8-1.6L413.3,13.6L413.3,13.6z M418.9,16.1l-1.7,2.9c1.2,0.7,2.2,1.6,3.2,2.5
		l2.3-2.3C421.6,18,420.3,17,418.9,16.1L418.9,16.1z M423.7,20c1.1,1.2,2.1,2.5,3,3.9l-2.9,1.7c-0.7-1.2-1.6-2.2-2.5-3.2L423.7,20
		L423.7,20z M427.3,25l-2.9,1.7c0.6,1.2,1.2,2.5,1.6,3.8l3.2-0.9C428.7,28,428.1,26.4,427.3,25L427.3,25z M429.5,30.7
		c0.4,1.6,0.6,3.2,0.6,4.9h-3.3c0-1.4-0.2-2.7-0.5-4L429.5,30.7z"/>
	<polygon class="st1" points="410.8,14.4 407.8,16.1 404.8,17.9 404.8,14.4 404.8,10.9 407.8,12.6 	"/>
	<g>
		<polygon class="st1" points="406.6,26.6 406.7,26.6 407.6,36.2 405.6,36.2 		"/>
		<rect x="395.5" y="42.4" transform="matrix(0.5 -0.866 0.866 0.5 164.4035 370.1442)" class="st1" width="14.5" height="0.6"/>
		<polygon class="st1" points="419.3,29.1 419.3,29.2 407.3,37.2 406.4,35.5 		"/>
		<path class="st1" d="M406.6,38.7c1.4,0,2.5-1.1,2.5-2.5c0-1.4-1.1-2.5-2.5-2.5c-1.4,0-2.5,1.1-2.5,2.5
			C404.2,37.6,405.3,38.7,406.6,38.7z"/>
		<path class="st1" d="M406.6,38.1c1,0,1.8-0.8,1.8-1.8c0-1-0.8-1.8-1.8-1.8c-1,0-1.8,0.8-1.8,1.8C404.8,37.2,405.6,38.1,406.6,38.1
			z"/>
	</g>
	<g>
		<rect x="405.6" y="51.1" class="st1" width="2" height="3.5"/>
		<polygon class="st1" points="416,52 415.6,52.2 414.5,50.4 414.9,50.2 		"/>
		
			<rect x="396.9" y="51" transform="matrix(0.5003 -0.8658 0.8658 0.5003 154.5165 370.1646)" class="st1" width="2.1" height="0.4"/>
		
			<rect x="421.4" y="43.8" transform="matrix(0.5001 -0.866 0.866 0.5001 171.8671 387.4998)" class="st1" width="0.4" height="2.1"/>
		
			<rect x="420.5" y="27.4" transform="matrix(0.8661 -0.4998 0.4998 0.8661 42.6371 214.4022)" class="st1" width="2.1" height="0.4"/>
		<rect x="421.4" y="35.2" class="st1" width="3.5" height="2"/>
		<rect x="411" y="52.7" transform="matrix(0.9659 -0.2588 0.2588 0.9659 0.2079 108.242)" class="st1" width="0.4" height="1.3"/>
		
			<rect x="418.9" y="48.1" transform="matrix(0.7081 -0.7061 0.7061 0.7081 87.9224 310.1852)" class="st1" width="0.4" height="1.3"/>
		<polygon class="st1" points="423,40.8 423.1,40.5 424.4,40.8 424.3,41.2 		"/>
		
			<rect x="418.5" y="23.6" transform="matrix(0.7063 -0.7079 0.7079 0.7063 106.2838 303.6602)" class="st1" width="1.3" height="0.4"/>
		
			<rect x="401.4" y="53.2" transform="matrix(0.2588 -0.9659 0.9659 0.2588 246.4616 427.8611)" class="st1" width="1.3" height="0.4"/>
		<rect x="405.6" y="17.9" class="st1" width="2" height="3.5"/>
		
			<rect x="397.8" y="20.2" transform="matrix(0.8659 -0.5003 0.5003 0.8659 42.7354 201.9492)" class="st1" width="0.4" height="2.1"/>
		
			<rect x="414.2" y="21.1" transform="matrix(0.5001 -0.866 0.866 0.5001 189.1454 370.2249)" class="st1" width="2.1" height="0.4"/>
		
			<rect x="391.4" y="26.6" transform="matrix(0.4996 -0.8663 0.8663 0.4996 172.0834 353.0908)" class="st1" width="0.4" height="2.1"/>
		
			<rect x="390.6" y="44.7" transform="matrix(0.8658 -0.5004 0.5004 0.8658 30.0977 201.9945)" class="st1" width="2.1" height="0.4"/>
		<rect x="388.3" y="35.2" class="st1" width="3.5" height="2"/>
		
			<rect x="401.9" y="18.5" transform="matrix(0.9659 -0.2588 0.2588 0.9659 8.7421 104.7107)" class="st1" width="0.4" height="1.3"/>
		
			<rect x="393.9" y="23.1" transform="matrix(0.7071 -0.7071 0.7071 0.7071 98.6478 285.6245)" class="st1" width="0.4" height="1.3"/>
		<polygon class="st1" points="388.9,31.7 389,31.3 390.2,31.7 390.1,32 		"/>
		<g>
			<polygon class="st1" points="423.1,32 423,31.7 424.3,31.3 424.4,31.7 			"/>
			<polygon class="st1" points="389,41.2 388.9,40.8 390.1,40.5 390.2,40.8 			"/>
		</g>
		
			<rect x="393.5" y="48.6" transform="matrix(0.7073 -0.7069 0.7069 0.7073 80.888 292.8643)" class="st1" width="1.3" height="0.4"/>
		
			<rect x="410.6" y="19" transform="matrix(0.2588 -0.9659 0.9659 0.2588 286.2641 411.3779)" class="st1" width="1.3" height="0.4"/>
		<g>
			
				<rect x="423.5" y="33.6" transform="matrix(0.9901 -0.1402 0.1402 0.9901 -0.5402 59.8171)" class="st1" width="1.3" height="0.4"/>
			<polygon class="st1" points="388.5,39 388.4,38.7 389.7,38.5 389.8,38.8 			"/>
		</g>
		<g>
			<polygon class="st1" points="420.2,26 420,25.7 421,24.9 421.3,25.2 			"/>
			<polygon class="st1" points="392.2,47.6 392,47.3 393,46.5 393.2,46.8 			"/>
		</g>
		<g>
			<polygon class="st1" points="422.3,29.7 422.2,29.3 423.4,28.8 423.5,29.2 			"/>
			<polygon class="st1" points="389.8,43.6 389.7,43.3 390.9,42.8 391,43.1 			"/>
		</g>
		<g>
			
				<rect x="416.7" y="22" transform="matrix(0.6074 -0.7944 0.7944 0.6074 146.2196 340.2154)" class="st1" width="1.3" height="0.4"/>
			
				<rect x="395.3" y="50.1" transform="matrix(0.6062 -0.7953 0.7953 0.6062 115.8931 334.6859)" class="st1" width="1.3" height="0.4"/>
		</g>
		<g>
			
				<rect x="412.7" y="19.7" transform="matrix(0.3803 -0.9249 0.9249 0.3803 237.7448 394.5838)" class="st1" width="1.3" height="0.4"/>
			
				<rect x="399.3" y="52.4" transform="matrix(0.3808 -0.9247 0.9247 0.3808 198.9818 402.3515)" class="st1" width="1.3" height="0.4"/>
		</g>
		<g>
			
				<rect x="408.4" y="18.5" transform="matrix(0.1405 -0.9901 0.9901 0.1405 333.0826 421.1288)" class="st1" width="1.3" height="0.4"/>
			
				<rect x="403.5" y="53.6" transform="matrix(0.1376 -0.9905 0.9905 0.1376 295.2653 446.6517)" class="st1" width="1.3" height="0.4"/>
		</g>
		<g>
			
				<rect x="403.9" y="18.1" transform="matrix(0.9895 -0.1444 0.1444 0.9895 1.5301 58.5555)" class="st1" width="0.4" height="1.3"/>
			<polygon class="st1" points="409.4,54.4 409.1,54.4 408.9,53.1 409.3,53.1 			"/>
		</g>
		<g>
			
				<rect x="399.7" y="19.2" transform="matrix(0.9261 -0.3773 0.3773 0.9261 22.0679 152.3767)" class="st1" width="0.4" height="1.3"/>
			
				<rect x="413.1" y="52" transform="matrix(0.9254 -0.3789 0.3789 0.9254 10.8835 160.5378)" class="st1" width="0.4" height="1.3"/>
		</g>
		<g>
			
				<rect x="395.8" y="21.5" transform="matrix(0.7976 -0.6032 0.6032 0.7976 66.7894 243.3063)" class="st1" width="0.4" height="1.3"/>
			
				<rect x="417.1" y="49.7" transform="matrix(0.7976 -0.6032 0.6032 0.7976 54.082 261.8878)" class="st1" width="0.4" height="1.3"/>
		</g>
		<g>
			
				<rect x="392.5" y="24.7" transform="matrix(0.6185 -0.7858 0.7858 0.6185 129.9254 318.2401)" class="st1" width="0.4" height="1.3"/>
			<polygon class="st1" points="421.1,47.4 420.9,47.7 419.9,46.9 420.1,46.6 			"/>
		</g>
		<g>
			
				<rect x="390.1" y="28.8" transform="matrix(0.3854 -0.9227 0.9227 0.3854 212.6906 378.2195)" class="st1" width="0.4" height="1.3"/>
			
				<rect x="422.8" y="42.4" transform="matrix(0.3848 -0.923 0.923 0.3848 220.4772 416.8686)" class="st1" width="0.4" height="1.3"/>
		</g>
		<g>
			
				<rect x="388.9" y="33.1" transform="matrix(0.1441 -0.9896 0.9896 0.1441 299.699 413.8819)" class="st1" width="0.4" height="1.3"/>
			
				<rect x="423.9" y="38.2" transform="matrix(0.1438 -0.9896 0.9896 0.1438 324.7383 452.9276)" class="st1" width="0.4" height="1.3"/>
		</g>
	</g>
</g>
<g>
	<path class="st6" d="M401,51.5l11.7-3.4c1.1-0.3,10.6,13,5.4,12.6l-7.6-0.6l-9.7,5.7c-1.1,0.6-8.9-0.6-9.8-1.5l0,0
		c-0.9-0.9-0.9-2.4-0.1-3.3C392.7,59.2,398.6,52.2,401,51.5z"/>
	<path class="st12" d="M410.9,69.3L411,63c0-0.9,9.7-4.5,0.2-9.1c-1.6-0.8-0.8-8.4,1-8.4c3.6,0,7.7,0.1,10.5,1
		c4.4,1.3,6.6,4.2,11,8.9v15.5c0,1.8-2.6,3.6-5.2,3.3l-13-1.5C413.8,72.4,410.9,71.1,410.9,69.3z"/>
	<path class="st12" d="M430.6,73.4l-0.1,0.3c0.6,0.1,12.4,4.4,13.7,4.9V63.2l-11.1-8.4L430.6,73.4z"/>
	<path class="st12" d="M398.7,49.4l13.5-3.9c1.4-0.4,2.7,1,2.7,2.4l0,0c0,2,3.6,5.1-3,5.7l-12.1,1c-1.5,0.1-3.2-0.4-3.2-1.9v0
		c0-0.9-0.2-1.6,0.3-2.2C397.1,50.1,397.8,49.7,398.7,49.4z"/>
	<path class="st12" d="M387.1,60.5l9.5-9.8c1-1.1,2.7-1.1,3.8-0.1l0,0c1.1,1,1.1,2.7,0.1,3.8l-9.5,9.8c-1,1.1-2.7,1.1-3.8,0.1l0,0
		C386.1,63.2,386.1,61.5,387.1,60.5z"/>
	<g>
		<polygon class="st2" points="435.4,53.9 438.1,78.1 462.9,78.1 460.2,53.9 		"/>
		<rect x="439.9" y="51.8" class="st14" width="124.4" height="27.3"/>
		<path class="st2" d="M442.6,55.9c0,1,0.8,1.7,1.7,1.7c1,0,1.7-0.8,1.7-1.7s-0.8-1.7-1.7-1.7C443.4,54.2,442.6,55,442.6,55.9z"/>
	</g>
	<g>
		<path class="st19" d="M368.7,80.6c0.1-0.7,0.5-1.6,1.2-2.7c0.7-1.1,1.6-2.3,2.7-3.5c1.3-1.4,2.6-2.6,3.7-3.4
			c1.2-0.9,2-1.3,2.6-1.2l-0.1,0.6c-0.5-0.1-1.1,0.4-2.2,1.1c-1.1,0.8-2.4,1.9-3.6,3.3c-1.1,1.2-1.9,2.3-2.6,3.4
			c-0.7,1.1-1.1,1.8-1.2,2.5L368.7,80.6z"/>
		<path class="st20" d="M377.6,59.4h31c1.2,0,2.1,0.9,2.1,2.1v17.8c0,1.2-0.9,2.1-2.1,2.1h-31c-1.2,0-2.1-0.9-2.1-2.1V61.5
			C375.5,60.4,376.4,59.4,377.6,59.4L377.6,59.4z M381.3,68.1c-1.3,0-2.3,1-2.3,2.3c0,1.3,1,2.3,2.3,2.3c1.3,0,2.3-1,2.3-2.3
			C383.6,69.1,382.5,68.1,381.3,68.1z"/>
		<path class="st19" d="M379.6,61.2h27c0.6,0,1.1,0.2,1.5,0.6c0.4,0.4,0.6,0.9,0.6,1.4v14.4c0,0.6-0.2,1.1-0.6,1.4v0
			c-0.4,0.4-0.9,0.6-1.5,0.6h-27c-0.6,0-1.1-0.2-1.5-0.6l0,0c-0.4-0.4-0.6-0.9-0.6-1.4V63.2c0-0.6,0.2-1.1,0.6-1.4
			C378.4,61.4,379,61.2,379.6,61.2L379.6,61.2z M406.6,61.9h-27c-0.4,0-0.8,0.2-1.1,0.4c-0.3,0.2-0.4,0.6-0.4,1v14.4
			c0,0.4,0.2,0.7,0.4,1l0,0c0.3,0.3,0.7,0.4,1.1,0.4h27c0.4,0,0.8-0.2,1.1-0.4h0c0.3-0.2,0.4-0.6,0.4-1V63.2c0-0.4-0.2-0.7-0.4-1
			C407.4,62,407,61.9,406.6,61.9z"/>
		<g>
			<path class="st12" d="M379.4,93.5l1-1c0.7-0.7,1.8-0.7,2.5,0l9.8,9.8c0.7,0.7,0.7,1.8,0,2.5l-1,1c-0.7,0.7-1.8,0.7-2.5,0
				l-9.8-9.8C378.8,95.3,378.8,94.2,379.4,93.5z"/>
			
				<rect x="386.8" y="90.8" transform="matrix(0.7067 -0.7075 0.7075 0.7067 43.6971 302.847)" class="st6" width="0.8" height="15.8"/>
			<path class="st12" d="M366.9,80c3-3,8-3,11,0c3,3,3,8,0,11c-3,3-8,3-11,0C363.9,88,363.9,83,366.9,80L366.9,80z M368.2,81.2
				c-0.7,0.7-0.7,1.7,0,2.4c0.7,0.7,1.7,0.7,2.4,0c0.7-0.7,0.7-1.7,0-2.4C369.9,80.6,368.8,80.6,368.2,81.2z"/>
			<path class="st12" d="M374.5,91.1l3.5-3.5c0.4-0.4,1-0.4,1.4,0l3.7,3.7c0.4,0.4,0.4,1,0,1.4l-3.5,3.5c-0.4,0.4-1,0.4-1.4,0
				l-3.7-3.7C374.1,92.1,374.1,91.5,374.5,91.1z"/>
			<polygon class="st12" points="381.9,100.4 382.4,98.3 384.5,97.8 384,99.8 			"/>
			<polygon class="st12" points="383.5,101.7 383.6,99.5 385.8,99.4 385.6,101.6 			"/>
			<polygon class="st12" points="384.9,103.4 385.4,101.4 387.4,100.8 386.9,102.9 			"/>
			<polygon class="st12" points="386.5,104.8 386.7,102.7 388.9,102.5 388.7,104.7 			"/>
			<polygon class="st12" points="387.8,106.6 388.3,104.5 390.4,104 389.8,106 			"/>
		</g>
		<path class="st19" d="M379,69.8c0.1,0,0.3,0.1,0.4,0.1c0.1,0,0.2,0.1,0.2,0.2c0.5,0.5,0.3,1.6-0.4,3c-1.5,2.8-4.8,6.5-7.4,8.2
			c-1.3,0.9-2.4,1.2-2.9,0.7c-0.2-0.1-0.2-0.3-0.3-0.5c0-0.1,0-0.3,0-0.5c0-0.1,0.3-0.2,0.6-0.2c0,0.2,0,0.4,0,0.5
			c0,0.1,0.1,0.2,0.1,0.2c0.3,0.3,1.1,0,2.2-0.8c2.6-1.7,5.8-5.3,7.2-8c0.6-1.2,0.8-2,0.5-2.3c0,0,0,0-0.1,0c0,0-0.2,0-0.3,0
			C378.9,70.1,379,70,379,69.8z"/>
	</g>
	<path class="st12" d="M391.5,66.2L391.5,66.2c0-1.7,1.4-3.2,3.2-3.2c5.7,0,11.6,0.2,17.3-0.2l5.5,0.2c1.7,0,3.2,1.4,3.2,3.2l0,0
		c0,1.7-1.6,2.4-3.2,3.2l-4.1,1.9l-18.8-1.9C392.9,69.2,391.5,68,391.5,66.2z"/>
</g>
<g>
	<path class="st7" d="M116.4,118.3c-2.2,0.1,0.7-3.4-1.5-3.4c-5.8,0-8.7-1-11.8-0.1c-3.1,0.9-6,4.4-9.9,7.2
		c-2.6,1.9-8.8,4.1-11.8,5.5l4.5,14.7c3.1-1.3,4.9-1.8,5.9-0.9c6.1,5,13.1,1.9,22.6,1.4c1-0.1-1.5-1-0.5-2.4
		c4.7-0.6,3.9-0.2,7.6-3.2c5.5-0.3,4.4,0.5,8-3.6l5.4-2.3L116.4,118.3z"/>
	<path class="st6" d="M99.6,136.5c1.1,0.2,2.1,0.3,2.9,0.4c1.5,0.2,9.2,5.5,10.2,5.5c1-0.1,1.7-0.6,2.7-1.9c4.7-0.6,2.2,0,5.9-2.9
		c5.5-0.3,4.4,0.5,8-3.6l5.9-2.3l-16-12.7c-5.7,2.5-7.2,1.3-11.1,2c-2.4,0.4-4.2,1.2-5.8,1.9c-2.9,1.2-4.8,2.4-5.4,3.9
		c-0.4,0.9-0.2,0.8,0.2,1.9C100.6,136.9,97.1,133.1,99.6,136.5z"/>
	<path class="st20" d="M87.7,124.2c1.3,6.6,2.6,12.8,4.2,19.3l-8.6,0.3l-7.7-17.2L87.7,124.2z"/>
	<path class="st2" d="M82.4,123.3c1.3,5.7,2.9,16.1,5.6,22.3l-88-0.3v-22.4L82.4,123.3z"/>
	<g>
		<path class="st8" d="M141.2,96.5c2-0.3,3.8,1.1,4.1,3.1l3.2,23.4c0.3,2-1.1,3.8-3.1,4.1c-13,1.8-25.9,3.6-38.9,5.4l-5.8-25.1
			c-0.7-4.5,0.6-5.4,7.6-6.4C119.2,99.5,130.2,98,141.2,96.5z"/>
		
			<rect x="108.5" y="96.9" transform="matrix(0.7006 -0.7136 0.7136 0.7006 -38.1468 121.1353)" class="st19" width="33.5" height="18.2"/>
		
			<rect x="101.9" y="97.7" transform="matrix(0.3291 -0.9443 0.9443 0.3291 -21.3006 183.6702)" class="st20" width="33.5" height="18.2"/>
		<path class="st14" d="M139.4,100.1c2-0.3,3.8,1.1,4.1,3.1l3.2,23.4c0.3,2-1.1,3.8-3.1,4.1c-13,1.8-25.9,3.6-38.9,5.4l-4.2-30.6
			C113.4,103.7,126.4,101.9,139.4,100.1z"/>
		<path class="st8" d="M137.4,111.5l6.6-0.9c2.2-0.3,2.3-1.2,2.4-2.8l1.4,8.6c-0.2,1.4-1.1,2.6-2.6,2.8l-6.6,0.9
			c-2,0.3-3.8-1.1-4.1-3.1l-0.2-1.4C134,113.7,135.4,111.8,137.4,111.5z"/>
	</g>
	<path class="st7" d="M110.2,141.9c1.2,0.5,2.5,0.9,4,0.8c1.6-0.1,3.5-0.9,3.9-2.4c-1.8-2.4-3.7-4.8-5.5-7.2
		c-0.7-0.9-2.6-0.9-3.3,0.4c-0.6,1.1,0.8,3.8,1.9,5.6c0.6,1.1,0.7,1.4,0.3,1.7C110.9,141.2,110.5,141.5,110.2,141.9L110.2,141.9z
		 M118.3,140.3l-0.3-0.5l-0.6-0.8l-4-5.2c-1.4-1.6-3.4-3.8-3.3-5.3c0.1-0.9,0.3-1.6,1.7-2.1c1-0.3,1.9-0.3,2.5,0.6
		c2.6,3.9,5.3,7.1,8.4,10.7c0.3,1.2-0.6,1.7-1.4,2.1C120.6,140.4,119.4,141.3,118.3,140.3L118.3,140.3z M122.8,137.5
		c-2.9-3.4-5.4-6.5-8.4-10.6c-1.2-2.3,1.7-4,3.8-2.6c1.3,0.9,3.9,3.8,6,6.2c1.2,1.4,2.2,2.5,2.9,3.3c0.2,0.6,0.3,1,0.3,1.5
		c-0.1,0.9-1.3,1.8-2.1,2.2C124.5,138.1,123.8,138.1,122.8,137.5L122.8,137.5z M128.4,133c1.2,0.8,2.5,2.1,3.6,2.1
		c1.7,0,4.5-2.6,3-4.2c-1.1-1.1-2.6-2.5-4-3.9c-2.1-2-4.2-3.8-6.2-2.4c-0.9,0.6-1.6,1.8-0.4,3.3C126,130.1,126.8,131.2,128.4,133z"
		/>
</g>
</svg>
