<svg id="Слой_1" data-name="Слой 1" xmlns="http://www.w3.org/2000/svg" viewBox="0 0 564 186.12"><defs><style>.cls-1,.cls-19{fill:#bee5ea;}.cls-13,.cls-2{fill:#2d4c60;}.cls-3{fill:#19303b;}.cls-4,.cls-6{fill:#037a77;}.cls-17,.cls-5{fill:#ecf7fb;}.cls-12,.cls-13,.cls-14,.cls-15,.cls-17,.cls-19,.cls-6,.cls-7{fill-rule:evenodd;}.cls-7,.cls-8{fill:#d6eef3;}.cls-9{fill:#07959c;}.cls-10{fill:#9ed8d6;}.cls-11{fill:#7eb9b6;}.cls-12{fill:#00b0b8;}.cls-14,.cls-18{fill:#f04d27;}.cls-15{fill:#ce2727;}.cls-16{fill:#cce5e8;}</style></defs><title>1 4556765</title><rect class="cls-1" width="564" height="186.12"/><rect class="cls-2" x="344.64" y="64.24" width="3.07" height="33.8"/><rect class="cls-3" x="344.64" y="64.24" width="3.07" height="5.46"/><rect class="cls-4" x="318.89" y="44.04" width="54.56" height="22.66" rx="2.61" ry="2.61"/><rect class="cls-2" x="337.34" y="97.27" width="17.67" height="3.57"/><rect class="cls-5" x="321.21" y="46.09" width="49.92" height="18.57"/><path class="cls-6" d="M331.36,56l3.76,4.53h1.93l-3.26-3.88a3.11,3.11,0,0,0,2.67-3.16,3.19,3.19,0,0,0-3.36-3.28h-3.76V60.52h1.47V51.7h2.29a1.79,1.79,0,1,1,0,3.58h-1.74V56Zm8.78.12h4.68v-1.5h-4.68V51.7h4.78V50.21h-6.28V60.52h6.3V59h-4.8V56.11Zm8.33,4.41V53.31l5,7.21h1.18V50.2h-1.47v7.27l-5-7.27-1.15,0V60.52Zm11.43,0v-9H363V50.2h-7.73v1.38h3.13v9Z"/><path class="cls-7" d="M121.34,96.08a12.06,12.06,0,0,0,3.2,15.49L116,125.93c-1.28,2.16,2.73,4.4,3.91,2.19l7.83-14.81a12.05,12.05,0,1,0-6.39-17.23Zm2.87,1.61a8.76,8.76,0,1,1,3.35,11.93A8.76,8.76,0,0,1,124.21,97.69Z"/><path class="cls-7" d="M405.75,93.91a9.21,9.21,0,1,1-.55,13A9.22,9.22,0,0,1,405.75,93.91Z"/><path class="cls-7" d="M408.26,83a18.34,18.34,0,0,1,4.49-.37A18.06,18.06,0,0,1,430,101.46h0a18.67,18.67,0,0,1-.75,4.44l-3.87-1.16a14.06,14.06,0,0,0,.57-3.45h0A14,14,0,0,0,409.09,87Z"/><path class="cls-7" d="M406.49,74.57a27.3,27.3,0,0,1,6.62-.54,26.69,26.69,0,0,1,25.54,27.8,27.06,27.06,0,0,1-1.11,6.55l-3.87-1.16a22.87,22.87,0,0,0,.94-5.56,22.66,22.66,0,0,0-21.67-23.59,23.08,23.08,0,0,0-5.62.46Z"/><path class="cls-7" d="M404.65,65.85a35.62,35.62,0,0,1,42.91,36.36,36.17,36.17,0,0,1-1.47,8.74l-3.88-1.16a31.56,31.56,0,0,0-36.73-40Z"/><path class="cls-7" d="M205.38,56.59A23.55,23.55,0,1,1,181.83,33v3.31a20.24,20.24,0,1,0,20.24,20.24Z"/><path class="cls-7" d="M182.44,33.05a23.31,23.31,0,0,1,4.9.64l-.85,3.2a20,20,0,0,0-4.05-.53V33.05Zm6.07,1a22.94,22.94,0,0,1,4.57,1.9l-1.65,2.86a19.91,19.91,0,0,0-3.78-1.56l.86-3.2Zm5.62,2.5-1.66,2.87a19.64,19.64,0,0,1,3.24,2.49l2.34-2.34a23.93,23.93,0,0,0-3.92-3Zm4.78,3.87a24.43,24.43,0,0,1,3,3.92L199.05,46a20.6,20.6,0,0,0-2.48-3.24l2.34-2.34Zm3.61,5L199.66,47a19.82,19.82,0,0,1,1.56,3.77l3.2-.86a22.94,22.94,0,0,0-1.9-4.57Zm2.21,5.74a23.31,23.31,0,0,1,.64,4.9h-3.3a21.47,21.47,0,0,0-.53-4Z"/><polygon class="cls-7" points="186.05 34.71 183.02 36.47 179.99 38.22 179.99 34.71 179.99 31.21 183.02 32.96 186.05 34.71"/><polygon class="cls-7" points="181.78 46.99 181.88 46.99 182.81 56.59 180.85 56.59 181.78 46.99"/><rect class="cls-8" x="170.73" y="62.74" width="14.52" height="0.59" transform="translate(34.4 185.65) rotate(-60)"/><polygon class="cls-7" points="194.49 49.49 194.54 49.57 182.56 57.57 181.58 55.87 194.49 49.49"/><path class="cls-7" d="M181.83,59.05a2.46,2.46,0,1,0-2.46-2.46A2.46,2.46,0,0,0,181.83,59.05Z"/><path class="cls-7" d="M181.83,58.41A1.82,1.82,0,1,0,180,56.59,1.83,1.83,0,0,0,181.83,58.41Z"/><rect class="cls-8" x="180.83" y="71.41" width="2" height="3.5"/><rect class="cls-8" x="190.25" y="70.5" width="0.43" height="2.1" transform="translate(-10.3 104.56) rotate(-29.93)"/><rect class="cls-8" x="172.15" y="71.33" width="2.1" height="0.43" transform="translate(24.77 185.93) rotate(-60.06)"/><rect class="cls-8" x="196.57" y="64.17" width="0.43" height="2.1" transform="translate(42.06 203.21) rotate(-60.06)"/><rect class="cls-8" x="195.74" y="47.74" width="2.1" height="0.43" transform="translate(2.41 104.9) rotate(-30.02)"/><rect class="cls-8" x="196.65" y="55.59" width="3.5" height="2"/><rect class="cls-8" x="186.23" y="73.03" width="0.35" height="1.28" transform="translate(-12.7 50.66) rotate(-14.97)"/><rect class="cls-8" x="194.16" y="68.45" width="0.35" height="1.28" transform="translate(8.09 157.71) rotate(-45.02)"/><rect class="cls-8" x="198.73" y="60.53" width="0.35" height="1.28" transform="matrix(0.26, -0.97, 0.97, 0.26, 88.77, 237.73)"/><rect class="cls-8" x="193.7" y="43.91" width="1.28" height="0.35" transform="translate(25.71 150.28) rotate(-44.98)"/><rect class="cls-8" x="176.62" y="73.49" width="1.28" height="0.35" transform="matrix(0.26, -0.97, 0.97, 0.26, 60.3, 225.88)"/><rect class="cls-8" x="180.83" y="38.27" width="2" height="3.5"/><rect class="cls-8" x="172.98" y="40.58" width="0.43" height="2.1" transform="translate(2.36 92.09) rotate(-29.97)"/><rect class="cls-8" x="189.42" y="41.42" width="2.1" height="0.43" transform="translate(59.16 185.75) rotate(-59.99)"/><rect class="cls-8" x="166.66" y="46.91" width="0.43" height="2.1" transform="translate(41.89 168.48) rotate(-59.99)"/><rect class="cls-8" x="165.83" y="65.01" width="2.1" height="0.43" transform="translate(-10.28 92.03) rotate(-29.95)"/><rect class="cls-8" x="163.51" y="55.59" width="3.5" height="2"/><rect class="cls-8" x="177.08" y="38.87" width="0.35" height="1.28" transform="translate(-4.18 47.48) rotate(-15.08)"/><rect class="cls-8" x="169.15" y="43.45" width="0.35" height="1.28" transform="translate(18.57 132.9) rotate(-45.1)"/><rect class="cls-8" x="164.58" y="51.38" width="0.35" height="1.28" transform="translate(71.95 197.74) rotate(-75.03)"/><rect class="cls-8" x="198.27" y="51.84" width="1.28" height="0.35" transform="matrix(0.97, -0.26, 0.26, 0.97, -6.69, 52.76)"/><rect class="cls-8" x="164.12" y="60.99" width="1.28" height="0.35" transform="matrix(0.97, -0.26, 0.26, 0.97, -10.21, 44.63)"/><rect class="cls-8" x="168.69" y="68.92" width="1.28" height="0.35" transform="translate(0.62 139.69) rotate(-44.9)"/><rect class="cls-8" x="185.77" y="39.33" width="1.28" height="0.35" transform="translate(100.08 209.39) rotate(-75.03)"/><rect class="cls-8" x="198.7" y="53.91" width="1.28" height="0.35" transform="translate(-5.66 28.87) rotate(-8.17)"/><rect class="cls-8" x="163.69" y="58.91" width="1.28" height="0.35" transform="translate(-6.72 23.9) rotate(-8.15)"/><rect class="cls-8" x="195.21" y="45.64" width="1.28" height="0.35" transform="translate(12.73 129.01) rotate(-37.6)"/><rect class="cls-8" x="167.18" y="67.19" width="1.28" height="0.35" transform="translate(-6.28 116.27) rotate(-37.56)"/><rect class="cls-8" x="197.44" y="49.43" width="1.28" height="0.35" transform="translate(-3.51 82.14) rotate(-23.23)"/><rect class="cls-8" x="164.95" y="63.4" width="1.28" height="0.35" transform="translate(-11.65 70.6) rotate(-23.27)"/><rect class="cls-8" x="191.9" y="42.35" width="1.28" height="0.35" transform="translate(42.13 170.03) rotate(-52.74)"/><rect class="cls-8" x="170.48" y="70.48" width="1.28" height="0.35" transform="translate(11.29 164.08) rotate(-52.74)"/><rect class="cls-8" x="187.9" y="40.06" width="1.28" height="0.35" transform="translate(79.72 199.37) rotate(-67.68)"/><rect class="cls-8" x="174.48" y="72.77" width="1.28" height="0.35" transform="translate(41.15 207.27) rotate(-67.69)"/><rect class="cls-8" x="183.67" y="38.91" width="1.28" height="0.35" transform="translate(119.76 216.09) rotate(-81.94)"/><rect class="cls-8" x="178.72" y="73.92" width="1.28" height="0.35" transform="translate(80.9 241.33) rotate(-81.96)"/><rect class="cls-8" x="179.09" y="38.46" width="0.35" height="1.28" transform="matrix(0.99, -0.14, 0.14, 0.99, -3.76, 26.25)"/><rect class="cls-8" x="184.22" y="73.44" width="0.35" height="1.28" transform="translate(-8.84 27.72) rotate(-8.4)"/><rect class="cls-8" x="174.96" y="39.59" width="0.35" height="1.28" transform="translate(-2.22 69.13) rotate(-22.19)"/><rect class="cls-8" x="188.35" y="72.32" width="0.35" height="1.28" transform="translate(-13.58 77.03) rotate(-22.31)"/><rect class="cls-8" x="170.99" y="41.85" width="0.35" height="1.28" transform="translate(9.02 111.84) rotate(-37.1)"/><rect class="cls-8" x="192.32" y="70.06" width="0.35" height="1.28" transform="translate(-3.7 130.35) rotate(-37.08)"/><rect class="cls-8" x="167.75" y="45.03" width="0.35" height="1.28" transform="translate(28.21 149.42) rotate(-51.81)"/><rect class="cls-8" x="195.56" y="66.87" width="0.35" height="1.28" transform="matrix(0.62, -0.79, 0.79, 0.62, 21.8, 179.83)"/><rect class="cls-8" x="165.34" y="49.15" width="0.35" height="1.28" transform="translate(56 183.51) rotate(-67.43)"/><rect class="cls-8" x="197.98" y="62.75" width="0.35" height="1.28" transform="translate(63.4 221.9) rotate(-67.37)"/><rect class="cls-8" x="164.16" y="53.4" width="0.35" height="1.28" transform="translate(87.25 208.91) rotate(-81.74)"/><rect class="cls-8" x="199.15" y="58.5" width="0.35" height="1.28" transform="translate(112.09 247.87) rotate(-81.72)"/><path class="cls-7" d="M422.2,50.27l.2-.32A25,25,0,0,1,425,46.51a26.65,26.65,0,0,1,2.91-2.8v-10A2.1,2.1,0,0,1,430,31.59H460.9A2.1,2.1,0,0,1,463,33.68V51.37a2.1,2.1,0,0,1-2.09,2.09H431.47a7.78,7.78,0,0,1,.78,6.52l3.36,3.36a1,1,0,0,1,0,1.44l0,0L445,74.28a1.74,1.74,0,0,1,0,2.46l-1,1a1.73,1.73,0,0,1-2,.35l-1.92.49.46-1.79,0,0-1.67.12.11-1.68-.15-.15-1.64.42.42-1.64-.18-.18-1.62.11L436,72.1l-.14-.14-1.53.4.39-1.54-2.58-2.58,0,0a1,1,0,0,1-1.44,0l-3.36-3.36a7.76,7.76,0,0,1-7.91-12.85,7.68,7.68,0,0,1,2.8-1.8Zm9.26-8.41a1.87,1.87,0,0,1,.41.09,1,1,0,0,1,.24.15c.41.37.38,1.13,0,2.12a2.32,2.32,0,1,0-.74-1.7,2.34,2.34,0,0,0,.32,1.18c.21-.58.23-1,0-1.17l-.07-.05a.94.94,0,0,0-.28,0,2.91,2.91,0,0,1,.1-.59ZM430.51,47c-.2.29-.42.59-.65.88v1.78a2,2,0,0,0,.64,1.43h0a2.21,2.21,0,0,0,1.51.58h26.92a2.21,2.21,0,0,0,1.51-.58h0a2,2,0,0,0,.64-1.43V35.37a2,2,0,0,0-.64-1.43,2.22,2.22,0,0,0-1.51-.59H432a2.22,2.22,0,0,0-1.51.59,2,2,0,0,0-.64,1.43v7a5,5,0,0,1,.65-.33V35.37a1.34,1.34,0,0,1,.43-1A1.57,1.57,0,0,1,432,34h26.92a1.57,1.57,0,0,1,1.07.4,1.34,1.34,0,0,1,.43,1V49.68a1.3,1.3,0,0,1-.43,1h0a1.58,1.58,0,0,1-1.07.41H432a1.58,1.58,0,0,1-1.07-.41h0a1.3,1.3,0,0,1-.43-1V47ZM428,50.13l-.2.21.2.09v-.3Zm-4.59,3.71c-.88.42-1.57.5-2,.15a.89.89,0,0,1-.29-.54,1.09,1.09,0,0,1,0-.48h0a1.71,1.71,0,0,0-.47.34A1.67,1.67,0,0,0,423,55.66a1.67,1.67,0,0,0,.36-1.82Zm-1.66-1a2,2,0,0,0,0,.54.42.42,0,0,0,.11.21c.2.18.65.1,1.26-.21L423,53.3a1.67,1.67,0,0,0-1.3-.49Zm5.44-2.68c.28-.28.55-.57.81-.86v-4.8a26.63,26.63,0,0,0-2.47,2.43A26.12,26.12,0,0,0,423.05,50a7.88,7.88,0,0,1,4.09.12Zm2.72-3.2c.23-.32.45-.64.65-1V42.64c-.19.1-.4.23-.65.39v3.9Zm5,18.57-.56.56,10.53,10.52.56-.55Z"/><rect class="cls-3" x="293.13" y="32.29" width="13.07" height="17.74"/><rect class="cls-9" x="292.64" y="31.98" width="14.05" height="2.56"/><rect class="cls-10" x="216.76" y="54.67" width="100.69" height="84.67"/><rect class="cls-10" x="279.97" y="96.9" width="41.56" height="42.44"/><rect class="cls-2" x="257.02" y="62.61" width="20.16" height="26.09"/><rect class="cls-5" x="258.26" y="63.85" width="17.67" height="23.61"/><rect class="cls-2" x="266.44" y="63.68" width="1.31" height="24.27"/><rect class="cls-2" x="258.2" y="74.99" width="17.79" height="1.31"/><rect class="cls-2" x="225.98" y="62.61" width="20.16" height="26.09"/><rect class="cls-5" x="227.22" y="63.85" width="17.67" height="23.61"/><rect class="cls-2" x="235.4" y="63.68" width="1.31" height="24.27"/><rect class="cls-2" x="227.16" y="74.99" width="17.79" height="1.31"/><rect class="cls-2" x="288.06" y="62.61" width="20.16" height="26.09"/><rect class="cls-5" x="289.3" y="63.85" width="17.67" height="23.61"/><rect class="cls-2" x="297.48" y="63.68" width="1.31" height="24.27"/><rect class="cls-2" x="289.24" y="74.99" width="17.79" height="1.31"/><rect class="cls-2" x="251.53" y="103.43" width="20.16" height="26.09"/><rect class="cls-5" x="252.78" y="104.67" width="17.67" height="23.61"/><rect class="cls-2" x="260.96" y="104.5" width="1.31" height="24.27"/><rect class="cls-2" x="252.72" y="115.82" width="17.79" height="1.31"/><rect class="cls-2" x="283.56" y="105.42" width="15.02" height="26.09"/><rect class="cls-5" x="284.88" y="106.66" width="12.38" height="23.61"/><rect class="cls-2" x="302.92" y="105.42" width="15.02" height="26.09"/><rect class="cls-5" x="304.23" y="106.66" width="12.38" height="23.61"/><rect class="cls-2" x="216.76" y="135.13" width="100.69" height="4.21"/><rect class="cls-2" x="279.97" y="135.12" width="41.56" height="4.24"/><rect class="cls-11" x="216.76" y="54.42" width="100.69" height="4.26"/><rect class="cls-2" x="226.65" y="101.36" width="14.67" height="32.36"/><rect class="cls-3" x="227.7" y="102.75" width="12.57" height="29.57"/><rect class="cls-2" x="228.54" y="103.62" width="10.9" height="27.84"/><path class="cls-12" d="M229.19,118a.85.85,0,1,0-.84-.85A.85.85,0,0,0,229.19,118Z"/><rect class="cls-3" x="227.7" y="118.9" width="12.57" height="0.99"/><rect class="cls-11" x="216.82" y="96.95" width="104.71" height="3.63"/><polygon class="cls-13" points="274.49 98.48 300.75 83.36 327 98.48 274.49 98.48"/><polygon class="cls-13" points="211.95 98.48 283.05 98.48 283.05 93.96 215.36 93.96 211.95 98.48"/><polygon class="cls-13" points="213.69 55.55 267.1 25.75 320.51 55.55 213.69 55.55"/><rect class="cls-11" x="276.59" y="99.51" width="3.37" height="35.63"/><rect class="cls-3" x="276.59" y="135.12" width="3.37" height="4.22"/><rect class="cls-11" x="221.57" y="134.35" width="24.83" height="1.77"/><rect class="cls-10" x="221.57" y="132.53" width="24.83" height="1.82"/><rect class="cls-11" x="220.84" y="137.68" width="26.29" height="1.67"/><rect class="cls-10" x="220.84" y="135.96" width="26.29" height="1.72"/><circle class="cls-5" cx="276.42" cy="99.67" r="18.71" transform="translate(10.48 224.65) rotate(-45)"/><path class="cls-14" d="M291.48,80.11a24.47,24.47,0,0,1,6.57,31.42l27.51,19.83c4.13,3-1.53,10.38-5.49,7.23l-26.55-21.24a24.46,24.46,0,1,1-2-37.24Zm-4,5.33a17.78,17.78,0,1,0,3.41,24.91A17.77,17.77,0,0,0,287.44,85.44Z"/><path class="cls-15" d="M291.48,80.11a24.48,24.48,0,0,1,6.57,31.42l27.51,19.83c2,1.43,1.71,3.88.45,5.69l-35.16-26.7a17.78,17.78,0,0,0-28.32-21.51l-5.32-4A24.46,24.46,0,0,1,291.48,80.11Z"/><rect class="cls-3" x="317.71" y="104.33" width="88.59" height="62.67" rx="3.44" ry="3.44"/><path class="cls-13" d="M321,104.33h82.11a3.15,3.15,0,0,1,2.38,1.11L318.62,166a3.55,3.55,0,0,1-.91-2.38v-55.8A3.36,3.36,0,0,1,321,104.33Z"/><rect class="cls-16" x="324.88" y="109.68" width="74.25" height="51.98"/><polygon class="cls-17" points="324.91 161.69 399.11 109.64 324.86 109.71 324.91 161.69"/><path class="cls-13" d="M362,105a1.88,1.88,0,1,1-1.88,1.87A1.87,1.87,0,0,1,362,105Z"/><path class="cls-12" d="M327.67,123.15c0,6.86,2.54,7.52,6.24,7.52s6.24-.87,6.24-7.52c0-7.06-2.68-7.74-6.24-7.74s-6.24.68-6.24,7.74Zm4,0c0-3.68.43-4.16,2.24-4.16s2.25.66,2.25,4.16c0,3.19-.48,3.93-2.25,3.93-2,0-2.24-.78-2.24-3.93Zm9.9,7.41h4v-7.48l4.32,7.48h4v-15h-4v7.69l-4.3-7.69h-4v15Zm13.94-3.21c0,2.33,1.54,3.21,3.42,3.21H365V127h-4.24c-.6,0-1.28,0-1.28-1.07v-10.4h-4v11.84Zm10.83,3.21h4v-15h-4v15Zm5.6,0h4v-7.48l4.32,7.48h4v-15h-4v7.69l-4.3-7.69h-4v15Zm13.84-3.29c0,3.15,2.7,3.42,4,3.38,0,0,4.41-.07,6.53-.35V127h-5.29c-.6,0-1.28,0-1.28-1.07V125l5.54-.18v-3.32l-5.54-.22v-.91c0-.55,0-1.15,1.07-1.15h5.5v-3.36a66.37,66.37,0,0,0-6.73-.33c-1.46,0-3.83.4-3.83,3.5Z"/><path class="cls-14" d="M382.35,122.27a3.25,3.25,0,1,1-3.23,3.25A3.24,3.24,0,0,1,382.35,122.27Z"/><path class="cls-14" d="M382.35,120.68a4.75,4.75,0,0,1,3.39,1.42h0a4.88,4.88,0,0,1,0,6.84h0a4.79,4.79,0,0,1-6.79,0h0a4.88,4.88,0,0,1,0-6.84h0a4.76,4.76,0,0,1,3.4-1.42Zm3,1.8a4.25,4.25,0,0,0-6,0,4.31,4.31,0,0,0,0,6.07,4.23,4.23,0,0,0,6,0,4.31,4.31,0,0,0,0-6.07Z"/><path class="cls-17" d="M384.6,136.15h.13a2.05,2.05,0,0,1,2.11-1.63H387a2,2,0,0,1,2.12,1.7h.15a2,2,0,0,1,2.12-1.74h.17a2,2,0,0,1,2.13,1.83l.17,0v0a1.47,1.47,0,0,1,1.56-1.36h.12a1.48,1.48,0,0,1,1.56,1.36v6.63l.13,7.73c0,2-1.31,3.95-2.89,5.28l-1.08.9-1.77,10.1h-10.9l1.81-10.32a4.27,4.27,0,0,1-2.8-3.4l-1.35-6.87a1.82,1.82,0,0,1,.47-2.38l1.49-1.2,0-3c0-.12,0-.23,0-.35V125.56a2.14,2.14,0,0,1,2.13-2.13h.17a2.14,2.14,0,0,1,2.13,2.13Z"/><path class="cls-13" d="M394.19,158.18l-13.81-.06c-.14,3-.31,6-.5,8.81h14.26C394.18,163.69,394.2,160.69,394.19,158.18Z"/><rect class="cls-2" x="190.86" y="121.26" width="4.03" height="44.31"/><rect class="cls-3" x="190.86" y="121.26" width="4.03" height="7.16"/><rect class="cls-18" x="157.11" y="94.78" width="71.54" height="29.71" rx="3.42" ry="3.42"/><rect class="cls-2" x="181.29" y="164.56" width="23.17" height="4.68"/><rect class="cls-5" x="160.15" y="97.46" width="65.46" height="24.35"/><path class="cls-14" d="M176.39,106.27c-.35-2.47-2.51-3.56-4.6-3.56a5.23,5.23,0,0,0-4.1,1.8,3.63,3.63,0,0,0-.73,2.57v0c.21,2.82,2.69,3.29,4.79,3.5,1.36.14,2.75.31,3,1.34a2,2,0,0,1,.06.46c0,1.39-1.59,2.2-3,2.2-1.25,0-2.78-.65-2.92-1.91v.08l0-.29-2,0,0,.36c.25,2.42,2.79,3.66,4.87,3.66,2.44,0,5-1.51,5-4.12a4.67,4.67,0,0,0-.1-.89c-.52-2.17-2.82-2.65-4.68-2.88-1.45-.14-3-.31-3.07-1.7a1.77,1.77,0,0,1,.33-1.26,3.21,3.21,0,0,1,2.45-1,2.6,2.6,0,0,1,2.77,1.72l1.93-.08Zm14.67,3.34a5,5,0,0,1-4.93,5,4.85,4.85,0,0,1-3.46-1.47,4.94,4.94,0,0,1,0-7,4.85,4.85,0,0,1,3.46-1.47,5,5,0,0,1,4.93,5Zm-11.81,0a7,7,0,0,0,2,4.9,6.86,6.86,0,0,0,9.76,0,7,7,0,0,0,0-9.79,6.83,6.83,0,0,0-9.76,0,7,7,0,0,0-2,4.89ZM198,102.87h-2v13.51h8.31v-1.95H198V102.87Zm11,11.56v-9.61h2.9a4.81,4.81,0,0,1,0,9.61ZM207,102.87v13.51h4.85a6.76,6.76,0,0,0,0-13.51Z"/><path class="cls-15" d="M113,53l18.11-12.25,17.8,12c.55.37,1.5,1,2.16,1.52a1.33,1.33,0,0,1,.61,1.16V80.63a1.57,1.57,0,0,1-1.57,1.56H112.15a1.57,1.57,0,0,1-1.57-1.56V55.4a1.57,1.57,0,0,1,.31-.93A13.43,13.43,0,0,1,113,53Z"/><polygon class="cls-7" points="112.42 42.97 142.09 42.97 149.81 49.33 149.81 78.91 112.42 78.91 112.42 42.97"/><path class="cls-14" d="M151.38,54.52a1.59,1.59,0,0,1,.28.88V80.63a1.62,1.62,0,0,1-.28.89L131.12,68Z"/><polygon class="cls-19" points="149.79 51.27 141.74 51.27 141.76 42.98 142.06 42.98 149.79 49.3 149.79 51.27"/><path class="cls-14" d="M110.9,81.56a1.44,1.44,0,0,1-.32-.93V55.4a1.51,1.51,0,0,1,.28-.88L131.12,68Z"/><path class="cls-15" d="M151.38,81.52a1.67,1.67,0,0,1-1.29.67H112.15a1.53,1.53,0,0,1-1.25-.63L131.12,68Z"/><polygon class="cls-7" points="149.79 49.34 142.08 49.37 142.08 43 149.79 49.34"/><rect class="cls-2" x="115.41" y="51.99" width="31.41" height="1"/><rect class="cls-2" x="115.41" y="55.73" width="31.41" height="1"/></svg>