<?xml version="1.0" encoding="utf-8"?>
<!-- Generator: Adobe Illustrator 22.0.1, SVG Export Plug-In . SVG Version: 6.00 Build 0)  -->
<svg version="1.1" id="Слой_1" xmlns="http://www.w3.org/2000/svg" xmlns:xlink="http://www.w3.org/1999/xlink" x="0px" y="0px"
	 viewBox="0 0 97 97" style="enable-background:new 0 0 97 97;" xml:space="preserve">
<style type="text/css">
	.st0{fill:#AEDDF7;}
	.st1{fill:#014970;}
	.st2{fill:#FFFFFF;}
</style>
<g>
	<g>
		<g>
			<path class="st0" d="M90,97H7c-3.9,0-7-3.1-7-7V7c0-3.9,3.1-7,7-7h83c3.9,0,7,3.1,7,7v83C97,93.9,93.9,97,90,97z"/>
		</g>
	</g>
	<g>
		<path class="st1" d="M48.5,45.5h-2.1c0-7.9-5.9-14.3-13.5-15.3v-0.2c0-4,3.3-7.3,7.3-7.3h16.6c4,0,7.3,3.3,7.3,7.3V78h3.8V30.1
			c0-2.3-0.7-4.3-1.8-6.1c-2-3-5.4-5-9.3-5H40.1C34,19,29,24,29,30.1v0.2c-7.6,0.9-13.5,7.4-13.5,15.3h-2.1V50h35V45.5z"/>
		<path class="st2" d="M20.1,58.3c0-1.2-2.2-4.8-2.2-4.8s-0.2,0.3-0.4,0.6c-0.6,1.1-1.8,3.3-1.8,4.1c0,1.1,0.8,2,1.9,2.1
			c0.1,0,0.2,0,0.3,0C19.2,60.5,20.1,59.5,20.1,58.3z"/>
		<path class="st2" d="M28.1,58.3c0-1.2-2.2-4.8-2.2-4.8s-2.2,3.6-2.2,4.8s1,2.2,2.2,2.2C27.1,60.5,28.1,59.5,28.1,58.3z"/>
		<path class="st2" d="M33.9,60.5c1.2,0,2.2-1,2.2-2.2s-2.2-4.8-2.2-4.8s-2.2,3.6-2.2,4.8S32.7,60.5,33.9,60.5z"/>
		<path class="st2" d="M41.8,60.5c1.2,0,2.2-1,2.2-2.2s-2.2-4.8-2.2-4.8s-2.2,3.6-2.2,4.8S40.6,60.5,41.8,60.5z"/>
		<path class="st2" d="M16.7,66.4c0-1-1.6-3.7-2-4.5c-0.1-0.1-0.1-0.2-0.1-0.2s-2.2,3.6-2.2,4.8c0,1,0.7,1.9,1.7,2.1
			c0.2,0,0.3,0.1,0.5,0.1C15.7,68.6,16.7,67.6,16.7,66.4z"/>
		<path class="st2" d="M21,68c0.2,0.2,0.5,0.4,0.8,0.5c0.2,0.1,0.4,0.1,0.7,0.1c1.2,0,2.2-1,2.2-2.2c0-1.2-2.2-4.8-2.2-4.8
			s-0.7,1.1-1.3,2.3c-0.5,0.9-0.9,1.9-0.9,2.4c0,0.6,0.2,1.1,0.6,1.5C20.9,67.9,21,68,21,68z"/>
		<path class="st2" d="M28.3,66.4c0,1.2,1,2.2,2.2,2.2c1.2,0,2.2-1,2.2-2.2c0-1.2-2.2-4.8-2.2-4.8S28.3,65.2,28.3,66.4z"/>
		<path class="st2" d="M36.2,66.4c0,1.2,1,2.2,2.2,2.2c1.2,0,2.2-1,2.2-2.2c0-1.2-2.2-4.8-2.2-4.8S36.2,65.2,36.2,66.4z"/>
		<path class="st2" d="M44.2,66.4c0,1.2,1,2.2,2.2,2.2s2.2-1,2.2-2.2c0-1.2-2.2-4.8-2.2-4.8S44.2,65.2,44.2,66.4z"/>
		<path class="st2" d="M13.3,74.5c0-1.2-2.2-4.8-2.2-4.8s-2.2,3.6-2.2,4.8c0,0.9,0.6,1.7,1.4,2c0.2,0.1,0.5,0.1,0.7,0.1
			C12.3,76.7,13.3,75.7,13.3,74.5z"/>
		<path class="st2" d="M21.2,74.5c0-1.2-2.2-4.8-2.2-4.8s-0.7,1.2-1.3,2.5c-0.4,0.9-0.8,1.8-0.8,2.3c0,1,0.7,1.8,1.5,2.1
			c0.2,0.1,0.4,0.1,0.6,0.1C20.2,76.7,21.2,75.7,21.2,74.5z"/>
		<path class="st2" d="M24.8,74.5c0,1.2,1,2.2,2.2,2.2c1.2,0,2.2-1,2.2-2.2c0-1.2-2.2-4.8-2.2-4.8S24.8,73.3,24.8,74.5z"/>
		<path class="st2" d="M32.8,74.5c0,1.2,1,2.2,2.2,2.2c1.2,0,2.2-1,2.2-2.2c0-1.2-2.2-4.8-2.2-4.8S32.8,73.3,32.8,74.5z"/>
		<path class="st2" d="M40.7,74.5c0,1.2,1,2.2,2.2,2.2c1.2,0,2.2-1,2.2-2.2c0-1.2-2.2-4.8-2.2-4.8S40.7,73.3,40.7,74.5z"/>
		<path class="st2" d="M48.7,74.5c0,1.2,1,2.2,2.2,2.2c1.2,0,2.2-1,2.2-2.2c0-1.2-2.2-4.8-2.2-4.8S48.7,73.3,48.7,74.5z"/>
	</g>
	<g>
		<path class="st0" d="M67.9,30.1V78H64V30.1c0-4-3.3-7.3-7.3-7.3H40.1c-4,0-7.3,3.3-7.3,7.3v0.2c7.6,0.9,13.5,7.4,13.5,15.3h2.1V50
			h-35l4.1,4.1c0.2-0.4,0.4-0.6,0.4-0.6s2.2,3.6,2.2,4.8s-1,2.2-2.2,2.2c-0.1,0-0.2,0-0.3,0l3.5,3.5c0.6-1.2,1.3-2.3,1.3-2.3
			s2.2,3.6,2.2,4.8c0,1.2-1,2.2-2.2,2.2c-0.2,0-0.5,0-0.7-0.1l0,0.3L21,68c-0.1,0-0.1-0.1-0.2-0.2l-6.2-6.2l0,0.2
			c0.5,0.8,2,3.5,2,4.5c0,1.2-1,2.2-2.2,2.2c-0.2,0-0.3,0-0.5-0.1l3.7,3.7c0.6-1.2,1.3-2.5,1.3-2.5s2.2,3.6,2.2,4.8
			c0,1.2-1,2.2-2.2,2.2c-0.2,0-0.4,0-0.6-0.1l-0.1,0.5l-7.3-7.3c0,0,2.2,3.6,2.2,4.8c0,1.2-1,2.2-2.2,2.2c-0.3,0-0.5-0.1-0.7-0.1v0
			L30.8,97H90c3.9,0,7-3.1,7-7V55L66,24C67.2,25.7,67.9,27.8,67.9,30.1z M41.8,53.5c0,0,2.2,3.6,2.2,4.8s-1,2.2-2.2,2.2
			c-1.2,0-2.2-1-2.2-2.2S41.8,53.5,41.8,53.5z M33.9,53.5c0,0,2.2,3.6,2.2,4.8s-1,2.2-2.2,2.2c-1.2,0-2.2-1-2.2-2.2
			S33.9,53.5,33.9,53.5z M23.8,58.3c0-1.2,2.2-4.8,2.2-4.8s2.2,3.6,2.2,4.8s-1,2.2-2.2,2.2C24.7,60.5,23.8,59.5,23.8,58.3z M27,76.7
			c-1.2,0-2.2-1-2.2-2.2c0-1.2,2.2-4.8,2.2-4.8s2.2,3.6,2.2,4.8C29.2,75.7,28.2,76.7,27,76.7z M30.4,68.6c-1.2,0-2.2-1-2.2-2.2
			c0-1.2,2.2-4.8,2.2-4.8s2.2,3.6,2.2,4.8C32.6,67.6,31.6,68.6,30.4,68.6z M34.9,76.7c-1.2,0-2.2-1-2.2-2.2c0-1.2,2.2-4.8,2.2-4.8
			s2.2,3.6,2.2,4.8C37.1,75.7,36.1,76.7,34.9,76.7z M38.4,68.6c-1.2,0-2.2-1-2.2-2.2c0-1.2,2.2-4.8,2.2-4.8s2.2,3.6,2.2,4.8
			C40.6,67.6,39.6,68.6,38.4,68.6z M42.9,76.7c-1.2,0-2.2-1-2.2-2.2c0-1.2,2.2-4.8,2.2-4.8s2.2,3.6,2.2,4.8
			C45.1,75.7,44.1,76.7,42.9,76.7z M46.3,68.6c-1.2,0-2.2-1-2.2-2.2c0-1.2,2.2-4.8,2.2-4.8s2.2,3.6,2.2,4.8
			C48.5,67.6,47.5,68.6,46.3,68.6z M50.8,76.7c-1.2,0-2.2-1-2.2-2.2c0-1.2,2.2-4.8,2.2-4.8s2.2,3.6,2.2,4.8
			C53,75.7,52,76.7,50.8,76.7z"/>
	</g>
</g>
</svg>
