<?xml version="1.0" encoding="utf-8"?>
<!-- Generator: Adobe Illustrator 22.0.1, SVG Export Plug-In . SVG Version: 6.00 Build 0)  -->
<svg version="1.1" id="Слой_1" xmlns="http://www.w3.org/2000/svg" xmlns:xlink="http://www.w3.org/1999/xlink" x="0px" y="0px"
	 viewBox="0 0 97 97" style="enable-background:new 0 0 97 97;" xml:space="preserve">
<style type="text/css">
	.st0{fill:#AEDDF7;}
	.st1{fill:#014970;}
	.st2{fill:#F9F3A2;}
	.st3{fill:#FFFFFF;}
</style>
<g>
	<path class="st0" d="M90,97H7c-3.9,0-7-3.1-7-7V7c0-3.9,3.1-7,7-7h83c3.9,0,7,3.1,7,7v83C97,93.9,93.9,97,90,97z"/>
	<path class="st0" d="M14.4,71l25.5,26H90c3.9,0,7-3.1,7-7V44.4L78.5,25.9l-52.6-0.4L20,48.5L14.4,71z"/>
	<g>
		<g id="XMLID_7_">
			<g>
				<path class="st1" d="M82.6,63.1v8.3h-5.8l-2.6-8.3H22.8l-2.6,8.3h-5.8v-8.3v-2.5V46.9h2.8h0.9V25.6h60.7v21.3h0.9h2.8v13.7V63.1
					z M74.2,47.6v-0.7v-1.7c0-2.6-2.4-4.8-5.3-4.8H28.1c-2.9,0-5.3,2.1-5.3,4.8v1.7v0.7H74.2z M69.7,39.3c0-3.1,0-6.3,0-9.4
					c-6.3,0.9-12.7,0.9-18.9,0c0,3.1,0,6.3,0,9.4C57.1,39.3,63.4,39.3,69.7,39.3z M46.2,39.3c0-3.1,0-6.3,0-9.4
					c-6.3,0.9-12.6,0.9-18.9,0c0,3.1,0,6.3,0,9.4C33.6,39.3,39.9,39.3,46.2,39.3z"/>
				<path class="st2" d="M74.2,46.9v0.7H22.8v-0.7v-1.7c0-2.6,2.4-4.8,5.3-4.8h40.8c2.9,0,5.3,2.1,5.3,4.8V46.9z"/>
				<path class="st3" d="M69.7,29.9c0,3.1,0,6.3,0,9.4c-6.3,0-12.6,0-18.9,0c0-3.1,0-6.3,0-9.4C57,30.8,63.4,30.8,69.7,29.9z"/>
				<path class="st3" d="M46.2,29.9c0,3.1,0,6.3,0,9.4c-6.3,0-12.6,0-18.9,0c0-3.1,0-6.3,0-9.4C33.6,30.8,39.9,30.8,46.2,29.9z"/>
			</g>
		</g>
	</g>
</g>
</svg>
