<?xml version="1.0" encoding="utf-8"?>
<!-- Generator: Adobe Illustrator 22.0.1, SVG Export Plug-In . SVG Version: 6.00 Build 0)  -->
<svg version="1.1" xmlns="http://www.w3.org/2000/svg" xmlns:xlink="http://www.w3.org/1999/xlink" x="0px" y="0px"
	 viewBox="0 0 750 500" style="enable-background:new 0 0 750 500;" xml:space="preserve">
<style type="text/css">
	.st0{display:none;}
	.st1{display:inline;fill:#FFFFFF;}
	.st2{opacity:0.35;fill:#A2D4F9;}
	.st3{fill:#FFFFFF;}
	.st4{fill:#EA5854;}
	.st5{fill:#F97068;}
	.st6{fill:#0058C6;}
	.st7{fill:#0E35AF;}
	.st8{fill:#7DB6F4;}
	.st9{fill:#57AFF7;}
	.st10{fill:#AFD9FF;}
	.st11{fill:#FF777A;}
	.st12{fill:#F7F7F7;}
	.st13{fill:#DCF1FF;}
	.st14{fill:#252384;}
	.st15{fill:#0C0835;}
	.st16{fill:#DCEDFF;}
	.st17{fill:#FFC5C7;}
	.st18{fill:#FE8A8B;}
	.st19{fill:#FFA6A4;}
	.st20{fill:#CB3034;}
	.st21{fill:#C31F2A;}
	.st22{fill:#FB8384;}
	.st23{fill:#261B60;}
	.st24{fill:#FFDCDC;}
	.st25{fill:#001E7F;}
	.st26{opacity:0.25;}
	.st27{fill:#00264F;}
	.st28{fill:#B4DFF9;}
	.st29{fill:#A2D4F9;}
	.st30{fill:#FAFDFF;}
</style>
<g id="BACKGROUND" class="st0">
	<rect class="st1" width="750" height="500"/>
</g>
<g id="OBJECTS">
	<path class="st2" d="M56.7,350l35.5,45.6c12.2,15.7,30.9,24.8,50.8,24.8h440.8c16.6,0,32.5-6.4,44.4-17.8l7.6-7.2
		c42.2-40.3,50.4-104.6,19.8-154.2l0,0c-7.4-12-10.7-26.2-9.3-40.3l0,0c5.3-52.6-29.7-100.9-81.3-112.2l-98.4-21.6
		c-75.8-16.6-155.1,0.3-217.5,46.4c-11.4,8.4-19.5,14-20.8,14c-2.5-0.1-40.5,5.9-76.9,11.8c-39.2,6.3-68.3,39.9-69,79.6v0
		c-0.3,17.1-7.4,33.3-19.6,45.2l0,0C39.1,287,36.5,324.1,56.7,350z"/>
	<g>
		<path class="st3" d="M669.1,167.2c-2.2-5.3-6.7-9.3-12.2-10.9c-0.5-12.6-10.9-22.7-23.7-22.7c-11.2,0-20.6,7.8-23.1,18.3
			c-0.7-0.1-1.4-0.1-2.1-0.1c-7.5,0-13.9,4.4-16.9,10.7c-4-3.2-9.2-5.2-14.8-5.2c-7.9,0-15,3.9-19.3,9.9H669.1z"/>
		<path class="st3" d="M145.6,228c-1.5-3.5-4.5-6.3-8.2-7.3c-0.3-8.5-7.3-15.3-15.9-15.3c-7.5,0-13.8,5.2-15.5,12.3
			c-0.5-0.1-1-0.1-1.4-0.1c-5,0-9.3,2.9-11.3,7.2c-2.7-2.2-6.2-3.5-9.9-3.5c-5.3,0-10,2.6-12.9,6.7H145.6z"/>
		<path class="st3" d="M240.7,116.5c1.1-2.6,3.2-4.5,5.9-5.3c0.2-6.2,5.3-11.1,11.5-11.1c5.5,0,10,3.8,11.2,8.9c0.3,0,0.7-0.1,1-0.1
			c3.6,0,6.8,2.1,8.2,5.2c2-1.6,4.5-2.5,7.2-2.5c3.9,0,7.3,1.9,9.4,4.8H240.7z"/>
	</g>
	<g>
		<path class="st4" d="M237.2,155.3v-9.8c0-2-1.6-3.7-3.7-3.7h-9.4c-1.3-7.2-4.3-13.8-8.4-19.5l6.9-6.9c1.4-1.4,1.4-3.7,0-5.2l-7-7
			c-1.4-1.4-3.7-1.4-5.2,0l-7.3,7.3c-5.7-3.6-12.1-6.1-19.1-7.1V92.4c0-2-1.6-3.7-3.7-3.7h-9.8c-2,0-3.7,1.6-3.7,3.7v11.8
			c-6.4,1.5-12.3,4.2-17.4,8l-8.9-8.9c-1.4-1.4-3.7-1.4-5.2,0l-7,7c-1.4,1.4-1.4,3.7,0,5.2l9.3,9.3c-3.3,5.1-5.6,10.9-6.8,17.1
			h-13.5c-2,0-3.7,1.6-3.7,3.7v9.8c0,2,1.6,3.7,3.7,3.7h13.5c1.1,6.2,3.5,12,6.8,17.1l-9.3,9.3c-1.4,1.4-1.4,3.7,0,5.2l7,7
			c1.4,1.4,3.7,1.4,5.2,0l8.9-8.9c5.1,3.8,11,6.5,17.4,8v11.8c0,2,1.6,3.7,3.7,3.7h9.8c2,0,3.7-1.6,3.7-3.7v-11.1
			c7-1,13.5-3.4,19.1-7.1l7.3,7.3c1.4,1.4,3.7,1.4,5.2,0l7-7c1.4-1.4,1.4-3.7,0-5.2l-6.9-6.9c4.2-5.7,7.1-12.3,8.4-19.5h9.4
			C235.6,159,237.2,157.4,237.2,155.3z M199,164.1c-2.4,3.7-5.7,6.8-9.7,8.8c-2.1,1.1-4.3,1.9-6.7,2.4c-1.6,0.3-3.3,0.5-5,0.5
			c-2.8,0-5.6-0.5-8.1-1.3c-2-0.7-3.8-1.6-5.5-2.7c-3.7-2.4-6.8-5.7-8.8-9.7c-0.8-1.6-1.5-3.3-2-5.1c-0.6-2.1-0.9-4.3-0.9-6.5
			c0-2.3,0.3-4.5,0.9-6.5c0.5-1.8,1.1-3.5,2-5.1c2-3.9,5.1-7.3,8.8-9.7c1.7-1.1,3.6-2,5.5-2.7c2.5-0.9,5.3-1.3,8.1-1.3
			c1.7,0,3.4,0.2,5,0.5c2.4,0.5,4.6,1.3,6.7,2.4c3.9,2,7.3,5.1,9.7,8.8c1.4,2.2,2.5,4.6,3.1,7.1c0.6,2.1,0.9,4.3,0.9,6.5
			c0,2.3-0.3,4.5-0.9,6.5C201.4,159.5,200.4,161.9,199,164.1z"/>
		<path class="st5" d="M233.6,141.8h-9.4c-1.3-7.2-4.3-13.8-8.4-19.5l6.9-6.9c1.4-1.4,1.4-3.7,0-5.2l-7-7c-1.4-1.4-3.7-1.4-5.2,0
			l-7.3,7.3c-5.7-3.6-12.1-6.1-19.1-7.1V92.4c0-2-1.6-3.7-3.7-3.7h-9.8c-2,0-3.7,1.6-3.7,3.7v11.8c-6.4,1.5-12.3,4.2-17.4,8
			l-8.9-8.9c-1.4-1.4-3.7-1.4-5.2,0l-7,7c-1.4,1.4-1.4,3.7,0,5.2l9.3,9.3c-3.3,5.1-5.6,10.9-6.8,17.1h-1.3
			c6.9,9.6,16,17.4,26.7,22.6c-0.5-0.8-1-1.5-1.4-2.3c-0.8-1.6-1.5-3.3-2-5.1c-0.6-2.1-0.9-4.3-0.9-6.5c0-2.3,0.3-4.5,0.9-6.5
			c0.5-1.8,1.1-3.5,2-5.1c2-3.9,5.1-7.3,8.8-9.7c1.7-1.1,3.6-2,5.5-2.7c2.5-0.9,5.3-1.3,8.1-1.3c1.7,0,3.4,0.2,5,0.5
			c2.4,0.5,4.6,1.3,6.7,2.4c3.9,2,7.3,5.1,9.7,8.8c1.4,2.2,2.5,4.6,3.1,7.1c0.6,2.1,0.9,4.3,0.9,6.5c0,2.3-0.3,4.5-0.9,6.5
			c-0.7,2.5-1.7,4.9-3.1,7.1c-1.9,3-4.4,5.5-7.4,7.5c11.6-0.6,22.5-4,31.9-9.4c0.3-1,0.5-2.1,0.7-3.1h4.2c3.1-2.2,6.1-4.6,8.8-7.2
			v-6.3C237.2,143.5,235.6,141.8,233.6,141.8z"/>
	</g>
	<g>
		<g>
			<rect x="314.5" y="386.9" class="st6" width="80.4" height="52.5"/>
			<rect x="314.5" y="386.9" class="st7" width="80.4" height="23.3"/>
			<path class="st6" d="M547.3,368.9H162.2V169.7c0-10.6,8.6-19.3,19.3-19.3H528c10.6,0,19.3,8.6,19.3,19.3V368.9z"/>
			<rect x="175.6" y="173.1" class="st8" width="358.3" height="185.6"/>
			<path class="st9" d="M547.3,358.7H162.2v19.5c0,10.6,8.6,19.3,19.3,19.3H528c10.6,0,19.3-8.6,19.3-19.3V358.7z"/>
			<circle class="st6" cx="354.7" cy="379.6" r="7.3"/>
			<path class="st9" d="M499.8,448.9H209.6c-2.7,0-4.8-2.2-4.8-4.8l0,0c0-7.8,6.3-14.2,14.2-14.2h271.5c7.8,0,14.2,6.3,14.2,14.2
				l0,0C504.6,446.8,502.5,448.9,499.8,448.9z"/>
			<g>
				<g>
					<path class="st10" d="M515.9,220.9h-75c-1.2,0-2.2-1-2.2-2.2v-15.5c0-1.2,1-2.2,2.2-2.2h75c1.2,0,2.2,1,2.2,2.2v15.5
						C518.1,219.9,517.2,220.9,515.9,220.9z"/>
					<g>
						<polygon class="st11" points="449.9,214.3 446.9,215.6 447.3,212.3 445,209.9 448.3,209.2 449.9,206.3 451.5,209.2 
							454.8,209.9 452.6,212.3 452.9,215.6 						"/>
						<polygon class="st11" points="464.2,214.3 461.1,215.6 461.5,212.3 459.2,209.9 462.5,209.2 464.2,206.3 465.8,209.2 
							469.1,209.9 466.8,212.3 467.2,215.6 						"/>
						<polygon class="st11" points="478.4,214.3 475.4,215.6 475.8,212.3 473.5,209.9 476.8,209.2 478.4,206.3 480.1,209.2 
							483.3,209.9 481.1,212.3 481.5,215.6 						"/>
						<polygon class="st11" points="492.7,214.3 489.6,215.6 490,212.3 487.8,209.9 491,209.2 492.7,206.3 494.3,209.2 497.6,209.9 
							495.3,212.3 495.7,215.6 						"/>
						<polygon class="st12" points="506.9,214.3 503.9,215.6 504.3,212.3 502,209.9 505.3,209.2 506.9,206.3 508.6,209.2 
							511.9,209.9 509.6,212.3 510,215.6 						"/>
					</g>
				</g>
				<g>
					<path class="st10" d="M275.7,217.1h-80c-2.4,0-4.4-2-4.4-4.4v-18.8c0-2.4,2-4.4,4.4-4.4h80c2.4,0,4.4,2,4.4,4.4v18.8
						C280.1,215.1,278.1,217.1,275.7,217.1z"/>
					<g>
						<g>
							
								<ellipse transform="matrix(0.3845 -0.9231 0.9231 0.3845 -60.8303 315.3461)" class="st11" cx="206.1" cy="203.3" rx="7.7" ry="7.7"/>
							<path class="st12" d="M200.9,209c1.4,1.2,3.2,2,5.2,2c2,0,3.8-0.8,5.2-2c-0.2-2-1.5-3.7-3.3-4.4c0.8-0.6,1.3-1.5,1.3-2.6
								c0-1.8-1.4-3.2-3.2-3.2s-3.2,1.4-3.2,3.2c0,1,0.5,2,1.3,2.6C202.3,205.3,201,207,200.9,209z"/>
						</g>
						<g>
							<rect x="219.4" y="199.2" class="st13" width="41.3" height="1.5"/>
							<rect x="219.4" y="202.6" class="st13" width="53.6" height="1.5"/>
							<rect x="219.4" y="205.9" class="st13" width="53.6" height="1.5"/>
						</g>
					</g>
				</g>
				<g>
					<path class="st10" d="M239.7,240.7h-46.2c-1.2,0-2.2-1-2.2-2.2v-8.3c0-1.2,1-2.2,2.2-2.2h46.2c1.2,0,2.2,1,2.2,2.2v8.3
						C241.9,239.7,240.9,240.7,239.7,240.7z"/>
					<path class="st10" d="M239.7,258.6h-46.2c-1.2,0-2.2-1-2.2-2.2v-8.3c0-1.2,1-2.2,2.2-2.2h46.2c1.2,0,2.2,1,2.2,2.2v8.3
						C241.9,257.6,240.9,258.6,239.7,258.6z"/>
					<path class="st13" d="M239.7,276.4h-46.2c-1.2,0-2.2-1-2.2-2.2V266c0-1.2,1-2.2,2.2-2.2h46.2c1.2,0,2.2,1,2.2,2.2v8.3
						C241.9,275.5,240.9,276.4,239.7,276.4z"/>
					<path class="st11" d="M298,258.6h-46.2c-1.2,0-2.2-1-2.2-2.2v-8.3c0-1.2,1-2.2,2.2-2.2H298c1.2,0,2.2,1,2.2,2.2v8.3
						C300.2,257.6,299.3,258.6,298,258.6z"/>
					<path class="st10" d="M298,276.4h-46.2c-1.2,0-2.2-1-2.2-2.2V266c0-1.2,1-2.2,2.2-2.2H298c1.2,0,2.2,1,2.2,2.2v8.3
						C300.2,275.5,299.3,276.4,298,276.4z"/>
				</g>
				<g>
					<path class="st11" d="M515.9,264.9h-46.2c-1.2,0-2.2-1-2.2-2.2v-8.3c0-1.2,1-2.2,2.2-2.2h46.2c1.2,0,2.2,1,2.2,2.2v8.3
						C518.1,263.9,517.2,264.9,515.9,264.9z"/>
					<path class="st10" d="M515.9,282.8h-46.2c-1.2,0-2.2-1-2.2-2.2v-8.3c0-1.2,1-2.2,2.2-2.2h46.2c1.2,0,2.2,1,2.2,2.2v8.3
						C518.1,281.8,517.2,282.8,515.9,282.8z"/>
					<path class="st13" d="M515.9,300.7h-46.2c-1.2,0-2.2-1-2.2-2.2v-8.3c0-1.2,1-2.2,2.2-2.2h46.2c1.2,0,2.2,1,2.2,2.2v8.3
						C518.1,299.7,517.2,300.7,515.9,300.7z"/>
				</g>
			</g>
		</g>
		<g>
			<g>
				<path class="st14" d="M294,185.6c-2.3,57.7-29.1,63.6,0,105.2c29.1,41.6,129.5,26.9,131.2-4.6c1.7-31.5-19.5-50.5-5.6-90
					S294,185.6,294,185.6z"/>
				<path class="st15" d="M301.5,200.9c-3.4,26.2-12.4,52.1-7.8,66.3c0,0,0.5-16,3.5-19.9c0,0-3,22.5,6.2,40.7
					c9.2,18.2,108.1,14.7,108.1,14.7s2-20,0-34.4c-2-14.5-5.9-20.1-7-27.8c0,0,6.1,12.6,8.5,17.4c2.4,4.8,2.7,11.9,2.7,11.9
					s0.6-12.8-4.4-22.7c-5-9.8-2-36.9-0.5-47.5c1.5-10.5-69.8-23-77.5-18.8C325.5,185.2,301.5,200.9,301.5,200.9z"/>
			</g>
			<g>
				<path class="st3" d="M324.4,272.2c-34.4,11.6-59,16-66.2,38.5c-7.1,22.5-17.1,48-17.1,48h232.5c0,0-11.5-52.9-24.1-61.7
					c-12.6-8.8-61.9-23.5-77-26C357.5,268.5,324.4,272.2,324.4,272.2z"/>
				<path class="st16" d="M419.2,323.1c0,0,0.9,21.1-2.2,35.6h7.9L419.2,323.1z"/>
				<path class="st16" d="M296.9,331.4c0,0-0.7,16.2,1.7,27.3h-6L296.9,331.4z"/>
				<path class="st16" d="M269.2,304.3c3-7.9,12.7-17.3,12.7-17.3c-11.8,5.4-20.1,12.2-23.7,23.7c-7.1,22.5-17.1,48-17.1,48h18.8
					C259.1,334.8,266.2,312.2,269.2,304.3z"/>
				<path class="st6" d="M366.5,315.9c0,0-16.7-1.1-26.8-8.8c-10.1-7.7-8.8-15.3-8.8-15.3s-7.4,0.5-10.1,0
					c-2.7-0.5,1.2-29.1,17.2-29.6c16-0.5,49.4,6.1,53.6,6.3c4.1,0.2,17.7,12.4,14.2,27.8c-0.5,2.5-7.2-4.5-10.2-0.9
					C392.5,298.9,390.1,314,366.5,315.9z"/>
				<path class="st7" d="M361,311.3c0,0-20.1-13.5-29.1-39.9c-1.4-4.2,1-6.5,5.4-7.2L361,311.3z"/>
				<path class="st7" d="M367.3,315.4c11.8-7.5,22.6-26,25.9-32.2c3.3-6.2,3.4-12-6.6-13C376.5,269.1,367.3,315.4,367.3,315.4z"/>
				<path class="st17" d="M388.1,232.6c-3,24.4-4.8,37.5,3.4,47.6c0,0-14.6,29.6-25,35.6c0,0-24.9-17.8-31.8-46.3
					c0,0,4.1-6.3,4.7-15.6c0.5-9.3-0.8-25.5-0.8-25.5L388.1,232.6z"/>
				<path class="st18" d="M381.7,297.8c-15.2,18.4-30.9,2.9-36.7-5c9.6,14.6,21.5,23.1,21.5,23.1C371.3,313.1,377,305.4,381.7,297.8
					z"/>
				<path class="st18" d="M339.4,254c-0.5,8-3.5,13.7-4.4,15.2c11.3-2,35.5-6.6,50.6-12c0.2-6.7,1.2-14.7,2.5-24.5l-30.2-2.5
					l-19.3-1.3C338.8,231.3,339.9,245.5,339.4,254z"/>
			</g>
			<g>
				<g>
					<path class="st19" d="M427.4,170.4c1-15.4,1.2-29.4-10.8-47.4c-12-18-9.5,29.5-9.3,30c0.2,0.5,10.7,20.5,10.7,20.5L427.4,170.4
						z"/>
					<path class="st5" d="M420.7,194.8c-1.5,8.9-0.5,16.2,3.8,16.9c4.2,0.7,8.9-5.9,10.5-14.7c1.5-8.9-0.7-16.6-4.9-17.4
						C425.7,178.9,422.2,185.9,420.7,194.8z"/>
					<path class="st20" d="M429,200.5l-2.7,1.1l-2.6,7.3c0,0-0.4,0.9-1,2.1c0.5,0.4,1.1,0.7,1.7,0.8c3.8,0.6,7.9-4.5,9.8-11.8
						C430.8,201.6,429,200.5,429,200.5z"/>
					<path class="st5" d="M416.7,167.5c3.3-0.6,12.6,1.9,13.7,6.7c2.4,11-1.6,36.5-9,42.8c-2.7,2.3-10.1,1.8-12.8,1
						c-6.7-2.1-6.7-12.8-4.3-27.1C406.8,176.6,412.1,168.3,416.7,167.5z"/>
					<path class="st20" d="M429,200.5c-3.4,2.5-5.2,0-5.2,0c-2.3,4.9-6.6,4.9-12,5.7l-3-1.6c0,0-2.9,2.2-5.7,4.1
						c0.5,4.9,2.2,8.3,5.6,9.3c2.6,0.8,10.1,1.3,12.8-1C424.7,214.2,427.3,207.7,429,200.5z"/>
					<path class="st19" d="M430.4,174.2c-1.1-4.8-10.4-7.3-13.7-6.7c-0.3,0.1-0.5,0.1-0.8,0.2c6-0.4,9.2,3.8,9.9,8.6
						c0.7,4.8,0,26.8-7.1,36.4c-0.9,1.2-2.5,4.8-7.8,5.6c3.4,0.4,8.4,0.4,10.6-1.5C428.8,210.7,432.8,185.2,430.4,174.2z"/>
					<path class="st5" d="M429,200.5c-3.4,2.5-5.2,0-5.2,0c0,0,0,0,0,0c-1.1,4.7-2.8,9.2-5.1,12.3c-0.9,1.2-2.5,4.8-7.8,5.6
						c3.4,0.4,8.4,0.4,10.6-1.5C424.7,214.2,427.3,207.7,429,200.5z"/>
					<path class="st20" d="M417.2,192.9c-1.3,7.7-4.1,13.7-6.2,13.4c-2.1-0.4-2.7-6.9-1.3-14.7c1.3-7.7,4.1-13.7,6.2-13.4
						C418,178.6,418.6,185.1,417.2,192.9z"/>
				</g>
				<path class="st17" d="M313.7,217.5c0.1,0.2,0.2,0.5,0.3,0.7c3.4,7.8,9.4,15.9,15.4,21.9c8.8,9,20.7,16.7,33.4,18.4
					c13.6,1.8,26.1-5.7,35.2-15.4c4.2-4.5,7.4-10,8.8-16c1.4-6.4,0.7-13.2,1.7-19.7c0.6-3.5,2-6.8,3.2-10.1
					c3.6-10.2,5.4-21.7,4.2-32.7c-0.5-4.6-1.3-11.2-3.7-15.1c-2.9-4.6-9.4-8.2-13.9-10.9c-14.3-8.9-33.2-12.2-49.4-7.1
					c-16.6,5.2-30.1,18.4-37.1,34.2c-3.3,7.5-5.3,14.8-3.6,22.9C310,198.4,309.7,207.8,313.7,217.5z"/>
				<path class="st18" d="M310.3,179.7c0,0,25.8,7.1,48.5,0c22.7-7.1,30.5-21.3,32.4-28.7c0,0,18.6,14.6,22.3,36
					c0,0,1.3-38.1-10.6-42.9c-11.9-4.7-36.7-11-39.4-8.5c-2.7,2.5-48.8,28.8-48.8,28.8L310.3,179.7z"/>
				<g>
					<path class="st15" d="M336.5,180.3c1.9-0.9,3.8-1.7,5.8-2.4c2-0.7,4.1-1.2,6.2-1.4c2.1-0.3,4.4-0.6,6.5,0
						c3.1,0.8,4.3,1.5,5.8,2.9l-0.1,0.3c-1.1,0.1-2.2,0-3.2,0l-3-0.2c-2-0.1-3.9-0.6-5.9-0.6c-2,0-4,0.2-6,0.5c-2,0.3-4,0.8-6.1,1.2
						L336.5,180.3z"/>
					<path class="st15" d="M403.6,180.9c-1.9-0.8-3.9-1.4-5.9-1.7c-2-0.3-4.1-0.4-6.1-0.3c-2,0.1-4,0.6-6,0.8c-2,0.1-4,0.3-6.3,0.3
						l-0.1-0.3c1.7-1.5,3.7-2.4,5.9-2.9c2.1-0.6,4.4-0.4,6.5-0.2c2.2,0.2,4.3,0.6,6.4,1.2c2,0.7,4,1.6,5.7,2.9L403.6,180.9z"/>
					<ellipse class="st15" cx="349.1" cy="191.8" rx="2" ry="4"/>
					<ellipse class="st15" cx="390.2" cy="192" rx="1.9" ry="4"/>
					<path class="st18" d="M375.6,211c-0.6,1.5-1.5,2.9-2.9,3.7c-1.4,0.8-3.1,1.1-4.6,0.5c-2.4-1-3-3.8,0.2-3.2
						c1.3,0.2,2.5,0.4,3.8,0.2C372.8,212.2,375.3,211.8,375.6,211z"/>
					<g>
						<path class="st21" d="M352.1,221.9c8.1,1.1,27.8,1.5,34.2,1.2c-2.6,8.7-9.1,17.2-17.9,16.9C359.3,239.7,354,231,352.1,221.9z"
							/>
						<path class="st22" d="M379,235.5c-6.8-5.7-11.8-0.8-11.8-0.8c-1.6-1.1-5.9-2.8-9.6-0.3c2.1,2.6,4.7,4.4,7.9,5.2
							c1,0.1,2,0.3,3,0.4C372.6,240.1,376.2,238.3,379,235.5z"/>
						<path class="st3" d="M354.2,222.1c0.1,1.5,0.4,2.9,0.9,4.3c8.8,3.2,18.7,3.8,27.8,1.4c0.3-1.5,0.6-3.1,0.8-4.7
							C376.2,223.3,362.1,222.9,354.2,222.1z"/>
					</g>
				</g>
				<g>
					<path class="st19" d="M404.8,238.8c-0.7,0.1-1.3,0-1.9,0c-6.2-0.8-9.6-1.3-9.6-1.3l0.4-2.7c0,0,3.3,0.5,9.5,1.3
						c5.7,0.8,13.1-8.3,15-19c0.1-0.7,0.8-1.2,1.5-1.1l0,0c0.8,0.1,1.3,0.8,1.2,1.6C418.9,228.8,411.5,238.3,404.8,238.8z"/>
					<path class="st5" d="M420.6,216.3c0,0.1,0,0.2,0,0.3c-2,11.3-9.4,20.8-16.2,21.4c-0.7,0.1-1.3,0-1.9,0c-4.9-0.7-8-1.1-9.1-1.2
						l-0.1,0.8c0,0,3.3,0.5,9.6,1.3c0.6,0.1,1.3,0.1,1.9,0c6.7-0.5,14.2-10.1,16.2-21.4C421,217,420.9,216.6,420.6,216.3z"/>
					<path class="st14" d="M393.4,239l-5.5-0.7c-1.9-0.3-3.2-2-2.9-3.9l0,0c0.3-1.9,2-3.2,3.9-2.9l5.5,0.7c1.9,0.3,3.2,2,2.9,3.9
						l0,0C397.1,238,395.3,239.3,393.4,239z"/>
					<path class="st23" d="M396.5,233.4c0,0.2,0,0.5,0,0.7h0c-0.3,1.9-2,3.2-3.9,2.9l-4.8-0.7c-1.3-0.2-2.3-1.1-2.7-2.2
						c0,0.1,0,0.2-0.1,0.2v0c-0.3,1.9,1.1,3.6,2.9,3.9l5.5,0.7c1.9,0.3,3.6-1.1,3.9-2.9h0C397.5,235.1,397.1,234.1,396.5,233.4z"/>
				</g>
				<g>
					<path class="st14" d="M386,144.3c0,0,27.4,11.5,27.7,49c0,0,21.9-24.1,9-60.3c-12.9-36.2-50.1-34.8-50.1-34.8L386,144.3z"/>
					<path class="st23" d="M386,144.3c0,0,26.7,11.2,27.6,47.7c0-0.2,0-0.4,0-0.6c-0.4-36.8-13.2-46.6-25.8-53.3l-3,2.1L386,144.3z"
						/>
					<path class="st14" d="M308.8,177.7c0,0,75.5,4.4,81.6-34c6-38.4-13.3-47.7-22.8-48.6c-9.5-0.9-28-3.1-43.8,12.2
						c-15.8,15.4-33.5,24.7-31.5,74.3L308.8,177.7z"/>
					<path class="st15" d="M307.2,167.3c3.3-1.8,6.6-3.7,9.8-5.8c3.2-2,6.3-4.2,9.4-6.4c6.2-4.5,12.1-9.3,17.7-14.5
						c-5.1,5.7-10.6,11.1-16.4,16.2c-2.9,2.6-5.8,5-8.9,7.4c-3,2.4-6.2,4.6-9.4,6.9L307.2,167.3z"/>
					<path class="st15" d="M350.1,110.6c-17.9,9.7-37.6,33-38,52.2c0,0-7.6-7-3.6-17.1c4-10.1,15.7-21.2,22.2-26
						C337.3,115,350.1,110.6,350.1,110.6z"/>
					<path class="st15" d="M313.3,169.4c-2.4-6.2-0.8-27.4,0-33.4c0.8-6,3-10.6,3.2-11.7c0.2-1.1-0.3-1.5-0.3-1.5
						c12.5-19.2,30.1-21.9,48.1-27.5l-1-0.5c-10.1-0.8-25.9-0.7-39.6,12.6c-15.8,15.4-33.5,24.7-31.5,74.3l16.7-4
						c0,0,25.8,1.5,48.5-4.9C332.1,177.7,315.7,175.7,313.3,169.4z"/>
					<path class="st15" d="M381,143.6c-7.4,11.6-16.6,22.3-51.5,27.4c-23.3,3.3-27-1.4-27-1.4s40.7-2.7,57.1-11
						C376,150.1,381,143.6,381,143.6z"/>
				</g>
				<g>
					<path class="st19" d="M314,123.7c4.5-13.2,27.2-28.2,53.5-28.6c0,0-13.5-3.3-29.2,2.6c-15.7,5.8-27,15.4-33.2,26.1
						C298.8,134.6,314,123.7,314,123.7z"/>
					<path class="st5" d="M336.9,101.3c-14.4,5.8-22.4,17.9-22.4,17.9c-0.7,0.1-7.3,1.3-7.4,1.3c-0.7,1.1-1.5,2.2-2.1,3.3
						c-0.2,0.4-0.4,0.7-0.6,1.1c2.1-0.1,5.1-0.3,5.9,0.1c0.3,0.1,1,0.1,2-0.2c1-0.7,1.6-1.1,1.6-1.1c4.5-13.2,27.2-28.2,53.5-28.6
						C358.7,95,351.3,95.5,336.9,101.3z"/>
					<path class="st19" d="M310.5,170.4c-1.2-24.6,2.2-41.4,5.3-45.9c3.1-4.6-9.6-2.6-12.2,1c-1.7,2.3-7.3,21.9-5.2,45.1
						S310.5,170.4,310.5,170.4z"/>
					<path class="st5" d="M313.5,121.8c1.1,0.4,1.4,1,0.6,2.1c-0.8,1.2-4,11.6-4.8,20.8c-0.8,9.2-0.4,18.8-0.6,19.9
						c-0.2,1.1-8.2,3.1-10.6,2c0.1,1.3,0.2,2.6,0.3,3.9c0.2,1.7,0.3,3.2,0.6,4.4c2.4,0.3,5.8,0.4,8.9,0.4c1.5-2.5,2.6-5,2.6-5
						c-1.2-24.6,2.2-41.4,5.3-45.9C317.1,122.6,315.7,121.8,313.5,121.8z"/>
					<path class="st5" d="M308.4,169.2c-3.2-0.9-12.8,0.6-14.3,5.3c-3.5,10.7-2.2,36.4,4.5,43.4c2.4,2.6,9.9,2.9,12.6,2.3
						c6.9-1.4,8-12.1,7.1-26.5C317.2,179.3,312.8,170.5,308.4,169.2z"/>
					<path class="st20" d="M298.5,217.9c2.4,2.6,9.9,2.9,12.6,2.3c4-0.8,6-4.7,6.9-10.5c-3.3,2.8-11.8,1.9-16.1,0
						c0,0,0.7-12.8-1.6-20.1c0,0-4.1,9-6.5,17.3C294.9,211.7,296.5,215.7,298.5,217.9z"/>
					<path class="st19" d="M307.2,194.5c0.9,12.9-2.2,23.6-6.8,23.9c-4.6,0.3-9.1-9.9-10-22.8c-0.9-12.9,2.2-23.6,6.8-23.9
						C301.9,171.3,306.3,181.6,307.2,194.5z"/>
					<path class="st5" d="M301.3,199.9c0,0-5.9,0.7-8.2,9.7c1.9,5.5,4.6,9,7.3,8.8c2.4-0.2,4.3-3,5.5-7.5c-1.5-0.3-2.9-0.7-4-1.2
						C301.9,209.7,302.4,207.6,301.3,199.9z"/>
					<path class="st5" d="M301.2,196c0.7,9.7-1.1,17.4-5.4,17.7c-4.3,0.3-8.3-7.3-9-17c-0.7-9.7,2.3-17.7,6.6-18
						C297.7,178.3,300.5,186.3,301.2,196z"/>
					<path class="st20" d="M294.7,210.3c-2,0.1-3.9-1-5.6-3.1c1.7,4.1,4.1,6.6,6.6,6.5c3.7-0.3,5.5-6,5.5-13.7
						C300.4,206,298.2,210,294.7,210.3z"/>
				</g>
			</g>
		</g>
	</g>
	<g>
		<g>
			<g>
				<path class="st17" d="M503.4,246.5c-0.9,3.3,1.9,6.2,2.9,6.8c0.9,0.5,7.1,3.1,11,3.2c3.8,0.1,9.5-8,7.5-8.9
					c-2-0.9-16.1-1.9-17.6-1.9S503.4,246.5,503.4,246.5z"/>
				<path class="st3" d="M513.6,244.8c1,9.9,4.4,17.5,5.6,17.7c1.2,0.1,13.5-4,16.9-5.5c3.4-1.5,0.8-24.7-1.3-24.2
					c-2.1,0.4-6.9,4.9-10.8,7C520.2,241.9,513.6,244.8,513.6,244.8z"/>
				<path class="st16" d="M533,248.9c-1.3,2-11.1,7-16.5,8.8c1.1,2.9,2.2,4.7,2.8,4.8c1.1,0.1,10.2-2.9,14.9-4.7
					C534,254.1,533,248.9,533,248.9z"/>
				<path class="st17" d="M503.4,246.1c-0.4,3.9,3.1,4.5,7.4,3.5c4.3-1,11.9-10.5,15.3-14.8c3.4-4.3,9.7-11.9,10.9-12.6
					c1.2-0.7,4-1,6.6-4.9c2.6-3.9,0.1-11.9-0.9-12.9c-1-1-10.7,2.2-11.9,3.9c-1.2,1.6,0,10.3-0.4,11.4c-0.4,1.1-9.1,10-12.7,12.2
					C514,234,503.7,243.3,503.4,246.1z"/>
				<path class="st18" d="M537.4,210.8c1.1-0.5,1.6-3,0.9-2.6c-0.7,0.4-1.9,0.4-3.6,0.4c-1.6,0-2.3-0.2-2.3-0.2s-0.2,1.1-0.3,2
					C532,210.4,536.2,211.3,537.4,210.8z"/>
				<path class="st18" d="M544.6,211.4c-0.6-1.2-1-2.2-1-2.2l-6.9,6.2c-1.7-1.5-3.7-2.9-3.7-2.9l-0.6,1c0.9,1.8,1.6,5.5,1.5,6.4
					c0,0,0.9,1.1,1.5,1.2c0,0-7.7,11-12.6,16.3c-4.8,5.4-8.2,10-10.4,11.5c4.4-2.4,10.7-10.3,13.7-14.1c3.4-4.3,9.7-11.9,10.9-12.6
					c1.2-0.7,4-1,6.6-4.9C544.6,215.7,544.8,213.5,544.6,211.4z"/>
				<path class="st15" d="M531.1,212c0,0.6,6.1,6.2,6.7,6.8c0,0,0.5,0.1,0.7,0c1.8-1.5,10.3-15.1,10.4-15.5c0.2-0.5-4.5-5.1-5.9-6.4
					c-0.2-0.2-1.1-0.1-1.2,0.1C540.2,199.3,531.1,211.2,531.1,212z"/>
				<path class="st14" d="M531.8,212c0,0.6,6.1,6.2,6.7,6.8c0.6,0.6,10.9-15,11.1-15.5c0.2-0.5-5-5-6.4-6.3
					c-0.2-0.2-0.5-0.1-0.6,0.1C540.9,199.3,531.8,211.2,531.8,212z"/>
				<path class="st9" d="M533,211.1c0,0.6,5.7,5.8,6.2,6.4c0.6,0.6,10.2-14,10.4-14.5c0.1-0.4-4.7-4.7-6-5.9
					c-0.2-0.2-0.5-0.1-0.6,0.1C541.4,199.2,532.9,210.3,533,211.1z"/>
				<path class="st17" d="M537.4,203.4c1-0.6,2.4-2.6,2.6-3.3c0.2-0.7,0.1-1.3-0.4-1.4c-0.5-0.1-2.3,2-3.2,2.6c-0.9,0.6-2,2-1.6,2.9
					c0.3,0.9,2.2,0.5,2.4,0.4C537.4,204.5,537.4,203.4,537.4,203.4z"/>
				<path class="st18" d="M539.9,198.9c0.3,0.8-2,3.9-3.9,4.8l0.6,0.8c0,0,0.3-0.1,0.7-0.2c0.1-0.3,0.1-0.8,0.1-0.8
					c1-0.6,2.4-2.6,2.6-3.3C540.1,199.6,540.1,199.1,539.9,198.9z"/>
				<path class="st17" d="M534.8,206.6c1.8-0.9,3.1-0.8,4.1-1.2c1-0.4,1.2-1.8,0.6-2.1c-0.6-0.2-4.5,0.4-5.5,0.8
					c-1,0.4-1.7,2.5-1.7,2.5L534.8,206.6z"/>
				<path class="st18" d="M535.7,205.5c-1,0.2-1.3,0-1.3,0c0,0.4-0.4,0.6-0.8,1.1l1.3,0c1.8-0.9,3.1-0.8,4.1-1.2
					c0.4-0.2,0.7-0.6,0.9-1C539.3,205.2,536.6,205.3,535.7,205.5z"/>
				<path class="st17" d="M530.8,208.2c0.8,1.3,5.3,0.7,6.3,0.6c0.9-0.1,1.5-0.7,1.5-1.3c-0.1-1.2-6-1-6.5-0.8
					C531.5,206.9,530.8,208.2,530.8,208.2z"/>
				<path class="st18" d="M538.5,207.8c-0.7,0.6-2.2,1-3.8,1.1c-1.4,0.1-2.2,0.1-2.4,0c1.7,0.3,4.1,0,4.7-0.1
					C537.8,208.7,538.3,208.2,538.5,207.8z"/>
			</g>
			<g>
				<g>
					<path class="st24" d="M552.9,468.6c0.3,2.4,1.2,3.3,4.7,3.8c3.5,0.5,8.6,0.4,11.3-2.2c2.7-2.6,4.3-5.6,4.5-6.9
						c0.2-1.3,0.1-2.7,0.5-3.4c0.4-0.7,2.6-1.1,2.3-4.9C576,451.1,552.9,468.6,552.9,468.6z"/>
					<path class="st5" d="M575.5,445.8c-0.4-5.3-13-3.3-13-1.1c-0.1,2.1-3,11-5.9,13.7c0,0,0,0,0,0c-3.8,1.7-5.2,6-3.7,10.2
						c1.3,3.5,11,2.7,13.4,1.4c2.5-1.4,4.9-4.9,5.6-6.8l0,0c0.5-1.1,0.8-2.8,1.9-4.3c1.2-1.4,1.8-1.2,2.3-2.9
						C576.6,454.3,575.9,451.1,575.5,445.8z"/>
					<path class="st24" d="M564.7,445.6c-1.2,5.5-3.8,9-3.1,9.7c0.8,0.6,5.5,1.4,6.4,0c0.9-1.4,2.4-7.3,2.4-9.7
						S564.7,445.6,564.7,445.6z"/>
				</g>
				<g>
					<path class="st5" d="M536.9,450.1c0.3-2.4,0.3-5.9-1.7-9.8c-2-4-1.9-4.3-4.2-4.7c-2.3-0.4-10.8-1.6-10.8-1.6s-1.4,4-6.4,6.7
						c-5,2.7-6,3.7-9.2,3.7c-3.2,0-10.3,0.4-7.5,8.9c0,0,2.3,1,7.9,0.9c5.7,0,11.4-0.5,13.5-1.3c2.1-0.8,4.2-1.2,5.4-0.7
						c1.2,0.5,5.3,0.3,7.5,0C533.6,451.9,536.9,450.1,536.9,450.1z"/>
					<path class="st24" d="M510.1,442.3c-0.4,0.1-0.5,0.5-0.3,0.8c0.7,1,2.1,2.2,2.8,1.9c0.9-0.3,5.1-3.5,7.4-5.5
						c1.1-0.9,2.1-2.6,1.5-3.5c-0.6-0.8-2.1-1.8-2.8-1.3c-0.6,0.5-1.9,2.9-4.5,5.1C512.4,441.3,510.9,442,510.1,442.3z"/>
					<path class="st24" d="M497,453.2c5.6,0.5,18.6-0.5,21.2-1.2c2.6-0.7,4.1-1.8,6.6-0.9c2.5,1,10.3-0.5,11.6-1
						c1.2-0.5,0.9,1.4,0,1.6c-0.9,0.2-6.5,1.4-9.4,1.6c-2.9,0.3-3-1.9-6.4-0.3c-3.4,1.6-9,1.6-11.5,1.6c-2.5,0-9.5,0.5-10.8,0
						C496.9,454.1,497,453.2,497,453.2z"/>
				</g>
				<path class="st7" d="M561.4,445.9c3.8,1,14.8,0.7,15.3-0.8c0.5-1.5-1.5-25.2-1.5-32.7s-2.6-26.2-2.2-28.2
					c0.4-2.1,0.4-3.6-0.3-7.1c-0.7-3.6-1-44.8-4.2-72.6l-42.7,4c0,0-6.8,26.3-7.4,44.9c-0.5,18.6,0.1,27.6,0,30.3
					c-0.1,2.7,1.2,5.5,1.4,7.7c0.3,2.2-0.1,18.4-0.4,24.3c-0.4,5.8-0.6,16.6-1.2,17.9c-0.6,1.3,12.9,3.8,14.7,2.9
					c1.8-0.9,1.8-1.1,1.8-10.6c0-9.5,1.3-32.3,1.3-36.3c0-4,1.3-4.7,0.7-6.8c-0.5-2,1.5-11.1,3.5-17.9c2-6.8,4.4-14.1,4.4-14.1
					s5.7,36.5,7.5,38.7c1.8,2.2,1.5,7.9,2.6,11.1c1.1,3.3,4.4,25.6,4.4,32.3S557.4,444.8,561.4,445.9z"/>
				<path class="st25" d="M570.5,446.4c1.8-0.1,3.5-0.3,4.7-0.6c0.5-1.9,0.9-4.4,1.4-7.3c-0.4-8-1.4-21-1.4-26.3
					c0-7.5-2.6-26.2-2.2-28.2c0.4-2.1,0.4-3.6-0.3-7.1c-0.7-3.6-1-44.8-4.2-72.6l-8.6,0.8l-25.2,9.5c12.1,0.3,26.2-1.6,26.2-1.6
					s2,22.3,2,25.6c0.1,3.3,2.4,34,2.4,36.8c0,2.8,1.1,3.6,1.3,6.7c0.2,3.1-2.2,4.2-2.2,4.2s3.3,1.1,3.3,1.6c0,0.5,0.7,9.4,0.7,12.8
					s1.5,8.1,1.9,18.4c0.4,10.3,1.8,22.5,1.8,23.8C572.2,444.3,572.2,445.6,570.5,446.4z"/>
				<path class="st25" d="M542.8,330l-9.2-2.3l7.1,3.4l-5.8,0.1l4.4,1.6c0,0,1.4,11.4-1.5,19.1c-3.1,8.4-4.6,29.9-5.5,31.5
					c-1,1.6-3.4,1.2-3.4,1.2s2.6,0.3,2.7,2.2c0.1,1.9-0.5,7.3-0.5,12.9c0,5.7-0.5,14.6-1.1,18.5c-0.5,3.8-0.8,13.2-1.1,15.7
					c-0.3,2.5-4,1.9-4,1.9l0,0c1.9,0.4,3.8,0.6,5.4,0.7c5.6,0.5,4.5-1.6,4.5-12.7c0.1-10.3,1.3-30.7,1.3-34.4c0-4,1.3-4.7,0.7-6.8
					c-0.5-2,1.5-11.1,3.5-17.9s4.4-14.1,4.4-14.1s-1-9.3-1.1-11.5C543.3,337,542.8,330,542.8,330z"/>
			</g>
			<g>
				<path class="st3" d="M550.5,225.9c-9.9,4.8-11.4,4.7-15.7,6.8c-4.2,2.2-4.7,25.3-4.7,28.9c0,3.6,0,17.7-0.9,21.6
					c-0.8,3.8-4,18.1-5.1,20.3c-1.1,2.2-3.2,5.9-0.5,8.1c2.6,2.2,8.3,3.7,21.1,2.9c12.7-0.8,27-8.6,27.7-9.7
					c0.7-1.1-4.5-21.2-4.5-25.1s-0.5-6.7-0.8-8.5c-0.3-1.8,4.4-10.1,5.4-15.5c1-5.3,7.9-20.1,7-22.8c-0.9-2.7-10.8-5.7-17.4-9.1
					C555.4,220.3,550.5,225.9,550.5,225.9z"/>
				<path class="st16" d="M548.2,229.8c0,0.6,0,1.2,0.1,1.7c0.1,0.6,0.3,1.1,0.6,1.6c0.6,1,1.6,1.5,2.8,1.5c1.1,0,2.2-0.3,3.3-0.7
					c1.1-0.4,2.1-0.9,3.2-1.4c-0.5,0.3-1,0.7-1.5,1c-0.5,0.3-1,0.6-1.6,0.8c-1.1,0.5-2.3,0.8-3.5,0.8l-0.5,0l-0.5-0.1
					c-0.3,0-0.6-0.2-0.9-0.3c-0.5-0.3-1-0.8-1.3-1.3C548,232.2,548,230.9,548.2,229.8z"/>
				<path class="st16" d="M572.4,304.7c0.7-1.1-4.5-21.2-4.5-25.1c0-3.8-0.5-6.7-0.8-8.5c-0.3-1.8,4.4-10.1,5.4-15.5
					c0.2-0.9,0.5-2.1,1-3.5l-4.1-3.2c-3,7-5.5,19.3-8.1,22.4c-2.6,3-8.6,4.2-8.6,4.2s5.8,1.4,8.4,0.8c0,0,1.9,10.8,1.6,16.2
					c-0.4,5.3-1.4,13.4-1.6,14.5c-0.1,0.4-0.1,1.8-0.1,3.5C567.3,308.1,572,305.3,572.4,304.7z"/>
				<path class="st17" d="M561.6,214c-0.3,5.7-0.2,9.6,1,10.7c0,0-2.9,9.5-11.5,8.7c-2.9-0.3-2.3-5.2-0.6-7.5l-0.4-7L561.6,214z"/>
				<path class="st18" d="M562,223.7L562,223.7c-0.6-1.8-0.6-5.2-0.4-9.7l-11.6,4.9l0.2,4.5l0,0C552.2,224.3,562,223.7,562,223.7z"
					/>
			</g>
			<g>
				<path class="st17" d="M589.1,260.2c1.7,2.6,3.8,9.2,2.6,12.2c-1.2,3-12.1,16.4-17.1,21.5c-4.9,5-6,5.8-6.9,7.5
					c-0.9,1.6-5.3,8.4-6.4,9.5c-1.1,1-2.9,1.2-2.9,1.2s-1.5,1.5-4.1,1.2c0,0-2.4,1.6-4.3,2c0,0-0.7,1.2-1.3,1.3
					c-0.6,0.1-1.3-1.1,0-3.6c1.3-2.5,3.2-3.5,3.6-5.1c0.4-1.6,2.1-4.8,2.1-4.8s-3.4,3.3-5.4,3.5c-2,0.2-2.2-1-1-1.9s2.7-2.4,4.1-4.2
					c1.4-1.8,3.2-3.1,5.7-3.4c2.5-0.3,4.3-0.6,5-1.1c0.7-0.5,4.3-5.1,6.9-10.2c2.6-5,5.1-11.4,11.2-17.1l-2.2-4.4L589.1,260.2z"/>
				<path class="st18" d="M550.1,314.9c0.6-1.4,1.6-2.6,2.6-3.6l0.4-0.4c0.1-0.1,0.3-0.3,0.4-0.3c0.2-0.3,0.4-0.6,0.6-0.9
					c0.4-0.6,0.8-1.2,1.2-1.8c-0.2,0.7-0.5,1.4-0.9,2.1c-0.2,0.3-0.3,0.7-0.6,1c-0.2,0.2-0.3,0.3-0.4,0.4l-0.4,0.4
					c-0.5,0.5-1,1-1.5,1.6C551.1,313.8,550.6,314.3,550.1,314.9z"/>
				<path class="st18" d="M554.4,312.8c0.4-0.7,0.9-1.4,1.4-2c0.5-0.7,0.9-1.3,1.3-2.1c0,0.9-0.4,1.7-0.9,2.4
					C555.8,311.7,555.2,312.3,554.4,312.8z"/>
				<path class="st18" d="M556.4,313.1c1.3-0.4,2-1.1,2-1.1s1.8-0.1,2.9-1.2c0.4-0.4,1.4-1.8,2.5-3.4c0,0-1.3,1.3-2.2,2.3
					c-1.3,1.4-2.9,1-2.9,1l0.3-1.3C559.1,309.4,557.8,312.4,556.4,313.1z"/>
				<path class="st18" d="M592,269.1c-0.1,1.2-0.2,2.2-2.3,5.5c-2.4,3.7-16,19.2-19,22.1c-2.9,2.9-2.9,3.1-4.8,7.6
					c0.8-1.3,1.5-2.4,1.8-3c0.9-1.6,2-2.5,6.9-7.5c4.9-5,15.9-18.4,17.1-21.5C592.1,271.6,592.2,270.4,592,269.1z"/>
				<path class="st18" d="M582.5,265.5l0.9,1.7c0,0-1.4,0.4-2.5,1.4l-1.7-3.4L582.5,265.5z"/>
				<path class="st3" d="M571.1,256.2c-2.2-5.1-2.7-13.5,0-17.9c2.7-4.4,7.3-6,8.3-5.5c1.1,0.5,3.5,7.4,6.1,10.6
					c2.6,3.2,9.5,12.1,9.7,12.8c0.2,0.7-6,6.8-17.1,11.2C576.8,268,571.1,256.2,571.1,256.2z"/>
				<path class="st16" d="M578.8,260.2l1.5,3.5c0,0-7.8-8.5-10.9-14.8c0.2,2.6,0.8,5.2,1.7,7.3c0,0,5.7,11.7,7,11.2
					c1.9-0.8,3.6-1.6,5.2-2.4L578.8,260.2z"/>
			</g>
			<g>
				<path class="st14" d="M567.5,206.5c2-4.9,4.5-10.1,1.4-12.9c0,0,3.5-1.1,5.3-0.7c0,0-1.8-1.1-5.5-1.5c0,0,0.7-8.3-1.2-11.9
					c0,0,0,3.7-1,5.1c0,0-2-4.3-7.9-5.9c-5.9-1.6-11.7-1.8-15.8,2.4c-4.1,4.2-8.9,9.6-2,17.7c6.9,8.1,16.1,10.2,20,10.8
					C564.7,210.2,567.5,206.5,567.5,206.5z"/>
				<path class="st15" d="M546.4,190.9c1.4,0.6,2.8,1,4.2,1.3c1.4,0.3,2.9,0.6,4.3,0.8c1.5,0.2,2.9,0.4,4.4,0.6
					c1.5,0.1,2.9,0.2,4.4,0c-1.4,0.6-2.9,0.8-4.4,0.9c-1.5,0-3-0.1-4.5-0.3c-1.5-0.3-3-0.6-4.4-1.1
					C548.9,192.6,547.5,191.9,546.4,190.9z"/>
				<path class="st15" d="M562.4,198c1.6-0.4,4.2-2.9,4.2-2.9s-2.7,1.9-8.3,1.5c-5.6-0.5-9.3-1.6-9.3-1.6s5.8,3.4,7.9,3.9
					C559,199.4,562.4,198,562.4,198z"/>
				<path class="st15" d="M542.9,194.3c-2.6-1.3-3.3,0-3.3,1.1c0,1.1,1.2,3.4,1.2,3.4L542.9,194.3z"/>
				<path class="st15" d="M570.3,198.4c-2.1,4.1-6.7,7.3-6.7,7.3s-1.8,2.4,0.2,3.4c0.1,0,0.2,0.1,0.3,0.1c2.1-0.9,3.4-2.6,3.4-2.6
					C568.7,203.7,570,200.8,570.3,198.4z"/>
				<path class="st17" d="M563.6,205.6c0,0,2.1-1.6,3.6,0c1.4,1.6-1.3,8.9-4.5,7.1c0,0-5.3,6.8-9,8.7c-3.7,1.9-6.2,1-7.4-0.4
					c-1.2-1.4-5.4-7-5.8-12.9c-0.1-2.1,0.5-6.3,0.5-7.2s-0.5-4.4,0.2-5.4c0.8-1,1.8-1.2,1.8-1.2s4.6,2.3,8.6,2.6c0,0-1.9-1.2-2.5-2
					c0,0,7.9,2.7,13.4,3.1c0,0-0.1,3.2,0.2,4.5C562.9,203.9,563.6,205.6,563.6,205.6z"/>
				<path class="st18" d="M566.5,207.6c-0.2-1.3-1.3-1.6-2.2-0.7c-0.9,1-1.3,4-1.1,4.4c0.2,0.4,1.7,0.4,2-0.5
					c0.4-0.9-0.5-1.5-1.3-1.2c0,0-0.1-1.4,0.6-2.2c0.8-0.9,1.4-0.5,1.6-0.3C566.2,207.4,566.5,207.6,566.5,207.6z"/>
				<g>
					<path class="st15" d="M557.6,201.7c-0.3-0.3-0.6-0.6-1-0.8c-0.3-0.3-0.7-0.5-1.1-0.7c-0.4-0.2-0.8-0.4-1.3-0.4
						c-0.4,0-0.9,0-1.3,0.2l0,0.1c0.2,0.1,0.4,0.1,0.6,0.2l0.6,0.2c0.4,0.1,0.8,0.2,1.2,0.3c0.4,0.1,0.8,0.3,1.1,0.5
						C556.9,201.3,557.2,201.5,557.6,201.7L557.6,201.7z"/>
					<path class="st15" d="M542.6,200.2c0.4-0.2,0.8-0.3,1.2-0.4c0.4-0.1,0.8-0.1,1.2-0.1c0.4,0,0.8,0.1,1.2,0.1c0.4,0,0.8,0,1.3,0
						l0-0.1c-0.4-0.3-0.8-0.4-1.2-0.5c-0.4-0.1-0.9,0-1.3,0c-0.4,0.1-0.9,0.2-1.3,0.3C543.3,199.6,542.9,199.8,542.6,200.2
						L542.6,200.2z"/>
					<path class="st15" d="M553.4,204.1c0.1-0.6,0.4-1,0.7-1c0.3,0,0.6,0.5,0.5,1.1c-0.1,0.6-0.4,1-0.7,1
						C553.6,205.2,553.3,204.7,553.4,204.1z"/>
					<path class="st15" d="M544.3,203.4c0.1-0.6,0.3-1,0.6-1c0.3,0,0.5,0.5,0.4,1.1c-0.1,0.6-0.3,1-0.6,1
						C544.4,204.4,544.2,204,544.3,203.4z"/>
					<path class="st18" d="M550.1,209.7c-0.8,0.6-2,0.5-2.8,0c0.1,0.4,0.2,0.9,0.7,1c0.4,0.2,0.9,0.1,1.3-0.1
						C549.7,210.5,549.8,210.1,550.1,209.7z"/>
					<g>
						<path class="st21" d="M553,213.1c-1.9,0-6.5-0.3-8-0.5c0.4,1.9,1.9,3.8,4,3.8C551.1,216.5,552.5,214.9,553,213.1z"/>
						<path class="st22" d="M551.1,215.8c-0.7-0.2-1.5-0.1-1.8,0c0,0-1-0.7-2.5-0.2c0.6,0.5,1.4,0.9,2.3,0.9
							C549.9,216.5,550.5,216.2,551.1,215.8z"/>
						<path class="st3" d="M546.3,214.2c1.9,0.6,4,0.4,5.9-0.2c0-0.3,0.1-0.6,0.1-0.9c-1.9,0-4.9-0.3-6.5-0.5
							C545.8,213.2,546,213.7,546.3,214.2z"/>
					</g>
				</g>
			</g>
		</g>
		<g>
			<g class="st26">
				<path class="st27" d="M600.5,189.9c0.4-1.1,0.9-2.1,1.4-3c0.5-0.9,1.3-1.7,2.3-2.4c1-0.7,2.3-1.1,4-1.3c0.5-0.1,1.2-0.1,2.2-0.2
					c0.9-0.1,1.9-0.2,2.9-0.5c1-0.2,1.9-0.6,2.7-1c0.8-0.5,1.4-1.1,1.7-1.9c0.2-0.6,0.2-1.1,0.1-1.7c-0.2-0.6-0.5-1.1-0.9-1.5
					c-0.4-0.4-1-0.8-1.6-1c-0.9-0.3-1.8-0.4-2.5-0.2c-0.8,0.2-1.4,0.5-2,1c-0.6,0.4-1.1,0.8-1.5,1l-5.2-7.6c1.2-1.3,2.7-2.3,4.3-3
					c1.6-0.7,3.3-1,5.1-1c1.8,0,3.7,0.3,5.5,1c1.5,0.5,2.9,1.3,4.2,2.3c1.3,1,2.4,2.1,3.3,3.5c0.9,1.4,1.4,3,1.6,4.7
					c0.2,1.8-0.1,3.7-0.9,5.9c-0.3,0.9-0.7,1.8-1.2,2.6c-0.5,0.8-1,1.5-1.7,2.1c-0.6,0.6-1.4,1.1-2.2,1.6c-0.8,0.4-1.8,0.8-2.9,1.1
					c-1.4,0.4-2.8,0.6-4.2,0.7c-1.4,0.1-2.6,0.3-3.6,0.5c-1,0.3-1.7,0.8-2,1.6L600.5,189.9z M596.8,200.5l0.2-0.5
					c0.9-2.5,3.7-3.7,6.2-2.8v0c2.5,0.9,3.7,3.7,2.8,6.2l-0.2,0.5c-0.9,2.5-3.7,3.7-6.2,2.8l0,0C597.1,205.7,595.9,203,596.8,200.5z
					"/>
				<path class="st27" d="M584.7,190.8c-0.1-0.9-0.2-1.7-0.2-2.5c0-0.8,0.2-1.6,0.6-2.3c0.4-0.8,1.1-1.5,2.1-2.2
					c0.3-0.2,0.7-0.5,1.3-0.9c0.6-0.4,1.1-0.8,1.7-1.3c0.6-0.5,1-1,1.4-1.6c0.4-0.6,0.5-1.2,0.4-1.8c-0.1-0.4-0.3-0.8-0.6-1.1
					c-0.3-0.3-0.7-0.5-1.1-0.6c-0.4-0.1-0.9-0.1-1.4-0.1c-0.7,0.1-1.3,0.4-1.7,0.8c-0.4,0.4-0.7,0.9-0.9,1.3
					c-0.2,0.5-0.4,0.9-0.6,1.2l-6-3c0.3-1.3,0.9-2.4,1.7-3.4c0.8-1,1.8-1.8,2.9-2.5c1.2-0.6,2.5-1.1,3.9-1.3c1.1-0.2,2.3-0.2,3.5,0
					c1.2,0.2,2.3,0.5,3.4,1.1c1.1,0.6,2,1.4,2.7,2.4c0.8,1.1,1.3,2.4,1.5,4.1c0.1,0.7,0.2,1.4,0.1,2.1c0,0.7-0.1,1.3-0.3,1.9
					c-0.2,0.6-0.5,1.2-0.9,1.8c-0.4,0.6-0.9,1.1-1.5,1.7c-0.8,0.7-1.6,1.4-2.4,1.9c-0.8,0.6-1.5,1.1-2.1,1.6
					c-0.6,0.5-0.8,1.1-0.7,1.8L584.7,190.8z M586.1,198.9l-0.1-0.4c-0.3-1.9,1-3.7,2.9-4l0,0c1.9-0.3,3.7,1,4,2.9l0.1,0.4
					c0.3,1.9-1,3.7-2.9,4h0C588.1,202.1,586.4,200.8,586.1,198.9z"/>
			</g>
			<g>
				<g>
					<g>
						<path class="st5" d="M595.5,184.9c0.4-1.1,0.9-2.1,1.4-3c0.5-0.9,1.3-1.7,2.3-2.4c1-0.7,2.3-1.1,4-1.3
							c0.5-0.1,1.2-0.1,2.2-0.2c0.9-0.1,1.9-0.2,2.9-0.5c1-0.2,1.9-0.6,2.7-1c0.8-0.5,1.4-1.1,1.7-1.9c0.2-0.6,0.2-1.1,0.1-1.7
							c-0.2-0.6-0.5-1.1-0.9-1.5c-0.4-0.4-1-0.8-1.6-1c-0.9-0.3-1.8-0.4-2.5-0.2c-0.8,0.2-1.4,0.5-2,1c-0.6,0.4-1.1,0.8-1.5,1
							l-5.2-7.6c1.2-1.3,2.7-2.3,4.3-3c1.6-0.7,3.3-1,5.1-1c1.8,0,3.7,0.3,5.5,1c1.5,0.5,2.9,1.3,4.2,2.3c1.3,1,2.4,2.1,3.3,3.5
							c0.9,1.4,1.4,3,1.6,4.7c0.2,1.8-0.1,3.7-0.9,5.9c-0.3,0.9-0.7,1.8-1.2,2.6c-0.5,0.8-1,1.5-1.7,2.1c-0.6,0.6-1.4,1.1-2.2,1.6
							c-0.8,0.4-1.8,0.8-2.9,1.1c-1.4,0.4-2.8,0.6-4.2,0.7c-1.4,0.1-2.6,0.3-3.6,0.5c-1,0.3-1.7,0.8-2,1.6L595.5,184.9z
							 M591.8,195.5l0.2-0.5c0.9-2.5,3.7-3.7,6.2-2.8v0c2.5,0.9,3.7,3.7,2.8,6.2l-0.2,0.5c-0.9,2.5-3.7,3.7-6.2,2.8l0,0
							C592.1,200.7,590.9,198,591.8,195.5z"/>
					</g>
					<g>
						<path class="st5" d="M579.7,185.8c-0.1-0.9-0.2-1.7-0.2-2.5c0-0.8,0.2-1.6,0.6-2.3c0.4-0.8,1.1-1.5,2.1-2.2
							c0.3-0.2,0.7-0.5,1.3-0.9c0.6-0.4,1.1-0.8,1.7-1.3c0.6-0.5,1-1,1.4-1.6c0.4-0.6,0.5-1.2,0.4-1.8c-0.1-0.4-0.3-0.8-0.6-1.1
							c-0.3-0.3-0.7-0.5-1.1-0.6c-0.4-0.1-0.9-0.1-1.4-0.1c-0.7,0.1-1.3,0.4-1.7,0.8c-0.4,0.4-0.7,0.9-0.9,1.3
							c-0.2,0.5-0.4,0.9-0.6,1.2l-6-3c0.3-1.3,0.9-2.4,1.7-3.4c0.8-1,1.8-1.8,2.9-2.5c1.2-0.6,2.5-1.1,3.9-1.3
							c1.1-0.2,2.3-0.2,3.5,0c1.2,0.2,2.3,0.5,3.4,1.1c1.1,0.6,2,1.4,2.7,2.4c0.8,1.1,1.3,2.4,1.5,4.1c0.1,0.7,0.2,1.4,0.1,2.1
							c0,0.7-0.1,1.3-0.3,1.9c-0.2,0.6-0.5,1.2-0.9,1.8c-0.4,0.6-0.9,1.1-1.5,1.7c-0.8,0.7-1.6,1.4-2.4,1.9
							c-0.8,0.6-1.5,1.1-2.1,1.6c-0.6,0.5-0.8,1.1-0.7,1.8L579.7,185.8z M581.1,193.9l-0.1-0.4c-0.3-1.9,1-3.7,2.9-4l0,0
							c1.9-0.3,3.7,1,4,2.9l0.1,0.4c0.3,1.9-1,3.7-2.9,4h0C583.1,197.1,581.4,195.8,581.1,193.9z"/>
					</g>
				</g>
			</g>
		</g>
	</g>
	<g>
		<g>
			<g>
				<g>
					<path class="st5" d="M612,413.8c4.9,0,9-5,8.8-10.9c-0.1-3.9-0.6-7.7-1.7-11.3c-2.4-8.2-7.4-16.2-5.6-24.9
						c0.7-3.6,2.6-6.9,2.7-10.5c0.1-3.8-1.8-7-3.7-9.9c-3.1-4.8-6.5-9.4-10-13.7c-0.9,8.2-4.8,15.5-7.5,23.1
						c-2.7,7.6-4.1,17-0.3,23.5c2.8,4.6,8,7.4,8.6,13.2c0.2,2.4-0.4,4.7-0.5,7.1C602.3,406.3,606.5,412.8,612,413.8L612,413.8z"/>
				</g>
				<g>
					<path class="st19" d="M615.9,424.8l-2.1-9.8c-0.5-3.3-1.1-6.6-1.7-9.8c-1.2-6.5-2.6-13-4.4-19.4c-0.4-1.6-0.9-3.2-1.4-4.8
						c-0.2-0.8-0.5-1.6-0.8-2.3c-0.3-0.8-0.6-1.5-0.8-2.4c-0.4-1.7-0.6-3.4-0.7-5.1c-0.1-1.7-0.1-3.4,0-5c0.1-3.3,0.3-6.7,0.4-10
						c0.3-3.3,0.6-6.6,0.2-9.9c1,3.2,1,6.6,1.1,10c-0.1,3.3-0.3,6.7-0.4,10c0,1.7-0.1,3.3,0,4.9c0.1,1.6,0.3,3.3,0.7,4.8
						c0.2,0.7,0.5,1.5,0.8,2.3c0.3,0.8,0.6,1.6,0.8,2.4c0.5,1.6,1,3.2,1.4,4.8c1.8,6.4,3.2,13,4.4,19.5c0.6,3.3,1.2,6.6,1.7,9.9
						C615.4,418.1,615.7,421.5,615.9,424.8z"/>
					<path class="st19" d="M599.5,356.7c1,0.7,1.8,1.3,2.7,2c0.4,0.3,0.8,0.7,1.3,1.1c0.4,0.4,0.9,0.7,1.4,0.9l-0.2,0
						c0.5-0.5,1-1.1,1.6-1.6c0.5-0.5,1.1-1,1.6-1.5c1.1-0.9,2.3-1.8,3.7-2.5l0.1,0.1c-0.9,1.2-2,2.2-3.1,3.2
						c-0.6,0.5-1.2,0.9-1.8,1.3c-0.6,0.4-1.2,0.8-1.8,1.2l-0.1,0.1l-0.1,0c-0.5-0.3-1-0.6-1.5-0.8c-0.5-0.2-1.1-0.5-1.5-0.8
						C600.8,358.6,600,357.8,599.5,356.7L599.5,356.7z"/>
					<path class="st19" d="M596.1,370.3c0.8,0.3,1.6,0.6,2.3,0.9c0.8,0.4,1.5,0.7,2.2,1.2c0.7,0.5,1.4,0.9,2.2,1.2
						c0.8,0.3,1.6,0.6,2.4,0.8l-0.4,0.1c0.8-1,1.6-2.1,2.5-3c0.9-0.9,1.8-1.9,2.9-2.7l0.1,0.1c-0.7,1.2-1.5,2.2-2.3,3.2
						c-0.8,1-1.7,2-2.7,2.9l-0.2,0.2l-0.2-0.1c-0.8-0.4-1.5-0.9-2.2-1.2c-0.7-0.4-1.5-0.6-2.3-0.9c-0.8-0.3-1.5-0.7-2.3-1.1
						C597.4,371.5,596.7,371,596.1,370.3L596.1,370.3z"/>
					<path class="st19" d="M605.6,388.6c0.7,0.1,1.3,0.3,1.9,0.5c0.3,0.1,0.6,0.3,0.8,0.5c0.3,0.2,0.6,0.2,0.9,0.2l-0.1,0.1
						c0.2-0.4,0.4-0.7,0.6-1.1c0.2-0.3,0.4-0.7,0.7-1c0.5-0.6,1.1-1.2,1.8-1.6l0.1,0.1c-0.3,0.8-0.7,1.5-1.2,2.1
						c-0.2,0.3-0.5,0.6-0.8,0.9c-0.3,0.3-0.6,0.5-0.9,0.8l-0.1,0.1l-0.1,0c-0.4-0.1-0.7-0.1-1-0.2c-0.3,0-0.7,0-1-0.1
						C606.5,389.6,606,389.3,605.6,388.6L605.6,388.6z"/>
					<path class="st19" d="M607.1,404.1c0.5,0,1,0,1.4,0c0.5,0,0.9,0,1.4,0.2c0.5,0.1,0.9,0.3,1.4,0.3c0.5,0,0.9-0.1,1.4-0.2
						l-0.2,0.1c0.3-0.3,0.6-0.6,0.9-0.9c0.3-0.3,0.6-0.6,1-0.8c0.7-0.5,1.5-0.9,2.3-1.2l0.1,0.1c-0.5,0.7-1.1,1.3-1.8,1.9
						c-0.3,0.3-0.7,0.5-1,0.7c-0.4,0.2-0.7,0.5-1.1,0.7l-0.1,0.1l0,0c-0.5-0.1-1-0.2-1.4-0.1c-0.5,0-0.9,0.1-1.4,0.1
						c-0.5,0-1-0.1-1.4-0.2C607.9,404.7,607.5,404.5,607.1,404.1L607.1,404.1z"/>
				</g>
			</g>
			<g>
				<g>
					<path class="st19" d="M616.5,417c3.4,3.5,8.6-0.8,12.1-4.8c4.4-5,9.1-10.8,9.6-18c0.2-2.7-0.2-5.3,0.2-8
						c0.9-6.1,5.8-10.3,8.1-16c3.4-8.2,0.8-17.5-2.5-25.1c-2.1-5-4.6-10.1-4.2-15.9c0.4-5.3,3.1-10.2,5.6-14.7
						c-6,0.4-12.9,1.2-17.1,6.9c-4,5.5-4.2,13.4-3.9,20.5s1,14.6-1.9,21c-4,8.7-14,13.8-14.3,23.4c-0.1,4.9,2.4,8.8,4.2,13
						c1.1,2.7,1.9,6.1,1.4,9.2c-0.5,3.2,0.3,6.3,2.3,8.1L616.5,417z"/>
				</g>
				<g>
					<path class="st5" d="M615.9,431.2c0.4-2.3,0.8-4.6,1.2-7c0.4-2.3,0.7-4.6,1-7c0.9-4.6,1.6-9.2,1.8-13.8c0.1-2.3,0.1-4.6,0.1-7
						c0-2.4,0.3-4.9,0.9-7.2c0.6-2.3,1.4-4.6,2.4-6.8c1-2.2,2.1-4.3,3.3-6.4c2.4-4.1,5.5-7.7,6.5-12.1c0.5-2.2,0.5-4.4,0.2-6.7
						c-0.4-2.2-0.9-4.5-1.4-6.8c-1-4.6-1.9-9.3-2-14.1c0.1-2.4,0.5-4.8,1.2-7.1c0.7-2.3,1.9-4.4,3.4-6.2c-1.2,2-2,4.2-2.5,6.5
						c-0.4,2.3-0.5,4.6-0.3,6.8c0.1,4.6,1,9.2,2,13.7c0.5,2.3,1.1,4.5,1.5,7c0.3,2.4,0.3,4.9-0.2,7.3c-0.5,2.4-1.7,4.7-2.9,6.7
						c-1.3,2-2.6,3.9-3.8,5.9c-1.2,2-2.3,4-3.2,6.1c-0.9,2.1-1.7,4.3-2.3,6.5c-0.6,2.2-0.8,4.4-0.8,6.8c0,2.3,0,4.7-0.1,7.1
						c-0.2,4.8-1,9.5-1.8,14.1C618.8,422.2,617.4,426.7,615.9,431.2z"/>
					<path class="st5" d="M636.1,334.9c-0.2,0.8-0.4,1.4-0.8,2.1c-0.3,0.6-0.7,1.2-1.3,1.7c-0.6,0.5-1.1,1-1.4,1.6
						c-0.4,0.6-0.6,1.3-0.9,2l-0.3,0.6l-0.6-0.5c-0.4-0.4-0.8-0.7-1.2-1.1c-0.4-0.4-0.8-0.8-1.1-1.2c-0.7-0.9-1.3-1.8-1.7-2.9
						l0.1-0.1c1,0.5,1.9,1.2,2.7,2c0.4,0.4,0.8,0.8,1.1,1.2c0.3,0.4,0.7,0.9,1,1.3l-0.9,0.1c0.5-0.5,1.1-1,1.5-1.6
						c0.5-0.6,0.7-1.2,1-1.9c0.2-0.7,0.7-1.3,1.1-1.8c0.5-0.6,1-1.1,1.6-1.5L636.1,334.9z"/>
					<path class="st5" d="M641.8,355.2c-0.1,1.1-0.5,2.1-1,3.1c-0.5,0.9-1.1,1.8-2,2.5c-0.8,0.7-1.7,1.3-2.4,2.1
						c-0.8,0.7-1.4,1.5-2.2,2.3l-0.4,0.4l-0.4-0.6l-1.4-2c-0.5-0.7-0.9-1.3-1.3-2l-1.3-2c-0.4-0.7-0.9-1.4-1.4-2l0.1-0.1
						c0.8,0.3,1.5,0.9,2.1,1.4c0.6,0.6,1.2,1.2,1.7,1.9c0.5,0.7,1,1.4,1.4,2.1c0.4,0.7,0.8,1.5,1.1,2.2l-0.8-0.2
						c0.9-0.5,1.8-1,2.6-1.7c0.8-0.7,1.4-1.5,1.9-2.4c0.5-0.9,1.2-1.7,1.8-2.5c0.6-0.8,1.2-1.6,1.8-2.5L641.8,355.2z"/>
					<path class="st5" d="M636.3,379.6c-0.7,1-1.7,1.8-2.7,2.5c-1,0.6-2.1,1.2-3.3,1.5c-1.2,0.3-2.4,0.5-3.5,0.9
						c-1.2,0.3-2.3,0.8-3.4,1.2l-0.2,0.1l-0.3-0.3c-0.7-0.7-1.3-1.5-2-2.4c-0.6-0.8-1.1-1.7-1.6-2.7c-0.4-0.9-0.8-1.9-1-2.9
						c-0.2-1-0.3-2.1-0.1-3.1l0.1,0c0.2,1,0.6,1.9,1,2.8c0.4,0.9,0.8,1.7,1.3,2.6l1.4,2.5c0.5,0.8,1,1.7,1.6,2.5l-0.5-0.2
						c1.2-0.1,2.4-0.2,3.5-0.6c1.2-0.3,2.2-0.9,3.3-1.4c1-0.6,2.1-1,3.2-1.5c1.1-0.5,2.1-1,3.2-1.6L636.3,379.6z"/>
					<path class="st5" d="M628.2,401.3c-0.4,0.6-0.9,1-1.5,1.3c-0.6,0.3-1.2,0.6-1.9,0.6c-0.7,0.1-1.4-0.1-2-0.1c-0.7,0-1.3,0-2,0
						l-0.1,0l-0.1-0.1c-0.5-0.5-1.1-0.9-1.5-1.5c-0.5-0.5-0.9-1-1.3-1.6c-0.4-0.6-0.8-1.2-1.1-1.8c-0.3-0.6-0.6-1.3-0.8-2l0.1-0.1
						c0.6,0.4,1.1,0.9,1.6,1.4c0.5,0.5,1,1,1.4,1.6c0.4,0.6,0.8,1.1,1.1,1.7c0.4,0.6,0.7,1.2,1,1.9l-0.2-0.1
						c0.6,0.2,1.2,0.2,1.9,0.1c0.6-0.1,1.2-0.4,1.8-0.6c0.6-0.2,1.2-0.3,1.8-0.4c0.6-0.1,1.2-0.3,1.9-0.4L628.2,401.3z"/>
				</g>
			</g>
			<g>
				<path class="st28" d="M635.1,448.9h-30.1c-1.8,0-3.3-1.3-3.5-3l-4.8-31.6c-0.3-2.2,1.3-4.1,3.5-4.1H640c2.2,0,3.8,1.9,3.5,4.1
					l-4.8,31.6C638.4,447.7,636.9,448.9,635.1,448.9z"/>
				<path class="st29" d="M640,410.2h-6.1c2.2,0,3.8,1.9,3.5,4.1l-4.8,31.6c-0.3,1.7-1.8,3-3.5,3h6.1c1.8,0,3.3-1.3,3.5-3l4.8-31.6
					C643.8,412.2,642.1,410.2,640,410.2z"/>
			</g>
		</g>
		<g>
			<g>
				<g>
					<path class="st5" d="M187.8,359.4c0.2,1.3-0.1,2.6-0.7,3.7c-2.3,4.1-3.4,8.9-3.3,13.6c0.1,3.1,0.7,6.3-0.1,9.3
						c-1.5,5.2-6.9,8.4-8.7,13.5c-1.6,4.5-0.1,10.2-3.3,13.7c-0.8,0.9-2,1.5-3.1,1.1c-0.6-0.2-1-0.7-1.4-1.1
						c-3.7-4.2-7.7-9.3-6.5-14.8c1.1-5.2,6.4-8.7,7.4-13.8c0.8-4.2-1.3-9.1,1.1-12.7c0.7-1,1.6-1.7,2.4-2.7
						c2.9-3.7,1.8-9.6,5.1-12.9c1.1-1.1,2.4-1.7,3.9-2C184,353.4,187.4,355.9,187.8,359.4L187.8,359.4z"/>
				</g>
				<g>
					<path class="st19" d="M166.7,425c-0.2-2.8-0.3-5.5-0.4-8.3c0.1-2.8,0.3-5.5,0.5-8.3c0.2-2.8,0.5-5.5,1-8.2
						c0.5-2.7,1.1-5.5,2.3-8.1c2-5.1,3.6-10.3,5.2-15.6l2.4-7.9c1-2.6,1.9-5.2,2.8-7.8c-0.4,2.7-1,5.4-1.6,8.1l-2.4,7.9
						c-1.6,5.3-3.2,10.5-5.3,15.7c-1.1,2.5-1.7,5.1-2.2,7.8c-0.5,2.7-0.8,5.4-1,8.1c-0.2,2.7-0.4,5.5-0.5,8.2L166.7,425z"/>
					<path class="st19" d="M181.2,369.2c-0.5,0.7-1,1.2-1.7,1.7c-0.3,0.2-0.7,0.4-1.1,0.5c-0.4,0.2-0.7,0.4-1,0.7l-0.1,0.1l-0.1-0.2
						c-0.3-0.4-0.6-0.8-0.8-1.2c-0.2-0.4-0.5-0.8-0.7-1.2c-0.4-0.9-0.7-1.8-0.9-2.8l0.1,0c0.7,0.7,1.2,1.5,1.7,2.4
						c0.2,0.4,0.4,0.9,0.6,1.3c0.2,0.4,0.3,0.9,0.4,1.4l-0.2-0.1c0.3-0.2,0.6-0.4,0.9-0.7c0.3-0.3,0.5-0.6,0.8-0.8
						C179.7,369.7,180.4,369.3,181.2,369.2L181.2,369.2z"/>
					<path class="st19" d="M180.6,378.6c-0.5,0.4-1,0.8-1.5,1.2c-0.5,0.4-1,0.7-1.6,1c-0.6,0.3-1.2,0.5-1.7,0.8
						c-0.5,0.3-1,0.7-1.5,1.1l-0.2,0.1l-0.2-0.2c-0.8-1-1.4-2-2-3.1c-0.6-1.1-1.1-2.2-1.5-3.4l0.1,0c0.8,0.9,1.5,2,2.2,3
						c0.6,1.1,1.2,2.2,1.6,3.3l-0.3-0.1c0.6-0.3,1.1-0.5,1.7-0.9c0.5-0.4,1-0.8,1.5-1.2c0.5-0.4,1.1-0.7,1.6-1
						C179.3,378.9,179.9,378.6,180.6,378.6L180.6,378.6z"/>
					<path class="st19" d="M177.2,391c-0.5,0.5-1.1,0.9-1.7,1.3c-0.6,0.4-1.2,0.6-1.9,0.8c-0.7,0.2-1.3,0.5-1.9,0.9
						c-0.6,0.4-1.1,0.9-1.6,1.2l-0.4,0.3l-0.3-0.5c-0.5-0.7-0.9-1.4-1.2-2.2c-0.3-0.8-0.6-1.5-0.8-2.4l0.1-0.1
						c0.6,0.6,1.1,1.3,1.6,1.9c0.5,0.7,0.8,1.4,1.2,2.2l-0.7-0.2c0.6-0.3,1.3-0.5,2-0.8c0.7-0.2,1.3-0.6,1.8-1
						c0.5-0.5,1.1-0.8,1.8-1.1C175.8,391.2,176.4,391,177.2,391L177.2,391z"/>
				</g>
			</g>
			<g>
				<g>
					<path class="st19" d="M162.3,425.6c-2.2-0.4-10.2-2.9-9.7-5c2.4-9.1,4.8-19.3-3.5-23.7c-4-2.1-9.1-3.2-11.4-7.2
						c-2.4-4.1-0.6-9.2,1.5-13.4c2.1-4.2,4.7-8.7,3.8-13.3c-1-4.8-5.5-8.4-6.2-13.3c-1-6.6,5.5-12,11.7-14.6
						c2.1-0.9,4.4-1.6,6.6-1.1c1.6,0.4,3,1.4,4.1,2.6c4.4,4.9,4.2,12.2,3.2,18.7c-1,6.5-2.5,13.3-0.1,19.3c1.7,4.3,5.4,8.4,4.4,12.9
						c-0.4,1.8-1.5,3.4-2,5.2c-1.2,4.9,2.9,9.3,4.7,13.9c2.4,6,0.8,13.3-3.8,17.9C164.7,425.4,163.5,425.8,162.3,425.6L162.3,425.6z
						"/>
				</g>
				<g>
					<path class="st5" d="M163.1,425.7c-0.5-3.6-1-7.2-1.6-10.7c-0.2-0.9-0.3-1.8-0.5-2.7c-0.1-0.9-0.2-1.8-0.4-2.7
						c-0.3-1.8-0.6-3.5-0.9-5.3c-0.7-3.5-1.5-7-2.7-10.3c-0.6-1.7-1.3-3.3-2.3-4.7c-0.5-0.7-1-1.3-1.6-1.7c-0.8-0.5-1.6-1.2-2.2-2
						c-1.2-1.6-1.6-3.7-1.6-5.6c0-1.9,0.4-3.7,0.8-5.5c0.8-3.6,1.9-7,2.5-10.5c0.6-3.5,0.7-7-0.2-10.4c-0.3-0.8-0.5-1.6-0.8-2.5
						c-0.3-0.8-0.6-1.6-1-2.4c-0.8-1.6-1.9-3-3-4.4c1.4,1.1,2.7,2.4,3.8,3.9c0.6,0.7,1.1,1.5,1.5,2.4c0.5,0.8,0.8,1.7,1,2.6
						c1,3.7,0.9,7.5,0.3,11.1c-0.6,3.6-1.7,7.1-2.5,10.6c-0.4,1.7-0.7,3.5-0.8,5.2c0,1.7,0.3,3.4,1.2,4.6c0.5,0.6,1.1,1.2,1.8,1.6
						c0.9,0.6,1.5,1.4,2.1,2.2c1.1,1.6,1.8,3.3,2.4,5c1.3,3.5,2.1,7,2.8,10.6c0.3,1.8,0.6,3.6,0.9,5.4c0.1,0.9,0.3,1.8,0.4,2.7
						c0.1,0.9,0.1,1.8,0.2,2.7C163,418.4,163.1,422.1,163.1,425.7z"/>
					<path class="st5" d="M148.8,355c0.6,0.2,1.1,0.6,1.6,1c0.5,0.4,0.9,0.8,1.3,1.3c0.3,0.5,0.6,1.1,1.1,1.5
						c0.4,0.4,0.9,0.8,1.4,1.2l-0.6,0c0.2-0.5,0.5-0.9,0.7-1.3c0.3-0.4,0.5-0.9,0.8-1.3c0.3-0.4,0.6-0.8,0.9-1.2
						c0.3-0.4,0.7-0.8,0.9-1.2l0.1,0c0,0.6-0.1,1.1-0.3,1.6c-0.2,0.5-0.4,1-0.7,1.4c-0.2,0.5-0.5,0.9-0.8,1.3
						c-0.3,0.4-0.6,0.8-1,1.2l-0.4,0.4l-0.2-0.4c-0.3-0.5-0.6-1.1-1-1.5c-0.4-0.5-0.9-0.8-1.4-1.2c-0.5-0.4-0.9-0.8-1.3-1.3
						C149.4,356.2,149,355.7,148.8,355L148.8,355z"/>
					<path class="st5" d="M156.6,368.7c-0.3,0.6-0.6,1.2-1,1.7c-0.4,0.5-0.8,1-1.2,1.5c-0.5,0.4-1,0.8-1.5,1.2
						c-0.5,0.4-0.9,0.9-1.3,1.4l-0.1,0.2l-0.2-0.1c-0.7-0.5-1.2-1-1.7-1.5c-0.5-0.6-1-1.1-1.5-1.7c-0.5-0.6-0.9-1.2-1.3-1.8
						c-0.4-0.6-0.8-1.3-1.2-1.8l0.1-0.1c0.7,0.3,1.3,0.9,1.8,1.4c0.5,0.5,1,1.1,1.5,1.6c0.5,0.6,0.9,1.2,1.3,1.8
						c0.4,0.6,0.8,1.3,1.2,1.8l-0.3,0c0.5-0.4,0.9-0.9,1.3-1.4c0.4-0.5,0.7-1.1,1.1-1.6c0.4-0.5,0.9-0.9,1.3-1.4
						C155.5,369.5,156,369.1,156.6,368.7L156.6,368.7z"/>
					<path class="st5" d="M142.2,379.3c0.7,0.8,1.4,1.5,2.1,2.2c0.7,0.7,1.5,1.3,2.3,2c0.8,0.7,1.6,1.2,2.6,1.5c1,0.3,2,0.3,3,0.3
						l-0.4,0.3c0.2-0.8,0.4-1.6,0.7-2.4c0.3-0.8,0.6-1.6,1-2.3c0.4-0.7,0.9-1.5,1.5-2.1c0.6-0.6,1.3-1.2,2.1-1.5l0.1,0.1
						c-0.6,0.6-1.1,1.2-1.5,1.9c-0.4,0.7-0.8,1.4-1.1,2.1l-1,2.2c-0.3,0.7-0.6,1.5-0.9,2.3l-0.1,0.4l-0.3,0
						c-1.1-0.2-2.1-0.5-3.1-0.9c-1-0.4-2-0.7-2.9-1.2c-1-0.5-1.8-1.2-2.5-2C143,381.3,142.4,380.4,142.2,379.3L142.2,379.3z"/>
					<path class="st5" d="M161.7,387.4c0.3,0.8,0.4,1.7,0.4,2.5c0,0.9-0.2,1.7-0.5,2.5c-0.3,0.8-0.8,1.5-1.3,2.2l-1.5,2l-0.1,0.1
						l-0.2-0.1c-0.8-0.6-1.7-1-2.6-1.5c-0.9-0.5-1.8-0.9-2.7-1.3c-0.9-0.4-1.8-0.8-2.8-1.1c-0.9-0.4-1.9-0.7-2.9-1.1l0-0.1
						c2.1,0,4.2,0.4,6.1,1.2c1,0.4,1.9,1,2.7,1.5c0.9,0.6,1.6,1.3,2.4,2l-0.3,0c0.6-0.6,1.1-1.2,1.4-2c0.4-0.7,0.5-1.5,0.8-2.3
						c0.5-1.5,0.8-3,0.9-4.7L161.7,387.4z"/>
				</g>
			</g>
			<g>
				<g>
					<path class="st28" d="M177,448.9h-23.1c-2.1,0-4-1.9-4.3-4.4l-3.6-28.4c-0.4-3.1,1.6-5.9,4.3-5.9h30.4c2.7,0,4.7,2.8,4.3,5.9
						l-3.6,28.4C180.9,447.1,179.1,448.9,177,448.9z"/>
				</g>
				<path class="st29" d="M180.6,410.3h-5c2.7,0,4.7,2.8,4.3,5.9l-3.6,28.4c-0.3,2.5-2.1,4.4-4.3,4.4h5c2.1,0,4-1.9,4.3-4.4
					l3.6-28.4C185.3,413.1,183.3,410.3,180.6,410.3z"/>
			</g>
		</g>
	</g>
	<g>
		<g>
			<path class="st29" d="M113.5,299.6H43.8c-3.8,0-6.8-3.1-6.8-6.8v-36.2c0-3.8,3.1-6.8,6.8-6.8h69.6c3.8,0,6.8,3.1,6.8,6.8v36.2
				C120.3,296.6,117.2,299.6,113.5,299.6z"/>
			<path class="st28" d="M115.8,299.6H41.5c-2.5,0-4.5-2-4.5-4.5l41.7-27.7l41.7,27.7C120.3,297.6,118.3,299.6,115.8,299.6z"/>
			<path class="st30" d="M115.8,249.7H41.5c-2.5,0-4.5,2-4.5,4.5l41.7,27.7l41.7-27.7C120.3,251.7,118.3,249.7,115.8,249.7z"/>
		</g>
		<g>
			<path class="st29" d="M611.4,68.7H445.1c-5.2,0-9.4,4.2-9.4,9.4V117c0,5.2,4.2,9.4,9.4,9.4h16.7l-5.7,14.1l18.9-14.1h136.4
				c5.2,0,9.4-4.2,9.4-9.4V78.1C620.8,72.9,616.6,68.7,611.4,68.7z"/>
			<path class="st3" d="M600.4,89.9H473.7c-1.2,0-2.2-1-2.2-2.2c0-1.2,1-2.2,2.2-2.2h126.8c1.2,0,2.2,1,2.2,2.2
				C602.6,88.9,601.6,89.9,600.4,89.9z M602.6,97.5c0-1.2-1-2.2-2.2-2.2H456.1c-1.2,0-2.2,1-2.2,2.2c0,1.2,1,2.2,2.2,2.2h144.4
				C601.6,99.7,602.6,98.7,602.6,97.5z M539.2,107.3c0-1.2-1-2.2-2.2-2.2h-81c-1.2,0-2.2,1-2.2,2.2c0,1.2,1,2.2,2.2,2.2h81
				C538.2,109.5,539.2,108.6,539.2,107.3z"/>
		</g>
		<path class="st29" d="M645.6,242c-6.5,6.5-7.4,16.3-3,23.8l-32.9,32.9c-0.7,0.7-0.7,1.8,0,2.4l4.4,4.4c0.7,0.7,1.8,0.7,2.4,0
			l2.3-2.3l6.1,6.1c0.7,0.7,1.8,0.7,2.4,0l3.6-3.6c0.7-0.7,0.7-1.8,0-2.4l-6.1-6.1l3.1-3.1l5.2,5.2c0.7,0.7,1.8,0.7,2.4,0l3.6-3.6
			c0.7-0.7,0.7-1.8,0-2.4l-5.2-5.2l15.3-15.3c7.5,4.5,17.4,3.5,23.8-3c7.6-7.6,7.6-20,0-27.7C665.6,234.4,653.2,234.4,645.6,242z
			 M667.2,263.6c-4.3,4.3-11.2,4.3-15.4,0c-4.3-4.3-4.3-11.2,0-15.4c4.3-4.3,11.2-4.3,15.4,0C671.4,252.4,671.4,259.3,667.2,263.6z"
			/>
		<g>
			<path class="st3" d="M95.1,360.3c-0.5-1.5-0.9-3.1-1.2-4.5c-0.2-1.5-0.1-3,0.3-4.6c0.5-1.6,1.5-3.2,3.1-4.9
				c0.5-0.5,1.2-1.3,2.1-2.2c0.9-0.9,1.8-2,2.7-3.1c0.9-1.1,1.5-2.3,2-3.5c0.5-1.2,0.5-2.4,0.1-3.5c-0.3-0.8-0.8-1.4-1.4-1.9
				c-0.7-0.5-1.4-0.7-2.3-0.8c-0.8-0.1-1.7,0.1-2.6,0.4c-1.3,0.5-2.2,1.1-2.9,2.1s-1.1,1.9-1.3,2.8c-0.2,1-0.5,1.8-0.7,2.5
				l-12.2-3.5c0.1-2.5,0.8-4.9,1.9-7c1.1-2.1,2.7-4,4.6-5.6c1.9-1.6,4.2-2.9,6.8-3.8c2.1-0.7,4.2-1.2,6.5-1.3
				c2.3-0.1,4.5,0.1,6.7,0.8c2.2,0.7,4.2,1.9,5.9,3.6c1.8,1.7,3.2,4.1,4.3,7.1c0.5,1.3,0.8,2.6,1,3.8c0.2,1.3,0.2,2.5,0.1,3.7
				c-0.1,1.2-0.5,2.5-1,3.7c-0.5,1.2-1.2,2.5-2.1,3.7c-1.2,1.6-2.5,3.1-3.9,4.4c-1.4,1.3-2.5,2.6-3.4,3.8c-0.9,1.2-1.1,2.4-0.7,3.5
				L95.1,360.3z M100.5,374.9l-0.3-0.7c-1.2-3.5,0.6-7.3,4.1-8.5l0,0c3.5-1.2,7.3,0.6,8.5,4.1l0.3,0.7c1.2,3.5-0.6,7.3-4.1,8.5h0
				C105.6,380.2,101.8,378.4,100.5,374.9z"/>
		</g>
	</g>
</g>
</svg>
