<?xml version="1.0" encoding="utf-8"?>
<!-- Generator: Adobe Illustrator 22.0.1, SVG Export Plug-In . SVG Version: 6.00 Build 0)  -->
<svg version="1.1" id="Слой_1" xmlns="http://www.w3.org/2000/svg" xmlns:xlink="http://www.w3.org/1999/xlink" x="0px" y="0px"
	 viewBox="0 0 76.5 113.4" style="enable-background:new 0 0 76.5 113.4;" xml:space="preserve">
<style type="text/css">
	.st0{fill:#6DB9CA;}
	.st1{fill:#F4B88E;}
	.st2{fill:#F5DCD6;}
	.st3{fill:#EAF6F5;}
	.st4{fill:#001D51;}
	.st5{fill:#F2A57F;}
	.st6{fill:#E08D61;}
	.st7{fill:#2F1807;}
	.st8{fill:#FFFFFF;}
	.st9{fill:#EBA17D;}
	.st10{fill:none;stroke:#E89780;stroke-linecap:round;stroke-linejoin:round;stroke-miterlimit:10;}
	.st11{fill:#0D316D;}
	.st12{fill:#EC524F;}
	.st13{fill:#BFE5E5;}
</style>
<g>
	<rect x="28.4" y="83.1" class="st0" width="19.7" height="8.1"/>
	<path class="st1" d="M46.2,73.7h-7.1h-8.9c0,0,0.4,11.2-1.6,14.5h9.7h9.7C46,84.9,46.2,73.7,46.2,73.7z"/>
	<path class="st2" d="M29.9,82.2c2.3,1.6,5.7,2.5,8.4,2.5c3,0,5.6-0.8,8.2-2c-0.5-4.2-0.4-9-0.4-9h-16
		C30.2,73.7,30.3,78.1,29.9,82.2z"/>
	<path class="st1" d="M69.2,96L46,86.7h-7.6h-0.3h-7.6L7.3,96c0,0-8.1,3-7.2,17.4h38h0.3h38C77.5,98.1,69.2,96,69.2,96z"/>
	<path class="st3" d="M69.2,96l-19-7.6l-12,9.3l-11.7-9.4L7.3,96c0,0-8.1,3-7.2,17.4h76.4C77.5,98.1,69.2,96,69.2,96z"/>
	<path class="st4" d="M26.6,88.3L7.3,96c0,0-8.1,3-7.2,17.4h30.8L26.6,88.3z"/>
	<path class="st4" d="M69.2,96l-19-7.6l-3.9,25h30.1C77.5,98.1,69.2,96,69.2,96z"/>
	<g>
		<path class="st1" d="M55.8,51.6c-0.6,3.8,0.4,7.2,2.1,7.5c1.7,0.4,3.6-2.4,4.1-6.2c0.5-3.8-0.4-7.2-2.1-7.5
			C58.2,45,56.4,47.8,55.8,51.6z"/>
		<g>
			<g>
				<path class="st5" d="M57.9,50.5c0,0,0-0.2,0.1-0.6c0.1-0.3,0.2-0.8,0.4-1.4c0.2-0.5,0.6-1.1,1-1.1c0.1,0,0.2,0,0.3,0.1
					c0,0,0.1,0.1,0.2,0.1c0,0,0.1,0.1,0.1,0.1c0.2,0.2,0.3,0.5,0.4,0.8c0.1,0.3,0.2,0.7,0.2,1.1c0,0.4,0.1,0.8,0,1.1
					c-0.1,0.4-0.1,0.8-0.1,1.1c-0.1,0.3-0.1,0.7-0.2,1c-0.1,0.3-0.1,0.6-0.2,0.8c0,0.2-0.1,0.5-0.2,0.6c-0.1,0.3-0.1,0.6-0.1,0.6
					s0.1-0.2,0.2-0.5c0.1-0.2,0.2-0.3,0.3-0.6c0.1-0.2,0.2-0.5,0.3-0.8c0.1-0.3,0.2-0.6,0.3-1c0.1-0.4,0.1-0.7,0.2-1.1
					c0.1-0.4,0.1-0.9,0-1.3c0-0.4-0.1-0.9-0.2-1.3c-0.1-0.4-0.3-0.8-0.6-1.1c-0.1-0.1-0.2-0.1-0.2-0.2c-0.1-0.1-0.1-0.1-0.2-0.1
					c-0.2,0-0.3-0.1-0.5,0c-0.4,0.1-0.7,0.4-0.9,0.7c-0.2,0.3-0.3,0.6-0.4,1c-0.2,0.6-0.2,1.2-0.2,1.5
					C57.9,50.3,57.9,50.5,57.9,50.5z"/>
			</g>
			<path class="st5" d="M57.9,50.5c0,0-0.2-0.4,1-0.5c0,0,1.3,0.3,0.5,2.2c-0.2,0.4-0.3,0.8-0.4,1.3c-0.1,0.6,0.1,1.5-0.2,2.1
				c-0.4,0.7-1.4,0.3-1.5-0.5c0-0.6,0.5-1.7,0.8-2.2C58.2,52.8,59,51.4,57.9,50.5z"/>
			<g>
				<path class="st5" d="M57.4,54.9c0,0,0,0-0.1,0.1c-0.1,0.1-0.1,0.2-0.2,0.4c0,0.1,0,0.2-0.1,0.3c0,0.1,0,0.2,0,0.3
					c0,0.1,0,0.2,0,0.3c0,0.1,0.1,0.2,0.1,0.3c0,0.1,0.1,0.2,0.1,0.3c0.1,0.1,0.1,0.1,0.2,0.2c0.1,0.1,0.2,0.2,0.3,0.3
					c0.2,0.1,0.4,0.1,0.4,0.1S58.1,57.3,58,57c0-0.1-0.1-0.1-0.1-0.2c0-0.1,0-0.1-0.1-0.2c0-0.1-0.1-0.1-0.1-0.2
					c0-0.1,0-0.1-0.1-0.2c-0.1-0.1-0.1-0.3-0.1-0.4c0-0.1,0-0.1,0-0.2c0-0.1,0-0.1,0-0.2C57.4,55.1,57.4,54.9,57.4,54.9z"/>
			</g>
		</g>
	</g>
	<g>
		<path class="st1" d="M21,51.6c0.6,3.8-0.4,7.2-2.1,7.5c-1.7,0.4-3.6-2.4-4.1-6.2c-0.5-3.8,0.4-7.2,2.1-7.5
			C18.6,45,20.4,47.8,21,51.6z"/>
		<g>
			<g>
				<path class="st5" d="M18.9,50.5c0,0,0-0.2-0.1-0.6c-0.1-0.3-0.2-0.8-0.4-1.4c-0.2-0.5-0.6-1.1-1-1.1c-0.1,0-0.2,0-0.3,0.1
					c0,0-0.1,0.1-0.2,0.1c0,0-0.1,0.1-0.1,0.1c-0.2,0.2-0.3,0.5-0.4,0.8c-0.1,0.3-0.2,0.7-0.2,1.1c0,0.4-0.1,0.8,0,1.1
					c0.1,0.4,0.1,0.8,0.1,1.1c0.1,0.3,0.1,0.7,0.2,1c0.1,0.3,0.1,0.6,0.2,0.8c0,0.2,0.1,0.5,0.2,0.6c0.1,0.3,0.1,0.6,0.1,0.6
					s-0.1-0.2-0.2-0.5c-0.1-0.2-0.2-0.3-0.2-0.6c-0.1-0.2-0.2-0.5-0.3-0.8c-0.1-0.3-0.2-0.6-0.3-1c-0.1-0.4-0.1-0.7-0.2-1.1
					c-0.1-0.4-0.1-0.9,0-1.3c0-0.4,0.1-0.9,0.2-1.3c0.1-0.4,0.3-0.8,0.6-1.1c0.1-0.1,0.2-0.1,0.2-0.2c0.1-0.1,0.1-0.1,0.2-0.1
					c0.2,0,0.3-0.1,0.5,0c0.4,0.1,0.7,0.4,0.9,0.7c0.2,0.3,0.3,0.6,0.4,1c0.2,0.6,0.2,1.2,0.2,1.5C18.9,50.3,18.9,50.5,18.9,50.5z"
					/>
			</g>
			<path class="st5" d="M18.9,50.5c0,0,0.2-0.4-1-0.5c0,0-1.3,0.3-0.5,2.2c0.2,0.4,0.3,0.8,0.4,1.3c0.1,0.6-0.1,1.5,0.2,2.1
				c0.4,0.7,1.4,0.3,1.5-0.5c0-0.6-0.5-1.7-0.8-2.2C18.6,52.8,17.8,51.4,18.9,50.5z"/>
			<g>
				<path class="st5" d="M19.4,54.9c0,0,0,0,0.1,0.1c0.1,0.1,0.1,0.2,0.2,0.4c0,0.1,0,0.2,0.1,0.3c0,0.1,0,0.2,0,0.3
					c0,0.1,0,0.2,0,0.3c0,0.1-0.1,0.2-0.1,0.3c0,0.1-0.1,0.2-0.1,0.3c-0.1,0.1-0.1,0.1-0.2,0.2c-0.1,0.1-0.2,0.2-0.3,0.3
					c-0.2,0.1-0.4,0.1-0.4,0.1s0.1-0.2,0.2-0.5c0-0.1,0.1-0.1,0.1-0.2c0-0.1,0-0.1,0.1-0.2c0-0.1,0.1-0.1,0.1-0.2
					c0-0.1,0-0.1,0.1-0.2c0.1-0.1,0.1-0.3,0.1-0.4c0-0.1,0-0.1,0-0.2c0-0.1,0-0.1,0-0.2C19.4,55.1,19.4,54.9,19.4,54.9z"/>
			</g>
		</g>
	</g>
	<path class="st1" d="M38.6,10.6L38.6,10.6c-0.1,0-0.2,0-0.3,0c-0.1,0-0.2,0-0.3,0v0C24.3,10.7,16.5,15.1,18.7,43L21,65.2
		c0,0,0.4,4.1,4.4,6.5l7.5,6.2c0,0,3.6,1.8,5.4,1.6c1.8,0.2,5.4-1.6,5.4-1.6l7.5-6.2c4-2.4,4.4-6.5,4.4-6.5l2.5-21.7
		C60.2,15.6,52.4,10.7,38.6,10.6z"/>
	<path class="st6" d="M54.8,51.6c-0.5,2.4-0.8,6.2-2.2,8.2c-1,1.4-2.4,2.2-4,2.3c-1.1,0.1-2.2,0-3.3-0.3c-0.8-0.2-1.6-0.6-2.5-0.7
		c-1,0-1.6,0.3-2.5,0.9c-1,0.6-2,0.6-3.1,0.2c-1.6-0.6-3.1-1.2-4.8-1.2c-1.9,0.1-4.1,0.6-5.9,0c-2-0.7-3-2.6-3.8-4.6
		c-0.4-1.1-0.7-3.7-1-4.8c-0.4-1.4-1-0.4-2.1-0.5L21,65.2c0,0,0.4,4.1,4.4,6.5l7.5,6.2c0,0,3.6,1.8,5.4,1.6c1.8,0.2,5.4-1.6,5.4-1.6
		l7.5-6.2c4-2.4,4.4-6.5,4.4-6.5l1.7-14.4C56,50.8,55.1,49.9,54.8,51.6z"/>
	<path class="st7" d="M28.2,44.8c0,1.4,0.7,2.6,1.6,2.6c0.9,0,1.6-1.2,1.6-2.6c0-1.4-0.7-2.6-1.6-2.6C28.9,42.2,28.2,43.4,28.2,44.8
		z"/>
	<path class="st8" d="M29.2,44c0,0.4-0.3,0.8-0.7,0.8c-0.4,0-0.7-0.3-0.7-0.8c0-0.4,0.3-0.8,0.7-0.8C28.9,43.2,29.2,43.5,29.2,44z"
		/>
	<path class="st7" d="M48.6,44.8c0,1.4-0.7,2.6-1.6,2.6c-0.9,0-1.6-1.2-1.6-2.6c0-1.4,0.7-2.6,1.6-2.6
		C47.9,42.2,48.6,43.4,48.6,44.8z"/>
	<path class="st8" d="M47.6,44c0,0.4,0.3,0.8,0.7,0.8c0.4,0,0.7-0.3,0.7-0.8c0-0.4-0.3-0.8-0.7-0.8C47.9,43.2,47.6,43.5,47.6,44z"/>
	<g>
		<g>
			<path class="st9" d="M40.8,58.9c-0.4,0.4-0.8,0.7-1.3,1c-0.5,0.2-1,0.4-1.6,0.5c-0.3,0-0.6,0-0.8,0c-0.3,0-0.6,0-0.8-0.1
				c-0.3-0.1-0.6-0.2-0.8-0.3c-0.3-0.1-0.5-0.3-0.8-0.4l-0.3-0.2l-0.1-0.6c0-0.3-0.1-0.5-0.1-0.8c0-0.2,0-0.5,0-0.7
				c0-0.5,0.1-1,0.2-1.4c0.1-0.5,0.2-0.9,0.4-1.4c0.2-0.5,0.4-0.9,0.8-1.3c0.2,0.5,0.3,1,0.4,1.5c0.1,0.5,0.1,0.9,0.2,1.4
				c0,0.5,0,0.9,0,1.4l0,0.7c0,0.2,0,0.5-0.1,0.7l-0.4-0.8c0.2,0.1,0.3,0.3,0.5,0.4c0.2,0.1,0.4,0.2,0.6,0.3
				c0.2,0.1,0.4,0.2,0.6,0.2c0.2,0,0.4,0.1,0.6,0.2c0.2,0.1,0.4,0.1,0.7,0.1c0.2,0,0.5,0,0.7,0C39.8,59.1,40.3,59.1,40.8,58.9z"/>
		</g>
	</g>
	<path class="st6" d="M33.2,39.5c-0.1,0.7-0.7,1.1-1.3,1c-2.3-0.5-4.5-0.2-6.6,0.6c-0.5,0.2-1.1-0.1-1.4-0.7l0,0
		c-0.3-0.6,0-1.4,0.6-1.6c2.4-1,5.1-1.3,7.7-0.8C32.9,38.1,33.4,38.8,33.2,39.5L33.2,39.5z"/>
	<path class="st6" d="M43,39.5c0.1,0.7,0.7,1.1,1.3,1c2.3-0.5,4.5-0.2,6.6,0.6c0.5,0.2,1.1-0.1,1.4-0.7l0,0c0.3-0.6,0-1.4-0.6-1.6
		c-2.4-1-5.1-1.3-7.7-0.8C43.2,38.1,42.8,38.8,43,39.5L43,39.5z"/>
	<path class="st10" d="M39.1,68.7c0,0-0.8,0.3-1.9,0"/>
	<path class="st8" d="M33.7,64.3l1.1,2.5c0,0,5,3.1,8.6-2.3C43.4,64.4,37.9,64.7,33.7,64.3z"/>
	<g>
		<path class="st6" d="M58.4,11.8c1.6-7.8-6.9-9-6.9-9c-9-0.2-15.4-2.3-15.4-2.3C18.6-2.2,16.6,7.4,16.6,7.4
			c-2.1,6.9-1.9,11.1-1.9,11.1l2.1,26.8c0,0,1.8-0.3,2.4,2.7l0.4,3.5l2,0c-0.5-11.1-0.5-20.1-0.5-20.1c0.2-3.3,0-8,4.5-8.5
			c2.2,0.5,4.5,0.8,6.7,1c4.2,0.4,7.5,0.4,12.9-0.4c2.8-0.4,7.5-1.6,9.5,1.4c1.4,2.1,1.3,5.4,1.4,7.9c0,1.3-0.1,2.6-0.2,4
			c0,0-1.1,14.8-1.1,14.8h2.4c0.4-6.8,3.5-5.8,3.5-5.8c1.8-15.2,3.7-25,3.7-25.1C64.5,20.7,65.1,12.4,58.4,11.8"/>
	</g>
	<g>
		<path class="st6" d="M59.1,8.1c0,0,2,1.9-0.7,4.4l2.3,3c0,0,2.4-3.8,4.1-2.3c0,0-0.6-2.3-3.1-1.6C61.7,11.6,62.7,8.3,59.1,8.1z"/>
	</g>
	<polygon class="st11" points="26.6,88.3 30.9,113.4 26.2,113.4 16.3,92.4 	"/>
	<polygon class="st11" points="50.2,88.4 46.3,113.4 50.6,113.4 59.2,92 	"/>
	<polygon class="st0" points="38.3,97.6 36.7,88.7 28.4,83.1 27.2,88.7 	"/>
	<polygon class="st0" points="38.3,97.6 39.8,88.7 48.1,83.1 49.3,88.7 	"/>
	<g>
		<path class="st12" d="M42.2,89.9h-3.7H38h-3.7c0,0-1.8,1.2-1,3.3l2.5,4.4h1.9h1.1h1.9l2.5-4.4C44,91.1,42.2,89.9,42.2,89.9z"/>
		<path class="st12" d="M42.8,90.4c0.2,0.8,0.1,1.7-0.2,2.6c-0.6,1.8-1.8,3.3-3.5,3.6c-1.6,0.3-3.2-0.5-3.6-2.2
			c-0.4-1.6-0.7-3.3,0.2-4.5h-1.4c0,0-1.8,1.2-1,3.3l2.5,4.4h4.9l2.5-4.4C43.7,91.9,43.2,91,42.8,90.4z"/>
		<polygon class="st12" points="35.8,97.6 33.1,113.4 43.4,113.4 40.7,97.6 		"/>
	</g>
	<polygon class="st13" points="36.7,88.7 32.8,96.7 23.2,89.5 28.4,83.1 	"/>
	<polygon class="st13" points="39.8,88.7 43.8,96.7 53.3,89.5 48.1,83.1 	"/>
</g>
</svg>
