<?xml version="1.0" encoding="utf-8"?>
<!-- Generator: Adobe Illustrator 22.0.1, SVG Export Plug-In . SVG Version: 6.00 Build 0)  -->
<svg version="1.1" id="Слой_1" xmlns="http://www.w3.org/2000/svg" xmlns:xlink="http://www.w3.org/1999/xlink" x="0px" y="0px"
	 viewBox="0 0 76.5 113.4" style="enable-background:new 0 0 76.5 113.4;" xml:space="preserve">
<style type="text/css">
	.st0{fill:#944E2F;}
	.st1{fill:#6DB9CA;}
	.st2{fill:#F4B88E;}
	.st3{fill:#F5DCD6;}
	.st4{fill:#F2A57F;}
	.st5{fill:#DA754C;}
	.st6{fill:#2F1807;}
	.st7{fill:#FFFFFF;}
	.st8{fill:#F37D7F;}
	.st9{fill:#F5A586;}
	.st10{fill:#5859A7;}
	.st11{fill:#BFE5E5;}
	.st12{fill:#71BFD0;}
</style>
<g>
	<g>
		<rect x="10.3" y="42.9" class="st0" width="51.9" height="57.4"/>
		<rect x="27.2" y="83.4" class="st1" width="21.5" height="8"/>
		<path class="st2" d="M46.5,72.3h-7.4h-9.3c0,0,0.4,12.9-1.6,16.6h10.1h10.1C46.3,85.2,46.5,72.3,46.5,72.3z"/>
		<path class="st3" d="M29.7,80.2c3.1,1.5,6.2,2.9,9.8,2.5c2.5-0.2,5-1,7.2-2.2c-0.3-4.2-0.2-8.3-0.2-8.3H29.8
			C29.8,72.3,29.9,76.1,29.7,80.2z"/>
		<g>
			<path class="st2" d="M69.2,96.2L46,87.1h-7.6h-0.3h-7.6L7.3,96.2c0,0-8.1,2.9-7.2,17.2h38h0.3h38C77.5,98.3,69.2,96.2,69.2,96.2z
				"/>
		</g>
		<g>
			<g>
				<path class="st2" d="M59.3,47.9c-0.7,4.3,0.5,8.1,2.7,8.5c2.2,0.4,4.5-2.7,5.1-7c0.7-4.3-0.5-8.1-2.7-8.5
					C62.2,40.5,59.9,43.6,59.3,47.9z"/>
				<g>
					<g>
						<path class="st4" d="M61.8,46.7c0,0,0-0.2,0.1-0.6c0.1-0.4,0.3-0.9,0.5-1.5c0.3-0.6,0.7-1.2,1.3-1.3c0.1,0,0.3,0,0.4,0.1
							c0,0,0.2,0.1,0.2,0.1c0,0,0.1,0.1,0.2,0.1c0.2,0.2,0.4,0.5,0.5,0.9c0.1,0.4,0.2,0.8,0.3,1.2c0,0.4,0.1,0.9,0,1.2
							c-0.1,0.4-0.1,0.9-0.2,1.2c-0.1,0.4-0.1,0.7-0.2,1.1c-0.1,0.3-0.2,0.6-0.2,0.9c-0.1,0.3-0.1,0.5-0.2,0.7
							c-0.1,0.4-0.2,0.6-0.2,0.6s0.1-0.2,0.3-0.6c0.1-0.2,0.2-0.4,0.3-0.7c0.1-0.3,0.2-0.6,0.4-0.9c0.1-0.3,0.2-0.7,0.3-1.1
							c0.1-0.4,0.2-0.8,0.3-1.2c0.1-0.5,0.1-1,0.1-1.5c0-0.5-0.1-1-0.3-1.4c-0.2-0.5-0.4-0.9-0.8-1.3c-0.1-0.1-0.2-0.2-0.3-0.2
							c-0.1-0.1-0.2-0.1-0.3-0.1c-0.2,0-0.4-0.1-0.6,0c-0.4,0.1-0.8,0.4-1.1,0.8c-0.2,0.3-0.4,0.7-0.5,1.1c-0.2,0.7-0.3,1.3-0.3,1.7
							C61.8,46.5,61.8,46.7,61.8,46.7z"/>
					</g>
					<path class="st4" d="M61.8,46.7c0,0-0.2-0.5,1.2-0.6c0,0,1.6,0.3,0.7,2.4c-0.2,0.5-0.4,0.9-0.5,1.4c-0.1,0.7,0.1,1.7-0.3,2.3
						c-0.5,0.8-1.7,0.4-1.8-0.6c-0.1-0.7,0.7-1.9,1-2.4C62.2,49.3,63.2,47.7,61.8,46.7z"/>
					<g>
						<path class="st4" d="M61.2,51.6c0,0,0,0-0.1,0.1c-0.1,0.1-0.1,0.2-0.2,0.4c0,0.1-0.1,0.2-0.1,0.3c0,0.1,0,0.2,0,0.4
							c0,0.1,0,0.3,0,0.4c0,0.1,0.1,0.2,0.1,0.4c0.1,0.1,0.1,0.2,0.2,0.3c0.1,0.1,0.1,0.2,0.2,0.2c0.1,0.2,0.3,0.3,0.4,0.3
							c0.3,0.1,0.5,0.1,0.5,0.1S62.1,54.3,62,54c0-0.1-0.1-0.1-0.1-0.2c0-0.1-0.1-0.2-0.1-0.2c0-0.1-0.1-0.2-0.1-0.2
							c-0.1-0.1-0.1-0.2-0.1-0.2c-0.1-0.1-0.1-0.3-0.2-0.5c0-0.1,0-0.2-0.1-0.2c0-0.1,0-0.2-0.1-0.2C61.2,51.9,61.2,51.6,61.2,51.6z
							"/>
					</g>
				</g>
			</g>
		</g>
		<g>
			<g>
				<path class="st2" d="M18.3,47.9c0.7,4.3-0.5,8.1-2.7,8.5c-2.2,0.4-4.5-2.7-5.1-7c-0.7-4.3,0.5-8.1,2.7-8.5
					C15.3,40.5,17.6,43.6,18.3,47.9z"/>
				<g>
					<g>
						<path class="st4" d="M15.7,46.7c0,0,0-0.2-0.1-0.6c-0.1-0.4-0.3-0.9-0.5-1.5c-0.3-0.6-0.7-1.2-1.3-1.3c-0.1,0-0.3,0-0.4,0.1
							c0,0-0.2,0.1-0.2,0.1c0,0-0.1,0.1-0.2,0.1c-0.2,0.2-0.4,0.5-0.5,0.9c-0.1,0.4-0.2,0.8-0.3,1.2c0,0.4-0.1,0.9,0,1.2
							c0.1,0.4,0.1,0.9,0.2,1.2c0.1,0.4,0.1,0.7,0.2,1.1c0.1,0.3,0.2,0.6,0.2,0.9c0.1,0.3,0.1,0.5,0.2,0.7c0.1,0.4,0.2,0.6,0.2,0.6
							S13,51.3,12.9,51c-0.1-0.2-0.2-0.4-0.3-0.7c-0.1-0.3-0.2-0.6-0.4-0.9c-0.1-0.3-0.2-0.7-0.3-1.1c-0.1-0.4-0.2-0.8-0.3-1.2
							c-0.1-0.5-0.1-1-0.1-1.5c0-0.5,0.1-1,0.3-1.4c0.2-0.5,0.4-0.9,0.8-1.3c0.1-0.1,0.2-0.2,0.3-0.2c0.1-0.1,0.2-0.1,0.3-0.1
							c0.2,0,0.4-0.1,0.6,0c0.4,0.1,0.8,0.4,1.1,0.8c0.2,0.3,0.4,0.7,0.5,1.1c0.2,0.7,0.3,1.3,0.3,1.7
							C15.7,46.5,15.7,46.7,15.7,46.7z"/>
					</g>
					<path class="st4" d="M15.7,46.7c0,0,0.2-0.5-1.2-0.6c0,0-1.6,0.3-0.7,2.4c0.2,0.5,0.4,0.9,0.5,1.4c0.1,0.7-0.1,1.7,0.3,2.3
						c0.5,0.8,1.7,0.4,1.8-0.6c0.1-0.7-0.7-1.9-1-2.4C15.3,49.3,14.3,47.7,15.7,46.7z"/>
					<g>
						<path class="st4" d="M16.3,51.6c0,0,0,0,0.1,0.1c0.1,0.1,0.1,0.2,0.2,0.4c0,0.1,0.1,0.2,0.1,0.3c0,0.1,0,0.2,0,0.4
							c0,0.1,0,0.3,0,0.4c0,0.1-0.1,0.2-0.1,0.4c-0.1,0.1-0.1,0.2-0.2,0.3c-0.1,0.1-0.1,0.2-0.2,0.2c-0.1,0.2-0.3,0.3-0.4,0.3
							c-0.3,0.1-0.5,0.1-0.5,0.1s0.1-0.3,0.2-0.5c0-0.1,0.1-0.1,0.1-0.2c0-0.1,0.1-0.2,0.1-0.2c0-0.1,0.1-0.2,0.1-0.2
							c0-0.1,0.1-0.2,0.1-0.2c0.1-0.1,0.1-0.3,0.2-0.5c0-0.1,0-0.2,0.1-0.2c0-0.1,0-0.2,0.1-0.2C16.3,51.9,16.3,51.6,16.3,51.6z"/>
					</g>
				</g>
			</g>
		</g>
		<g>
			<path class="st2" d="M59.9,13.2c0,0-7.3-8.1-21.8-8.5c-14.4,0.8-21.7,9.1-21.7,9.1c-3.9,12.7-1.4,27.6,0.3,40.5
				c1.2,9.5,7.6,16.2,15.6,20.8c0,0,2.8,1.8,6.6,2.1c3.8-0.3,6.6-2.2,6.6-2.2c7.8-5.3,13.8-11.9,15.3-21.5c1.3-8.4,1.6-17.6,1.3-26
				C61.9,22.7,61.4,17.6,59.9,13.2z"/>
		</g>
		<g>
			<g>
				<path class="st5" d="M31.9,39.2c0,0-5.2-1.7-10.5,0.7c1-5.7,10.9-3.4,10.9-3.4s0.7,0.2,0.6,1.2C32.9,37.7,32.6,39.5,31.9,39.2z"
					/>
			</g>
			<g>
				<path class="st5" d="M43.9,39.2c0,0,5.9-1.7,11.2,0.7c-1.1-5.7-11.6-3.4-11.6-3.4s-0.7,0.2-0.6,1.2
					C42.9,37.7,43.2,39.5,43.9,39.2z"/>
			</g>
		</g>
		<g>
			<g>
				<g>
					<path class="st6" d="M25.4,44.5c0,1.7,0.9,3,2.1,3c1.1,0,2-1.4,2-3c0-1.7-0.9-3-2.1-3C26.3,41.5,25.4,42.8,25.4,44.5z"/>
				</g>
				<g>
					<path class="st7" d="M26.6,43.5c0,0.5-0.4,0.9-0.9,0.9c-0.5,0-0.9-0.4-0.9-0.9c0-0.5,0.4-0.9,0.9-0.9
						C26.2,42.7,26.6,43.1,26.6,43.5z"/>
				</g>
			</g>
			<g>
				<g>
					<path class="st6" d="M51.2,44.5c0,1.7-0.9,3-2.1,3c-1.1,0-2-1.4-2-3c0-1.7,0.9-3,2.1-3C50.3,41.5,51.2,42.8,51.2,44.5z"/>
				</g>
				<g>
					<path class="st7" d="M49.9,43.5c0,0.5,0.4,0.9,0.9,0.9c0.5,0,0.9-0.4,0.9-0.9c0-0.5-0.4-0.9-0.9-0.9
						C50.3,42.7,49.9,43.1,49.9,43.5z"/>
				</g>
			</g>
		</g>
		<g>
			<g>
				<path class="st7" d="M33.1,63.2c0,1.6,2.3,2.9,5.1,2.9c2.8,0,5-1.3,5.1-2.9H33.1z"/>
				<g>
					<path class="st8" d="M43,63.7c1.2-0.3,1.6-0.6,1.6-0.6s-0.8-0.3-2-0.7c-3-1.3-2.8,0.4-4.4,0.4c-0.8,0-1.6-0.8-2.3-0.7
						c-0.7,0.1-1.4,0.2-2,0.4c-1.2,0.3-2,0.7-2,0.7s0.6,0.4,1.8,0.7c0,0,1.8-0.1,3.2,0.2c0,0,1.3,0.3,2.3,0.1
						C39.2,64,41.4,63.5,43,63.7"/>
				</g>
				<g>
					<path class="st8" d="M43.6,63c-1.2,1.2-3,2.3-5.8,2.3c0,0-2.7,0-4.9-2.3h-1c0,0.1,0.1,0.2,0.1,0.2c0.3,0.5,0.5,1,0.9,1.5
						c0.2,0.3,0.4,0.5,0.6,0.8c0.2,0.3,0.5,0.5,0.7,0.7l0.4,0.4l0.5,0.3c0.3,0.2,0.6,0.4,1,0.6c0.4,0.1,0.8,0.3,1.2,0.4l0.5,0.1
						l0.2,0l0.1,0l0.1,0l0.2,0l1.2-0.1c0.4-0.1,0.7-0.2,1.1-0.4c0.4-0.1,0.7-0.4,1-0.6l0.5-0.3l0.4-0.4c0.2-0.2,0.5-0.5,0.7-0.7
						c0.2-0.3,0.4-0.5,0.6-0.8c0.4-0.5,0.6-1,0.9-1.5c0-0.1,0.1-0.2,0.1-0.2H43.6z"/>
				</g>
			</g>
			<path class="st7" d="M38.2,66.9c4.1-0.3,4.9-2.7,4.9-2.7c-1.9,2.3-4.9,2-4.9,2s-0.3,0-0.3,0.4C37.9,66.5,38,66.9,38.2,66.9z"/>
		</g>
		<path class="st5" d="M27.4,2.9C34-1.8,45.6,0.6,45.6,0.6C70.8,5.2,70,29,70,29l4.9,72.8c-2.4-4.7-4.8-5.3-4.8-5.3l-13.2-5.2V30.9
			C35.8,30.9,31,19.2,31,19.2L27.4,2.9z"/>
		<path class="st5" d="M31.9,19.1c0,0-10.5,2.3-12,13.4l-0.8,59.1L6.4,96.6c0,0-3.9,2.2-5.4,7.3l6.6-71.5c0,0,1-24.7,19.8-29.5
			L31.9,19.1z"/>
		<path class="st9" d="M35.4,55.8c0,0,0,0,0.1,0c0.1,0,0.2-0.1,0.3-0.1c0.2-0.1,0.6-0.1,0.9-0.2c0.3-0.1,0.7-0.1,1.1-0.1
			c0.4,0,0.7,0,1.1,0c0.4,0,0.7,0,1,0.1c0.2,0,0.3,0,0.5,0.1c0.2,0,0.3,0.1,0.5,0.1c0.2,0,0.3,0.1,0.5,0.1c0.1,0,0.3,0,0.4,0.1
			c0.1,0,0.2,0,0.3,0.1c0.1,0,0.1,0,0.1,0s0,0,0,0.1c0,0.1,0,0.2-0.1,0.3c-0.1,0.2-0.3,0.6-0.6,0.9c-0.1,0.2-0.3,0.3-0.5,0.5
			c-0.2,0.1-0.4,0.3-0.7,0.4c-0.2,0.1-0.5,0.2-0.8,0.2c-0.3,0.1-0.6,0.1-0.8,0.1c-0.3,0-0.6-0.1-0.8-0.1c-0.3-0.1-0.5-0.1-0.7-0.3
			c-0.5-0.2-0.8-0.5-1.1-0.8c-0.3-0.3-0.5-0.6-0.6-0.9c-0.1-0.1-0.1-0.2-0.1-0.3C35.4,55.9,35.4,55.8,35.4,55.8z"/>
		<polygon class="st2" points="29.5,13.2 29.9,21.4 31.9,20.7 		"/>
		<g>
			<g>
				<path class="st10" d="M48.3,88l20.9,8.2c0,0,8.3,2.1,7.2,17.2h-38h-0.3h-38c-1-14.2,7.2-17.2,7.2-17.2l21.3-8.4l9.3,9.8L48.3,88
					z"/>
			</g>
		</g>
		<g>
			<polygon class="st1" points="37.9,97.7 36.2,88.9 27.2,83.4 25.8,88.9 			"/>
			<polygon class="st11" points="36.2,88.9 31.9,96.8 21.5,89.6 27.2,83.4 			"/>
		</g>
		<g>
			<polygon class="st1" points="37.9,97.7 39.6,88.9 48.7,83.4 50,88.9 			"/>
			<polygon class="st11" points="39.6,88.9 43.9,96.8 54.4,89.6 48.7,83.4 			"/>
		</g>
		<polygon class="st12" points="35.8,96.1 37.9,97.7 40,96.1 40,113.4 35.8,113.4 		"/>
		<path class="st11" d="M39.2,101.5c0,0.7-0.6,1.3-1.3,1.3c-0.7,0-1.3-0.6-1.3-1.3c0-0.7,0.6-1.3,1.3-1.3
			C38.6,100.2,39.2,100.8,39.2,101.5z"/>
		<path class="st11" d="M39.2,112.1c0,0.7-0.6,1.3-1.3,1.3c-0.7,0-1.3-0.6-1.3-1.3c0-0.7,0.6-1.3,1.3-1.3
			C38.6,110.8,39.2,111.4,39.2,112.1z"/>
	</g>
</g>
</svg>
