<svg xmlns="http://www.w3.org/2000/svg" viewBox="0 0 76.54 113.39"><defs><style>.cls-1{isolation:isolate;}.cls-2{fill:#3f232a;}.cls-3{fill:#270c14;}.cls-4{fill:#f4b88e;}.cls-5{fill:#f5dcd6;mix-blend-mode:multiply;}.cls-6{fill:#f2a57f;}.cls-7{fill:#2f1807;}.cls-8{fill:#fff;}.cls-9{fill:#f37d7f;}.cls-10{fill:#f5a586;}.cls-11{fill:#6a54a1;}</style></defs><title>human3</title><g class="cls-1"><g id="Слой_1" data-name="Слой 1"><rect class="cls-2" x="9.05" y="33.76" width="60.97" height="66.71"/><rect class="cls-3" x="23.95" y="33.76" width="31.16" height="66.71"/><rect class="cls-2" x="9.05" y="29.9" width="11.43" height="72.34"/><path class="cls-4" d="M46.51,73.08H29.81s.42,12.62-1.62,16.29H48.35C46.3,85.7,46.51,73.08,46.51,73.08Z"/><path class="cls-5" d="M29.72,80.83c3.11,1.45,6.24,2.84,9.81,2.5a20.41,20.41,0,0,0,7.22-2.12c-.3-4.14-.24-8.13-.24-8.13H29.81S29.93,76.83,29.72,80.83Z"/><path class="cls-4" d="M69.24,96.52,46,87.56H30.54l-23.27,9S-.88,99.4.08,113.39H76.43C77.54,98.54,69.24,96.52,69.24,96.52Z"/><path class="cls-4" d="M59.26,49.08c-.69,4.19.5,7.92,2.66,8.32s4.45-2.67,5.13-6.86-.5-7.92-2.66-8.32S59.94,44.89,59.26,49.08Z"/><path class="cls-6" d="M61.85,48s0-.24.11-.62a8.51,8.51,0,0,1,.52-1.51c.27-.56.71-1.2,1.25-1.23a1.21,1.21,0,0,1,.42,0,2.21,2.21,0,0,1,.21.11,1.31,1.31,0,0,1,.15.12,2.27,2.27,0,0,1,.52.92A5.14,5.14,0,0,1,65.28,47a5.4,5.4,0,0,1,0,1.2c-.07.42-.09.85-.17,1.22s-.14.72-.2,1.05-.16.63-.22.9-.14.5-.19.69c-.11.38-.16.61-.16.61s.11-.19.29-.55c.08-.17.2-.38.31-.64s.23-.54.35-.86.23-.7.34-1.1a11.25,11.25,0,0,0,.26-1.21,5.36,5.36,0,0,0,0-1.44,6.25,6.25,0,0,0-.27-1.42,3.12,3.12,0,0,0-.75-1.23,1.89,1.89,0,0,0-.31-.22c-.12-.06-.15-.06-.29-.12a2,2,0,0,0-.65,0,1.69,1.69,0,0,0-1.06.74,3.75,3.75,0,0,0-.51,1,6.52,6.52,0,0,0-.29,1.69A4.62,4.62,0,0,0,61.85,48Z"/><path class="cls-6" d="M61.85,48s-.2-.45,1.22-.55c0,0,1.58.28.65,2.37a7.46,7.46,0,0,0-.48,1.4c-.14.7.12,1.65-.26,2.28a1,1,0,0,1-1.82-.58,5.25,5.25,0,0,1,1-2.4A1.85,1.85,0,0,0,61.85,48Z"/><path class="cls-6" d="M61.16,52.78s0,0-.11.12a1.16,1.16,0,0,0-.2.39,1.62,1.62,0,0,0-.1.64c0,.12,0,.25,0,.38a1.93,1.93,0,0,0,.11.34,1.38,1.38,0,0,0,.17.32,1.64,1.64,0,0,0,.21.24.87.87,0,0,0,.43.31,1.35,1.35,0,0,0,.48.12,3,3,0,0,0-.22-.51.82.82,0,0,0-.12-.2,2.29,2.29,0,0,0-.1-.23,2.39,2.39,0,0,0-.12-.22,1.09,1.09,0,0,1-.09-.23,2.85,2.85,0,0,1-.17-.46c0-.08,0-.16-.06-.23s0-.16,0-.23C61.19,53,61.16,52.78,61.16,52.78Z"/><path class="cls-4" d="M18.25,49.08c.69,4.19-.5,7.92-2.65,8.32s-4.46-2.67-5.14-6.86.51-7.92,2.66-8.32S17.57,44.89,18.25,49.08Z"/><path class="cls-6" d="M15.66,48s0-.24-.11-.62A7.77,7.77,0,0,0,15,45.82c-.27-.56-.71-1.2-1.25-1.23a1.21,1.21,0,0,0-.42,0s-.16.07-.21.11-.09.06-.15.12a2.27,2.27,0,0,0-.52.92A5.14,5.14,0,0,0,12.23,47a6.07,6.07,0,0,0,0,1.2c.07.42.09.85.17,1.22s.14.72.2,1.05.16.63.22.9.14.5.19.69c.11.38.16.61.16.61s-.11-.19-.29-.55c-.08-.17-.2-.38-.31-.64s-.23-.54-.35-.86-.23-.7-.34-1.1-.17-.79-.26-1.21a5.36,5.36,0,0,1,0-1.44,6.25,6.25,0,0,1,.27-1.42,3.12,3.12,0,0,1,.75-1.23,1.89,1.89,0,0,1,.31-.22c.12-.06.15-.06.29-.12a2,2,0,0,1,.65,0,1.69,1.69,0,0,1,1.06.74,3.75,3.75,0,0,1,.51,1,6.52,6.52,0,0,1,.29,1.69A3.22,3.22,0,0,1,15.66,48Z"/><path class="cls-6" d="M15.66,48s.2-.45-1.21-.55c0,0-1.59.28-.66,2.37a6.81,6.81,0,0,1,.48,1.4c.14.7-.11,1.65.27,2.28.49.8,1.73.34,1.81-.58a5.25,5.25,0,0,0-1-2.4A1.85,1.85,0,0,1,15.66,48Z"/><path class="cls-6" d="M16.35,52.78a.71.71,0,0,1,.11.12,1.36,1.36,0,0,1,.21.39,1.32,1.32,0,0,1,.07.3,1.23,1.23,0,0,1,0,.34c0,.12,0,.25,0,.38a1.93,1.93,0,0,1-.11.34,1.91,1.91,0,0,1-.16.32c-.07.09-.15.17-.21.24a.94.94,0,0,1-.44.31,1.35,1.35,0,0,1-.48.12,3,3,0,0,1,.22-.51,1.32,1.32,0,0,1,.12-.2,2.29,2.29,0,0,1,.1-.23,2.39,2.39,0,0,1,.12-.22,1.09,1.09,0,0,0,.09-.23,2.85,2.85,0,0,0,.17-.46c0-.08,0-.16.06-.23s.05-.16.05-.23C16.32,53,16.35,52.78,16.35,52.78Z"/><path class="cls-4" d="M59.93,15S52.6,7.11,38.18,6.68c-14.42.74-21.72,8.94-21.72,8.94-3.92,12.47-1.41,27.08.26,39.73,1.23,9.34,7.6,15.88,15.62,20.43a15.11,15.11,0,0,0,6.61,2,15.09,15.09,0,0,0,6.57-2.16C53.31,70.42,59.28,64,60.77,54.49A139.78,139.78,0,0,0,62.06,29,49.65,49.65,0,0,0,59.93,15Z"/><path class="cls-2" d="M31.91,40.55a15.75,15.75,0,0,0-10.49.7c1-5.61,10.9-3.31,10.9-3.31s.65.15.58,1.16C32.9,39.1,32.64,40.82,31.91,40.55Z"/><path class="cls-2" d="M43.92,40.55s5.86-1.71,11.19.7c-1-5.61-11.61-3.31-11.61-3.31s-.65.15-.58,1.16C42.92,39.1,43.18,40.82,43.92,40.55Z"/><path class="cls-7" d="M25.37,45.77c0,1.63.93,2.94,2.06,2.94s2-1.34,2-3-.93-2.94-2.06-2.94S25.36,44.14,25.37,45.77Z"/><path class="cls-8" d="M26.6,44.83a.89.89,0,1,1-.88-.87A.88.88,0,0,1,26.6,44.83Z"/><path class="cls-7" d="M51.17,45.77c0,1.63-.94,2.94-2.07,2.94s-2-1.34-2-3,.94-2.94,2.07-2.94S51.18,44.14,51.17,45.77Z"/><path class="cls-8" d="M49.93,44.83a.89.89,0,1,0,.89-.87A.88.88,0,0,0,49.93,44.83Z"/><path class="cls-8" d="M33.14,64.13c0,1.57,2.27,2.84,5,2.84s5.05-1.27,5.06-2.84Z"/><path class="cls-9" d="M43,64.57a5.63,5.63,0,0,0,1.65-.6,19.67,19.67,0,0,0-2-.69c-3-1.24-2.78.36-4.37.36-.79,0-1.58-.83-2.33-.73a16.49,16.49,0,0,0-2,.37,10.39,10.39,0,0,0-2,.69,6.09,6.09,0,0,0,1.8.68,21,21,0,0,1,3.24.16,5.3,5.3,0,0,0,2.25.06,15.44,15.44,0,0,1,3.76-.3"/><path class="cls-9" d="M43.63,64a7.75,7.75,0,0,1-5.79,2.26A7.47,7.47,0,0,1,32.92,64h-1c0,.08.06.16.1.24a10.93,10.93,0,0,0,.86,1.47l.58.76a6.91,6.91,0,0,0,.72.71l.38.35.46.3a3.44,3.44,0,0,0,1,.55,9.06,9.06,0,0,0,1.16.37l.5.06.25,0,.12,0h.23l1.18-.15a8.46,8.46,0,0,0,1.11-.36,3.83,3.83,0,0,0,1-.54l.46-.3.39-.35a8.06,8.06,0,0,0,.72-.71l.57-.76a9.55,9.55,0,0,0,.86-1.48c0-.07.06-.15.1-.23Z"/><path class="cls-8" d="M38.19,67.72c4.15-.27,4.91-2.64,4.91-2.64a6,6,0,0,1-4.91,2,.31.31,0,0,0-.27.35S38,67.74,38.19,67.72Z"/><path class="cls-2" d="M70,36.82S71.28,4.86,46.07.33c0,0-17.88-2.82-24.59,8.12l6.71,16.76s-.12,6,27.9,11.88c0,0,5.74,1.45,6.09,12A19.65,19.65,0,0,1,70,36.82Z"/><path class="cls-10" d="M35.36,56.88l.11,0a1.23,1.23,0,0,1,.29-.07c.24-.06.56-.11.91-.17s.73-.1,1.09-.12.73,0,1.09,0,.69,0,1,.07c.17,0,.34,0,.52.06l.51.07c.17,0,.34.06.49.08a2.55,2.55,0,0,1,.42,0c.12,0,.23.05.3.06l.11,0,0,.1a1.81,1.81,0,0,1-.09.29,2.55,2.55,0,0,1-.56.88,2.49,2.49,0,0,1-.51.45,3.28,3.28,0,0,1-.67.36,3.21,3.21,0,0,1-.78.23,2.88,2.88,0,0,1-.83.06,3.94,3.94,0,0,1-1.55-.35,3.66,3.66,0,0,1-1.14-.79,3.1,3.1,0,0,1-.58-.84,1.32,1.32,0,0,1-.11-.28Z"/><path class="cls-11" d="M62.72,113.39c-.06-6.6.37-13.23,5.75-17.16L48.35,88.47,37.92,98,28.61,88.3l-20.81,8c3.94,2.2,5.09,7.83,5.4,11.92a47.82,47.82,0,0,1,.13,5.15Z"/><path class="cls-2" d="M31.9,24.18s-15.61,3.26-15.55,25c0,0-.66-7-4.83-6,0,0-11.66-28.88,15.65-37Z"/><polygon class="cls-4" points="25.36 19.52 26.75 27.34 28.68 26.33 25.36 19.52"/></g></g></svg>