<?xml version="1.0" encoding="utf-8"?>
<!-- Generator: Adobe Illustrator 22.0.1, SVG Export Plug-In . SVG Version: 6.00 Build 0)  -->
<svg version="1.1" id="Слой_1" xmlns="http://www.w3.org/2000/svg" xmlns:xlink="http://www.w3.org/1999/xlink" x="0px" y="0px"
	 viewBox="0 0 76.5 113.4" style="enable-background:new 0 0 76.5 113.4;" xml:space="preserve">
<style type="text/css">
	.st0{fill:#F4B88E;}
	.st1{fill:#F5DCD6;}
	.st2{fill:#F2A57F;}
	.st3{fill:#9E715E;}
	.st4{fill:#2F1807;}
	.st5{fill:#FFFFFF;}
	.st6{fill:#F37D7F;}
	.st7{fill:#F5A586;}
	.st8{fill:#466DB0;}
</style>
<g>
	<path class="st0" d="M46.5,73.1h-7.4h-9.3c0,0,0.4,12.6-1.6,16.3h10.1h10.1C46.3,85.7,46.5,73.1,46.5,73.1z"/>
	<path class="st1" d="M29.7,80.8c3.1,1.4,6.2,2.8,9.8,2.5c2.5-0.2,5-1,7.2-2.1c-0.3-4.1-0.2-8.1-0.2-8.1H29.8
		C29.8,73.1,29.9,76.8,29.7,80.8z"/>
	<g>
		<path class="st0" d="M69.2,96.5l-23.3-9h-7.6h-0.3h-7.6l-23.3,9c0,0-8.1,2.9-7.2,16.9h38h0.3h38C77.5,98.5,69.2,96.5,69.2,96.5z"
			/>
	</g>
	<g>
		<g>
			<path class="st0" d="M59.3,49.1c-0.7,4.2,0.5,7.9,2.7,8.3c2.2,0.4,4.5-2.7,5.1-6.9c0.7-4.2-0.5-7.9-2.7-8.3
				C62.2,41.8,59.9,44.9,59.3,49.1z"/>
			<g>
				<g>
					<path class="st2" d="M61.8,47.9c0,0,0-0.2,0.1-0.6c0.1-0.4,0.3-0.9,0.5-1.5c0.3-0.6,0.7-1.2,1.3-1.2c0.1,0,0.3,0,0.4,0.1
						c0,0,0.2,0.1,0.2,0.1c0,0,0.1,0.1,0.2,0.1c0.2,0.2,0.4,0.5,0.5,0.9c0.1,0.4,0.2,0.8,0.3,1.2c0,0.4,0.1,0.8,0,1.2
						c-0.1,0.4-0.1,0.9-0.2,1.2c-0.1,0.4-0.1,0.7-0.2,1.1c-0.1,0.3-0.2,0.6-0.2,0.9c-0.1,0.3-0.1,0.5-0.2,0.7
						c-0.1,0.4-0.2,0.6-0.2,0.6s0.1-0.2,0.3-0.5c0.1-0.2,0.2-0.4,0.3-0.6c0.1-0.3,0.2-0.5,0.4-0.9c0.1-0.3,0.2-0.7,0.3-1.1
						c0.1-0.4,0.2-0.8,0.3-1.2c0.1-0.5,0.1-1,0.1-1.4c0-0.5-0.1-1-0.3-1.4c-0.2-0.5-0.4-0.9-0.8-1.2c-0.1-0.1-0.2-0.2-0.3-0.2
						c-0.1-0.1-0.2-0.1-0.3-0.1c-0.2,0-0.4-0.1-0.6,0c-0.4,0.1-0.8,0.4-1.1,0.7c-0.2,0.3-0.4,0.7-0.5,1.1c-0.2,0.7-0.3,1.3-0.3,1.7
						C61.8,47.7,61.8,47.9,61.8,47.9z"/>
				</g>
				<path class="st2" d="M61.8,47.9c0,0-0.2-0.4,1.2-0.6c0,0,1.6,0.3,0.7,2.4c-0.2,0.4-0.4,0.9-0.5,1.4c-0.1,0.7,0.1,1.6-0.3,2.3
					c-0.5,0.8-1.7,0.3-1.8-0.6c-0.1-0.7,0.7-1.9,1-2.4C62.2,50.5,63.2,48.9,61.8,47.9z"/>
				<g>
					<path class="st2" d="M61.2,52.8c0,0,0,0-0.1,0.1c-0.1,0.1-0.1,0.2-0.2,0.4c0,0.1-0.1,0.2-0.1,0.3c0,0.1,0,0.2,0,0.3
						c0,0.1,0,0.2,0,0.4c0,0.1,0.1,0.2,0.1,0.3c0.1,0.1,0.1,0.2,0.2,0.3c0.1,0.1,0.1,0.2,0.2,0.2c0.1,0.2,0.3,0.3,0.4,0.3
						c0.3,0.1,0.5,0.1,0.5,0.1s-0.1-0.3-0.2-0.5c0-0.1-0.1-0.1-0.1-0.2c0-0.1-0.1-0.2-0.1-0.2c0-0.1-0.1-0.2-0.1-0.2
						c0-0.1-0.1-0.2-0.1-0.2c-0.1-0.1-0.1-0.3-0.2-0.5c0-0.1,0-0.2-0.1-0.2c0-0.1,0-0.2-0.1-0.2C61.2,53,61.2,52.8,61.2,52.8z"/>
				</g>
			</g>
		</g>
	</g>
	<g>
		<g>
			<path class="st0" d="M18.3,49.1c0.7,4.2-0.5,7.9-2.7,8.3c-2.2,0.4-4.5-2.7-5.1-6.9c-0.7-4.2,0.5-7.9,2.7-8.3
				C15.3,41.8,17.6,44.9,18.3,49.1z"/>
			<g>
				<g>
					<path class="st2" d="M15.7,47.9c0,0,0-0.2-0.1-0.6c-0.1-0.4-0.3-0.9-0.5-1.5c-0.3-0.6-0.7-1.2-1.3-1.2c-0.1,0-0.3,0-0.4,0.1
						c0,0-0.2,0.1-0.2,0.1c0,0-0.1,0.1-0.2,0.1c-0.2,0.2-0.4,0.5-0.5,0.9c-0.1,0.4-0.2,0.8-0.3,1.2c0,0.4-0.1,0.8,0,1.2
						c0.1,0.4,0.1,0.9,0.2,1.2c0.1,0.4,0.1,0.7,0.2,1.1c0.1,0.3,0.2,0.6,0.2,0.9c0.1,0.3,0.1,0.5,0.2,0.7c0.1,0.4,0.2,0.6,0.2,0.6
						s-0.1-0.2-0.3-0.5c-0.1-0.2-0.2-0.4-0.3-0.6c-0.1-0.3-0.2-0.5-0.4-0.9c-0.1-0.3-0.2-0.7-0.3-1.1c-0.1-0.4-0.2-0.8-0.3-1.2
						c-0.1-0.5-0.1-1-0.1-1.4c0-0.5,0.1-1,0.3-1.4c0.2-0.5,0.4-0.9,0.7-1.2c0.1-0.1,0.2-0.2,0.3-0.2c0.1-0.1,0.2-0.1,0.3-0.1
						c0.2,0,0.4-0.1,0.6,0c0.4,0.1,0.8,0.4,1.1,0.7c0.2,0.3,0.4,0.7,0.5,1.1c0.2,0.7,0.3,1.3,0.3,1.7C15.7,47.7,15.7,47.9,15.7,47.9
						z"/>
				</g>
				<path class="st2" d="M15.7,47.9c0,0,0.2-0.4-1.2-0.6c0,0-1.6,0.3-0.7,2.4c0.2,0.4,0.4,0.9,0.5,1.4c0.1,0.7-0.1,1.6,0.3,2.3
					c0.5,0.8,1.7,0.3,1.8-0.6c0.1-0.7-0.7-1.9-1-2.4C15.3,50.5,14.3,48.9,15.7,47.9z"/>
				<g>
					<path class="st2" d="M16.3,52.8c0,0,0,0,0.1,0.1c0.1,0.1,0.1,0.2,0.2,0.4c0,0.1,0.1,0.2,0.1,0.3c0,0.1,0,0.2,0,0.3
						c0,0.1,0,0.2,0,0.4c0,0.1-0.1,0.2-0.1,0.3c-0.1,0.1-0.1,0.2-0.2,0.3c-0.1,0.1-0.1,0.2-0.2,0.2c-0.1,0.2-0.3,0.3-0.4,0.3
						c-0.3,0.1-0.5,0.1-0.5,0.1s0.1-0.3,0.2-0.5c0-0.1,0.1-0.1,0.1-0.2c0-0.1,0.1-0.2,0.1-0.2c0-0.1,0.1-0.2,0.1-0.2
						c0-0.1,0.1-0.2,0.1-0.2c0.1-0.1,0.1-0.3,0.2-0.5c0-0.1,0-0.2,0.1-0.2c0-0.1,0-0.2,0.1-0.2C16.3,53,16.3,52.8,16.3,52.8z"/>
				</g>
			</g>
		</g>
	</g>
	<g>
		<path class="st0" d="M59.9,15c0,0-7.3-7.9-21.8-8.4c-14.4,0.7-21.7,8.9-21.7,8.9c-3.9,12.5-1.4,27.1,0.3,39.7
			c1.2,9.3,7.6,15.9,15.6,20.4c0,0,2.8,1.8,6.6,2c3.8-0.3,6.6-2.2,6.6-2.2c7.8-5.2,13.8-11.7,15.3-21.2c1.3-8.2,1.6-17.3,1.3-25.5
			C61.9,24.4,61.4,19.4,59.9,15z"/>
	</g>
	<g>
		<g>
			<g>
				<g>
					<path class="st3" d="M31.9,40.5c0,0-5.2-1.7-10.5,0.7c1.1-5.6,10.9-3.3,10.9-3.3s0.6,0.2,0.6,1.2
						C32.9,39.1,32.6,40.8,31.9,40.5z"/>
				</g>
			</g>
			<g>
				<g>
					<g>
						<path class="st3" d="M43.9,40.5c0,0,5.9-1.7,11.2,0.7c-1-5.6-11.6-3.3-11.6-3.3s-0.7,0.2-0.6,1.2
							C42.9,39.1,43.2,40.8,43.9,40.5z"/>
					</g>
				</g>
			</g>
		</g>
	</g>
	<g>
		<g>
			<g>
				<path class="st4" d="M25.4,45.8c0,1.6,0.9,2.9,2.1,2.9c1.1,0,2-1.3,2-3c0-1.6-0.9-2.9-2.1-2.9C26.3,42.8,25.4,44.1,25.4,45.8z"
					/>
			</g>
			<g>
				<path class="st5" d="M26.6,44.8c0,0.5-0.4,0.9-0.9,0.9c-0.5,0-0.9-0.4-0.9-0.9c0-0.5,0.4-0.9,0.9-0.9
					C26.2,44,26.6,44.3,26.6,44.8z"/>
			</g>
		</g>
		<g>
			<g>
				<path class="st4" d="M51.2,45.8c0,1.6-0.9,2.9-2.1,2.9c-1.1,0-2-1.3-2-3c0-1.6,0.9-2.9,2.1-2.9C50.3,42.8,51.2,44.1,51.2,45.8z"
					/>
			</g>
			<g>
				<path class="st5" d="M49.9,44.8c0,0.5,0.4,0.9,0.9,0.9c0.5,0,0.9-0.4,0.9-0.9c0-0.5-0.4-0.9-0.9-0.9
					C50.3,44,49.9,44.3,49.9,44.8z"/>
			</g>
		</g>
	</g>
	<g>
		<g>
			<path class="st5" d="M33.1,64.1c0,1.6,2.3,2.8,5.1,2.8c2.8,0,5-1.3,5.1-2.8H33.1z"/>
			<g>
				<path class="st6" d="M43.3,64.4c1.2-0.3,1.4-0.4,1.4-0.4s-0.8-0.3-2-0.7c-3-1.2-2.8,0.4-4.4,0.4c-0.8,0-1.6-0.8-2.3-0.7
					c-0.7,0.1-1.4,0.2-2,0.4c-1.2,0.3-2,0.7-2,0.7s0,0.2,1.2,0.5c0,0,2.3-0.4,3.8-0.1c0,0,1.3,0.3,2.3,0.1
					C39.2,64.3,41.6,64.2,43.3,64.4"/>
			</g>
			<g>
				<path class="st6" d="M43.6,64c-1.2,1.2-2.4,3-5.7,3c0,0-3.8,0.2-5-3h-1c0,0.1,0.1,0.2,0.1,0.2c0.3,0.5,0.5,1,0.9,1.5
					c0.2,0.2,0.4,0.5,0.6,0.8c0.2,0.3,0.5,0.5,0.7,0.7l0.4,0.4l0.5,0.3c0.3,0.2,0.6,0.4,1,0.5c0.4,0.1,0.8,0.3,1.2,0.4l0.5,0.1
					l0.2,0l0.1,0l0.1,0l0.2,0l1.2-0.1c0.4-0.1,0.7-0.2,1.1-0.4c0.4-0.1,0.7-0.4,1-0.5l0.5-0.3l0.4-0.4c0.2-0.2,0.5-0.5,0.7-0.7
					c0.2-0.3,0.4-0.5,0.6-0.8c0.4-0.5,0.6-1,0.9-1.5c0-0.1,0.1-0.2,0.1-0.2H43.6z"/>
			</g>
		</g>
		<path class="st5" d="M38.3,68.2c4.1-0.6,4.7-3,4.7-3c-1.7,2.4-4.7,2.4-4.7,2.4s-0.3,0-0.2,0.4C38,67.9,38.1,68.2,38.3,68.2z"/>
	</g>
	<path class="st3" d="M67.9,33.5c0,0,1.7-28-21.8-33.1c0,0-17.9-2.8-24.6,8.1l13.9,11.1c0,0,6.9,12.7,20.7,17.6c0,0,5.7,1.4,6.1,12
		c0,0,0.8-5.8,4.1-5.3C66.3,43.8,68,36.6,67.9,33.5z"/>
	<path class="st7" d="M35.4,56.9c0,0,0,0,0.1,0c0.1,0,0.2-0.1,0.3-0.1c0.2-0.1,0.6-0.1,0.9-0.2c0.3,0,0.7-0.1,1.1-0.1
		c0.4,0,0.7,0,1.1,0c0.4,0,0.7,0,1,0.1c0.2,0,0.3,0,0.5,0.1c0.2,0,0.3,0.1,0.5,0.1c0.2,0,0.3,0.1,0.5,0.1c0.1,0,0.3,0,0.4,0.1
		c0.1,0,0.2,0,0.3,0.1c0.1,0,0.1,0,0.1,0s0,0,0,0.1c0,0.1,0,0.2-0.1,0.3c-0.1,0.2-0.3,0.6-0.6,0.9c-0.1,0.2-0.3,0.3-0.5,0.4
		c-0.2,0.1-0.4,0.3-0.7,0.4c-0.2,0.1-0.5,0.2-0.8,0.2c-0.3,0.1-0.6,0.1-0.8,0.1c-0.3,0-0.5-0.1-0.8-0.1c-0.3-0.1-0.5-0.1-0.7-0.2
		c-0.5-0.2-0.8-0.5-1.1-0.8c-0.3-0.3-0.5-0.6-0.6-0.8c-0.1-0.1-0.1-0.2-0.1-0.3C35.4,56.9,35.4,56.9,35.4,56.9z"/>
	<g>
		<g>
			<path class="st8" d="M48.3,88.5l20.1,7.8c-5.4,3.9-5.8,10.6-5.8,17.2H13.3c0.1-1.8,0-3.6-0.1-5.1c-0.3-4.1-1.5-9.7-5.4-11.9
				l20.8-8c0,0,0.7,6.4,9.7,6.4C38.3,94.7,47.8,94.8,48.3,88.5z"/>
		</g>
	</g>
	<path class="st3" d="M18.8,36.4c-3.2,2.3-2.5,7.8-2.5,12.8c0,0-0.7-7-4.8-6c0,0-8-30.4,12-36.5L36.9,19
		C36.9,19,35.4,24.6,18.8,36.4z"/>
	<path class="st3" d="M10.3,24.6c0,0-12.7,56.7,11.9,64.8c0,0-0.7-9,7.7-11.6l0-3.6c0,0-6.8-4.9-7.5-6.5c0,0-4.5-4.3-5.6-12.4
		c0,0-0.9-11.5,0.1-16L10.3,24.6z"/>
	<path class="st3" d="M66.3,24.6c0,0,12.7,56.7-11.9,64.8c0,0,0.7-9-7.7-11.6l0-3.6c0,0,6.8-4.9,7.5-6.5c0,0,4.5-4.3,5.6-12.4
		c0,0,0.9-11.5-0.1-16L66.3,24.6z"/>
</g>
</svg>
