<svg xmlns="http://www.w3.org/2000/svg" viewBox="0 0 76.54 113.39"><defs><style>.cls-1{isolation:isolate;}.cls-2{fill:#6db9ca;}.cls-3{fill:#f4b88e;}.cls-4{fill:#f5dcd6;mix-blend-mode:multiply;}.cls-5{fill:#184892;}.cls-6{fill:#f2a57f;}.cls-7{fill:#2f1807;}.cls-8{fill:#fff;}.cls-9{fill:#eba17d;}.cls-10{fill:#693d34;}.cls-11{fill:#bfe5e5;}.cls-12{fill:none;stroke:#e89780;stroke-linecap:round;stroke-linejoin:round;}</style></defs><title>human1</title><g class="cls-1"><g id="Слой_1" data-name="Слой 1"><rect class="cls-2" x="28.4" y="82.86" width="19.73" height="8.16"/><path class="cls-3" d="M46.18,73.24h-16s.41,11.37-1.56,14.67H47.94C46,84.61,46.18,73.24,46.18,73.24Z"/><path class="cls-4" d="M30,81.83a15.7,15.7,0,0,0,8.44,2.52,18.28,18.28,0,0,0,8.18-2.06,83.67,83.67,0,0,1-.39-9.05h-16A81.21,81.21,0,0,1,30,81.83Z"/><path class="cls-3" d="M69.24,95.78,46,86.42H30.54L7.27,95.78s-8.14,3-7.19,17.61H76.43C77.54,97.89,69.24,95.78,69.24,95.78Z"/><path class="cls-5" d="M69.24,95.78l-19-7.65L38.27,97.49,26.59,88,7.27,95.78s-8.14,3-7.19,17.61H76.43C77.54,97.89,69.24,95.78,69.24,95.78Z"/><path class="cls-3" d="M55.82,50.91c-.55,3.84.41,7.25,2.14,7.61s3.59-2.44,4.13-6.27S61.69,45,60,44.63,56.37,47.08,55.82,50.91Z"/><path class="cls-6" d="M57.91,49.88s0-.22.09-.57a7.54,7.54,0,0,1,.42-1.38c.22-.51.57-1.1,1-1.13a.78.78,0,0,1,.33.05l.17.1a1.2,1.2,0,0,1,.12.11,2.21,2.21,0,0,1,.42.84,5.53,5.53,0,0,1,.2,1.09,5.8,5.8,0,0,1,0,1.1c0,.38-.07.78-.13,1.11s-.11.67-.16,1-.13.57-.18.82-.11.45-.15.63c-.09.35-.13.56-.13.56l.23-.5a6.17,6.17,0,0,0,.25-.59c.09-.23.19-.5.29-.79s.18-.64.27-1,.14-.73.21-1.12a6.38,6.38,0,0,0,0-1.31,6.55,6.55,0,0,0-.22-1.3,2.78,2.78,0,0,0-.61-1.12,1.16,1.16,0,0,0-.24-.2,1.33,1.33,0,0,0-.24-.11,1.15,1.15,0,0,0-.52,0,1.4,1.4,0,0,0-.85.68,3.61,3.61,0,0,0-.41,1,6.76,6.76,0,0,0-.24,1.54A3.91,3.91,0,0,0,57.91,49.88Z"/><path class="cls-6" d="M57.91,49.88s-.16-.41,1-.51c0,0,1.27.27.52,2.17A7.09,7.09,0,0,0,59,52.83c-.11.64.09,1.51-.21,2.08-.4.73-1.4.31-1.46-.53a5.12,5.12,0,0,1,.81-2.2A1.86,1.86,0,0,0,57.91,49.88Z"/><path class="cls-6" d="M57.36,54.3a1,1,0,0,0-.09.11,1,1,0,0,0-.17.35A2,2,0,0,0,57,55a1.62,1.62,0,0,0,0,.31c0,.11,0,.23,0,.35a2.8,2.8,0,0,0,.09.31,1.36,1.36,0,0,0,.13.3c0,.08.12.15.17.22a.8.8,0,0,0,.35.28.85.85,0,0,0,.39.1,3.72,3.72,0,0,0-.18-.46,1.62,1.62,0,0,0-.1-.18.76.76,0,0,0-.08-.21,1.21,1.21,0,0,0-.09-.2,2,2,0,0,1-.08-.22,2.92,2.92,0,0,1-.13-.42.8.8,0,0,1-.05-.21c0-.07,0-.14,0-.21C57.38,54.54,57.36,54.3,57.36,54.3Z"/><path class="cls-3" d="M21,50.91c.55,3.84-.41,7.25-2.14,7.61s-3.58-2.44-4.13-6.27.41-7.25,2.14-7.62S20.42,47.08,21,50.91Z"/><path class="cls-6" d="M18.89,49.88s0-.22-.1-.57a7.54,7.54,0,0,0-.42-1.38c-.21-.51-.56-1.1-1-1.13a.83.83,0,0,0-.34.05l-.17.1a1.43,1.43,0,0,1-.12.11,2.21,2.21,0,0,0-.42.84,5.53,5.53,0,0,0-.2,1.09,5.8,5.8,0,0,0,0,1.1c.05.38.07.78.13,1.11s.11.67.16,1,.13.57.18.82.11.45.15.63l.14.56-.24-.5c-.06-.16-.16-.35-.25-.59l-.28-.79c-.1-.3-.18-.64-.28-1s-.14-.73-.21-1.12a6.38,6.38,0,0,1,0-1.31,6.55,6.55,0,0,1,.22-1.3,2.78,2.78,0,0,1,.61-1.12,1,1,0,0,1,.25-.2,1.23,1.23,0,0,1,.23-.11,1.15,1.15,0,0,1,.52,0,1.4,1.4,0,0,1,.85.68,4,4,0,0,1,.42,1,7.24,7.24,0,0,1,.23,1.54A5.42,5.42,0,0,1,18.89,49.88Z"/><path class="cls-6" d="M18.89,49.88s.16-.41-1-.51c0,0-1.27.27-.52,2.17a7.09,7.09,0,0,1,.38,1.29c.11.64-.09,1.51.22,2.08.39.73,1.4.31,1.46-.53a5.26,5.26,0,0,0-.82-2.2A1.85,1.85,0,0,1,18.89,49.88Z"/><path class="cls-6" d="M19.44,54.3s0,0,.08.11a1,1,0,0,1,.17.35,2,2,0,0,1,.06.28,1.08,1.08,0,0,1,0,.31c0,.11,0,.23,0,.35a2.8,2.8,0,0,1-.09.31,1.36,1.36,0,0,1-.13.3,1.84,1.84,0,0,1-.17.22.75.75,0,0,1-.35.28.82.82,0,0,1-.38.1,2.91,2.91,0,0,1,.17-.46,1.62,1.62,0,0,1,.1-.18c0-.07.05-.15.08-.21a1.21,1.21,0,0,1,.09-.2,2,2,0,0,0,.08-.22c.06-.13.09-.28.14-.42s0-.14,0-.21a1.55,1.55,0,0,1,0-.21C19.41,54.54,19.44,54.3,19.44,54.3Z"/><path class="cls-3" d="M38.61,9.53h-.55c-13.77.13-21.51,4.54-19.4,32.72L21,64.71a9.43,9.43,0,0,0,4.43,6.54l7.48,6.23s3.55,1.77,5.4,1.6c1.84.17,5.39-1.6,5.39-1.6l7.49-6.23a9.44,9.44,0,0,0,4.42-6.55l2.5-21.93C60.25,14.58,52.38,9.66,38.61,9.53Z"/><path class="cls-7" d="M28.19,44.1c0,1.46.74,2.64,1.63,2.64s1.62-1.2,1.61-2.67-.74-2.64-1.64-2.64S28.18,42.63,28.19,44.1Z"/><path class="cls-8" d="M29.16,43.25a.71.71,0,1,1-.7-.79A.74.74,0,0,1,29.16,43.25Z"/><path class="cls-7" d="M48.61,44.1c0,1.46-.74,2.64-1.64,2.64s-1.62-1.2-1.61-2.67.74-2.64,1.64-2.64S48.61,42.63,48.61,44.1Z"/><path class="cls-8" d="M47.63,43.25a.71.71,0,1,0,.7-.79A.74.74,0,0,0,47.63,43.25Z"/><path class="cls-9" d="M40.78,58.36a4.52,4.52,0,0,1-1.3,1,4.65,4.65,0,0,1-1.56.48,4.11,4.11,0,0,1-1.67-.1,4.06,4.06,0,0,1-.83-.28,5.75,5.75,0,0,1-.77-.42l-.36-.2,0-.58a16.41,16.41,0,0,1,0-1.71c0-.56.06-1.11.1-1.67s.13-1.1.21-1.64.19-1.09.31-1.62a22.32,22.32,0,0,1,.95-3.14,11.66,11.66,0,0,1,.64-1.5c.23-.48.48-1,.75-1.43,0,.57-.06,1.12-.12,1.66s-.13,1.07-.17,1.6-.11,1.06-.18,1.59-.1,1.06-.16,1.58-.13,1-.17,1.56-.13,1-.15,1.56-.1,1-.13,1.56S36,57.67,36,58.14l-.39-.78c.17.11.33.28.52.38a4.44,4.44,0,0,0,1.15.58c.21,0,.42.13.64.16a5.05,5.05,0,0,0,.68.08,5.45,5.45,0,0,0,.7,0A8.53,8.53,0,0,0,40.78,58.36Z"/><path class="cls-10" d="M33.21,38.69a1.16,1.16,0,0,1-1.29,1,11.14,11.14,0,0,0-6.55.61,1.12,1.12,0,0,1-1.4-.72h0a1.21,1.21,0,0,1,.57-1.64,13.16,13.16,0,0,1,7.71-.77,1.29,1.29,0,0,1,1,1.54Z"/><path class="cls-10" d="M43,38.69a1.16,1.16,0,0,0,1.29,1,11.14,11.14,0,0,1,6.55.61,1.12,1.12,0,0,0,1.4-.72h0a1.21,1.21,0,0,0-.57-1.64,13.16,13.16,0,0,0-7.71-.77,1.29,1.29,0,0,0-1,1.54Z"/><polygon class="cls-2" points="38.27 97.49 36.7 88.49 28.4 82.86 27.19 88.53 38.27 97.49"/><polygon class="cls-11" points="36.7 88.49 32.77 96.57 23.18 89.25 28.4 82.86 36.7 88.49"/><polygon class="cls-2" points="38.27 97.49 39.84 88.49 48.14 82.86 49.34 88.53 38.27 97.49"/><polygon class="cls-11" points="39.84 88.49 43.76 96.57 53.35 89.25 48.14 82.86 39.84 88.49"/><path class="cls-12" d="M39.07,68.26a3.84,3.84,0,0,1-1.93,0"/><path class="cls-8" d="M33.74,63.75l1.12,2.49s5,3.17,8.59-2.36A77.42,77.42,0,0,1,33.74,63.75Z"/><path class="cls-10" d="M54.76,32.5s1.8,1.26,1.4,6.12L56,48.25h1.49S57.35,44.6,60,44.63L61.24,23.1s1-8.59-5.57-13.58c0,0-5.52-1.63-7.06-6.7a13.38,13.38,0,0,0,0,4.51S44.17,5.92,45.36,0a6.45,6.45,0,0,0-3.57,5.63S41.63.84,39.07,0c0,0,.94,3.66-1.93,5.07,0,0-12.33-.56-16,6.2,0,0-6.67,3.68-5.58,19.33l1.29,14a7.72,7.72,0,0,1,2.94,3.61h1.35V35.5s-.08-3,2.05-3c0,0-2.05-11.27,4-13,0,0,9.08-2.73,11.4,2.37,0,0,.37-4.13,11.48-2.54C50.07,19.37,57,20.47,54.76,32.5Z"/></g></g></svg>