<svg id="Слой_1" data-name="Слой 1" xmlns="http://www.w3.org/2000/svg" xmlns:xlink="http://www.w3.org/1999/xlink" viewBox="0 0 624.04 246.61"><defs><style>.cls-1{fill:url(#Безымянный_градиент_16);}.cls-2{fill:url(#Безымянный_градиент_16-2);}.cls-3{fill:url(#Безымянный_градиент_16-3);}.cls-4{fill:url(#Безымянный_градиент_16-4);}.cls-5{fill:#fff;}.cls-6{fill:url(#Безымянный_градиент_16-5);}.cls-7{fill:url(#Безымянный_градиент_16-6);}.cls-8{fill:#00255b;}</style><linearGradient id="Безымянный_градиент_16" x1="278.53" y1="-667.75" x2="259.53" y2="-748.94" gradientTransform="matrix(1, 0, 0, -1, 0, -618.7)" gradientUnits="userSpaceOnUse"><stop offset="0" stop-color="#27aae1"/><stop offset="1" stop-color="#000a36"/></linearGradient><linearGradient id="Безымянный_градиент_16-2" x1="305.43" y1="-674.04" x2="286.43" y2="-755.23" xlink:href="#Безымянный_градиент_16"/><linearGradient id="Безымянный_градиент_16-3" x1="311.44" y1="-675.44" x2="292.44" y2="-756.64" xlink:href="#Безымянный_градиент_16"/><linearGradient id="Безымянный_градиент_16-4" x1="284.54" y1="-669.15" x2="265.54" y2="-750.34" xlink:href="#Безымянный_градиент_16"/><linearGradient id="Безымянный_градиент_16-5" x1="472.68" y1="-511.78" x2="376.68" y2="-695.23" xlink:href="#Безымянный_градиент_16"/><linearGradient id="Безымянный_градиент_16-6" x1="538.77" y1="-558.32" x2="419.75" y2="-721.39" xlink:href="#Безымянный_градиент_16"/></defs><title>World house estate</title><g id="Layer_1" data-name="Layer 1"><rect class="cls-1" x="257.57" y="81.04" width="21.84" height="21.84"/><rect class="cls-2" x="285.94" y="81.04" width="21.84" height="21.84"/><rect class="cls-3" x="285.94" y="108.13" width="21.84" height="21.84"/><rect class="cls-4" x="257.57" y="108.13" width="21.84" height="21.84"/><path class="cls-5" d="M520.31,36.08l5.6,6.42-98,84.43C385.9,90.73,292.72,10.39,282.67,1.75c-12.49,10.74-113.61,97.86-165.58,142.7h40.64L282.67,36.78c7.6,6.54,118.41,102.06,125,107.67h40.64l95.17-82,5.83,6.66c7.13-21.14,6.89-20.55,14.13-41.57C538.64,32.35,537.59,32.58,520.31,36.08Z"/><path class="cls-6" d="M356.12,55.93l20.32,17.52L420.7,35.27l5.6,6.3C435,16.11,431.79,25.46,440.43,0,427,2.69,410.77,6,397.34,8.64l6,6.77Z"/><path class="cls-7" d="M394.78,89.21l20.31,17.52,70.18-60.49L491,52.78c8.64-25.46,5.48-16.11,14.12-41.57-13.42,2.69-29.66,6-43.08,8.64l5.72,6.54Z"/></g><path class="cls-8" d="M13.63,245.73,0,192H7.34l6.37,27.19c1.6,6.7,3,13.4,4,18.58h.16c.88-5.34,2.55-11.72,4.39-18.66L29.42,192h7.26l6.54,27.27c1.51,6.38,3,12.76,3.74,18.42h.16c1.12-5.9,2.63-11.88,4.31-18.58L58.53,192h7.09L50.39,245.73H43.14l-6.78-28a161,161,0,0,1-3.51-17.55h-.16a169.21,169.21,0,0,1-4.14,17.55l-7.66,28Z"/><path class="cls-8" d="M104.38,226.12c0,14.27-9.89,20.49-19.22,20.49-10.44,0-18.5-7.65-18.5-19.85,0-12.92,8.46-20.5,19.14-20.5C96.88,206.26,104.38,214.32,104.38,226.12Zm-30.62.4c0,8.45,4.86,14.83,11.72,14.83,6.7,0,11.72-6.3,11.72-15,0-6.54-3.27-14.83-11.56-14.83S73.76,219.18,73.76,226.52Z"/><path class="cls-8" d="M113.23,219.18c0-4.54-.08-8.45-.32-12h6.14l.24,7.58h.32c1.75-5.19,6-8.46,10.68-8.46a7.61,7.61,0,0,1,2,.24v6.62a10.54,10.54,0,0,0-2.39-.24c-5,0-8.46,3.75-9.41,9a19.69,19.69,0,0,0-.32,3.27v20.57h-6.94Z"/><path class="cls-8" d="M139.63,189.12h7v56.61h-7Z"/><path class="cls-8" d="M191.77,189.12v46.65c0,3.42.08,7.33.32,10h-6.3l-.32-6.69h-.16c-2.15,4.3-6.85,7.57-13.15,7.57-9.33,0-16.51-7.89-16.51-19.62-.08-12.83,7.9-20.73,17.31-20.73,5.9,0,9.88,2.79,11.64,5.9h.16v-23Zm-7,33.73a12.34,12.34,0,0,0-.32-2.95,10.32,10.32,0,0,0-10.13-8.13c-7.25,0-11.56,6.37-11.56,14.91,0,7.81,3.83,14.27,11.4,14.27a10.55,10.55,0,0,0,10.29-8.37,12.2,12.2,0,0,0,.32-3Z"/><path class="cls-8" d="M210.59,192v22.49h26V192h7v53.74h-7V220.54h-26v25.19h-6.93V192Z"/><path class="cls-8" d="M290.33,226.12c0,14.27-9.89,20.49-19.21,20.49-10.45,0-18.5-7.65-18.5-19.85,0-12.92,8.45-20.5,19.13-20.5C282.84,206.26,290.33,214.32,290.33,226.12Zm-30.62.4c0,8.45,4.87,14.83,11.72,14.83,6.7,0,11.73-6.3,11.73-15,0-6.54-3.27-14.83-11.57-14.83S259.71,219.18,259.71,226.52Z"/><path class="cls-8" d="M331.48,235.21c0,4,.08,7.49.32,10.52h-6.22l-.4-6.3H325a14.52,14.52,0,0,1-12.76,7.18c-6.06,0-13.31-3.35-13.31-16.9V207.14h7v21.37c0,7.34,2.23,12.28,8.61,12.28a10.13,10.13,0,0,0,9.25-6.38,10.24,10.24,0,0,0,.64-3.59V207.14h7Z"/><path class="cls-8" d="M342.17,238.56a18.42,18.42,0,0,0,9.24,2.79c5.11,0,7.5-2.55,7.5-5.74,0-3.35-2-5.19-7.18-7.1-6.93-2.47-10.2-6.3-10.2-10.92,0-6.22,5-11.33,13.31-11.33a19.2,19.2,0,0,1,9.49,2.4l-1.75,5.1a15,15,0,0,0-7.9-2.23c-4.14,0-6.45,2.39-6.45,5.26,0,3.19,2.31,4.62,7.33,6.54,6.7,2.55,10.13,5.9,10.13,11.64,0,6.78-5.27,11.56-14.44,11.56a22.06,22.06,0,0,1-10.84-2.63Z"/><path class="cls-8" d="M378.61,227.71c.15,9.49,6.21,13.4,13.23,13.4a25.3,25.3,0,0,0,10.69-2l1.19,5a31.38,31.38,0,0,1-12.84,2.39c-11.88,0-19-7.81-19-19.46s6.85-20.81,18.1-20.81c12.6,0,15.95,11.09,15.95,18.18a26.36,26.36,0,0,1-.24,3.27Zm20.57-5c.08-4.47-1.84-11.4-9.73-11.4-7.1,0-10.21,6.54-10.77,11.4Z"/><path class="cls-5" d="M459.62,220.54H438.73v19.37H462v5.82H431.79V192h29v5.82H438.73v17h20.89Z"/><path class="cls-5" d="M469.83,238.56a18.43,18.43,0,0,0,9.25,2.79c5.1,0,7.49-2.55,7.49-5.74,0-3.35-2-5.19-7.17-7.1-6.94-2.47-10.21-6.3-10.21-10.92,0-6.22,5-11.33,13.32-11.33a19.19,19.19,0,0,1,9.48,2.4l-1.75,5.1a15,15,0,0,0-7.89-2.23c-4.15,0-6.46,2.39-6.46,5.26,0,3.19,2.31,4.62,7.33,6.54,6.7,2.55,10.13,5.9,10.13,11.64,0,6.78-5.26,11.56-14.43,11.56a22.07,22.07,0,0,1-10.85-2.63Z"/><path class="cls-5" d="M510.81,196.06v11.08h10.05v5.34H510.81v20.81c0,4.79,1.36,7.5,5.27,7.5a15.48,15.48,0,0,0,4.06-.48l.32,5.26a17.11,17.11,0,0,1-6.22,1c-3.27,0-5.9-1-7.57-2.95-2-2.07-2.71-5.5-2.71-10.05V212.48h-6v-5.34h6v-9.25Z"/><path class="cls-5" d="M550.12,245.73l-.55-4.86h-.24a14.38,14.38,0,0,1-11.8,5.74c-7.82,0-11.81-5.5-11.81-11.08,0-9.33,8.3-14.44,23.21-14.36v-.79c0-3.19-.88-8.93-8.77-8.93a19.18,19.18,0,0,0-10,2.87l-1.59-4.63a23.94,23.94,0,0,1,12.67-3.43c11.81,0,14.68,8.06,14.68,15.79v14.43a54.22,54.22,0,0,0,.63,9.25Zm-1-19.69c-7.66-.16-16.35,1.19-16.35,8.69,0,4.54,3,6.7,6.62,6.7a9.61,9.61,0,0,0,9.33-6.46,7.34,7.34,0,0,0,.4-2.23Z"/><path class="cls-5" d="M575.32,196.06v11.08h10v5.34h-10v20.81c0,4.79,1.36,7.5,5.27,7.5a15.48,15.48,0,0,0,4.06-.48l.32,5.26a17.11,17.11,0,0,1-6.22,1c-3.27,0-5.9-1-7.57-2.95-2-2.07-2.71-5.5-2.71-10.05V212.48h-6v-5.34h6v-9.25Z"/><path class="cls-5" d="M596.69,227.71c.16,9.49,6.22,13.4,13.24,13.4a25.28,25.28,0,0,0,10.68-2l1.2,5A31.38,31.38,0,0,1,609,246.53c-11.88,0-19-7.81-19-19.46s6.85-20.81,18.1-20.81c12.59,0,15.94,11.09,15.94,18.18a26.36,26.36,0,0,1-.24,3.27Zm20.57-5c.08-4.47-1.83-11.4-9.72-11.4-7.1,0-10.21,6.54-10.77,11.4Z"/></svg>