<?xml version="1.0" encoding="utf-8"?>
<!-- Generator: Adobe Illustrator 22.0.1, SVG Export Plug-In . SVG Version: 6.00 Build 0)  -->
<svg version="1.1" id="Layer_1" xmlns="http://www.w3.org/2000/svg" xmlns:xlink="http://www.w3.org/1999/xlink" x="0px" y="0px"
	 viewBox="0 0 240.6 142.9" style="enable-background:new 0 0 240.6 142.9;" xml:space="preserve">
<style type="text/css">
	.st0{filter:url(#Adobe_OpacityMaskFilter);}
	.st1{fill:#FFFFFF;}
	.st2{mask:url(#SVGID_1_);}
	.st3{fill:#FF4545;}
</style>
<g>
	<defs>
		<filter id="Adobe_OpacityMaskFilter" filterUnits="userSpaceOnUse" x="0" y="0" width="240.6" height="142.9">
			<feColorMatrix  type="matrix" values="1 0 0 0 0  0 1 0 0 0  0 0 1 0 0  0 0 0 1 0"/>
		</filter>
	</defs>
	<mask maskUnits="userSpaceOnUse" x="0" y="0" width="240.6" height="142.9" id="SVGID_1_">
		<g class="st0">
			
				<rect x="-19.6" y="-14.1" transform="matrix(0.9596 -0.2812 0.2812 0.9596 -15.3008 36.235)" class="st1" width="276.5" height="171"/>
			<g>
				<g>
					<g>
						<path d="M141.5,91.2L141.5,91.2l-0.9,0.3c0,0,0,0,0,0l0,0l0,0c0,0,0,0,0,0l1.8,0.2l0,0c0.1-0.2,0.1-0.4,0.1-0.5l0,0
							c0,0,0,0,0,0v0c0,0,0,0,0,0l0,0c0,0,0,0,0,0c0,0,0-0.1,0-0.1L141.5,91.2L141.5,91.2z"/>
						<path d="M148.4,79.3C148.4,79.3,148.4,79.3,148.4,79.3l-0.9,0l0,0c0,0,0,0-0.1,0l0.2,0.6l0,0l-0.2-0.6l0.3,1.3l0.1,0l-0.2-0.6
							l0,0l0.2,0.6c0.8-0.2,1.3-0.7,1.5-1.2L148.4,79.3C148.4,79.3,148.4,79.3,148.4,79.3z"/>
						<path d="M87.5,106.4L87.5,106.4l-0.3,0l-0.6-0.1c0,0-0.1,0.1-0.1,0.1c0,0-0.1,0.1-0.1,0.1c0,0-0.1,0.1-0.1,0.1l0,0l0,0
							l1.7,0.3v0l0,0c0,0,0.1-0.1,0.1-0.1c0.1-0.1,0.2-0.2,0.3-0.4l0,0L87.5,106.4L87.5,106.4z"/>
						<path d="M166.1,122.8l0.9-0.3c-0.2-0.4-0.6-0.7-1.2-0.8l-0.7,1.4c0,0,0,0,0,0c0,0,0,0,0,0c0,0,0.1,0,0.1,0.1c0,0,0,0,0,0
							L166.1,122.8L166.1,122.8L166.1,122.8z"/>
						<path d="M69.6,75.8l0.5,0.5c0.3-0.2,0.5-0.4,0.7-0.7c0,0,0,0,0,0s0,0,0,0c0.1-0.2,0.2-0.5,0.1-0.8l0-0.1l0-0.1
							c-0.1-0.2-0.2-0.4-0.4-0.5c-0.1,0-0.1-0.1-0.2-0.1l0,0l-1.2,1.2c0,0,0,0,0,0c0,0,0,0,0,0l0,0l0,0c0,0,0,0,0,0c0,0,0,0,0,0l0,0
							c0,0,0,0,0,0l0.1,0L69.6,75.8C69.6,75.8,69.6,75.8,69.6,75.8C69.6,75.8,69.6,75.8,69.6,75.8z"/>
						<path d="M148.4,127.8l0.3,0.6c0.7-0.3,1.2-0.8,1.3-1.4l0-0.1c0-0.4-0.3-0.7-0.6-0.9L148,127l0,0c0,0,0,0,0,0
							c0,0,0,0.1,0.1,0.1c0,0,0,0.1,0,0.1c0,0,0,0,0,0l0,0c0,0,0,0,0,0c0,0,0,0,0,0l0,0l0,0l0.1,0L148.4,127.8
							C148.4,127.8,148.4,127.8,148.4,127.8C148.4,127.8,148.4,127.8,148.4,127.8z"/>
						<polygon points="127.1,105.6 127.1,105.6 127.1,105.6 127.6,105 127.6,105 127.6,105 127,104.7 125.9,106 126.2,106.1 
							126.2,106.1 126.5,106.2 127.1,105.6 						"/>
						<path d="M154.9,13L154.9,13l-0.8,0.4c0.2,0.2,0.4,0.3,0.6,0.4l0,0c0,0,0,0,0,0c0,0,0,0,0,0c0,0,0,0,0,0
							c0.4,0.2,0.9,0.2,1.4,0.1l0.1,0l0,0c0.3-0.1,0.9-0.3,3.1-2.4l-0.7-0.3l0,0l0,0l-0.7-0.3c-1,1-1.7,1.6-2,1.8c0,0-0.1,0-0.1-0.1
							L154.9,13L154.9,13z"/>
						<path d="M190.1-15l-0.1,0.7l0,0c0,0,0.1,0,0.2,0l0,0l0.1-0.7l0,0l0,0.7l1.1-0.1l0-0.8c0-0.1,0-0.1,0-0.2v0c0,0,0,0,0,0
							c0,0,0,0,0,0v0c0-0.1,0-0.2,0-0.2l0,0v0l-0.9,0.2v0l0.9-0.2l-0.9,0.2l0-0.2c0,0,0,0,0,0c-0.1,0-0.1,0-0.2,0l-0.1,0l0,0l0,0.2
							l-0.7,0.2l0.7-0.2l0,0l-0.7,0.2c0,0.1,0,0.2,0,0.3l0,0.1l0,0l0,0L190.1-15z"/>
						<path d="M63,41.5C63,41.5,63,41.4,63,41.5c0.3-0.2,0.6-0.4,0.8-0.6c0.4-0.3,0.7-0.7,1-1.1c0.1-0.1,0.1-0.1,0.1-0.2l-0.8-0.2
							l0,0l0,0l-0.8-0.2c0,0.1-0.1,0.1-0.1,0.2c-0.4,0.5-0.8,0.9-1.4,1.3L63,41.5L63,41.5z"/>
						<path d="M201.4,96c0,0,0.1,0.1,0.1,0.1c0.3,0.3,0.7,0.5,1.2,0.5l0.5-1.4l0,0l0,0c0,0,0,0,0,0c0,0-0.1-0.1-0.1-0.1L201.4,96
							L201.4,96z"/>
						<path d="M175.3,26.4C175.3,26.4,175.3,26.4,175.3,26.4c0.1-0.1,0.2-0.2,0.2-0.2l0,0c0,0,0,0,0,0l-1.6-0.5c0,0,0,0,0,0l0,0
							c0,0-0.1,0.1-0.1,0.1c-0.1,0.1-0.2,0.2-0.3,0.4L175.3,26.4C175.2,26.5,175.3,26.5,175.3,26.4z"/>
						<path d="M180.1,28.8l0.8-0.5l0,0l0,0l0.8-0.5c0,0,0,0,0,0l0,0c0,0-0.1-0.1-0.1-0.1c-0.1-0.1-0.2-0.2-0.3-0.4c0,0,0,0,0,0l0,0
							l0,0c0,0,0,0,0,0c0,0,0,0,0,0s0,0,0,0l0,0l0,0v0l0,0c0,0,0,0,0,0c0,0,0,0,0,0l0,0c0,0,0,0,0,0c0,0,0,0,0,0c0,0,0,0,0,0
							c0,0,0,0,0,0c0,0,0,0,0,0l0,0l0,0l0,0c0,0,0,0,0,0l0,0l0,0c0,0,0,0,0,0l0,0c0,0,0,0,0,0c0,0,0,0,0,0c0,0,0,0,0,0c0,0,0,0,0,0
							c0,0,0,0,0,0c0,0,0,0,0,0c0,0,0,0,0,0c0,0,0,0,0,0s0,0,0,0c0,0,0,0,0,0c0,0,0,0,0,0v0c0,0,0,0,0,0l0,0h0l0,0l0,0l0,0l0,0
							c0,0,0,0,0,0l0,0c0,0,0,0,0,0c0,0,0,0,0,0c0,0,0,0,0,0s0,0,0,0l0,0c0,0,0,0,0,0c0,0,0,0,0,0c0,0,0,0,0,0l0,0c0,0,0,0,0,0
							c0,0,0,0,0,0v0c0,0,0,0,0,0v0c0,0,0,0,0,0c0,0,0,0,0,0c0,0,0,0,0,0l0,0c-0.1,0-0.2,0-0.3-0.1l-0.3,0.7l0,0l0,0l-0.3,0.7
							c-0.2,0-0.3-0.1-0.3-0.1c0,0,0.1,0.1,0.1,0.1C180,28.7,180,28.7,180.1,28.8z"/>
						<path d="M167.6,17.6c0.1,0,0.2,0.1,0.3,0.1c0.1,0,0.1,0.1,0.2,0.1l0,0c0,0,0,0,0,0l1.2-1.2l0,0l0,0l-0.1-0.1
							c-0.1-0.1-0.3-0.1-0.4-0.2c0,0,0,0,0,0c0,0,0,0,0,0l0,0c0,0,0,0,0,0l0,0l0,0v0c0,0-0.1,0-0.1,0L167.6,17.6L167.6,17.6
							C167.6,17.5,167.6,17.6,167.6,17.6z"/>
						<path d="M117.7,84.1L117.7,84.1l0.1,0.1l0.2-0.1L118,84l1.4-0.5c-0.2-0.6-0.9-0.8-1.8-0.7l-0.2,0l-0.2,0.1l0.3,0.4L117.7,84.1
							z"/>
						<path d="M225,122.7C225,122.7,225.1,122.6,225,122.7l0.3,0.2l-0.5,0.2c0,0,0-0.1,0-0.1l0,0c0,0.1,0,0.1,0,0.2l0,0l0,0l0.6-0.2
							l0.1,0.1l0,0l0,0l0.5,0.5c0.1-0.1,0.2-0.2,0.3-0.2l0.5-0.3l-0.1-0.4l0,0c0,0,0-0.1,0-0.1c0,0,0,0,0,0c0,0,0,0,0,0c0,0,0,0,0,0
							l0,0c0,0,0-0.1-0.1-0.2l-0.9,0.4l0,0l0,0l-0.2,0.1l-0.4-0.3c0,0,0,0,0,0l0,0C225.2,122.5,225.1,122.6,225,122.7L225,122.7
							C225,122.7,225,122.7,225,122.7L225,122.7z"/>
						<path d="M68.6,106.7C68.6,106.7,68.6,106.7,68.6,106.7C68.6,106.7,68.6,106.7,68.6,106.7C68.6,106.7,68.6,106.7,68.6,106.7
							C68.6,106.7,68.6,106.7,68.6,106.7C68.6,106.7,68.6,106.7,68.6,106.7L68.6,106.7c0.1,0.1,0.1,0.1,0.2,0.2l0.7-0.5l0.1,0.1l0,0
							l0,0l0.1-0.1l-0.1-0.1l0.7-0.5c0,0,0,0,0,0c0,0,0,0,0,0s0,0,0,0l0,0c0,0,0,0,0,0c0,0,0,0,0,0h0c0,0,0,0,0,0l0,0
							c-0.1-0.1-0.1-0.1-0.2-0.2l-0.1-0.1h0l0,0l-0.7,0.4l-0.4-0.5l-1.1,0.5l0.6,0.6C68.4,106.5,68.5,106.6,68.6,106.7z"/>
						<path d="M76.7,128C76.7,128,76.7,128,76.7,128L76.7,128c0,0,0,0.1-0.1,0.1c-0.1,0.1-0.2,0.3-0.2,0.4l1.8,0c0,0,0-0.1,0-0.1
							c0,0,0,0,0,0c0.1-0.1,0.1-0.2,0.1-0.3l0,0c0,0,0,0,0,0L76.7,128z"/>
						<path d="M147,12.5l0.5-0.6l-0.1-0.2l0-0.2l-0.1,0l-0.1-0.1l-0.2,0.2l-0.7,0.1l-0.1-0.3l-0.1,0l0.1,0.3l-0.3,0l-0.3-0.1
							c0,0,0,0.1-0.1,0.1l0,0l-0.1,0.1l0,0l0,0.1l-0.9,1.5l2-0.7L147,12.5z"/>
						<path d="M201.9,39.3l0,0.3l0,0l0,0l0.2,0.2c0,0,0.1-0.1,0.1-0.1c0.1-0.1,0.2-0.1,0.3-0.2l0,0l0,0l-0.3-0.3l0.2-0.1v0v0
							l0.9-0.3c-0.1-0.1-0.1-0.2-0.3-0.3l0,0c0,0,0,0,0,0c-0.2-0.1-0.5-0.2-0.9-0.2l-0.4,0l-0.3,0.2c0,0-0.1,0.1-0.1,0.1
							c-0.1,0.1-0.3,0.2-0.4,0.3l0.8,0.5L201.9,39.3z"/>
						<path d="M249.4,64.2c0.1,0.1,0.1,0.1,0.2,0.2l1.6-1l0,0v0c0,0-0.1-0.1-0.1-0.1c0,0,0,0,0,0c0,0,0,0,0,0c0,0,0,0-0.1-0.1
							c0,0,0,0,0,0c0,0,0,0,0,0c0,0,0,0,0,0c-0.1-0.1-0.1-0.1-0.2-0.2l-1.4,1.1L249.4,64.2C249.4,64.2,249.4,64.2,249.4,64.2z"/>
						<path d="M236.9,78.3c0.2,0,0.5,0,0.8,0.5c0,0.1,0,0.3,0,0.4c0,0,0,0,0,0l0,0l1.7,0.3c0.2-0.4,0.3-0.8,0.1-1.3l0-0.1
							c-0.4-0.7-1-1-1.5-1.1c0,0,0,0,0,0c0,0,0,0,0,0c-0.4-0.1-0.7-0.1-1,0l0,0.7l0,0l0,0L236.9,78.3
							C236.9,78.3,236.9,78.3,236.9,78.3z"/>
						<path d="M249.8,109l1-1.3l0,0l0,0c0,0-0.1,0-0.1,0c-0.6-0.2-0.8-0.9-1.4-2.8l-0.1-0.4l-0.3,0l-2.1-1.1l0.3,1l0,0l0.3,1.1
							C248.1,107.6,248.4,108.6,249.8,109z"/>
						<path d="M140.9,100C140.9,100,140.9,100,140.9,100L140.9,100L140.9,100l1.8-0.5c-0.1-0.2-0.2-0.4-0.4-0.6L140.9,100
							C140.9,99.9,140.9,99.9,140.9,100C140.9,99.9,140.9,99.9,140.9,100z"/>
						<polygon points="14.9,78.8 15.3,78.3 15.6,77.4 13.9,77.5 13.8,77.9 13.8,77.9 13.8,78.1 13.6,78.1 13.8,78.1 13.6,78.9 
													"/>
						<path d="M75.3,158.8C75.3,158.8,75.3,158.8,75.3,158.8L75.3,158.8c0,0-0.1,0.1-0.1,0.1c-0.1,0.1-0.2,0.3-0.3,0.4l1.7,0.3l0,0
							c0,0,0,0,0,0c0,0,0.1-0.1,0.1-0.1c0,0,0,0,0,0c0.1-0.1,0.1-0.2,0.2-0.2l0,0c0,0,0,0,0,0L75.3,158.8z"/>
						<path d="M203.4,96.4L203.4,96.4C203.4,96.4,203.4,96.4,203.4,96.4C203.4,96.4,203.4,96.4,203.4,96.4
							C203.4,96.4,203.4,96.4,203.4,96.4l1.3,0.7l0.1-0.1c0,0,0,0,0,0c0.5-0.4,0.6-0.9,0.4-1.5l0,0l0,0l-0.9,0.3l0,0l0,0l-0.9,0.3
							C203.4,96.4,203.4,96.4,203.4,96.4C203.4,96.5,203.4,96.5,203.4,96.4z"/>
						<polygon points="232.1,123.8 231.4,123.7 231.4,123.6 231.4,123.7 231.2,123.7 231.2,123.7 231.2,123.7 230.3,123.6 
							229.8,124.7 231.4,125.2 						"/>
						<path d="M56.7,93.9L56.7,93.9L56.7,93.9l-0.3-0.6c-0.6,0.2-1.1,0.7-1.1,1.3l1.7-0.1L56.7,93.9z"/>
						<path d="M172.7,125.5L172.7,125.5l0.3,0.3c0,0,0,0,0,0c0,0,0,0,0,0c0.1,0,0.2-0.1,0.2-0.1l0,0v0l-0.2-0.3l1.1-0.3l0-0.1
							c0,0,0,0,0,0c0,0,0,0,0,0c0,0,0,0,0,0c0,0,0,0,0,0c0-0.1-0.1-0.2-0.2-0.2v0l0,0l0,0l0,0c-0.1-0.1-0.4-0.2-0.7-0.3l-0.4,0
							l-0.3,0.1c0,0-0.1,0-0.1,0l0,0c0,0,0,0,0,0c0,0-0.1,0-0.1,0c0,0,0,0,0,0l0,0c0,0-0.1,0-0.1,0.1L172.7,125.5L172.7,125.5z"/>
						<path d="M35.9,130.3L35.9,130.3L35.9,130.3c0,0,0-0.1,0.1-0.1c0-0.1,0.1-0.2,0.1-0.2l-1.8-0.2l0,0c0,0,0,0,0,0
							c0,0,0,0.1-0.1,0.1c-0.1,0.1-0.1,0.2-0.1,0.3l0,0c0,0,0,0,0,0L35.9,130.3z"/>
						<path d="M236,51.5L236,51.5L236,51.5c0.1,0,0.1,0,0.1-0.1c0.5-0.2,0.8-0.6,1-1.1l0,0l0,0c0,0,0-0.1,0-0.1l0,0v0l-1.7,0.1v0
							l0,0L236,51.5z"/>
						<path d="M23.1,82l0-0.1c0-0.3-0.2-0.5-0.4-0.7c-0.1-0.1-0.2-0.2-0.4-0.3l-0.1,0l-0.6,0.6l0.5-0.6l-1,1.1l-0.2,0.2l0,0
							c0,0,0,0,0,0c0,0,0,0.1,0.1,0.1c0,0.1,0,0.1-0.1,0.2c0,0,0,0,0,0l0,0l1.5,0.6C22.9,82.7,23.1,82.4,23.1,82z"/>
						<path d="M142.9,61.2C142.9,61.2,142.9,61.3,142.9,61.2c-0.1,0.1-0.1,0.1-0.2,0.2l0.8,1.1h0c0,0,0.1,0,0.1,0c0,0,0,0,0,0
							c0.5-0.3,0.9-0.7,1.1-1.1l-0.9-0.1l0.9,0.1c0.1-0.1,0.1-0.3,0.1-0.4L142.9,61.2C142.9,61.2,142.9,61.2,142.9,61.2z"/>
						<path d="M69,95.1C69,95.1,69,95.1,69,95.1L69,95.1C69,95.1,69,95.1,69,95.1C69,95.1,69,95.1,69,95.1C69,95.1,69,95.1,69,95.1
							L69,95.1C69,95.1,69,95.1,69,95.1L69,95.1C69,95.1,68.9,95.1,69,95.1L69,95.1C68.9,95,68.8,95,68.8,95l0,0c0,0,0,0,0,0
							c0,0,0,0,0,0c0,0,0,0,0,0c0,0,0,0,0,0l0,0c0,0,0,0,0,0c0,0,0,0,0,0c0,0,0,0,0,0c0,0,0,0,0,0c-0.2-0.1-0.3-0.2-0.6-0.2
							l-0.8,1.3c0,0,0,0,0,0c0,0,0.2,0.1,0.3,0.5c0,0.2,0,0.4,0,0.4c0,0,0,0,0,0c0,0,0,0,0,0l0.8,0.2l0.8,0.2c0-0.1,0.1-0.1,0.1-0.2
							c0,0,0,0,0,0c0,0,0,0,0,0c0.1-0.1,0.1-0.2,0.1-0.4c0,0,0,0,0,0c0,0,0,0,0,0c0-0.2,0-0.4,0-0.6v-0.1l0-0.1
							C69.4,95.8,69.3,95.4,69,95.1z"/>
						<path d="M147.5,115.1L147.5,115.1C147.5,115.1,147.5,115.1,147.5,115.1c0,0-0.1,0.1-0.1,0.1c0,0,0,0,0,0c0,0-0.1,0.1-0.1,0.1
							c0,0-0.1,0-0.1,0.1l1.3,0.8l0,0v0c0,0,0.1-0.1,0.1-0.1c0.1-0.1,0.2-0.2,0.4-0.3l0,0c0,0,0,0,0,0l0,0c0,0,0,0,0,0
							c0,0,0.1-0.1,0.1-0.1v0l0,0L147.5,115.1L147.5,115.1z"/>
						<path d="M140.1,103.6l0,0.7L140.1,103.6c-0.1,0-0.1,0-0.2,0c0,0-0.1,0-0.1,0l0.2,0.6l-0.2-0.6l0.2,0.6c0,0,0,0,0,0s0,0,0,0
							l0.1,0.4l0,0l0,0.2l0-0.2l0,0.2l0-0.2l0,0l0,0l0,0l0,0l0,0.1l0-0.1l0,0.1l0-0.2l0-0.1l1.1-0.9
							C140.9,103.6,140.5,103.6,140.1,103.6z"/>
						<path d="M158.4,118.1c-0.1-0.1-0.2-0.2-0.3-0.3l-1.4,1.1c0,0,0.1,0.1,0.1,0.1c0.1,0.1,0.1,0.1,0.2,0.2l0,0l0,0l0,0l0.1,0.3
							l0,0l0,0l0.2,0.6l0.1,0c0.5-0.2,1-0.5,1.2-0.9c0.1-0.2,0.2-0.5,0.2-0.8l0-0.2L158.4,118.1
							C158.4,118.1,158.4,118.1,158.4,118.1z"/>
						<path d="M158.3,137.1L158.3,137.1L158.3,137.1c0,0-0.1,0.1-0.1,0.1c-0.1,0.1-0.2,0.2-0.4,0.3c0,0,0,0,0,0c0,0-0.1,0-0.1,0.1
							l0,0l1.3,0.8c0,0,0.1-0.1,0.1-0.1c0.1-0.1,0.2-0.1,0.3-0.2l0,0c0,0,0,0,0,0L158.3,137.1z"/>
						<path d="M228.2,124.6c-0.1,0-0.1,0-0.2,0c-0.1,0-0.3,0-0.5,0l0,0.4l-0.1,0l-0.2,0.3l0.1,0.3l0.2-0.1l0,0.5c0.1,0,0.2,0,0.3,0
							l1.5,0l-0.2-0.7l0.6-0.7l-1.4,0L228.2,124.6z"/>
						<path d="M191.1,61.7L191.1,61.7c0.2-0.3,0.3-0.5,0.3-0.9l0-0.1c-0.1-0.7-0.7-1.1-1.5-1.3l0,0c0,0,0,0,0,0l-0.7,1.4
							c0,0,0,0,0.1,0c0.1,0,0.2,0.1,0.3,0.3c0,0.1,0,0.1,0,0.1l0.2,0.6l0,0l-0.2-0.6l0.2,0.6c0,0,0,0,0,0s0,0,0,0l0.2,0.6l0,0
							l-0.2-0.6l0,0l0,0l0.2,0.6l0,0C190.5,62.4,190.9,62.1,191.1,61.7L191.1,61.7z"/>
						<path d="M217,72.6L217,72.6L217,72.6C217,72.6,217,72.6,217,72.6C217,72.6,217,72.6,217,72.6L217,72.6
							c0.1-0.1,0.1-0.1,0.2-0.1l0,0l0,0.2l-0.2,0.1l0.2-0.1l0.2,1.1c0,0,0.1,0,0.1,0c0,0,0,0,0,0l0,0c0.7-0.2,1.2-0.7,1.3-1.3l0-0.1
							l-1.2-4.2L217,72.6C217,72.6,217,72.6,217,72.6z"/>
						<path d="M217.1,96.5l-0.1,0l0.2,1.3c0.2,0,0.2,0,0.3,0.1l1.8-0.7C218.9,96.6,218.1,96.3,217.1,96.5z"/>
						<path d="M189.1,18.5C189.2,18.4,189.2,18.4,189.1,18.5c0.1-0.2,0.2-0.2,0.2-0.3c0.1-0.1,0.1-0.1,0.1-0.2l-0.9-0.1l0.2-0.2
							l-0.2,0.2l-0.9-0.1l0.7,0.2l-0.7-0.2c0,0,0,0,0,0c0,0-0.1,0.1-0.1,0.1c-0.1,0.1-0.1,0.2-0.2,0.2l-0.5,0.6l1.6,0.5L189.1,18.5z
							"/>
						<path d="M193.5,19.6l-0.2,0l-4.5,1.3l4.3,0.1c0,0-0.1,0-0.1,0h0l0,0l0.1,0l0,0l0.4-0.1l0,0.1l0-0.1l1.4-0.2
							C194.8,20,194.3,19.7,193.5,19.6z"/>
						<path d="M211.5,115C211.5,115,211.5,115,211.5,115C211.5,115,211.5,115,211.5,115c-0.3-0.5-1.1-0.7-2-0.4l-0.2,0.1l-0.2,0.2
							c0,0,0,0,0,0c-0.1,0.1-0.1,0.1-0.2,0.2l1,0.6l0.1,0.1l0.1,0l0.2,0.1l0,0c0,0,0,0,0,0c0,0,0,0,0,0l-0.1-0.1l0,0l0.1,0.1l0,0
							l0,0l-0.1-0.1l1.4-0.5l0,0l0,0C211.6,115,211.5,115,211.5,115z"/>
						<path d="M214.7,96.2L214.7,96.2l-0.2,0.4l-1-0.2l0,0c0,0.1-0.1,0.1-0.1,0.2c0,0.2,0,0.4,0.1,0.6l0.1,0.3l1.2,0.1l0.6-1.4
							L214.7,96.2L214.7,96.2z"/>
						<path d="M95.3,63.1c-0.2-0.3-0.6-0.5-1.2-0.4L94,63.3l0.1-0.7l-0.1,0.7l0,0l0.1-0.7c-0.2,0-0.3,0-0.5,0.1l0,0l0.2,0.6
							l-0.2-0.6l0.2,0.6h0l-0.2-0.6c-0.1,0-0.1,0-0.2,0.1l0.3,0.6c0,0,0,0,0,0c0,0,0,0,0,0l0.3,0.6l0,0c0,0-0.1,0-0.1,0
							c0,0-0.1,0-0.1,0c0,0,0,0,0,0c0,0,0,0,0,0c0,0,0.1,0.1,0.2,0.2c0,0.1,0,0.1,0,0.1s0,0,0,0c0,0,0,0,0,0s0,0,0,0c0,0,0,0,0,0
							l0,0c0,0,0,0,0,0l0.1,0l1.3,0.7l0,0c0.2-0.1,0.3-0.3,0.3-0.5l0,0c0,0,0,0,0,0c0.1-0.2,0.1-0.4,0.1-0.7l0-0.1l0-0.1
							C95.6,63.5,95.5,63.3,95.3,63.1z"/>
						<path d="M67.8,55.5C67.8,55.5,67.8,55.5,67.8,55.5L67.8,55.5C67.7,55.5,67.7,55.5,67.8,55.5c-0.1,0.1-0.1,0.1-0.1,0.2
							c0,0,0,0.1-0.1,0.1c0,0,0,0.1,0,0.1l1.7,0.3c0,0,0,0,0,0v0c0,0,0-0.1,0.1-0.1l0,0c0.1-0.1,0.2-0.3,0.3-0.5c0,0,0,0,0-0.1
							L67.8,55.5C67.7,55.5,67.7,55.5,67.8,55.5z"/>
						<path d="M99.7,93l0.4,2.4c0,0.1,0,0.1,0,0.1l0,0h0c0,0,0,0,0,0c0,0,0,0,0,0l0,0l0.2,0.2l0.7,0.8l0,0c0.1,0,0.1-0.1,0.1-0.1
							c0.6-0.4,0.9-0.9,0.8-1.5l0,0l-0.1-0.2L99.7,93z"/>
						<path d="M86,68.2c-0.1,0-0.2-0.1-0.3-0.1c0,0-0.1,0-0.1,0l0,0l-0.8,1l0,0l0,0c0,0,0,0,0,0l0,0l-0.1,0v0h0l-0.2,0.2
							c0,0,0.1,0,0.1,0.1c0.1,0.1,0.2,0.1,0.3,0.1l0,0v0l0.1-0.1l0.6,0.7c0.3-0.2,0.9-0.6,0.7-1.4l0-0.3l-0.3-0.1
							C86.1,68.2,86,68.2,86,68.2z"/>
						<path d="M127.4,54.6C127.4,54.6,127.4,54.6,127.4,54.6L127.4,54.6L127.4,54.6C127.4,54.6,127.4,54.6,127.4,54.6
							C127.4,54.6,127.4,54.6,127.4,54.6l-0.7,0.6l0,0l0,0l-0.1,0.1l-0.3-0.3c0,0,0,0,0,0l0,0c-0.1,0-0.1,0.1-0.2,0.1c0,0,0,0,0,0
							l0,0l0,0l0,0c0,0,0,0,0,0c0,0,0,0,0.1,0l0,0c0,0,0,0,0,0l0.2,0.4l-0.2,0.2l0.2-0.1l0,0.1l0,0l0,0l0.3,0.6c0,0,0.1,0,0.1-0.1
							l0,0c0,0,0,0,0,0c0,0,0,0,0,0l0,0c0,0,0.1,0,0.1-0.1c0,0,0,0,0,0c0,0,0,0,0.1,0l0.6-0.3l-0.1-0.5l0,0
							C127.8,55.1,127.7,54.8,127.4,54.6L127.4,54.6z"/>
						<path d="M138.2,111L138.2,111L138.2,111L138.2,111L138.2,111L138.2,111L138.2,111l-0.3-0.1c0-0.1,0.1-0.1,0.1-0.1c0,0,0,0,0,0
							l0,0c0,0-0.1,0.1-0.1,0.1c-0.1,0-0.1,0.1-0.2,0.1l-0.3,0l0,0l0,0l-0.9,0l0,0.1c0,0,0,0,0,0c-0.1,0.4,0.1,0.8,0.5,1v0
							c0,0,0,0,0,0c0.2,0.1,0.5,0.2,0.9,0.2l0.4,0l0.3-0.2c0,0,0.1-0.1,0.1-0.1c0.2-0.1,0.5-0.3,0.7-0.5L138.2,111z"/>
						<path d="M117.7,140.1l-0.5,0.6L117.7,140.1c-0.2-0.1-0.4-0.1-0.6-0.1l-0.3,1.2l-0.1,0.2c0,0,0.1,0,0.1,0.1c0,0,0,0.1,0,0.1
							c0,0,0,0,0,0s0,0,0,0l0,0v0c0,0,0,0,0,0l0,0c0,0,0,0,0,0c0,0,0,0,0,0l0,0v0l0.1,0l1,0.9l0.1-0.1c0.1-0.1,0.2-0.1,0.2-0.2v0
							c0,0,0,0,0,0c0,0,0,0,0,0c0,0,0,0,0,0c0,0,0,0,0,0l0,0c0.2-0.2,0.3-0.3,0.3-0.5v0c0,0,0,0,0,0c0,0,0,0,0,0l0,0
							c0.1-0.2,0.1-0.5,0-0.7l-0.1-0.1C118.3,140.4,118,140.2,117.7,140.1z"/>
						<path d="M110.9,98.8c0,0,0,0.1,0,0.1l0,0l0,0l1.9-0.3c0-0.1,0-0.2,0-0.3c0,0,0,0,0-0.1l0,0L110.9,98.8
							C110.9,98.8,110.9,98.8,110.9,98.8z"/>
						<path d="M129.6,110.4L129.6,110.4c0,0-0.1,0-0.1-0.1c-0.1,0-0.1-0.1-0.2-0.1l0,0c0,0,0,0,0,0l0,0c0,0,0,0,0,0
							c-0.1,0-0.1-0.1-0.2-0.1l-1.2,1.2c0,0,0.1,0.1,0.1,0.1c0.1,0,0.1,0.1,0.2,0.1c0,0,0,0,0.1,0c0,0,0,0,0,0l0.7-0.6l0,0l0,0
							L129.6,110.4L129.6,110.4z"/>
						<path d="M102.1,79L102.1,79C102.1,79,102.1,79,102.1,79C102.1,79,102.1,79,102.1,79L102.1,79c-0.3-0.2-0.6-0.4-1.1-0.4
							l-0.2,0.7l0,0l0,0l-0.2,0.7c0.1,0,0.2,0.3,0.3,0.5c0,0.3,0,0.3,0,0.3l0,0c0,0,0,0,0,0c0,0,0,0,0,0l1,1l0.1,0
							c0.4-0.3,0.9-0.8,0.8-1.7l0-0.1l0,0C102.5,79.7,102.4,79.3,102.1,79z"/>
						<path d="M128.9,145.9l-0.7,0c-0.2,0-0.5,0-0.7,0l0,0.7l0,0l0,0l0,0.3v0l0.1,0l-0.1,0.1l0,0.4c0.1,0,0.2,0,0.4,0l0.2,0l0,0h0
							l0.1-0.4l1,0v0c0,0,0,0,0,0l0,0c0,0,0,0,0,0c0-0.2,0-0.4-0.1-0.6L128.9,145.9z"/>
						<path d="M125.7,113.6L125.7,113.6c0,0-0.1,0-0.1-0.1c-0.1,0-0.1-0.1-0.2-0.1l0,0c0,0,0,0,0,0c-0.1,0-0.1-0.1-0.2-0.1l0,0
							l-0.5,0.7l0.5-0.7l-0.7,0.9l-0.3,0.4c0,0,0.1,0,0.1,0.1c0,0,0,0,0,0c0,0,0,0,0.1,0c0.1,0,0.1,0.1,0.2,0.1l0.6-0.6l0,0l0,0
							L125.7,113.6L125.7,113.6z"/>
						<path d="M159.2,86C159.2,86,159.2,86,159.2,86c-0.3-0.1-0.7-0.2-1.1-0.1l-0.5,0l-0.3,0.3c0,0-0.1,0.1-0.1,0.1
							c-0.1,0.1-0.2,0.1-0.2,0.2l0,0c0,0,0,0,0,0c0,0-0.1,0.1-0.1,0.2c0,0,0,0,0,0c0,0,0,0,0,0c0,0,0,0,0,0l1.2,0.4l0,0l0,0v0l0,0
							l0,0l0,0l0,0l0.1,0l0.3,0.1c0,0,0.1-0.1,0.1-0.1c0,0,0.1,0,0.1-0.1l0.3,0l0,0l0,0l0.9-0.1c0-0.1,0-0.1,0-0.2c0,0,0,0,0-0.1
							c0,0,0,0,0,0c0,0,0,0,0,0C159.8,86.3,159.5,86.1,159.2,86L159.2,86z"/>
						<path d="M154.8,43.1C154.8,43.1,154.8,43.1,154.8,43.1C154.8,43.1,154.8,43.1,154.8,43.1C154.8,43.1,154.8,43.1,154.8,43.1
							L154.8,43.1c-0.1,0-0.1-0.1-0.2-0.1c0,0,0,0,0,0l0,0l0.1,0h0h0l0.3,0l0,0.1l0-0.1l1.5-0.3c0,0,0,0,0,0c0,0,0-0.1,0-0.1
							c-0.1-0.6-0.7-0.9-1.6-0.8l-0.1,0l-6.3,1.8L154.8,43.1C154.8,43.1,154.8,43.1,154.8,43.1z"/>
						<path d="M151.6,19.1l-0.8-0.3L151.6,19.1c0,0,0.1-0.1,0.1-0.1c0,0,0.1-0.1,0.1-0.1l0,0c0-0.1,0.1-0.2,0.1-0.3l-1.7-0.1l0,0
							l0,0h0c0,0,0,0,0,0l0,0l0,0v0v0c0,0,0,0,0,0l0,0l0,0l0,0l0,0l0,0l-0.1,0l0,0l0.2,0l0.9,0.9C151.2,19.5,151.4,19.4,151.6,19.1
							L151.6,19.1z"/>
						<path d="M246.3,27.3c0.9-0.3,1.4-0.9,1.4-1.5l0,0v0l-0.9,0.2c0,0,0,0,0,0s0,0,0,0l-0.8,0.2l0.2,0.5l0,0l-0.2-0.5l0,0l0.1,0.6
							l0,0l0,0l0.1,0.7C246.2,27.3,246.3,27.3,246.3,27.3z"/>
						<path d="M185.3,139.2c0,0,0,0.1-0.1,0.1c-0.1,0.1-0.1,0.2-0.1,0.3l0.6,0l-0.2,0.2l0.2-0.2l1.2,0.1c0,0,0,0,0,0l0,0
							c0,0,0,0,0,0c0-0.1,0.1-0.1,0.1-0.2c0-0.1,0.1-0.1,0.1-0.2l0.2-0.4l-1.4-1.1L185.3,139.2z"/>
						<path d="M256.3,67.8L256.3,67.8c0,0-0.1,0-0.1-0.1c-0.1,0-0.1-0.1-0.2-0.1c0,0,0,0,0,0l0,0c-0.1,0-0.1-0.1-0.2-0.1l-1.1,1.3
							c0,0,0.1,0,0.1,0.1c0.1,0.1,0.2,0.1,0.3,0.1l0,0c0,0,0,0,0,0L256.3,67.8L256.3,67.8z"/>
						<path d="M184.6,134.9l0.2,0.4l0,0l0,0l0.3,0.6l0,0c0.1,0,0.1-0.1,0.2-0.1c0.5-0.3,0.8-0.7,0.7-1.3c0,0,0,0,0,0c0,0,0,0,0,0
							c0,0,0,0,0,0c0,0,0,0,0,0L184.6,134.9L184.6,134.9z"/>
						<path d="M171.1,29.9C171.1,29.9,171.1,29.9,171.1,29.9L171.1,29.9c0,0-0.1,0.1-0.1,0.1c-0.1,0.1-0.2,0.2-0.2,0.4v0
							c0,0,0,0,0,0c0,0,0,0,0,0l0,0c0,0.1-0.1,0.2-0.1,0.3l0,0v0l1.9-0.2c0,0.1,0,0.1,0,0.1l0,0l0,0l0,0l0,0c0,0,0.1-0.1,0.1-0.1
							c0.1-0.1,0.1-0.2,0.2-0.3h0c0,0,0,0,0,0L171.1,29.9z"/>
						<path d="M198,107l0,0.9c0,0,0,0.1,0,0.1c0,0.1,0,0.3,0,0.5l0,0l0.7-0.2l0,0l-0.7,0.2l0,0l0.7-0.2l0,0.1l0-0.1l0.2-0.1
							c0,0,0,0,0,0s0,0,0,0l0.9-0.3l-0.9,0.2l0,0l0.9-0.2c0,0,0,0,0,0l0,0c0,0,0-0.1,0-0.2c0-0.1,0-0.1,0-0.2l0-0.5l-0.6-0.1
							L198,107z"/>
						<path d="M149.6,0.8l1.6,0.4l0-0.1c0.2-0.3,0.3-0.7,0.4-1h0c0,0,0,0,0,0c0-0.3,0-0.6-0.1-1c-0.5-1.5-3.2-2.7-5.7-3.1l-0.8,1.4
							c2.3,0.4,4.3,1.4,4.6,2.4C149.8,0.2,149.8,0.5,149.6,0.8L149.6,0.8z"/>
						<path d="M176.5,26.4l-0.1,1.2c0,0,0,0,0,0l0,0.1l0,0.1c0,0,0,0,0,0l0,0l0.1,0.5l0.2,0.6c0,0,0,0,0,0l0,0
							c0.1,0,0.2-0.1,0.3-0.1l0,0c0,0,0,0,0,0c0,0,0,0,0,0c0,0,0,0,0,0l0,0c0.5-0.2,0.9-0.6,1.1-1l0.1-0.1l0-0.1
							C178.3,27,178,26.3,176.5,26.4z"/>
						<path d="M259.4,92.5c-0.1-0.1-0.2-0.1-0.3-0.2c0,0,0,0,0,0s0,0,0,0c0,0,0,0,0,0c0,0,0,0,0,0c0,0,0,0,0,0s0,0,0,0c0,0,0,0,0,0
							h0c0,0,0,0,0,0l0,0c-0.1-0.1-0.3-0.1-0.5-0.1l0,0h0l0,0c0,0,0,0,0,0c0,0,0,0,0,0c0,0,0,0,0,0c0,0,0,0,0,0c0,0,0,0,0,0
							c0,0,0,0,0,0c0,0,0,0,0,0c0,0,0,0,0,0c0,0,0,0,0,0c0,0,0,0,0,0v0c0,0,0,0,0,0l0,0c0,0,0,0,0,0h0c0,0,0,0,0,0l0,0c0,0,0,0,0,0
							l0,0c0,0,0,0,0,0l-0.2,1l-0.1,0l0,0l0,0l0.1,0l-0.1,0.4c-0.2,0-0.4-0.1-0.4-0.1l0,0l0,0c0,0,0,0,0,0c0,0,0.1,0,0.1,0.1
							c0.1,0.1,0.1,0.1,0.2,0.2v0c0,0,0,0,0,0l0.5-0.4l0.9,0.2c0.1-0.1,0.1-0.3,0.2-0.4l0.1-0.4L259.4,92.5
							C259.5,92.5,259.4,92.5,259.4,92.5z"/>
						<path d="M133.4,63.4L133.4,63.4L133.4,63.4l-0.8,0.5c0,0,0,0,0,0L133.4,63.4l-0.7,0.4L133.4,63.4l-0.8,0.5v0L133.4,63.4
							l-0.7,0.4L133.4,63.4L133.4,63.4L133.4,63.4l-0.8,0.5c0,0,0,0,0,0L133.4,63.4l-0.7,0.4L133.4,63.4l-0.8,0.5L133.4,63.4
							l-0.8,0.5l0,0L133.4,63.4l-0.8,0.5c0,0,0,0,0,0L133.4,63.4l-0.7,0.4L133.4,63.4L133.4,63.4l-0.8,0.5h0L133.4,63.4
							c-0.5-0.4-1.1-0.5-1.8-0.3c-0.1,0-0.2,0-0.2,0.1l-0.1,0.1l-0.1,0.1c-0.7,0.5-0.8,0.9-0.8,1.2l1.6-0.3l0,0l-0.1,0.1l0,0
							l0.1-0.1l0,0l0.1,0h0l0,0l-0.1,0.1l0,0l0,0l0.1,0l0,0l-0.2,0.1l0,0c0,0,0,0,0,0l0,0l0,0l0,0v0l0,0l0,0l0.1-0.1l0,0l0,0l0,0
							l0.1-0.1l0,0l-0.1,0.1l0,0l-0.1,0l0.1,0l0,0l0.1-0.1h0l0.1,0c0,0,0,0,0,0c0,0,0,0,0,0l0,0c0,0,0,0,0,0c0,0,0,0,0.1,0v0v0
							l-0.1-0.1l0,0l0.5-0.3L133.4,63.4l-0.8,0.5L133.4,63.4z"/>
						<polygon points="248.5,116.9 248.1,116.5 246.5,117.5 246.5,117.5 246.5,117.5 247,117.9 248.5,116.9 248.5,116.9 						"/>
						<path d="M245.7,109.7c0.1,0,0.1-0.1,0.2-0.1l-0.9-1.1l-0.1,0.1c-0.1,0-0.1,0.1-0.2,0.1l0.9,1.1l0,0l0,0L245.7,109.7z"/>
						<path d="M177.8,131.3l-1.9,0.5c0,0.1,0,0.1,0,0.1c0,0,0,0,0,0c0,0,0,0,0,0c0,0,0,0,0-0.1c0,0,0,0,0,0l1.4,0.7
							c0.2-0.2,0.5-0.5,0.4-1C177.8,131.4,177.8,131.3,177.8,131.3L177.8,131.3L177.8,131.3z"/>
						<polygon points="242.9,100.5 242.9,100.5 242.9,100.5 242.5,100.3 242,101 241.4,101.3 241.7,101.8 242.1,102.4 242.4,102.3 
							242.5,102.3 243.2,102 244.1,101.3 243.8,101.2 244.8,99.7 						"/>
						<path d="M256,93.3C255.9,93.3,255.9,93.3,256,93.3C255.9,93.3,255.9,93.3,256,93.3c-0.3,0.1-0.6,0.2-0.8,0.3
							c-0.2,0.1-0.3,0.1-0.5,0.1v0l0,0l0.2,0.6l0,0l-0.9-0.3l-0.1,0.1l0.9,0.3l-0.5,0.5l0,0c0.1,0.1,0.3,0.1,0.4,0.2
							c0.1,0.1,0.3,0.1,0.4,0.2l0.5-0.6c0.2-0.1,0.4-0.1,0.7-0.2c0,0,0,0,0,0c0.1,0,0.1,0,0.2-0.1c0,0,0,0,0,0l0,0l0,0l-0.2-1.3
							C256.2,93.3,256.1,93.3,256,93.3C256,93.3,256,93.3,256,93.3z"/>
						<path d="M48.3,110.5L48.3,110.5c-0.1,0.1-0.1,0.1-0.1,0.1c0,0-0.1,0-0.1,0.1l0.5,0.5l-0.5-0.5c-0.1,0.1-0.2,0.1-0.3,0.2
							c0,0,0,0,0,0l0,0c0,0,0,0,0,0l1.2,0.9l0,0c0,0,0,0,0,0c0,0,0,0,0,0c0,0,0,0,0,0c0,0,0.1,0,0.1-0.1c0,0,0,0,0.1,0
							c0.1,0,0.1-0.1,0.2-0.1l0.1-0.1l-0.8-0.5L48.3,110.5z"/>
						<path d="M72.2,101.1l-0.1,0l0,0l-0.1,0l-0.1-0.1l0,0.1l0,0l0-0.1l0,0l0,0l0,0.1l-0.7,0.2l0,0l0,0l-0.9,0.2l0,0
							c0.1,0.6,0.7,0.9,1.6,0.8l0.2,0c0.1,0,0.1,0,0.2,0l0,0l0,0l-0.2-0.6l0,0c0,0,0,0,0,0l0.2,0.6c0,0,0.1,0,0.1,0l-0.4-1l0-0.1
							L72.2,101.1z"/>
						<path d="M80.6,120l0.4,0.6c0,0,0,0,0,0v0c0,0,0,0,0,0l0.3,0.5l-0.1,0.1l0.1,0l-0.1,0l0.1-0.1l0,0l0.7-0.4l0.8-0.5
							C82.3,119.7,81.4,119.6,80.6,120z"/>
						<path d="M61.9,88.3l-0.4,1.4l0,0c0,0,0,0,0.1,0c0.1,0,0.3,0.2,0.3,0.3c0,0.1,0,0.2,0,0.2c0,0,0,0,0,0l0,0h0l0,0l1.7,0.3
							c0.2-0.3,0.3-0.7,0.2-1.1l0-0.1l0-0.1C63.3,88.6,62.7,88.3,61.9,88.3z"/>
						<path d="M61.2,59C61.2,59,61.2,59,61.2,59L61.2,59l-0.6,0.7l-0.3-0.1v0l0,0l-0.2,0.3l0,0l0,0l0.2,0.1l-0.6,0.6c0,0,0,0,0,0
							c0,0,0,0,0,0c0,0,0,0,0,0c0,0,0,0,0,0l0,0c0.2,0.1,0.3,0.1,0.5,0.2l1,0.3l1.1-1.6L61.2,59z"/>
						<path d="M91.4,79.9l-2.6-2.7l0.8,3.3c0,0.1,0,0.1,0,0.1c0,0,0,0,0,0s0,0,0,0c0,0,0-0.1,0.1-0.1c0,0,0,0,0,0c0,0,0,0,0,0
							l0.2,0.2l-0.2,0.1l0.2-0.1l0.3,0.3c0,0,0,0,0,0c0,0,0,0,0,0l0.5,0.5c0.1,0,0.1-0.1,0.2-0.1c0.4-0.3,0.6-0.8,0.5-1.3l0,0
							c0,0,0,0,0,0L91.4,79.9z"/>
						<path d="M68.7,52.9c-0.1,0-0.2-0.1-0.3-0.1l0,0c0,0,0,0,0,0c0,0,0,0,0,0l0,0c-0.1,0-0.3-0.1-0.5-0.1l-0.3,0.7l0,0l0,0
							l-0.1,0.3l0,0l0,0l0,0l0,0l0,0l-0.1,0.3c0,0-0.1,0-0.1,0l0,0c0,0,0,0,0,0l0,0l0,0c0,0,0,0,0,0c0,0,0.1,0,0.1,0.1
							c0.1,0.1,0.2,0.1,0.3,0.1v0c0,0,0,0,0,0l0,0L68,55c0,0,0.1,0,0.1-0.1c0.1,0,0.1,0,0.1-0.1c0,0,0,0,0,0c0,0,0,0,0,0
							c0.4-0.2,0.7-0.5,0.8-0.9c0,0,0,0,0,0l0,0c0.1-0.2,0.1-0.4,0.1-0.6l0-0.3L68.8,53C68.8,53,68.7,53,68.7,52.9z"/>
						<path d="M41,81.1C41,81.1,41,81.1,41,81.1C41,81.1,41,81.1,41,81.1L41,81.1C41,81.1,41,81.1,41,81.1L41,81.1l-1.6,0.6l0,0l0,0
							l0.9,1l0,0l0,0c0.1-0.1,0.2-0.1,0.3-0.2C41,82.2,41.2,81.6,41,81.1L41,81.1z"/>
						<path d="M113.9,74.7C113.9,74.7,113.9,74.7,113.9,74.7l-1.8,0.6c0.2,0.3,0.5,0.6,1,0.7L113.9,74.7
							C113.9,74.7,113.9,74.7,113.9,74.7L113.9,74.7z"/>
						<path d="M58.7,104.7c0,0,0.1,0.1,0.2,0.3l0.9-0.3l0,0l0,0l0.9-0.3c-0.1-0.3-0.4-0.8-1-1L58.7,104.7z"/>
						<path d="M92.8,43.5l-0.4,0.2L92.3,44c0,0,0,0.1-0.1,0.1c0,0.1-0.1,0.1-0.1,0.2c0,0,0,0,0,0c0,0,0,0,0,0c0,0.1-0.1,0.1-0.1,0.2
							l0,0l1.3,0l0,0l0.6,0c0,0,0-0.1,0.1-0.1c0.1-0.1,0.1-0.2,0.1-0.3l0,0v0l-0.4,0l0.6-0.8C93.8,43.2,93.3,43.3,92.8,43.5z"/>
						<path d="M111.9,91.1l-0.9,0.3l0,0l0,0l-0.9,0.3c0,0.1,0,0.1,0,0.1l0,0l0,0c0,0,0,0,0-0.1c0,0,0,0,0,0l1.1,1
							C111.8,92.2,112.1,91.6,111.9,91.1L111.9,91.1L111.9,91.1z"/>
						<path d="M102.9,112L102.9,112l-0.6,0.6l0,0L102.9,112l-0.2-0.1c0,0,0,0,0,0c-0.2,0-0.5,0-0.7,0l-0.1,0l-0.3,0.1l0.5,0.8l0,0
							l0,0l-0.3,0.4l0.2-0.3l0.1-0.1l0,0l0,0l0,0l0,0l0.1,0.3l0-0.2l0-0.1l0,0.1l0-0.1l0.1,0.2l-0.2-0.4L102.9,112z"/>
						<path d="M19.5,56.9c-0.5-0.2-1.1-0.3-1.7-0.1l0.2,0.6c0,0,0,0,0,0c0,0,0,0,0,0l0.2,0.6c0,0,0,0,0.1,0l1.4-1.1l0,0
							C19.6,56.9,19.5,56.9,19.5,56.9z"/>
						<path d="M125.7,36.1C125.6,36.1,125.6,36.1,125.7,36.1C125.6,36.1,125.6,36.1,125.7,36.1l-0.3,0.1L125.7,36.1l-0.3,0.1
							l-1.6,0.4c0,0.1,0,0.2,0.1,0.2c0.2,0.5,0.8,0.8,1.6,0.7l0.2,0l5.3-1.6L125.7,36.1z"/>
						<path d="M47.7,82.4l-0.2-0.2l-2.4-0.8l0.9,1.8c0-0.1,0.1-0.2,0.2-0.3l0.3,1.3l0.1,0l0.1,0c0.1,0,0.2-0.1,0.3-0.1
							c0.4-0.1,0.6-0.4,0.8-0.6c0.2-0.2,0.3-0.6,0.1-1L47.7,82.4z"/>
						<polygon points="40.8,75 40.8,75 40.2,74.6 40.2,74.6 40.2,74.6 38.8,75.7 39.3,76.1 40,75.6 40,75.6 40,75.6 40,75.6 
							40.8,75 						"/>
						<path d="M55.6,77c-0.1-0.1-0.3-0.2-0.4-0.3c0,0,0,0,0,0c0,0,0,0,0,0c0,0,0,0-0.1,0l0,0L54.9,77l0,0l-0.2,0.1l-0.2,0.1l0.1,0.1
							l-0.6,0.6c0.1,0,0.2,0.1,0.2,0.2l0.7,0.5l0.5-0.4l1.3-0.4l-1-0.7L55.6,77z"/>
						<path d="M118.8,108.2l0.2-0.2L118.8,108.2l-1.2,0.2v0c0,0,0,0,0,0c0,0,0,0,0,0c0,0,0,0,0,0l0,0.1c0,0.1,0,0.2,0,0.2l0,0.3
							l0.3,0.2l1.4,0.5l0.1-1.1c0,0,0-0.1,0-0.1l0-0.1c0,0,0,0,0-0.1c0-0.1,0-0.1,0-0.2l-0.5,0.1L118.8,108.2z"/>
						<path d="M81,128.6C81,128.6,81,128.6,81,128.6L81,128.6L81,128.6l-0.8-1.1c-0.3,0.1-0.7,0.2-1.2,0.3l-5.4,0.4l4.7,0.9l0.4,0.2
							l0.5-0.1l0,0l0.2-0.1c0.4,0,0.7-0.1,1-0.2C80.5,128.8,80.8,128.7,81,128.6C81,128.6,81,128.6,81,128.6z"/>
						<path d="M88.5,163.2c-0.1-0.1-0.2-0.3-0.3-0.4l0,0l0,0c0,0,0,0,0,0c0,0,0,0,0,0l0,0c0,0,0,0,0,0c0,0,0,0,0,0l0,0c0,0,0,0,0,0
							c0,0,0,0,0,0c0,0,0,0,0,0l0,0c0,0,0,0,0,0c0,0,0,0,0,0c0,0,0,0,0,0c0,0,0,0,0,0c0,0,0,0,0,0c0,0,0,0,0,0l0,0c0,0,0,0,0,0l0,0
							c0,0,0,0,0,0c0,0,0,0,0,0c0,0,0,0,0,0c0,0,0,0,0,0l0,0c0,0,0,0,0,0c0,0,0,0,0,0l0,0c0,0,0,0,0,0v0c0,0,0,0,0,0c0,0,0,0,0,0
							c0,0,0,0,0,0l0,0c0,0,0,0,0,0l0,0c0,0,0,0,0,0s0,0,0,0c0,0,0,0,0,0c0,0,0,0,0,0l0,0c0,0,0,0,0,0c0,0,0,0,0,0c0,0,0,0,0,0
							c0,0,0,0,0,0l0,0c0,0,0,0,0,0l0,0c0,0,0,0,0,0l0,0c0,0,0,0,0,0c0,0,0,0,0,0c0,0,0,0,0,0c0,0,0,0,0,0c0,0,0,0,0,0h0
							c0,0,0,0,0,0c0,0,0,0,0,0s0,0,0,0c0,0,0,0,0,0h0c0,0,0,0,0,0l0,0c0,0,0,0,0,0c0,0,0,0,0,0l-0.5,0.6l0,0l0,0l-0.3,0.4l-0.1,0
							l0,0l0,0l0.1,0l0,0l-0.1,0l0,0l0.1,0l-0.2,0.2h0c0,0,0,0,0,0l0,0c-0.1,0-0.1-0.1-0.1-0.1s0,0,0,0c0,0,0,0,0,0
							c0,0,0,0.1,0.1,0.1c0,0.1,0.1,0.2,0.1,0.2l0,0l0,0l0.6-0.3l0.2,0.1v0v0l0.8,0.2c0.1-0.1,0.2-0.2,0.2-0.4l0.1-0.3l-0.2-0.2
							C88.5,163.3,88.5,163.2,88.5,163.2z"/>
						<path d="M85.7,156.9L85.7,156.9c0,0,0,0,0.1,0.1c0,0,0,0.1,0,0.1c0,0,0,0,0,0c0,0,0,0,0,0c0,0,0,0,0,0c0,0,0,0,0,0h0
							c0,0,0,0,0,0l0.1,0l0.1,0.6l0,0l0,0l0.1,0.7l0.1,0c0.1,0,0.2-0.1,0.3-0.1c0,0,0,0,0,0c0,0,0,0,0,0c0,0,0,0,0,0c0,0,0,0,0,0
							c0,0,0,0,0,0c0,0,0,0,0,0c0.2-0.1,0.4-0.2,0.6-0.4c0,0,0,0,0,0c0,0,0,0,0,0c0,0,0,0,0,0c0,0,0,0,0,0c0,0,0,0,0,0l0,0
							c0.3-0.3,0.5-0.6,0.5-1l0-0.1c-0.1-0.4-0.3-0.7-0.6-0.9L85.7,156.9z"/>
						<path d="M215,82.3l-1.1,1.3l0,0c0,0,0,0,0,0c0,0,0,0,0,0c0,0.1,0,0.2-0.1,0.2c0,0,0,0-0.1,0l0.4,1.3c0.1,0,0.2-0.1,0.3-0.1
							c0.9-0.4,1.4-1.1,1.2-1.9l0-0.1l0-0.1C215.6,82.7,215.4,82.4,215,82.3z"/>
						<path d="M123.7,47.9C123.7,47.9,123.7,47.9,123.7,47.9C123.7,47.9,123.7,47.9,123.7,47.9L123.7,47.9
							C123.7,47.9,123.7,47.9,123.7,47.9L123.7,47.9c-0.1-0.1-0.3-0.2-0.5-0.2c0,0,0,0,0,0c0,0,0,0,0,0c0,0,0,0,0,0c0,0,0,0,0,0l0,0
							c0,0,0,0,0,0c0,0,0,0,0,0c0,0,0,0,0,0c-0.1,0-0.1,0-0.2,0l-0.7,1.4c0,0,0.1,0,0.2,0.5c0,0.3,0,0.4,0,0.4c0,0,0,0,0,0l0.6,0.4
							c0,0,0,0,0,0c0,0,0,0,0,0l0.6,0.4c0.3-0.2,0.5-0.5,0.6-0.9c0.1-0.2,0.1-0.5,0.1-0.8l0-0.1C124.3,48.7,124.2,48.3,123.7,47.9
							C123.7,47.9,123.7,47.9,123.7,47.9z"/>
						<path d="M130.7,128.2l-3.6-5.4l1.8,6.1l0.1,0.1c0.4,0.7,1.2,1,2.1,0.9l0,0c0,0,0,0,0,0c0,0,0,0,0,0c0,0,0,0,0,0c0,0,0,0,0,0
							c0,0,0,0,0,0c0,0,0,0,0,0c0,0,0,0,0,0c0,0,0,0,0,0c0,0,0,0,0,0c0,0,0,0,0,0c0,0,0,0,0,0c0,0,0,0,0,0c0,0,0,0,0,0c0,0,0,0,0,0
							c0,0,0,0,0,0c0,0,0,0,0,0c0,0,0,0,0,0c0,0,0,0,0,0l0,0c0,0,0,0,0,0c0,0,0,0,0,0c0,0,0,0,0,0l0,0c0,0,0,0,0,0l0,0c0,0,0,0,0,0
							l0,0c0,0,0,0,0,0l-0.2-1.3C131.2,128.5,131,128.6,130.7,128.2z"/>
						<path d="M152.3,103.6c0.3-0.3,0.5-0.7,0.3-1.1v0v0c0,0,0,0,0-0.1l0,0v0l-0.8,0.3l0.8-0.3l-1.7,0.6l0,0l0,0l0,0l0,0l0,0l0,0
							L152.3,103.6z"/>
						<path d="M140.2,94.6l0.6,1.1v0l0,0l1.3-1.1C141.6,94.4,140.9,94.4,140.2,94.6z"/>
						<path d="M154.1,4.7L154.1,4.7L154.1,4.7L154.1,4.7L154.1,4.7C154.1,4.7,154.1,4.7,154.1,4.7L154.1,4.7L154.1,4.7L154.1,4.7
							L154.1,4.7L154,4.6l-1-0.8c-0.1,0.1-0.1,0.1-0.2,0.2l0.7,0.4l-0.7-0.4L152.7,4c0,0-0.1,0.1-0.1,0.1l0.8,0.3l-0.8-0.3l0,0.1
							c-0.1,0.1-0.2,0.3-0.2,0.4h1.6L154.1,4.7z"/>
						<path d="M123.6,22.1c0.1,0,0.3-0.1,0.4-0.1c0.4-0.1,1.3-0.4,2-0.9c0,0,0,0,0,0c0,0,0,0,0,0c0.4-0.3,0.7-0.6,0.9-1L126,20
							l0.9,0.1L126,20c0,0,0,0,0,0l0.9,0.1l0-0.1l-0.9,0l0.9,0l-1.8-0.1l0.9,0l-0.9,0l0,0L126,20c0,0,0,0,0,0l-0.9-0.1
							c0,0.1-0.1,0.1-0.1,0.2l0,0l0,0c-0.2,0.2-0.5,0.3-1.3,0.6c-0.1,0-0.3,0.1-0.4,0.1l-0.2,0c-0.4,0.1-0.8,0.2-1.1,0.3
							c0,0,0,0,0,0c-0.1,0-0.2,0-0.3,0l-0.6,1.4c0,0,0,0,0.1,0l0,0c0.1,0,0.2,0,0.3,0l0,0c0,0,0,0,0,0c0,0,0,0,0,0s0,0,0,0
							c0,0,0,0,0,0c0,0,0,0,0,0c0,0,0,0,0,0c0,0,0,0,0,0c0,0,0,0,0,0c0,0,0,0,0,0c0,0,0,0,0,0l0,0c0.6,0,1.3-0.2,1.9-0.4L123.6,22.1
							z"/>
						<path d="M78.5,20.2l0.1-0.1c0.1-0.1,0.3-0.1,0.4-0.2l-0.6-0.8l0-0.2l0.1,0l-0.1,0l0,0l-0.1,0l-0.1-0.1l0,0l0,0c0,0,0,0,0,0
							c0,0-0.1,0-0.1,0l0,0c0,0,0,0,0,0l0,0.1l-0.6,0.1l0,0l0,0l-0.9,0.2c0,0,0,0,0,0.1c0.1,0.6,0.8,0.9,1.7,0.8L78.5,20.2z"/>
						<path d="M240.5,15.3L240.5,15.3L240.5,15.3l-0.9,0.3L240.5,15.3l-0.9,0.3c0,0,0,0,0,0.1c0,0.1,0,0.2,0,0.2v0c0,0,0,0,0,0
							c0,0,0,0,0,0c0,0,0,0,0,0l0.7,0.3l0.7,0.3c0.2-0.2,0.3-0.4,0.4-0.5c0,0,0,0,0,0c0,0,0,0,0,0c0.1-0.2,0.1-0.4,0.1-0.5l0-0.1
							c0-0.1,0-0.2,0-0.3L240.5,15.3l0.9-0.3L240.5,15.3z"/>
						<path d="M245.6,17.5c-0.2-0.3-0.5-0.5-1-0.7c0,0,0,0,0,0l-0.9,1.3c0.1,0,0.2,0.1,0.2,0.2c0.1,0.1,0.2,0.3,0.3,0.5
							c0.1,0.3,0,0.5,0,0.7c0,0,0,0,0,0l0,0l1.8,0.1c0.2-0.4,0.2-0.8,0-1.3l0,0l0,0C245.9,18,245.8,17.7,245.6,17.5z"/>
						<path d="M111.4,122.4l-0.6,1.4c0,0,0.1,0,0.1,0c0.8,0.1,1.5,0.7,1.7,1.5c0.1,0.4,0.1,0.8,0,1.2c0,0.1,0,0.1-0.1,0.2l0,0
							l1.8,0.1c0.3-0.8,0.3-1.5,0.1-2.1C114,123.4,112.9,122.5,111.4,122.4z"/>
						<path d="M172.2,129L172.2,129c0.1-0.2,0.2-0.4,0.1-0.6v0c0,0,0,0,0,0c0,0,0,0,0,0c0,0,0,0,0,0l0,0c0,0,0,0,0,0c0,0,0,0,0,0
							c0,0,0-0.1-0.1-0.1l-0.9,0.4l0.9-0.4l-0.9,0.4l0,0l0,0l-0.4,0.2l0,0l0,0l-0.2,0.1l0,0l-0.1,0l-0.2,0.1l0.3-0.1l0.2-0.1
							L172.2,129L172.2,129z"/>
						<polygon points="156.4,141.3 157.3,141.1 157.4,141.7 157.4,141.7 157.3,141.1 157.4,141 158.2,141.1 158.7,140 156.2,140.6 
													"/>
						<path d="M132.3,12.5C132.3,12.5,132.3,12.5,132.3,12.5L132.3,12.5c-0.1,0.1,0,0.1,0,0.1l-0.4,0.1l0.2-0.2c0,0,0,0,0,0l0,0l0,0
							l-0.9-0.8l0,0l0,0c-0.2,0.1-0.3,0.2-0.4,0.3v0c0,0,0,0,0,0c0,0,0,0,0,0c0,0,0,0,0,0c-0.3,0.3-0.4,0.7-0.4,0.9l0,0.1
							c0,0.3,0.2,0.6,0.5,0.8l0.9-0.9l0.5,0l0,0l0,0C132.3,12.6,132.3,12.5,132.3,12.5C132.3,12.5,132.3,12.5,132.3,12.5
							C132.3,12.5,132.3,12.5,132.3,12.5z"/>
						<path d="M143.4,85.6l-0.1,0c-0.2,0-0.4,0-0.7,0l-0.3,1.4l0,0c0,0,0.1,0,0.1,0c0.1,0,0.2,0,0.2,0c0,0,0,0,0,0l0.2,0l0,0
							L143.4,85.6L143.4,85.6L143.4,85.6z"/>
						<path d="M61.2,72.5C61.1,72.5,61.1,72.5,61.2,72.5C61.1,72.5,61.1,72.5,61.2,72.5C61.1,72.5,61.1,72.5,61.2,72.5
							C61.1,72.5,61.1,72.5,61.2,72.5C61.1,72.5,61.1,72.5,61.2,72.5c-0.2,0-0.3,0-0.4,0c0,0,0,0,0,0c-0.1,0-0.3,0-0.4,0l-0.1,0
							L60,72.7c-0.1,0.1-0.3,0.1-0.5,0.2c0,0,0,0,0,0c-0.1,0-0.1,0.1-0.2,0.1l1,1l0,0l0,0c0,0,0,0,0,0c0,0,0.1-0.1,0.2-0.1
							c0.1,0,0.1,0,0.1,0c0,0,0,0,0,0l0,0l0,0l0,0l0,0l0,0L61.2,72.5z"/>
						<path d="M93,140l-0.8,0.5L93,140l-0.8,0.5v0l0,0l0,0h0L93,140c-0.1-0.1-0.2-0.1-0.3-0.2c0,0,0,0,0,0c0,0,0,0,0,0
							c-0.5-0.3-1.1-0.3-1.8,0l-0.2,0.1l-0.1,0.1c-0.5,0.3-0.8,0.7-0.8,1.2v0c0,0,0,0,0,0s0,0,0,0l0,0c0,0.1,0,0.2,0,0.2l0.9-0.2
							c0,0,0,0,0,0c0,0,0,0,0,0l0.7-0.2l0,0l0,0c0,0,0,0-0.1,0l0,0c0,0,0,0,0,0c0,0,0,0,0,0l0,0v0l0.2-0.1h0l0,0l-0.2,0.1l0,0v0l0,0
							l0.2-0.1l0,0l0,0c0,0,0,0,0,0.1c0,0,0,0,0,0c0,0,0,0,0,0c0,0,0,0,0.1-0.1l0,0l0,0l0,0l0,0l0.5-0.3L93,140z"/>
						<path d="M206.3,71.8c-0.4-0.4-0.7-0.7-1.1-0.8c0,0,0,0,0,0l0,0c-0.6-0.2-1.2-0.1-1.7,0c0,0,0,0,0,0c-0.1,0-0.3,0.1-0.5,0.2
							l0.3,0.6l0,0l0,0l0.3,0.6c0.1,0,0.1,0,0.2-0.1c0.2,0,0.4-0.1,0.8,0.3c0,0.1,0,0.1,0,0.1l0,0l0,0l0,0l1.7,0.4l0,0
							c0,0,0.1-0.1,0.1-0.1c0,0,0,0,0,0l0,0c0,0,0,0,0,0c0.1-0.3,0.2-0.6,0-1L206.3,71.8L206.3,71.8z"/>
						<path d="M68.6,31.1l1.6,0.5l0,0c0,0,0-0.1,0.1-0.1c0.2-0.3,0.4-0.6,0.5-1L69,30.5C68.9,30.8,68.8,31,68.6,31.1z"/>
						<path d="M256.3,83.7C256.3,83.7,256.3,83.7,256.3,83.7C256.3,83.7,256.3,83.7,256.3,83.7c-0.1-0.1-0.1-0.1-0.1-0.1
							c-0.1-0.1-0.2-0.1-0.3-0.2l-1.2,1.2c0,0,0.1,0.1,0.1,0.1c0.1,0.1,0.1,0.1,0.2,0.1L256.3,83.7
							C256.4,83.8,256.4,83.8,256.3,83.7C256.4,83.7,256.4,83.7,256.3,83.7z"/>
						<path d="M100.8,142.4L100.8,142.4L100.8,142.4c0,0,0,0.1-0.1,0.1c-0.1,0.1-0.1,0.2-0.2,0.4l1.8,0.1c0,0,0,0,0-0.1c0,0,0,0,0,0
							c0,0,0,0,0-0.1c0.1-0.1,0.1-0.2,0.1-0.3l0,0v0L100.8,142.4z"/>
						<path d="M75.1,107.4c0,0.1,0.1,0.1,0.2,0.2c0,0,0,0,0,0c0,0,0,0,0,0c0,0,0,0,0.1,0l0,0l0.7-0.5c0,0,0,0,0,0c0,0,0,0,0,0
							l0.7-0.5l-0.9,0.3l0,0l0,0l-0.9,0.3C75,107.2,75,107.3,75.1,107.4z"/>
						<path d="M117.7,117.3L117.7,117.3C117.7,117.3,117.7,117.3,117.7,117.3c0.1,0,0.1,0.1,0.1,0.1v0l-0.2,0.1l0-0.1l0,0.1
							l-0.7,0.2l0,0l0,0L116,118c0,0,0,0,0,0.1c0.2,0.5,0.9,0.7,1.7,0.6l0.1,0l7.6-2.2L117.7,117.3
							C117.7,117.3,117.7,117.3,117.7,117.3z"/>
						<path d="M70.1,59.8L70.1,59.8C70.1,59.8,70.1,59.8,70.1,59.8c0,0-0.1,0.1-0.1,0.1c-0.1,0-0.1,0.1-0.2,0.1c0,0-0.1,0-0.1,0.1
							l0,0l1.3,0.8v0l0,0c0,0,0.1-0.1,0.1-0.1c0.1-0.1,0.2-0.2,0.4-0.3l0,0c0,0,0,0,0-0.1l0,0L70.1,59.8
							C70.1,59.9,70.1,59.9,70.1,59.8z"/>
						<path d="M66.2,41.2L66.2,41.2c-0.1,0.1-0.3,0.2-0.4,0.4c-0.6,0.6-1.4,1.3-1.9,1.5c-0.4,0.1-1.6-0.9-2.4-1.5l-0.2-0.2l-6.5-2.5
							l5.1,3.6l0.1,0.1c1.5,1.3,2.6,2.2,4.3,1.8c1-0.3,2-1.2,3.3-2.4L66.2,41.2z"/>
						<path d="M52.5,93.4l-0.1,0c-0.2,0-0.3-0.1-0.6-0.1c0,0,0,0,0,0c0,0,0,0-0.1,0l0,0L51,94.6c0.1,0,0.3,0.1,0.4,0.1l0.2,0l0,0
							l0,0l0.5-0.7l0,0l0,0L52.5,93.4L52.5,93.4L52.5,93.4z"/>
						<path d="M198.6,134.8C198.6,134.8,198.6,134.8,198.6,134.8L198.6,134.8c0-0.1,0-0.1,0-0.2l0-0.1l0,0l0,0l-0.6,0.1l0.2-0.7l0,0
							l0,0c-0.1,0-0.2,0-0.3,0l-1.1,0l-0.1,0.9c0,0.1,0,0.1,0,0.2v0c0,0,0,0,0,0c0,0.1,0,0.2,0,0.3l0.9-0.2l0,0.2l0,0c0,0,0,0,0,0
							c0,0,0.1,0,0.1,0c0,0,0,0,0,0c0,0,0,0,0,0c0,0,0,0,0,0c0,0,0,0,0,0l0.1-0.2L198.6,134.8C198.6,134.8,198.6,134.8,198.6,134.8z
							"/>
						<path d="M169.5,71.8l0.1-0.1l0,0L169.5,71.8L169.5,71.8l0.1-0.1c-0.1-0.2-0.3-0.3-0.5-0.3l0,0c0,0,0,0,0,0c0,0,0,0,0,0
							c0,0,0,0,0,0c0,0,0,0,0,0l0,0c0,0,0,0,0,0l0,0c0,0,0,0,0,0l0,0l0,0c-0.1,0-0.2,0-0.3,0c-0.3,0-0.7,0.1-1,0.3l-0.5,0.3l0,0.4
							c0,0,0,0.1,0,0.1c0,0.1,0,0.3,0,0.4l0,0l0.8-0.2l0,0c0.1,0,0.1,0.1,0.2,0.1c-0.1,0-0.1-0.1-0.1-0.1l0.3,0l-0.1,0.1l0,0
							c0,0,0,0,0,0c0,0,0,0,0,0l0.1-0.1l0.2,0l0.1,0.2c0,0,0,0-0.1,0c-0.1,0-0.2,0-0.2,0c0,0-0.1,0-0.1,0c0.2,0,0.4,0,0.6,0
							C169.3,72.5,169.6,72.1,169.5,71.8z"/>
						<path d="M214.9,35.4C214.9,35.4,214.9,35.4,214.9,35.4C214.9,35.4,214.9,35.4,214.9,35.4C214.9,35.4,214.9,35.4,214.9,35.4
							C214.8,35.3,214.8,35.3,214.9,35.4l0.2-0.2l0,0.1l0-0.1l0.6-0.2l0,0l0,0l0.9-0.3c-0.2-0.4-0.7-0.7-1.5-0.7l-0.2,0l-5,1.5
							L214.9,35.4C214.9,35.4,214.9,35.4,214.9,35.4z"/>
						<path d="M214.3,16.9l2.6-2.4l-3.9,1.8l-0.1,0l-0.1,0l0,0l-0.7,0.4c0,0-0.1,0-0.1,0.1c-0.1,0-0.1,0.1-0.1,0.1l0,0l0,0l-0.9,0.5
							l0.9,0.3l-0.1,0.1c0,0,0,0,0,0c0,0,0.1,0,0.1,0.1c0,0,0,0,0,0l0,0l0.1,0.4c0,0,0.1,0,0.1,0l0,0c0,0,0.1,0,0.1,0c0,0,0,0,0,0
							c0,0,0,0,0,0c0,0,0,0,0,0c0,0,0,0,0,0c0,0,0,0,0,0c0,0,0,0,0,0c0,0,0,0,0,0c0,0,0,0,0,0c0,0,0,0,0,0c0,0,0,0,0,0
							c0.1,0,0.2-0.1,0.3-0.1l3.1,0L214.3,16.9z"/>
					</g>
				</g>
				<g>
					<g>
						<path d="M82.5,58.2L82.5,58.2l-1.3,0.4c0,0,0,0.1,0,0.1l0,0l0,0c0,0,0,0,0-0.1l2.6,0.2l0,0c0.1-0.2,0.1-0.5,0.1-0.8l0,0
							c0,0,0,0,0,0v0c0,0,0,0,0,0l0,0c0,0,0,0,0,0c0-0.1,0-0.1,0-0.2L82.5,58.2L82.5,58.2z"/>
						<path d="M92.6,41C92.6,41,92.6,41,92.6,41l-1.3,0l0,0c0,0,0,0-0.1,0l0.3,0.9c0,0,0,0,0,0L91.1,41l0.5,1.9l0.1,0l-0.3-0.9
							c0,0,0,0,0,0l0.3,0.9c1.1-0.3,1.9-1,2.2-1.8L92.6,41C92.6,41,92.6,41,92.6,41z"/>
						<path d="M4.8,80.1L4.8,80.1l-0.4,0L3.5,80c0,0.1-0.1,0.1-0.1,0.2c-0.1,0.1-0.1,0.1-0.2,0.2c0,0.1-0.1,0.1-0.1,0.2l0,0l0,0
							L5.5,81v0l0,0c0-0.1,0.1-0.1,0.1-0.2c0.1-0.2,0.3-0.3,0.4-0.6l0-0.1L4.8,80.1L4.8,80.1z"/>
						<path d="M118.1,103.7l1.3-0.5c-0.3-0.6-0.9-1.1-1.7-1.2l-1.1,2c0,0,0,0,0,0c0,0,0,0,0,0c0,0,0.1,0,0.1,0.1c0,0,0,0,0,0
							L118.1,103.7L118.1,103.7L118.1,103.7z"/>
						<path d="M-20.9,36l0.7,0.7c0.5-0.3,0.8-0.6,1-1c0,0,0,0,0,0s0,0,0,0c0.2-0.3,0.2-0.7,0.2-1.1l0-0.1l0-0.1
							c-0.1-0.3-0.3-0.5-0.6-0.7c-0.1-0.1-0.2-0.1-0.3-0.2l0,0l-1.8,1.7c0,0,0,0,0.1,0.1c0,0,0,0.1,0,0.1l0,0l0,0c0,0,0,0,0,0
							c0,0,0,0,0,0.1l0,0c0,0,0,0,0,0l0.1,0L-20.9,36C-21,36-21,36-20.9,36C-21,36-21,36-20.9,36z"/>
						<path d="M151.1,69.1C151.1,69.1,151.1,69.1,151.1,69.1l1,0.5L151.1,69.1C151.1,69.1,151.1,69.1,151.1,69.1l1.1,0.5
							c0,0,0.1-0.1,0.1-0.1v0c0,0,0,0,0,0c0,0,0,0,0,0c0,0,0,0,0,0c0,0,0,0,0,0c0,0,0,0,0,0c0,0,0,0,0,0c0,0,0,0,0,0l0,0
							c0.1-0.1,0.1-0.1,0.2-0.2l0,0c0,0,0,0,0,0l-2.2-0.8c0,0,0,0,0,0v0c0,0-0.1,0.1-0.1,0.1c0,0,0,0,0,0c0,0,0,0,0,0c0,0,0,0,0,0
							l0,0L151.1,69.1C151.1,69.1,151.1,69.1,151.1,69.1z"/>
						<path d="M92.5,110.9l0.4,0.9c1-0.4,1.7-1.1,1.9-2.1l0-0.2c-0.1-0.6-0.4-1-0.9-1.3l-2,1.6l0,0c0,0,0,0,0,0c0,0,0.1,0.1,0.1,0.2
							c0,0.1,0,0.1,0,0.1c0,0,0,0,0,0l0,0c0,0,0,0,0.1,0c0,0,0,0,0,0l0,0l0,0l0.1,0L92.5,110.9C92.5,110.9,92.5,110.9,92.5,110.9
							C92.5,110.9,92.5,110.9,92.5,110.9z"/>
						<polygon points="61.8,78.9 61.8,78.9 61.8,78.9 62.6,78 62.6,78 62.6,78 61.7,77.6 60.1,79.5 60.5,79.6 60.5,79.6 61,79.8 
							61.8,78.9 						"/>
						<path d="M103.1,88.2C103.1,88.2,103.1,88.2,103.1,88.2l-1.2-0.2c0,0,0,0,0,0c0,0,0,0.1-0.1,0.1c0,0,0,0,0,0.1l0,0c0,0,0,0,0,0
							l2.5,0.3l0-0.1L103.1,88.2C103.1,88.2,103.1,88.2,103.1,88.2z"/>
						<path d="M168.9,65c0,0.1,0.1,0.1,0.1,0.2c0.4,0.5,1,0.7,1.8,0.8l0.8-2l0,0l0,0c0,0,0,0-0.1,0c0,0-0.1-0.1-0.2-0.2L168.9,65
							L168.9,65z"/>
						<path d="M137.7,138.9L137.7,138.9l0.9-0.9L137.7,138.9l0.2,0.1l1.7-1.7l0,0l0,0l-0.5-0.2l-1.8,1.7L137.7,138.9L137.7,138.9z"
							/>
						<path d="M44,178.6c0-0.1,0-0.2,0.1-0.3l0-0.2l0,0l0,0l-2.7,0.1l0,0l0,0l0,0.2c0,0.2-0.1,0.4-0.1,0.7c0,0,0,0,0,0.1l0,0
							l2.7-0.4C44,178.7,44,178.7,44,178.6z"/>
						<path d="M69.9,171.4l0.9,0c0.2,0,0.4,0,0.6,0c0,0,0,0,0,0c0,0,0,0,0,0c0,0,0,0,0,0c0,0,0,0,0,0c0.1,0,0.3,0,0.4,0l0.2-1l0,0
							l0,0l0.1-0.3l0,0l-0.4-0.1l0.4-0.2l0.1-0.4c-0.2,0-0.4,0-0.7,0l-0.3,0l0,0l0,0L71,170l-1.5-0.2c-0.2,0.4-0.2,0.8,0.1,1.2
							L69.9,171.4z"/>
						<path d="M48.3,47.9l0.1,0l0.1,0.2l0.3-0.1l-0.1-0.2l2-0.7c-0.3-0.8-1.3-1.2-2.6-1l-0.2,0l-0.2,0.1l0.4,0.6L48.3,47.9z"/>
						<path d="M202.9,103.5c0,0,0.1,0,0.1-0.1l0.4,0.4l-0.7,0.3c0-0.1,0-0.1,0-0.1l0,0.1c0,0.1,0,0.2,0,0.2l0,0l0,0l0.9-0.3l0.1,0.1
							l0,0l0,0l0.7,0.7c0.2-0.1,0.3-0.2,0.4-0.3l0.7-0.5l-0.2-0.6l0-0.1c0,0,0-0.1,0-0.2c0,0,0,0,0,0c0,0,0,0,0,0c0,0,0,0,0,0l0,0
							c0-0.1,0-0.1-0.1-0.2l-1.3,0.5l0,0l0,0l-0.2,0.1l-0.5-0.4c0,0,0,0,0,0l0,0C203.1,103.3,203.1,103.4,202.9,103.5L202.9,103.5
							C202.9,103.5,202.9,103.5,202.9,103.5L202.9,103.5z"/>
						<path d="M-22.5,80.4C-22.5,80.4-22.5,80.4-22.5,80.4C-22.5,80.5-22.5,80.5-22.5,80.4C-22.5,80.5-22.5,80.5-22.5,80.4
							C-22.5,80.5-22.5,80.5-22.5,80.4C-22.4,80.5-22.4,80.5-22.5,80.4L-22.5,80.4c0.1,0.1,0.2,0.2,0.2,0.2l1-0.7l0.1,0.2l0,0l0,0
							l0.2-0.1l-0.1-0.2l1-0.7c0,0,0,0,0,0c0,0,0,0,0,0c0,0,0,0,0,0l0,0c0,0,0,0,0,0c0,0,0,0,0,0c0,0,0,0,0,0c0,0,0,0,0,0l0,0
							c-0.1-0.1-0.2-0.2-0.3-0.3l-0.1-0.1l0,0l0,0l-1,0.6l-0.6-0.8l-1.5,0.7l0.9,0.9C-22.7,80.2-22.6,80.3-22.5,80.4z"/>
						<path d="M-10.8,111.2C-10.8,111.2-10.8,111.2-10.8,111.2L-10.8,111.2c0,0.1-0.1,0.1-0.1,0.2c-0.1,0.2-0.2,0.4-0.3,0.6l2.6,0
							c0,0,0-0.1,0.1-0.1c0,0,0,0,0,0c0.1-0.1,0.1-0.2,0.2-0.4l0,0c0,0,0,0,0,0L-10.8,111.2z"/>
						<path d="M169.6-16.7l-0.1,0.4l0,0l0,0l0.3,0.2c0.1,0,0.1-0.1,0.2-0.1c0.1-0.1,0.3-0.2,0.4-0.2l0,0l0,0l-0.5-0.4l0.3-0.1v0v0
							l1.3-0.5c-0.1-0.2-0.2-0.3-0.4-0.4l0,0l0,0c-0.3-0.2-0.8-0.3-1.3-0.3l-0.5,0l-0.4,0.3c-0.1,0-0.1,0.1-0.2,0.1
							c-0.2,0.1-0.4,0.2-0.6,0.4l1.1,0.7L169.6-16.7z"/>
						<path d="M238.1,19.3c0.1,0.1,0.2,0.2,0.3,0.3l2.2-1.4l0,0l0,0c0,0-0.1-0.1-0.1-0.1c0,0,0,0,0,0c0,0,0,0,0,0c0,0,0-0.1-0.1-0.1
							c0,0,0,0,0,0c0,0,0,0,0,0c0,0,0,0,0,0c-0.1-0.1-0.2-0.2-0.3-0.2l-2,1.6L238.1,19.3C238.1,19.3,238.1,19.3,238.1,19.3z"/>
						<path d="M220,39.6c0.2,0,0.7-0.1,1.2,0.7c0.1,0.2,0.1,0.4,0,0.5c0,0,0,0,0,0l0,0l2.5,0.4c0.3-0.6,0.4-1.2,0.2-1.8l-0.1-0.1
							c-0.6-1-1.4-1.4-2.2-1.6c0,0,0,0,0,0c0,0,0,0,0,0c-0.6-0.1-1.1-0.1-1.5-0.1l-0.1,1l0,0l0,0L220,39.6
							C220,39.6,220,39.6,220,39.6z"/>
						<path d="M238.6,83.9L240,82l0,0l0,0c0,0-0.1,0-0.1,0c-0.9-0.3-1.2-1.3-2.1-4l-0.2-0.5l-0.4,0l-3-1.6l0.4,1.4l-0.1,0l0.5,1.5
							C236.1,81.8,236.6,83.3,238.6,83.9z"/>
						<path d="M20.4,55C20.4,55,20.4,55,20.4,55L20.4,55c0-0.1,0.1-0.1,0.1-0.2c0.1-0.1,0.1-0.2,0.2-0.3l0,0c0,0,0,0,0,0
							c0-0.1,0.1-0.1,0.1-0.2l-1-0.1l1,0l-1.3-0.1l0,0l0,0l0,0l-1.3-0.1l0,0c0,0,0,0,0,0c0,0-0.1,0.1-0.1,0.1
							c-0.1,0.1-0.2,0.2-0.2,0.3l0,0c0,0,0,0,0,0L20.4,55z"/>
						<path d="M81.8,70.8C81.8,70.8,81.8,70.8,81.8,70.8L81.8,70.8L81.8,70.8l2.7-0.8c-0.1-0.4-0.3-0.6-0.6-0.9l-2.1,1.5
							C81.7,70.7,81.7,70.7,81.8,70.8C81.7,70.7,81.8,70.7,81.8,70.8z"/>
						<path d="M171.7,65.7C171.7,65.7,171.7,65.7,171.7,65.7C171.7,65.7,171.7,65.7,171.7,65.7c0,0,0-0.1,0.1-0.1c0,0,0,0,0,0
							l1.8,1.2l0.1-0.1c0,0,0,0,0,0c0.7-0.6,0.9-1.4,0.5-2.1l0,0l0,0L173,65v0v0l-1.3,0.5C171.7,65.6,171.7,65.7,171.7,65.7
							C171.7,65.7,171.7,65.7,171.7,65.7z"/>
						<polygon points="213.1,105.1 212.1,105 212.2,104.8 212.1,105 211.8,105 211.8,105 211.8,105 210.5,104.8 209.8,106.4 
							212.2,107.2 						"/>
						<path d="M127.5,107.5L127.5,107.5l0.4,0.5c0,0,0,0-0.1,0c0,0,0,0,0,0c0.1,0,0.2-0.1,0.3-0.1l0,0l0,0l-0.3-0.5l1.6-0.4l0-0.1
							c0,0,0,0,0,0c0,0,0,0,0,0c0,0,0,0,0-0.1c0,0,0,0,0,0c0-0.1-0.1-0.2-0.2-0.3c0,0,0,0,0,0l0,0l0,0v0c-0.2-0.2-0.5-0.4-1.1-0.4
							l-0.5,0l-0.5,0.2c0,0-0.1,0-0.2,0.1l0,0c0,0,0,0,0,0c0,0-0.1,0-0.1,0.1c0,0,0,0,0,0c0,0,0,0,0,0c-0.1,0-0.1,0.1-0.2,0.1
							L127.5,107.5L127.5,107.5z"/>
						<path d="M218.8,1L218.8,1L218.8,1c0.1,0,0.1-0.1,0.2-0.1c0.7-0.3,1.2-0.9,1.4-1.5l0,0l0,0c0-0.1,0-0.1,0-0.2l0,0v0L218-0.7v0
							l0,0L218.8,1z"/>
						<path d="M84.6,15C84.6,15,84.6,15,84.6,15c-0.1,0.1-0.1,0.2-0.3,0.2l1.2,1.6l0,0c0,0,0.1,0,0.1-0.1c0,0,0,0,0,0
							c0.8-0.4,1.3-1,1.5-1.6l-1.3-0.1l1.3,0.1c0.1-0.2,0.1-0.4,0.1-0.6l-2.7,0.3C84.6,14.9,84.6,14.9,84.6,15z"/>
						<path d="M121.3,41.6C121.3,41.6,121.3,41.6,121.3,41.6L121.3,41.6c0,0.1-0.1,0.1-0.1,0.2c0,0,0,0,0,0.1c0,0-0.1,0.1-0.1,0.1
							l0,0l1.2,0.3c0,0,0,0,0,0c0,0,0,0,0,0l1.1,0.3l0.1-0.1c0,0,0.1-0.1,0.1-0.1c0.1-0.1,0.1-0.2,0.2-0.2l0,0c0,0,0,0,0,0
							L121.3,41.6z"/>
						<path d="M-21.9,63.8C-21.9,63.8-21.9,63.8-21.9,63.8C-21.9,63.8-21.9,63.8-21.9,63.8C-21.9,63.8-21.9,63.8-21.9,63.8
							C-21.9,63.8-21.9,63.8-21.9,63.8C-21.9,63.8-21.9,63.8-21.9,63.8L-21.9,63.8C-21.9,63.8-21.9,63.8-21.9,63.8L-21.9,63.8
							C-21.9,63.8-21.9,63.8-21.9,63.8L-21.9,63.8c-0.1-0.1-0.2-0.2-0.3-0.2l0,0c0,0,0,0,0,0l0,0c0,0,0,0,0,0c0,0,0,0,0,0
							c0,0,0,0,0,0c0,0,0,0,0,0c0,0,0,0,0,0c0,0,0,0,0,0c0,0,0,0,0,0c-0.2-0.1-0.5-0.2-0.8-0.3l-1.2,1.9c0,0,0,0,0,0
							c0.1,0,0.2,0.1,0.4,0.7c0,0.3,0,0.5-0.1,0.6c0,0,0,0,0,0c0,0,0,0,0,0l1.2,0.3l1.2,0.3c0.1-0.1,0.1-0.2,0.1-0.3c0,0,0,0,0,0
							c0,0,0,0,0,0c0.1-0.2,0.1-0.3,0.2-0.5c0,0,0,0,0,0c0,0,0,0,0,0c0.1-0.3,0.1-0.6,0-0.9v-0.1l0-0.1
							C-21.2,64.8-21.4,64.2-21.9,63.8z"/>
						<path d="M91.3,92.6L91.3,92.6C91.3,92.6,91.3,92.6,91.3,92.6c-0.1,0.1-0.1,0.1-0.2,0.1c0,0,0,0-0.1,0
							c-0.1,0.1-0.1,0.1-0.2,0.2c0,0-0.1,0.1-0.1,0.1l1.9,1.1c0,0,0,0,0,0l0,0c0.1,0,0.1-0.1,0.2-0.1c0.2-0.1,0.3-0.2,0.5-0.4l0,0
							c0,0,0,0,0,0c0,0,0,0,0,0c0,0,0,0,0,0c0,0,0.1-0.1,0.1-0.1v0l0,0L91.3,92.6L91.3,92.6z"/>
						<path d="M80.5,76.1l0,1L80.5,76.1c-0.1,0-0.2,0-0.2,0c-0.1,0-0.1,0-0.2,0l0.2,0.9l-0.3-0.9l0.3,0.9c0,0,0,0,0,0c0,0,0,0,0,0
							l0.2,0.6l0,0l0,0.4l0-0.3l0,0.3l0-0.2l0,0l0,0l0,0l0,0l0.1,0.2l0-0.1l0,0.1l-0.1-0.2l0-0.1l1.6-1.3
							C81.7,76.1,81.2,76,80.5,76.1z"/>
						<path d="M106.9,96.8c-0.1-0.1-0.3-0.3-0.5-0.4l-2,1.6c0,0,0.1,0.1,0.1,0.1c0.1,0.1,0.2,0.2,0.3,0.3l0,0c0,0,0,0,0,0l0,0
							l0.1,0.5l0,0l0,0l0.2,0.9l0.1,0c0.8-0.2,1.4-0.7,1.7-1.2c0.2-0.3,0.3-0.7,0.3-1.1l0-0.3L107,97
							C107,96.9,106.9,96.9,106.9,96.8z"/>
						<path d="M121.1,145C121.1,145,121.1,145,121.1,145c-0.5-0.8-1.3-1.1-2.6-1.1l-0.3,2c0,0,0,0,0,0c0,0,0,0,0,0c0,0,0.1,0,0.1,0
							c0.1,0,0.3,0.2,0.4,0.7c0,0.2-0.1,0.3-0.1,0.3l0,0l2,1l0,0l0,0c0.1-0.1,0.2-0.2,0.3-0.3c0.3-0.4,0.5-0.9,0.5-1.4l0-0.2
							C121.4,145.7,121.3,145.4,121.1,145C121.1,145.1,121.1,145.1,121.1,145z"/>
						<path d="M106.8,124.3L106.8,124.3L106.8,124.3c-0.1,0-0.1,0.1-0.2,0.1c-0.2,0.1-0.3,0.2-0.5,0.4c0,0,0,0,0,0
							c0,0-0.1,0.1-0.1,0.1l0,0l1.9,1.1c0.1,0,0.1-0.1,0.2-0.1c0.1-0.1,0.3-0.2,0.4-0.3v0c0,0,0,0,0,0L106.8,124.3z"/>
						<path d="M207.5,106.2c-0.1,0-0.2,0-0.3,0c-0.2,0-0.4,0-0.7,0.1l0,0.6l-0.1,0l-0.3,0.4l0.1,0.4l0.4-0.1l0,0.7
							c0.1,0,0.3,0,0.5,0l2.2-0.1l-0.3-1l0.9-1.1l-2.1,0.1L207.5,106.2z"/>
						<path d="M154.1,15.6L154.1,15.6c0.3-0.4,0.4-0.8,0.4-1.2l0-0.2c-0.2-1-1-1.6-2.1-1.8l0,0c0,0,0,0,0,0l-1,2c0,0,0.1,0,0.1,0
							c0.1,0,0.3,0.1,0.4,0.4c0,0.1-0.1,0.2,0,0.2l0.3,0.9l0,0l-0.3-0.9l0.2,0.9c0,0,0,0,0,0s0,0,0,0l0.2,0.9l0.1,0l-0.3-0.9l0,0
							l0,0l0.3,0.9l0,0C153.1,16.6,153.7,16.2,154.1,15.6C154.1,15.7,154.1,15.7,154.1,15.6z"/>
						<path d="M215.2,113.2c-0.1,0-0.1,0-0.2,0c-0.1,0-0.1,0-0.2-0.2c0,0,0,0,0-0.1l-2.5,1.1l0,0c0,0,0,0,0,0.1c0.7,1.2,2.2,1.1,3,1
							l0.2,0l0.2-0.1c0.1,0,0.2-0.1,0.3-0.1c0.1,0,0.2-0.1,0.3-0.1l0,0l0,0l-1-1.2L215.2,113.2z"/>
						<path d="M191.4,31.4L191.4,31.4L191.4,31.4C191.4,31.4,191.4,31.4,191.4,31.4C191.4,31.4,191.4,31.3,191.4,31.4L191.4,31.4
							c0.1-0.1,0.2-0.1,0.3-0.2l0,0l0,0.3l-0.3,0.1l0.3-0.1l0.3,1.6c0,0,0.1,0,0.1,0c0,0,0,0,0.1,0l0,0c1.1-0.3,1.8-1,1.9-1.9l0-0.2
							l-1.8-6.1L191.4,31.4C191.4,31.4,191.4,31.4,191.4,31.4z"/>
						<path d="M191.5,65.8l-0.2,0l0.3,1.9c0.3-0.1,0.3,0,0.4,0.1l2.6-1C194.1,65.9,192.9,65.5,191.5,65.8z"/>
						<path d="M183.5,92.4C183.5,92.4,183.5,92.4,183.5,92.4C183.5,92.4,183.5,92.4,183.5,92.4c-0.4-0.8-1.6-1-2.9-0.6l-0.3,0.1
							l-0.3,0.2c0,0,0,0-0.1,0c-0.1,0.1-0.2,0.2-0.3,0.2l1.5,0.8l0.1,0.2l0.1,0l0.3,0.1l0,0c0,0,0,0,0,0c0,0,0,0,0.1,0l-0.2-0.1l0,0
							l0.2,0.1l-0.1-0.1l0.1,0l-0.2-0.1l2-0.7l0,0l0,0C183.5,92.5,183.5,92.4,183.5,92.4z"/>
						<path d="M188.1,65.4L188.1,65.4l-0.3,0.6l-1.4-0.3l0,0c-0.1,0.1-0.1,0.2-0.1,0.3c-0.1,0.2,0,0.5,0.1,0.8l0.2,0.4l1.7,0.2
							l0.9-2L188.1,65.4L188.1,65.4z M188.9,65.9c0,0,0,0.1,0,0.1c0,0,0,0.1-0.1,0.2l-0.4-0.1L188.9,65.9z"/>
						<path d="M16,17.6c-0.3-0.4-0.9-0.7-1.7-0.6l-0.2,1l0.1-1l-0.2,1l0,0l0.2-1c-0.2,0-0.5,0.1-0.7,0.1l-0.1,0l0.2,0.9l-0.3-0.9
							l0.3,0.9l0,0l-0.3-0.9c-0.1,0-0.2,0.1-0.2,0.1l0.4,0.9c0,0,0,0,0,0c0,0,0,0,0,0l0.4,0.9l0,0c-0.1,0-0.1,0-0.2,0
							c0,0-0.1,0-0.1,0c0,0,0,0,0,0c0,0,0,0,0,0c0.1,0,0.1,0.2,0.2,0.3c0,0.1,0,0.1,0,0.1s0,0,0,0c0,0,0,0,0,0s0,0,0-0.1
							c0,0,0,0,0,0.1l0,0c0,0,0,0,0,0l0.2-0.1l1.8,1l0,0c0.2-0.2,0.4-0.4,0.5-0.7l0,0c0,0,0,0,0,0c0.1-0.3,0.2-0.6,0.2-1l0-0.1
							l-0.1-0.1C16.4,18.2,16.3,17.9,16,17.6z"/>
						<path d="M22.3,60.7l0.6,3.4c0,0.1,0,0.1,0,0.1c0,0,0,0,0,0c0,0,0,0,0,0c0,0,0,0,0-0.1c0,0,0,0,0.1,0l0,0l0.3,0.3l0.9,1.2l0,0
							c0.1,0,0.1-0.1,0.2-0.1c0.9-0.5,1.3-1.3,1.2-2.1l0,0l-0.1-0.3L22.3,60.7z"/>
						<path d="M2.6,25c-0.1-0.1-0.3-0.1-0.4-0.2c-0.1,0-0.1,0-0.2-0.1l0,0l-1.2,1.5c0,0,0,0,0,0l0,0c0,0,0,0,0,0l0,0l-0.1,0v0h0
							l-0.3,0.3c0.1,0,0.1,0.1,0.2,0.1c0.1,0.1,0.3,0.1,0.4,0.2l0,0l0,0l0.2-0.2l0.9,1c0.5-0.3,1.2-0.9,1-2l-0.1-0.4l-0.4-0.2
							C2.7,25.1,2.7,25,2.6,25z"/>
						<path d="M62.3,5.4C62.3,5.4,62.3,5.4,62.3,5.4L62.3,5.4L62.3,5.4C62.3,5.4,62.3,5.4,62.3,5.4C62.3,5.4,62.3,5.4,62.3,5.4
							l-0.9,0.8l0,0l0,0l-0.1,0.1l-0.4-0.5c0,0,0,0,0,0l0,0C60.8,6,60.7,6,60.6,6.1c0,0,0,0,0,0l-0.1,0v0l0,0c0,0,0,0,0,0
							c0,0,0.1,0,0.1,0l0,0c0,0,0,0,0,0l0.3,0.6l-0.2,0.2L61,6.8l0.1,0.1v0v0l0.5,0.8c0.1,0,0.1-0.1,0.2-0.1l0,0c0,0,0,0,0,0
							c0,0,0,0,0,0l0,0c0.1,0,0.1-0.1,0.2-0.1l0,0c0,0,0.1,0,0.1-0.1L63,7l-0.2-0.7l0-0.1C62.8,6.1,62.7,5.7,62.3,5.4L62.3,5.4z"/>
						<path d="M77.9,86.6L77.9,86.6L77.9,86.6L77.9,86.6L77.9,86.6L77.9,86.6L77.9,86.6l-0.5-0.2c0.1-0.1,0.1-0.1,0.2-0.2
							c0,0,0,0,0,0c0,0,0,0,0,0c-0.1,0-0.1,0.1-0.2,0.1c-0.1,0.1-0.2,0.1-0.3,0.2l-0.4,0l0,0l0,0l-1.3,0l0,0.1c0,0,0,0,0,0.1
							c-0.1,0.6,0.2,1.2,0.8,1.5v0c0,0,0,0,0,0c0.3,0.2,0.8,0.2,1.3,0.2l0.6,0l0.5-0.3c0.1,0,0.1-0.1,0.2-0.1c0.3-0.2,0.7-0.4,1-0.7
							L77.9,86.6z"/>
						<path d="M48.3,128.6l-0.7,0.8L48.3,128.6c-0.3-0.1-0.6-0.1-0.8-0.1l-0.5,1.8l-0.2,0.2c0,0,0.1,0,0.2,0.2c0,0.1,0,0.1,0,0.1
							c0,0,0,0,0,0s0,0,0,0l0,0l0,0c0,0,0,0,0,0l0,0c0,0,0,0,0,0c0,0,0,0,0,0h0l0,0l0.1,0l1.5,1.3l0.1-0.1c0.1-0.1,0.2-0.2,0.3-0.3
							c0,0,0,0,0,0c0,0,0,0,0,0c0,0,0,0,0,0c0,0,0,0,0,0c0,0,0,0,0,0v0c0.2-0.2,0.4-0.5,0.5-0.8c0,0,0,0,0,0c0,0,0,0,0,0
							c0,0,0,0,0,0v0c0.1-0.3,0.1-0.7,0-1.1l-0.1-0.2C49.2,129.1,48.8,128.8,48.3,128.6z"/>
						<path d="M38.6,69.1c0,0.1,0,0.1,0,0.2l0,0l0,0l2.7-0.5c0-0.1,0-0.3,0-0.4c0,0,0-0.1,0-0.1l0,0L38.6,69.1
							C38.6,69.1,38.6,69.1,38.6,69.1z"/>
						<path d="M65.4,85.8L65.4,85.8c0,0-0.1-0.1-0.1-0.1c-0.1-0.1-0.2-0.1-0.3-0.2l0,0c0,0,0,0,0,0c0,0,0,0,0,0s0,0,0,0
							c-0.1,0-0.2-0.1-0.3-0.1L63,87.1c0,0,0.1,0.1,0.2,0.1c0.1,0.1,0.2,0.1,0.3,0.2c0,0,0.1,0,0.1,0c0,0,0,0,0,0l1-0.8l0,0l0,0
							L65.4,85.8L65.4,85.8z"/>
						<path d="M25.8,40.5C25.8,40.5,25.8,40.5,25.8,40.5C25.8,40.5,25.8,40.5,25.8,40.5C25.8,40.5,25.8,40.5,25.8,40.5L25.8,40.5
							c-0.4-0.3-0.9-0.5-1.6-0.5l-0.3,1l0,0l0,0l-0.3,1c0.1,0.1,0.3,0.5,0.4,0.7c0,0.4-0.1,0.5-0.1,0.5l0,0c0,0,0,0,0,0c0,0,0,0,0,0
							l1.5,1.4l0.1-0.1c0.6-0.4,1.3-1.2,1.2-2.5l0-0.1l0-0.1C26.4,41.5,26.2,41,25.8,40.5z"/>
						<path d="M64.4,137l-1,0c-0.3,0-0.7,0-1.1,0l-0.1,1l0,0l0,0l0,0.4v0l0.2,0l-0.2,0.1l0,0.5c0.1,0,0.4,0,0.6,0l0.3,0l0,0
							c0,0,0,0,0,0l0.2-0.6l1.5,0l0,0c0,0,0,0,0,0l0,0c0,0,0,0,0,0c0-0.3,0-0.6-0.2-0.8L64.4,137z"/>
						<path d="M59.8,90.4L59.8,90.4c-0.1,0-0.1-0.1-0.2-0.1c-0.1,0-0.2-0.1-0.3-0.1l0,0c0,0,0,0,0,0c-0.1,0-0.2-0.1-0.3-0.1l-0.1,0
							L58.3,91l0.7-1l-1,1.4l-0.4,0.5c0,0,0.1,0,0.1,0.1c0,0,0,0,0,0c0,0,0.1,0,0.1,0.1c0.1,0.1,0.2,0.1,0.3,0.2l0.8-0.9l0,0l0,0
							L59.8,90.4L59.8,90.4z"/>
						<path d="M108.1,50.6C108.1,50.6,108.1,50.6,108.1,50.6c-0.4-0.2-0.9-0.2-1.6-0.2l-0.7,0.1l-0.5,0.4c-0.1,0-0.1,0.1-0.2,0.1
							c-0.1,0.1-0.2,0.2-0.4,0.3v0c0,0,0,0,0,0c-0.1,0.1-0.1,0.1-0.2,0.2c0,0,0,0,0,0c0,0,0,0,0,0c0,0,0,0,0,0l1.7,0.6v0l0,0v0l0,0
							l0,0l0,0l0,0l0.1,0l0.5,0.2c0.1-0.1,0.1-0.1,0.2-0.2c0,0,0.1-0.1,0.1-0.1l0.5-0.1l0,0l0,0l1.4-0.1c0-0.1,0-0.2,0-0.3
							c0,0,0-0.1,0-0.1c0,0,0,0,0,0c0,0,0,0,0,0C108.9,51.1,108.6,50.8,108.1,50.6L108.1,50.6z"/>
						<path d="M102.9-13.1l-8.5,2.5l7.3-0.5c0,0,0.1,0,0.1,0c0,0,0,0,0,0c0,0,0,0,0,0c0,0,0,0-0.1,0v0c-0.1,0-0.1-0.1-0.2-0.2
							c0,0,0,0,0,0l0,0l0.1,0l0.4-0.1l2.2-0.4c0,0,0,0,0-0.1c0,0,0-0.1,0-0.1C104.1-12.6,103.6-13,102.9-13.1z"/>
						<path d="M145.7,127.4c0,0.1-0.1,0.1-0.1,0.2c-0.1,0.2-0.2,0.3-0.2,0.5l0.8,0l-0.3,0.2l0.3-0.2l1.8,0.1c0,0,0,0,0,0l0,0
							c0,0,0,0,0,0c0-0.1,0.1-0.2,0.1-0.2c0-0.1,0.1-0.2,0.1-0.2l0.3-0.6l-2-1.5L145.7,127.4z"/>
						<path d="M248,24.5L248,24.5c-0.1,0-0.1-0.1-0.2-0.1c-0.1,0-0.2-0.1-0.3-0.2c0,0,0,0,0,0l0,0c-0.1-0.1-0.2-0.1-0.3-0.2
							l-1.5,1.8c0.1,0,0.1,0.1,0.2,0.1c0.1,0.1,0.2,0.1,0.4,0.2l0,0c0,0,0,0,0,0L248,24.5C248,24.5,248,24.5,248,24.5z"/>
						<path d="M144.7,121.1l0.3,0.6l0,0l0,0l0.5,0.8l0,0c0.1,0,0.2-0.1,0.3-0.1c0.7-0.4,1.2-1,1-1.9c0,0,0,0,0,0c0,0,0,0,0,0
							c0,0,0,0,0,0c0,0,0,0,0,0L144.7,121.1L144.7,121.1z"/>
						<path d="M164,80.9l0,1.3c0,0.1,0,0.1,0,0.2c0,0.2,0,0.4,0,0.7l0,0l1.1-0.3l0,0l-1.1,0.3l0,0l1-0.3l-0.1,0.2l0.1-0.2l0.3-0.1
							c0,0,0,0,0,0s0,0,0,0l1.3-0.4l-1.3,0.4l0,0l1.3-0.4c0,0,0,0,0,0c0,0,0,0,0,0c0-0.1,0-0.2,0-0.3c0-0.1,0-0.2,0-0.2l0-0.7
							l-0.9-0.1L164,80.9z"/>
						<path d="M252.5,60c-0.1-0.1-0.2-0.2-0.4-0.3c0,0,0,0,0,0c0,0,0,0,0,0c0,0,0,0,0,0c0,0,0,0,0,0c0,0,0,0,0,0l0,0c0,0,0,0,0,0
							c0,0,0,0,0,0s0,0,0,0l0,0c-0.2-0.1-0.5-0.2-0.8-0.2l0,0c0,0,0,0,0,0l0,0c0,0,0,0,0,0c0,0,0,0,0,0c0,0,0,0,0,0c0,0,0,0,0,0
							c0,0,0,0,0,0c0,0,0,0,0,0c0,0,0,0,0,0c0,0,0,0,0,0c0,0,0,0,0,0c0,0,0,0,0,0l0,0c0,0,0,0,0,0l0,0c0,0,0,0,0,0l0,0c0,0,0,0,0,0
							l0,0c0,0,0,0-0.1,0l0,0c0,0,0,0,0,0l-0.2,1.4l-0.2,0l0,0l0,0l0.2,0l-0.1,0.5c-0.3,0-0.5-0.1-0.5-0.1l0,0l0,0c0,0,0,0,0,0
							c0,0,0.1,0.1,0.1,0.1c0.1,0.1,0.2,0.2,0.3,0.2v0c0,0,0,0,0,0l0.7-0.6l1.3,0.3c0.1-0.2,0.2-0.4,0.3-0.6l0.1-0.5l-0.5-0.3
							C252.6,60.1,252.5,60,252.5,60z"/>
						<path d="M71,18.1L71,18.1L71,18.1l-1.1,0.7c0,0,0,0,0,0L71,18.1l-1,0.6L71,18.1l-1.1,0.7l0,0L71,18.1l-1,0.6L71,18.1L71,18.1
							L71,18.1l-1.1,0.7h0L71,18.1l-1,0.6L71,18.1l-1.1,0.7L71,18.1l-1.2,0.7c0,0,0,0,0,0L71,18.1l-1.2,0.7c0,0,0,0,0,0L71,18.1
							l-1.1,0.6L71,18.1L71,18.1l-1.2,0.7l0,0L71,18.1c-0.7-0.6-1.6-0.7-2.6-0.4c-0.1,0-0.2,0.1-0.3,0.1l-0.2,0.1L67.6,18
							c-1,0.7-1.2,1.3-1.2,1.8l2.3-0.4l0,0l-0.1,0.1l0,0l0.1-0.1l0,0l0.1-0.1l0,0l0,0l-0.1,0.1l0,0l0,0l0.1-0.1l0,0l-0.2,0.1l0,0
							c0,0,0,0,0,0v0l0,0l0,0l0,0l0,0l0,0l0.1-0.1l0,0l0,0l0,0l0.1-0.1l0,0l-0.1,0.1l0,0l-0.1,0l0.1,0v0l0.1-0.1l0,0l0.2,0
							c0,0,0,0,0,0c0,0,0,0.1,0,0.1v0c0,0,0,0,0,0c0,0,0,0,0.1-0.1l0,0l0,0l-0.1-0.1l0,0l0.7-0.4L71,18.1l-1.1,0.7L71,18.1z"/>
						<polygon points="236.8,95.2 236.1,94.6 233.9,96 233.9,96 233.9,96 234.6,96.6 236.8,95.2 236.8,95.2 						"/>
						<path d="M232.7,84.8c0.1,0,0.2-0.1,0.2-0.1l-1.3-1.5l-0.1,0.1c-0.1,0-0.2,0.1-0.2,0.1l1.3,1.5l0,0l0,0L232.7,84.8z"/>
						<path d="M134.9,115.8l-2.7,0.7c0,0.1,0,0.2,0,0.2c0,0,0,0,0,0v0c0,0,0-0.1,0.1-0.1c0,0,0,0,0,0l2,1.1c0.3-0.3,0.7-0.8,0.6-1.4
							C134.9,116.1,134.9,116,134.9,115.8L134.9,115.8L134.9,115.8z"/>
						<polygon points="228.7,71.6 228.7,71.6 228.7,71.6 228.1,71.2 227.4,72.2 226.5,72.7 226.9,73.5 227.5,74.3 228,74.1 
							228.1,74.2 229.1,73.7 230.3,72.7 230,72.5 231.4,70.3 						"/>
						<path d="M247.5,61.2c0,0-0.1,0-0.1,0c0,0,0,0,0,0c-0.4,0.1-0.7,0.2-1.1,0.4c-0.2,0.1-0.4,0.1-0.7,0.2l0,0l0,0l0.3,0.9l0,0
							l-1.3-0.4l-0.1,0.1l1.2,0.5l-0.7,0.7l0,0c0.2,0.1,0.4,0.2,0.6,0.3c0.2,0.1,0.4,0.2,0.6,0.3l0.8-0.8c0.3-0.1,0.6-0.2,0.9-0.3
							c0,0,0,0,0,0c0.1,0,0.2-0.1,0.3-0.1c0,0,0,0,0,0l0,0l0,0l-0.4-1.9C247.8,61.1,247.7,61.1,247.5,61.2
							C247.5,61.2,247.5,61.2,247.5,61.2z"/>
						<path d="M110,148.7C110,148.7,110,148.7,110,148.7C109.9,148.7,109.9,148.7,110,148.7C109.9,148.6,109.9,148.6,110,148.7
							L110,148.7l-1.9,1.2l-0.3,0.1l0,0c0,0.1,0,0.1,0,0.1c0,0,0,0,0,0l0,0c0,0,0,0,0-0.1c0,0,0,0,0,0l0,0.1l0,0l-0.1,0.1l0,0
							c0,0,0,0.1,0.1,0.1l0,0l0,0l0.1,0l0,0l1,1.4c0.2-0.1,0.3-0.2,0.5-0.3c0,0,0,0,0,0c0,0,0,0,0,0c0,0,0,0,0,0v0
							c0.8-0.5,1.1-1.2,1-1.9l0-0.1l-0.1-0.1C110.2,149,110.1,148.8,110,148.7z"/>
						<path d="M-17.3,72.5l-0.2,0l0,0l-0.1,0l-0.1-0.2l0,0.2l0,0l-0.1-0.2l0,0l0,0l0,0.2l-1,0.2l0,0l0,0l-1.3,0.3l0,0
							c0.2,0.8,1.1,1.3,2.3,1.2l0.3,0c0.1,0,0.2,0,0.3-0.1l0,0l0,0l-0.3-0.9l0,0c0,0,0,0,0,0l0.3,0.9c0.1,0,0.1,0,0.2-0.1l-0.6-1.4
							l0-0.2L-17.3,72.5z"/>
						<path d="M-5.2,99.6l0.5,0.8c0,0,0,0,0,0l0,0c0,0,0,0,0,0l0.4,0.7l-0.2,0.1l0.1,0l-0.1,0l0.2-0.1l0,0l1-0.5l1.2-0.7
							C-2.7,99.2-4,99.1-5.2,99.6z"/>
						<path d="M-32.1,54l-0.5,2l0,0c0,0,0.1,0,0.1,0c0.2,0,0.4,0.2,0.5,0.4c0,0.1,0,0.2,0,0.3c0,0,0,0,0,0l0,0c0,0,0,0,0,0l0,0
							l2.4,0.5c0.3-0.5,0.4-1,0.2-1.6l0-0.1l-0.1-0.1C-30.1,54.4-30.9,53.9-32.1,54z"/>
						<path d="M10.4,41.9L6.7,38l1.1,4.7c0,0.1,0,0.1,0,0.1c0,0,0,0,0,0s0,0,0,0c0,0,0-0.1,0.1-0.2c0,0,0,0,0,0c0,0,0,0,0,0l0.3,0.2
							L8,43.1l0.3-0.2l0.5,0.4c0,0,0,0,0,0c0,0,0,0,0,0L9.6,44c0.1-0.1,0.2-0.1,0.2-0.2c0.6-0.5,0.8-1.1,0.7-1.8l0,0c0,0,0,0,0,0
							L10.4,41.9z"/>
						<path d="M42.9,34.4C42.8,34.4,42.8,34.3,42.9,34.4l-2.6,0.9c0.3,0.5,0.7,0.8,1.4,1L42.9,34.4L42.9,34.4
							C42.9,34.4,42.9,34.4,42.9,34.4z"/>
						<path d="M39.9,57.9l-1.3,0.4l0,0l0,0l-1.3,0.4c0,0.1,0,0.1,0,0.1c0,0,0,0,0,0c0,0,0,0,0,0c0,0,0-0.1,0.1-0.1c0,0,0,0,0,0
							l1.5,1.4C39.8,59.6,40.2,58.8,39.9,57.9L39.9,57.9L39.9,57.9z"/>
						<path d="M27,88.1l-0.1,0L26.2,89l0,0l0.8-0.9l-0.2,0c0,0,0,0,0,0c-0.3-0.1-0.7-0.1-1,0l-0.1,0l-0.4,0.1l0.7,1.2l0,0l0,0
							l-0.5,0.6l0.3-0.4l0.1-0.2l0,0l0,0l0,0l0,0l0.2,0.5L26,89.6l0-0.1l0,0.1l0-0.1l0.2,0.3l-0.2-0.6L27,88.1z"/>
						<path d="M84,157.2c0.2,0.7,0.9,1.2,1.8,1.3l0.9-2c0,0,0,0-0.1-0.1L84,157.2z"/>
						<path d="M49.9,82.7l0.2-0.3L49.9,82.7l-1.8,0.2v0c0,0,0,0,0,0c0,0,0,0,0,0c0,0,0,0,0,0l0,0.1c0,0.1,0,0.2-0.1,0.3L48,83.9
							l0.5,0.3l2.1,0.7l0.2-1.7c0-0.1,0-0.1,0-0.2l0-0.1c0,0,0-0.1,0-0.1c0-0.1,0-0.2,0-0.3l-0.7,0.1L49.9,82.7z"/>
						<path d="M-4.6,112.1C-4.6,112.1-4.5,112-4.6,112.1L-4.6,112.1L-4.6,112.1l-1.2-1.6c-0.4,0.2-1,0.3-1.8,0.4l-7.8,0.6l6.7,1.3
							l0.5,0.3l0.7-0.2l0,0l0.3-0.1c0.5-0.1,1-0.2,1.4-0.3C-5.3,112.4-4.9,112.2-4.6,112.1C-4.6,112.1-4.6,112.1-4.6,112.1z"/>
						<path d="M6.2,161.9c-0.1-0.2-0.2-0.4-0.5-0.6l0,0l0,0c0,0,0,0,0,0c0,0,0,0,0,0l0,0c0,0,0,0,0,0c0,0,0,0,0,0l0,0c0,0,0,0,0,0
							c0,0,0,0,0,0c0,0,0,0,0,0c0,0,0,0,0,0c0,0,0,0,0,0c0,0,0,0,0,0c0,0,0,0,0,0c0,0,0,0,0,0c0,0,0,0,0,0c0,0,0,0,0,0s0,0,0,0
							c0,0,0,0,0,0l0,0c0,0,0,0,0,0c0,0,0,0,0,0c0,0,0,0,0,0l0,0l0,0c0,0,0,0,0,0c0,0,0,0,0,0c0,0,0,0,0,0c0,0,0,0,0,0l0,0
							c0,0,0,0,0,0s0,0,0,0c0,0,0,0,0,0h0c0,0,0,0,0,0l0,0c0,0,0,0,0,0c0,0,0,0,0,0c0,0,0,0,0,0c0,0,0,0,0,0h0c0,0,0,0,0,0
							c0,0,0,0,0,0c0,0,0,0,0,0c0,0,0,0,0,0l0,0c0,0,0,0,0,0v0c0,0,0,0,0,0l0,0c0,0,0,0,0,0c0,0,0,0,0,0c0,0,0,0,0,0h0c0,0,0,0,0,0
							l0,0c0,0,0,0,0,0c0,0,0,0,0,0c0,0,0,0,0,0c0,0,0,0,0,0l0,0c0,0,0,0,0,0l0,0c0,0,0,0,0,0c0,0,0,0,0,0l-0.7,0.9l0,0l0,0L4,162.5
							l-0.1,0l0,0l0,0l0.1,0l0,0l-0.1,0l0,0l0.1,0l-0.2,0.3c0,0,0,0,0,0c0,0,0,0,0,0l0,0c-0.1-0.1-0.2-0.1-0.2-0.1s0,0,0,0
							c0,0,0,0,0,0c0,0,0.1,0.1,0.1,0.2c0.1,0.1,0.1,0.2,0.2,0.3l0,0l0,0l0.9-0.4l0.2,0.1c0,0,0,0,0,0c0,0,0,0,0,0l1.1,0.4
							c0.1-0.2,0.2-0.3,0.3-0.5l0.1-0.4L6.3,162C6.2,162,6.2,161.9,6.2,161.9z"/>
						<path d="M2.2,152.9L2.2,152.9c0,0,0,0.1,0.1,0.2c0,0,0,0.1,0,0.1c0,0,0,0,0,0c0,0,0,0,0,0c0,0,0,0,0,0c0,0,0,0,0,0h0
							c0,0,0,0,0,0l0.1,0l0.2,0.9l0,0l0,0l0.2,0.9l0.1,0c0.2,0,0.3-0.1,0.4-0.2c0,0,0,0,0,0c0,0,0,0,0,0c0,0,0,0,0,0c0,0,0,0,0,0
							c0,0,0,0,0,0c0,0,0,0,0,0c0.3-0.1,0.6-0.3,0.8-0.5c0,0,0,0,0,0c0,0,0,0,0,0c0,0,0,0,0,0c0,0,0,0,0,0c0,0,0,0,0,0l0,0
							c0.4-0.4,0.7-0.9,0.7-1.5l0-0.1c-0.1-0.6-0.4-1-0.8-1.3L2.2,152.9z"/>
						<path d="M188.5,45.3l-1.6,1.8l0,0c0,0,0,0,0,0c0,0,0,0,0.1,0.1c0,0.1,0,0.2-0.1,0.3c0,0-0.1,0-0.1,0l0.6,1.8
							c0.2,0,0.3-0.1,0.4-0.2c1.3-0.6,2-1.6,1.8-2.7l0-0.1l0-0.1C189.4,45.8,189,45.5,188.5,45.3z"/>
						<path d="M196.3,133.4C196.3,133.4,196.3,133.4,196.3,133.4L196.3,133.4c-0.5-0.1-1-0.1-1.6,0.1l-0.6,0.2l-0.3,0.4
							c0,0-0.1,0.1-0.1,0.1c-0.1,0.1-0.2,0.2-0.2,0.3v0c0,0,0,0,0,0c0,0-0.1,0.1-0.1,0.1l0,0l1.7,0.5l0.1,0l0,0l0.5,0.1
							c0,0,0.1-0.1,0.1-0.1c0.1-0.1,0.2-0.2,0.3-0.4l0,0c0,0,0,0,0,0l-0.1,0l0.2-0.1l0,0l0,0l1.3-0.5c0,0,0,0,0,0
							C197.3,133.8,196.8,133.5,196.3,133.4z"/>
						<path d="M98.2,76.1c0.5-0.5,0.7-1.1,0.5-1.6l0,0l0,0c0,0,0-0.1,0-0.1l0,0v0l-1.1,0.4l1.1-0.4l-2.5,0.8l0,0l0,0l0,0l0,0l0,0
							l0,0L98.2,76.1z"/>
						<path d="M80.7,63.1l0.8,1.6l0,0l0,0l1.8-1.7C82.7,62.7,81.8,62.7,80.7,63.1z"/>
						<path d="M49.1,180.9l-0.3,0l-0.7-1l0,0c0-0.1-0.1-0.1-0.1-0.2l-2.3,1.3l-0.1,0l0.4,0.8L49.1,180.9z"/>
						<path d="M39.2,103.1l-0.9,2c0,0,0.1,0,0.1,0c1.2,0.2,2.1,1,2.5,2.2c0.2,0.5,0.2,1.1,0,1.8c0,0.1-0.1,0.2-0.1,0.3l0,0l2.6,0.1
							c0.4-1.1,0.4-2.1,0.1-3C43,104.5,41.4,103.3,39.2,103.1z"/>
						<path d="M126.9,112.6L126.9,112.6c0.2-0.3,0.2-0.6,0.2-0.8v0c0,0,0,0,0,0c0,0,0,0,0,0c0,0,0,0,0,0l0,0c0,0,0,0,0,0
							c0,0,0,0,0,0c0-0.1,0-0.1-0.1-0.2l-1.3,0.5l1.3-0.5l-1.3,0.5l0,0l0,0l-0.6,0.2l0,0h0l-0.3,0.1l0,0l-0.2,0.1l-0.3,0.1l0.5-0.2
							l0.3-0.1L126.9,112.6L126.9,112.6z"/>
						<polygon points="104.1,130.4 105.4,130 105.5,130.9 105.5,130.9 105.4,130 105.6,130 106.7,130.1 107.4,128.5 103.8,129.4 
													"/>
						<path d="M85.3,50.1l-0.2,0c-0.3,0-0.6-0.1-1-0.1l-0.5,2l0,0c0,0,0.1,0,0.2,0c0.1,0,0.2,0,0.4,0c0,0,0,0,0,0l0.3,0v0L85.3,50.1
							L85.3,50.1L85.3,50.1z"/>
						<path d="M-33.1,31.2C-33.2,31.2-33.2,31.2-33.1,31.2C-33.2,31.2-33.2,31.2-33.1,31.2c-0.1,0-0.1,0-0.1,0c0,0,0,0,0,0
							c0,0,0,0,0,0c-0.1,0-0.3,0-0.4,0l0,0c-0.2,0-0.4,0-0.6,0.1l-0.2,0l-0.3,0.1c-0.2,0.1-0.5,0.2-0.7,0.3c0,0,0,0,0,0
							c-0.1,0.1-0.2,0.1-0.3,0.2l1.4,1.5l0,0l0,0c0,0,0,0,0,0c0.1,0,0.2-0.1,0.3-0.1c0.1,0,0.1,0,0.1,0c0,0,0,0,0,0l0,0l0,0l0-0.1
							l0,0l0,0L-33.1,31.2z"/>
						<path d="M12.7,128.5l-1.1,0.7L12.7,128.5l-1.1,0.7l0,0l0,0l0,0l0,0L12.7,128.5c-0.1-0.1-0.2-0.2-0.4-0.3c0,0,0,0,0,0
							c0,0,0,0,0,0c-0.7-0.4-1.6-0.5-2.6-0.1l-0.2,0.1l-0.2,0.1c-0.7,0.5-1.1,1.1-1.1,1.7v0c0,0,0,0,0,0s0,0,0,0l0,0
							c0,0.1,0,0.2,0,0.3l1.3-0.4c0,0,0,0,0,0c0,0,0,0,0,0l1-0.3l0,0.1l-0.1,0c0,0-0.1,0-0.1,0l0,0c0,0,0,0,0,0c0,0,0,0,0,0l0,0v0
							l0.3-0.2l0,0l0,0l-0.2,0.1l0,0l0,0l0,0l0.3-0.2l0,0l0,0c0,0,0,0.1,0,0.1c0,0,0,0,0,0c0,0,0,0,0,0c0,0,0,0,0.1-0.1h0
							c0,0,0,0,0,0l0,0l0,0l0.7-0.4L12.7,128.5z"/>
						<path d="M175.9,30.1c-0.5-0.6-1.1-0.9-1.6-1.1c0,0,0,0,0,0s0,0,0,0c-0.9-0.3-1.8-0.2-2.5,0c0,0,0,0,0,0
							c-0.2,0.1-0.4,0.1-0.7,0.2l0.5,0.8l0,0l0,0l0.5,0.9c0.1,0,0.2-0.1,0.3-0.1c0.2-0.1,0.6-0.1,1.2,0.5c0,0.1,0,0.1,0,0.2l0,0l0,0
							l0,0l2.4,0.5l0,0c0-0.1,0.1-0.1,0.1-0.2c0,0,0,0,0,0l0,0c0,0,0,0,0,0c0.2-0.4,0.2-0.9,0-1.4L175.9,30.1L175.9,30.1z"/>
						<path d="M248.1,47.4C248,47.4,248,47.3,248.1,47.4C248,47.3,248,47.3,248.1,47.4c-0.1-0.1-0.1-0.1-0.2-0.1
							c-0.1-0.1-0.3-0.2-0.4-0.3l-1.7,1.8c0.1,0,0.1,0.1,0.2,0.1c0.1,0.1,0.2,0.1,0.3,0.2L248.1,47.4
							C248.1,47.4,248.1,47.4,248.1,47.4C248.1,47.4,248.1,47.4,248.1,47.4z"/>
						<path d="M23.9,131.9C23.9,131.9,23.9,131.9,23.9,131.9L23.9,131.9c0,0.1-0.1,0.1-0.1,0.2c-0.1,0.2-0.2,0.3-0.3,0.6l2.6,0.1
							c0,0,0-0.1,0-0.1c0,0,0,0,0,0c0,0,0-0.1,0-0.1c0.1-0.1,0.2-0.3,0.2-0.4l0,0l0,0L23.9,131.9z"/>
						<path d="M-13.1,81.5c0.1,0.1,0.1,0.2,0.2,0.2c0,0,0,0,0,0c0,0,0,0,0,0c0,0,0.1,0,0.1,0.1l0,0l1-0.8c0,0,0,0,0,0c0,0,0,0,0,0
							l1-0.8l-1.3,0.4l0,0l0,0l-1.3,0.4C-13.2,81.2-13.2,81.4-13.1,81.5z"/>
						<path d="M164.9,120.9C164.9,120.9,164.9,120.9,164.9,120.9L164.9,120.9c0-0.1,0-0.2,0-0.3l0-0.2l0,0l0,0l-0.9,0.1l0.3-1l0,0
							l0,0c-0.1,0-0.3,0-0.4,0l-1.6,0.1l-0.1,1.2c0,0.1,0,0.2,0,0.3v0c0,0,0,0,0,0c0,0.1,0,0.2,0,0.4l1.2-0.2l-0.1,0.2c0,0,0,0,0,0
							c0,0,0,0,0.1,0c0,0,0.1,0,0.2,0c0,0,0,0,0,0c0,0,0,0,0,0c0,0,0,0,0,0c0,0,0.1,0,0.1,0l0.1-0.3l1-0.2
							C164.9,121,164.9,121,164.9,120.9z"/>
						<path d="M123,30.2l0.2-0.1l0-0.1L123,30.2L123,30.2l0.1-0.2c-0.2-0.2-0.5-0.4-0.8-0.5h0c0,0,0,0,0,0c0,0,0,0,0,0c0,0,0,0,0,0
							c0,0,0,0,0,0l0,0c0,0,0,0,0,0l0,0c0,0,0,0,0,0l0,0v0c-0.2,0-0.3-0.1-0.5-0.1c-0.5,0-1,0.1-1.5,0.4l-0.7,0.4l0,0.6
							c0,0,0,0.1,0,0.2c0,0.2-0.1,0.4,0,0.6l0,0l1.2-0.3l0,0c0.1,0,0.2,0.1,0.3,0.1c-0.1,0-0.2-0.1-0.2-0.1l0.4-0.1l-0.1,0.2l0,0
							c0,0,0,0,0,0c0,0,0,0,0,0l0.1-0.2l0.2,0l0.2,0.2c0,0,0,0-0.1,0c-0.1,0-0.2,0-0.3,0c0,0-0.1,0-0.1,0c0.3,0.1,0.6,0.1,0.9,0
							C122.6,31.2,123.1,30.7,123,30.2z"/>
						<path d="M188.4-22.3C188.4-22.3,188.4-22.3,188.4-22.3C188.4-22.3,188.4-22.3,188.4-22.3c0,0-0.1,0-0.1-0.1c0,0,0,0,0,0
							l0.4-0.2l0.1,0.2l-0.1-0.2l0.9-0.3l0,0l0,0l1.3-0.5c-0.3-0.6-1-1-2.1-1l-0.3,0l-7.3,2.1l7-0.1
							C188.3-22.3,188.4-22.3,188.4-22.3z"/>
					</g>
				</g>
			</g>
		</g>
	</mask>
	<g class="st2">
		<path class="st3" d="M212.1,7.9L8.7,67.5c-0.6,0.2-0.9,0.8-0.8,1.4L27,134.2c0.2,0.6,0.8,0.9,1.4,0.8l203.4-59.6
			c0.6-0.2,0.9-0.8,0.8-1.4L213.5,8.7C213.3,8.1,212.7,7.7,212.1,7.9z M229.6,73.2L29.2,132L10.9,69.7l200.4-58.7L229.6,73.2z
			 M209.9,0.4L6.5,60C1.7,61.4-1,66.4,0.4,71.2l19.1,65.3c1.4,4.8,6.4,7.5,11.2,6.1l203.4-59.6c4.8-1.4,7.5-6.4,6.1-11.2L221.1,6.5
			C219.7,1.7,214.7-1,209.9,0.4z M234.1,73.5c0.4,1.4-0.4,2.9-1.8,3.3L28.9,136.4c-1.4,0.4-2.9-0.4-3.3-1.8L6.5,69.4
			c-0.4-1.4,0.4-2.9,1.8-3.3L211.7,6.5c1.4-0.4,2.9,0.4,3.3,1.8L234.1,73.5z"/>
		<g>
			<path class="st3" d="M66.5,64.7l3.6,12.4l-7.4,2.2c-0.7-1.2-1.6-2.1-2.9-2.8c-1.3-0.7-2.5-0.8-3.7-0.5c-0.7,0.2-1.2,0.6-1.5,1
				c-0.3,0.5-0.3,1.1-0.1,1.8c0.1,0.5,0.5,0.8,1,1.1c0.5,0.2,1.1,0.4,1.9,0.4c0.7,0.1,1.6,0.1,2.5,0.1c0.9,0,2,0,3,0.1
				c1.1,0.1,2.2,0.1,3.2,0.3c1.1,0.1,2.2,0.4,3.3,0.9c1.1,0.4,2.1,1,3.1,1.7c1,0.7,1.8,1.7,2.7,2.9c0.8,1.2,1.5,2.7,2,4.3
				c0.5,1.6,0.7,3.3,0.6,5c-0.1,1.7-0.5,3.3-1.1,4.8c-0.6,1.5-1.6,2.8-2.8,4c-1.3,1.2-2.7,2-4.4,2.5c-1.7,0.5-3.2,0.7-4.5,0.6
				c-1.3-0.1-2.7-0.5-4.3-1.2l-0.2,2.5l-7.8,2.3l-3.7-12.5l7.7-2.3c0.8,1,1.8,1.9,3.1,2.4c1.3,0.6,2.6,0.7,3.8,0.3
				c0.7-0.2,1.3-0.6,1.7-1.1c0.4-0.5,0.5-1.1,0.3-1.8c-0.2-0.5-0.5-1-0.9-1.3c-0.5-0.3-0.9-0.5-1.4-0.5c-0.5-0.1-1-0.1-1.6-0.1
				c-1,0-1.9,0-2.7,0c-0.8,0-1.6-0.1-2.6-0.2c-0.9-0.1-1.7-0.2-2.4-0.3c-0.7-0.1-1.5-0.4-2.2-0.6c-0.8-0.3-1.5-0.6-2.1-0.9
				c-0.6-0.4-1.2-0.8-1.8-1.3c-0.6-0.5-1.1-1.1-1.6-1.8c-0.5-0.7-0.9-1.4-1.3-2.3c-0.4-0.9-0.8-1.8-1.1-2.9
				c-1.1-3.8-1.1-7.1,0.1-9.9c1.2-2.8,3.6-4.7,7.2-5.8c3.1-0.9,5.8-0.9,8.1,0c0-0.2,0.1-0.8,0.3-1.7L66.5,64.7z"/>
			<path class="st3" d="M118.3,70.9c1.1,3.8,1.2,7.4,0.4,11c-0.8,3.6-2.5,6.7-5,9.3c-2.5,2.6-5.6,4.5-9.3,5.6
				c-3.7,1.1-7.3,1.2-10.8,0.3c-3.5-0.9-6.6-2.6-9.2-5.2c-2.6-2.6-4.5-5.7-5.6-9.5c-1.2-4.1-1.4-8-0.6-11.6c0.8-3.6,2.5-6.6,5-9.1
				c2.5-2.5,5.6-4.3,9.5-5.4c3.8-1.1,7.3-1.3,10.8-0.5c3.4,0.7,6.5,2.4,9.1,5C115.1,63.3,117,66.7,118.3,70.9z M102,88.4
				c0.6-0.2,1.2-0.5,1.6-0.8c0.4-0.4,0.8-0.8,1-1.2c0.2-0.5,0.4-1,0.5-1.6c0.1-0.6,0.2-1.2,0.1-1.8c0-0.6-0.1-1.3-0.2-1.9
				c-0.1-0.7-0.2-1.3-0.4-1.9c-0.2-0.6-0.3-1.3-0.5-1.9c-0.2-0.6-0.3-1.2-0.5-1.7c-0.1-0.3-0.2-0.6-0.2-0.7
				c-0.1-0.2-0.1-0.5-0.2-0.8c-0.2-0.6-0.4-1.2-0.5-1.8c-0.2-0.6-0.4-1.3-0.7-2c-0.3-0.7-0.6-1.3-0.8-1.9c-0.3-0.6-0.7-1.2-1.1-1.7
				c-0.4-0.5-0.9-0.9-1.3-1.2c-0.5-0.3-1-0.5-1.7-0.6c-0.6-0.1-1.3,0-2,0.2c-0.6,0.2-1.2,0.4-1.6,0.8c-0.4,0.3-0.8,0.7-1,1.2
				c-0.2,0.4-0.4,0.9-0.5,1.5c-0.1,0.5-0.2,1.1-0.2,1.7c0,0.6,0.1,1.2,0.1,1.8c0.1,0.6,0.2,1.2,0.3,1.8c0.2,0.6,0.3,1.2,0.4,1.7
				c0.1,0.6,0.3,1.1,0.5,1.6c0.1,0.4,0.2,0.7,0.2,0.8c0,0.2,0.1,0.4,0.2,0.7c0.2,0.5,0.3,1,0.4,1.5c0.1,0.5,0.3,1.1,0.5,1.6
				c0.2,0.6,0.4,1.1,0.6,1.7c0.2,0.5,0.5,1.1,0.7,1.6c0.3,0.5,0.6,1,0.9,1.4c0.3,0.4,0.6,0.8,1,1.2c0.4,0.3,0.8,0.6,1.2,0.8
				c0.4,0.2,0.9,0.3,1.4,0.3C100.9,88.6,101.4,88.5,102,88.4z"/>
			<path class="st3" d="M142.9,75.3l4.6-1.3l-0.4-9l6.9-2l5,17l-30.6,9l-2.6-8.6l3.4-1l-6.4-21.9l-3.5,1l-2.5-8.5l20.9-6.1l2.5,8.5
				l-3.7,1.1L142.9,75.3z"/>
			<path class="st3" d="M161,70l3.9-1.1L158.5,47l-4.1,1.2l-2.5-8.5l20-5.8c6.6-1.9,12-1.7,16.3,0.6c4.3,2.3,7.3,6.7,9.2,13
				c0.8,2.6,1.1,5.2,0.9,7.8c-0.2,2.6-0.9,5.1-2,7.4c-1.1,2.3-2.8,4.4-5.1,6.2c-2.3,1.8-5.1,3.2-8.3,4.2l-19.3,5.7L161,70z
				 M178.9,64.8c1.2-0.3,2.1-0.9,2.9-1.6c0.8-0.7,1.3-1.5,1.6-2.4c0.3-0.9,0.5-1.9,0.5-3c0-1.1,0-2.1-0.2-3.1c-0.2-1-0.4-2-0.7-3.1
				c-0.3-1.1-0.7-2.1-1-3c-0.4-0.9-0.8-1.8-1.4-2.7c-0.6-0.9-1.2-1.7-1.9-2.2c-0.7-0.6-1.6-0.9-2.6-1.1c-1-0.2-2.1-0.1-3.3,0.2
				l-1.1,0.3l6.4,21.9L178.9,64.8z"/>
		</g>
	</g>
</g>
</svg>
